<svg width="800" height="347" viewBox="0 0 800 347" fill="none" xmlns="http://www.w3.org/2000/svg"><path d="M147.4 340.8a37.4 37.4 0 1 1 0-74.8 37.4 37.4 0 0 1 0 74.8z" stroke="#09265E" stroke-width="11" stroke-miterlimit="10"/><path d="M147.4 312.2a8.9 8.9 0 1 1 0-17.7 8.9 8.9 0 0 1 0 17.7z" fill="#09265E"/><path d="m161.7 268.8-14.3 34.6-34.6-14.3m20.3 48.9 14.3-34.6 34.5 14.3" stroke="#09265E" stroke-width="3" stroke-miterlimit="10"/><path d="m182 289-34.6 14.4-14.3-34.5m-20.2 48.8 34.5-14.3 14.3 34.5" stroke="#09265E" stroke-width="3" stroke-miterlimit="10"/><path d="M33.8 284.3v-39.7" stroke="#09265E" stroke-width="1.3" stroke-miterlimit="10"/><path d="M18.6 267H49v20.7H18.6V267zM800 156.1v-12.6l-44.7-3.6c-33.2-2.5-66.4-4.3-99.5-8-14.7-1.5-29.1-6.7-43.7-10.2-3.6-.8-7.4-1.4-11-1.4-108.1 0-216.2-.5-324.3.3-31 .2-61.8 4.2-92.7 6.5l-37.3 2.8c11.8 9.5 22.2 17.8 32.7 26 1.2.8 3.4.4 5.1.4h611c1.2 0 2.4 0 4.4-.2zM177.7 189l54.9 39.2H116v24h684v-23.7H318.3a242 242 0 0 1-133.4-39l-5.5-3.2-1.7 2.7z" fill="#09265E"/><path d="M799.9 204.5v-23.7H218.5c18 9.5 35.1 15.7 53 18.8a286 286 0 0 0 46.1 4.7c158.4.3 316.7.2 475.1.2h7.2zM581.2 96.2c-26-28.8-50.4-56.2-75.4-83.2A42 42 0 0 0 474 0H333c-5.2 0-11.5 6.8-11.5 12.1 0 5.5 6.3 12 11.6 12 34.3 0 68.5.1 102.8-.1 7-.1 11.7 2.3 16 7.6 16.3 20 33 39.6 49.3 59.5 3 3.6 5.9 5.3 10.7 5.3 22.4-.3 44.9-.2 69.3-.2zm-213.7-.6V48.1l-39.7.1c-1.6 0-3.6 1.5-4.8 2.9l-37.2 44.5h81.7z" fill="#09265E"/><path d="M392 48.1v47.7h81.6l-5.8-7.3c-10-12-20-24.2-30.3-36.2-1.6-1.9-4.2-4-6.5-4-12.7-.4-25.4-.2-39-.2zm347.7 36.1h-51.5c-1.7.1-3.9 1-5.2 2.3-7 6.6-13.8 13.5-22.4 22l79.1 6.2V84.2zM0 228.2h123v24H0v-24z" fill="#09265E"/><path d="M596.4 340.8a37.4 37.4 0 1 1 0-74.8 37.4 37.4 0 0 1 0 74.8z" stroke="#09265E" stroke-width="11" stroke-miterlimit="10"/><path d="M596.4 312.2a8.9 8.9 0 1 1 0-17.7 8.9 8.9 0 0 1 0 17.7z" fill="#09265E"/><path d="m610.7 268.8-14.3 34.6-34.6-14.3" stroke="#09265E" stroke-width="3" stroke-miterlimit="10"/><path d="m582.1 338 14.3-34.6 34.5 14.3m.1-28.7-34.6 14.4-14.3-34.5" stroke="#09265E" stroke-width="3" stroke-miterlimit="10"/><path d="m561.9 317.7 34.5-14.3 14.3 34.5" stroke="#09265E" stroke-width="3" stroke-miterlimit="10"/><path d="M693.4 340.8a37.4 37.4 0 1 1 0-74.8 37.4 37.4 0 0 1 0 74.8z" stroke="#09265E" stroke-width="11" stroke-miterlimit="10"/><path d="M693.4 312.2a8.9 8.9 0 1 1 0-17.7 8.9 8.9 0 0 1 0 17.7z" fill="#09265E"/><path d="m707.7 268.8-14.3 34.6-34.6-14.3" stroke="#09265E" stroke-width="3" stroke-miterlimit="10"/><path d="m679.1 338 14.3-34.6 34.5 14.3m.1-28.7-34.6 14.4-14.3-34.5" stroke="#09265E" stroke-width="3" stroke-miterlimit="10"/><path d="m658.9 317.7 34.5-14.3 14.3 34.5" stroke="#09265E" stroke-width="3" stroke-miterlimit="10"/></svg>