<svg width="1200" height="400" viewBox="0 0 1200 400" fill="none" xmlns="http://www.w3.org/2000/svg"><path d="M197.9 295.5c1.3 0 2.7.5 3.8 1.3a55 55 0 0 0-36.2-36.4 6 6 0 0 1 1.2 3.7c0 3.7-3 6.7-6.7 6.7h-21.2a6.7 6.7 0 0 1-5.4-10.5 55 55 0 0 0-36.3 36.2 6.7 6.7 0 0 1 10.3 5.5v21.2a6.6 6.6 0 0 1-10.4 5.5 55 55 0 0 0 36.2 36.3c-.7-1-1.2-2.3-1.2-3.7 0-3.6 3-6.6 6.7-6.6h21.2a6.7 6.7 0 0 1 5.4 10.4 55 55 0 0 0 36.3-36.2 6.7 6.7 0 0 1-10.3-5.5v-21.2a6.6 6.6 0 0 1 6.6-6.7zM149.3 342a29.3 29.3 0 1 1 0-58.5 29.3 29.3 0 0 1 0 58.5z" fill="#09265E"/><path d="M149.3 337.8a25 25 0 1 0 0-50.2 25 25 0 0 0 0 50.2z" fill="#09265E"/><path d="M149.3 225.7a87 87 0 1 0 0 173.9 87 87 0 0 0 0-174zm0 146a59 59 0 1 1 .2-118 59 59 0 0 1-.2 118zm1016.2-217.4-.3 1.2c-1.7 7-2.7 14.3-3.2 21.6-.5 6.7-1 14.2 1.5 20.6 2.3 6 7.7 6.3 12.8 5.2-.1-16.8-1-51-3.2-64-4.6 2.5-6.3 10-7.5 15.4zm-1116.7.8h204.7c1.4-27.3 7.5-46.8 13-59l-2.7 2.1c-7.5 5.2-20.4 7-20.4 7s-28.8.7-83.1 5.9c-54.4 5.2-101.7 15.1-123.2 24.2-14.2 6-19 14.7-20.6 19.8h32.3zM1165.5 242a48 48 0 0 0-.5 2.2h35c0-11.4-4.4-13.3-4.4-13.3h-19.2c-4 1.7-9.6 4.9-11 11.1zm-484.3 83.3H666v9.8h15v-9.8z" fill="#09265E"/><path d="M1172.2 207.8a12 12 0 0 1-11.9-8.4c-2.8-7.5-2.3-16-1.8-23.4a152 152 0 0 1 3.3-23.3l.4-1.4c1.3-6.1 3.5-16 9.9-19a45 45 0 0 0-3.2-7.8 85.2 85.2 0 0 0-22-25.8H691.6c-2.2-20-7.8-66.9-11-81.4C677.7 4 666.7 1.1 660.6.6c3.7 47.9 14.7 205.4 8.8 300h201.2a93 93 0 0 1 184.3 0h41.3c6.3 0 11.1-15.7 11.1-15.7h40.5c6.2 0 6.4-5.9 6.4-5.9h.3a1053 1053 0 0 1 7.7-39.2c1.6-7 7.4-10.7 12-12.7.8-3.5 2-9.4 2-14.2v-5.7c-1.4.4-2.7.6-4 .6zm-64.9 53.7-.5.1c-.8 0-1.5-.5-1.6-1.3-28-98.6-54-118.6-154-118.6-41.4 0-74.3 17.7-97.9 52.6-17.5 26-23 52.5-23 52.7-.2 1.1-1.1 1.7-2 1.5-1-.2-1.6-1.2-1.3-2.3.2-1.1 5.6-27.4 23.5-54.1a117.2 117.2 0 0 1 100.7-54.2c102.2 0 128.6 20.4 157.3 121.2.2 1-.3 2.1-1.2 2.4zM23.7 233.6c.5-9 4.2-18.4 8.6-26.2L22 196.2v-25.4h23.3v-11.9H15.7v.5l1.4 74.2h6.6z" fill="#09265E"/><path d="M270.7 283.2c-5.5-8.6-16.5-52-17.5-113.2v-11H48.9v30.7l-.4.6c-.3.2-21.3 24.4-21.3 45.2v2H12.4a79.3 79.3 0 0 0-8.5 6.4c-7 6.1-.7 37.7 2.6 49.3 2.7 9.6 15.8 12.3 20.3 13l1.3.1h.3a137.8 137.8 0 0 0 28 4 93 93 0 1 1 185.5 11.4l6 .2h21.4s1.3-12 15-18a712.1 712.1 0 0 1-13.6-20.7zm-42.6-73.6c-.4.5-1.2.8-2 .8l-1.2-.3c-55.3-25-119-12.4-119.7-12.3-1.2.3-2.5-.2-2.8-1.1-.4-1 .3-1.8 1.6-2 .6-.2 66.4-13 123.5 12.7 1 .5 1.3 1.5.6 2.2zM276 325.3h-15v9.8h15v-9.8z" fill="#09265E"/><path d="M34.1 204c4.8-8 9.7-14 11.3-15.8v-13.6h-20v20l8.7 9.4zM1158 282.5c8 .3 26.5.7 30.3 0 4.8-1.1 9.8-16.4 11.5-32.7v-1.5h-35.6c-2.3 11.1-5.2 28.1-6.3 34.2zm-492.1 18.1c6-94.6-5-252.7-8.7-300.1H498v300h138.5v24.3h-151v-24.2h9V.6h-19.3s-66.1 1.6-88.1 7.7-35.6 19.6-35.6 19.6-55.7 45-78.7 63.2c-6.4 12.1-16.8 38.1-16.1 78.9.8 60.3 11.6 102.8 16.9 111.1 3.4 5.5 9.8 15.2 14 21.7a43 43 0 0 1 13.4-2v24h-23.2v10.3h386.5V325h-10.1v-24.3h11.7zm-49.4-148.8h-24.6c-6.3 0-11.4-3.5-11.4-8 0-4.4 5.1-8 11.4-8h24.7c6.3 0 11.4 3.6 11.4 8 0 4.5-5.2 8-11.5 8zm16.2-57c0 8.6-6.3 15.6-14.2 15.6h-88.8c-7.8 0-14.2-7-14.2-15.6V32c0-8.6 6.4-15.6 14.2-15.6h88.9c7.8 0 14.2 7 14.2 15.6v62.8zM468 324.8H318.6v-24.2h149.3v24.2zm-49-181c0-4.3 5-8 11.4-8H455c6.3 0 11.4 3.6 11.4 8 0 4.5-5 8.1-11.4 8.1h-24.6c-6.3 0-11.4-3.6-11.4-8zm55-39.3c-1.8 6.5-9.4 6.5-13 6.5h-69.1c-6.4.7-24.3 3.3-28.7 8.4-6.3 7.2-25 10.2-25.7 10.3h-45l-.4-.4c-.4-.3-8.7 3-9.3-8.7a41.8 41.8 0 0 1 9-26.7l1.3-1.4c6.8-7.2 38.5-40.3 76.7-60.8 4.3-2.5 8.5-4.7 12.5-6.3 34.3-14.1 83.3-7.7 85.4-7.5.7 0 6.5 1.3 6.5 16 0 21.6.2 33 .3 54.3l.1 11.2c0 1.6 0 3.4-.6 5.1z" fill="#09265E"/><path d="M463 143.9c0-3-3.6-5.6-8-5.6h-24.6c-4.4 0-8 2.5-8 5.6 0 3 3.6 5.5 8 5.5H455c4.4 0 8-2.5 8-5.5zm153.5-5.6h-24.6c-4.4 0-8 2.5-8 5.6 0 3 3.6 5.5 8 5.5h24.7c4.3 0 7.9-2.5 7.9-5.5s-3.6-5.6-8-5.6zm394.8 157.2c1.3 0 2.7.5 3.8 1.3a55 55 0 0 0-36.2-36.4 6 6 0 0 1 1.2 3.7c0 3.7-3 6.7-6.7 6.7h-21.2a6.7 6.7 0 0 1-5.4-10.5 55 55 0 0 0-36.3 36.2A6.7 6.7 0 0 1 921 302v21.2a6.7 6.7 0 0 1-10.5 5.5 55 55 0 0 0 36.2 36.3c-.8-1-1.2-2.3-1.2-3.7 0-3.6 3-6.6 6.7-6.6h21.2a6.7 6.7 0 0 1 5.4 10.4 55 55 0 0 0 36.3-36.2 6.7 6.7 0 0 1-10.4-5.5v-21.2c0-3.7 3-6.7 6.7-6.7zM962.7 342a29.3 29.3 0 1 1 .2-58.5 29.3 29.3 0 0 1-.2 58.5z" fill="#09265E"/><path d="M962.7 337.8a25 25 0 1 0 0-50.2 25 25 0 0 0 0 50.2z" fill="#09265E"/><path d="M962.7 225.7a87 87 0 1 0 .1 173.9 87 87 0 0 0 0-174zm0 146a59 59 0 1 1 .2-118 59 59 0 0 1-.2 118z" fill="#09265E"/></svg>