<svg width="1170" height="494" viewBox="0 0 1170 494" fill="none" xmlns="http://www.w3.org/2000/svg"><path d="M429 94c-1.2-1.1-3.9-1.5-8.3-1.5l-10 .3-8.3.3c-20.5.6-42.3 5.6-66.8 15.4-16.5 6.6-88.2 73.5-90.5 77.1-2.5 4.1-1.5 40.3.3 43.8 1.2 2.1 13.8 9 25.5 14.5 37.6-2.9 86.5-16.9 112.8-24.4 7.5-2.1 13.4-3.8 16.7-4.6 13.7-3.2 18-16.1 18.5-17.4.5-4 10.4-87.8 11-97.9.1-3.2-.2-4.8-1-5.6zm-2.8 10.5c-.5 9.7-10.4 91.4-10.4 91.4s-4.1 14-18.6 17.4c-14.4 3.4-77.6 23.7-123.6 27 0 0-23.2-10.6-25.1-14.2-2-3.5-2.3-33.5.6-38 3-4.5 71.3-69.2 87-75.4 15.8-6.2 37.7-15 62.6-15.8 24.9-.7 28-2.2 27.5 7.6zM300 414.5a1.5 1.5 0 0 1-1.3 1.7l-16 2.5v.3h147.2v-26.4l-133.4 4a178 178 0 0 1 3.5 17.9zm869.8-55.5a5.1 5.1 0 0 0-3-4.5s-1.6-20.2-2.4-23.2c-.4-1.7-2.7-3-4.7-3.9l-2.6.5c-2.8.5-5.5.8-8.3.8-16.4 0-20.5-10-20.6-10.5l-.1-.5-1.6-104.3a1.5 1.5 0 0 1 .6-1.2l.3-.3-20.2-16.9-.4-.5-.1-.6c0-.6-4-68.7-10.4-131.7-2.3-23-4.8-38.6-7.1-49-19.7.3-175 3-333.1 8l2.4 38.8 192.8-3.2-.3-6.4a1.5 1.5 0 0 1 1.5-1.5 1.6 1.6 0 0 1 1.5 1.4l.3 6.5 116.4-2c10 0 13.7 10.4 14.3 16l7.4 79.8c.6 1.8 2.7 11.8-16.6 27.5a127.8 127.8 0 0 1-45.6 22.4h-.4l-69.8 1.8.2 2.9a1.5 1.5 0 0 1-1.5 1.5 1.5 1.5 0 0 1-1.5-1.4l-.1-3-194.9 4.9-.2 10.8c-2.5 96.2-3.9 117-3.9 117.2 0 .2.2 17 0 38.1 0 2.3 0 4.5-.2 6.6l100.5-2.9c1.9-5.6 4.1-11 6.7-16.4 15.5-32 40.5-50.5 72.1-53.6 76.1-7.3 102.5 42 102.7 42.5 3.8 6.8 6.8 14 9.1 21.5h72.1a1.5 1.5 0 0 1 1.2.4 1.5 1.5 0 0 1 .3 1.7 1.5 1.5 0 0 1-1.5.9H1050a188.9 188.9 0 0 1 6 27.7c0 .2 0 .4-.2.6l-.5.4h-24.4c1.3 5 2 9.9 2.2 14.9h5.3l26.2-3.8 15 3.8h49l1.7-4.8 19.9 1.5c2.5.3 7.6-10 7.6-10h12s.2-41.7 0-45.2z" fill="#09265E"/><path d="m1139.8 291.1 16 9-1.9-45.4-17.7-8 3.5 44.4z" fill="#09265E"/><path d="m1130.6 213.1-1 1 1.4 103.2c.8 1.6 6 11 25.5 7.7h.2l-.8-21.4-18.3-10.2-.5-.5a1 1 0 0 1-.3-.7l-3.8-47.8c0-.2 0-.5.2-.7 0-.3.2-.5.5-.6a1.5 1.5 0 0 1 1.4-.2l18.7 8.5-2-48.4h-8.7l-12.5 10.1zM313.8 88.8l-9.2-.6c-22 20-86.4 78.7-116 106 7-4.5 15-10 22.8-16a3362 3362 0 0 0 102.4-89.4z" fill="#09265E"/><path d="m1109.6 193.1 20.1 16.9 11.9-9.6c.2-.3.6-.4 1-.4h9.1v-1s-9.1-140.5-17.3-169.6c-8.1-29-43.3-29-43.3-29h-2.1c3 9.5 6.8 27.5 10.3 61.5 6.1 59.8 9.9 124.1 10.3 131.2zM432.9 419h24l2.5-26.6v-.6l-26.5.8V419zm29.6-27.3-.1 1c-.8 7.7-1.8 18.4-2.4 26.2h288.7l2.2-9.7c2-8.6 3.3-17.4 3.8-26.2l-292.2 8.7zm-3.2-45.3-.3-.9v-49.1a744 744 0 0 1-17.6 11c-8.2 5-10 13.3-10.7 21.5-.6 6 2 14.4 3.4 19.6.6 2 1 3.3 1.1 4.1.4 2.4-1.5 28.5-2.1 37l26.6-.8c.6-4.8 1.6-13.8 3.2-22.1a30 30 0 0 0-3.6-20.3zM799.7.4l-45 .5 1.2 16.8c150.5-2.3 313-4.3 333.3-4.5-.9-4.3-2-8.6-3.3-12.8H799.7zM293 395.5c-8.4-31.2-23-47.2-23-47.4a102.8 102.8 0 0 0-43-27v.2l-3.5-1v-.2a98.7 98.7 0 0 0-59 1.3A97.4 97.4 0 0 0 95 399.9h28a76.3 76.3 0 0 1 149.5 19.6l7.3-.3-.1-1.7a1.5 1.5 0 0 1 1.2-1.6l16-2.4c-1-6-2.2-12-3.7-18zm587.6 25.7c0-3.7.3-7.4.8-11.1h-28.9a1.5 1.5 0 0 1-1.4-1v-.7c1.1-9.7 3.2-19.2 6.3-28.5l-99.7 3c-.5 9-1.8 18-4 27l-2 9h76s13.5 16.5 26.2 25.7c12.7 9.1 30.6 5.3 30.6 5.3l-1-7.8c-2-6.8-3-13.8-3-20.9z" fill="#09265E"/><path d="M1037.3 350.9c-.3-.6-25.7-48-99.8-41-31 3-54.4 20.5-69.7 52-2.4 5-4.6 10.2-6.4 15.6.2.2.4.6.4 1a1.5 1.5 0 0 1-1.2 1.4c-3 8.9-5 18-6.4 27.2H882a76.3 76.3 0 0 1 148.2-7.2h22.8c-5-30.8-15.5-48.8-15.6-49zm-841.2 24.9a45.5 45.5 0 1 0 .1 91 45.5 45.5 0 0 0 0-91zm28.9 16.5c3.5 3.6 6.4 7.7 8.6 12.3l-9.4 3.5-7.5-7.5-7.5-7.6 3.5-9.3a44 44 0 0 1 12.4 8.6h-.1zm-11.9 38a3 3 0 1 1-1.8-2.9 3 3 0 0 1 1.9 2.8zm-35.6-8a3 3 0 1 1 1.1 2.3 3 3 0 0 1-1-2.4h-.1zm10.6-16.6a3 3 0 1 1 3 3 3 3 0 0 1-3-3zm3 28.5a3 3 0 0 1 2.2 5.2 3 3 0 1 1-2.2-5.2zm-.3-10.2a6 6 0 1 1 2.2 2.3 6 6 0 0 1-2.2-2.4zm15.7-12.7a3 3 0 1 1 2 2.8 3 3 0 0 1-2-2.8zm-10.4-31c5 0 10 1 14.8 2.7l-4.2 9h-21.2l-4.2-9c4.8-1.8 9.8-2.7 14.8-2.7zm-29 12a44 44 0 0 1 12.4-8.5l3.5 9.3-7.5 7.5-7.6 7.5-9.3-3.4c2.1-4.6 5-8.8 8.6-12.4zM155.6 426a41.2 41.2 0 0 1 2.4-19.4l9 4.1V432l-9 4a43 43 0 0 1-2.4-10zm11.7 24.3a43.9 43.9 0 0 1-8.6-12.3l9.3-3.5 7.6 7.5 7.5 7.5-3.5 9.4a44.3 44.3 0 0 1-12.3-8.7zm28.9 12c-5 0-10-.9-14.8-2.6l4.1-9h21.3l4.2 9a44 44 0 0 1-15 2.3v.1zm28.9-12a43.8 43.8 0 0 1-12.4 8.6l-3.4-9.4 7.5-7.5 7.5-7.5 9.3 3.5c-2 4.5-5 8.7-8.4 12.2h-.1zm9.4-14.2-9-4.2v-21.2l9-4.2c1.7 4.8 2.6 9.8 2.6 14.8v.3c0 5-1 9.8-2.6 14.5z" fill="#09265E"/><path d="M268.5 419.7a72.4 72.4 0 1 0 0 1.5v-1.5zm-25.5 1.5a47 47 0 0 1-93.8 0 47 47 0 0 1 93.9 0zm759.3-1.6a45.4 45.4 0 1 0-90.8 3 45.4 45.4 0 0 0 90.8-3zm-16.5-27.3a42 42 0 0 1 8.6 12.3l-9.3 3.5-7.5-7.6-7.6-7.5 3.5-9.3a44 44 0 0 1 12.3 8.6zm-11.8 38a3 3 0 1 1-3-3.1 3 3 0 0 1 3 3zm-35.7-8a3 3 0 0 1 6-.7 3 3 0 0 1-3 3.7 3 3 0 0 1-3-3zm10.6-16.6a3 3 0 1 1 1.9 2.8 3 3 0 0 1-2-2.8zm3 28.5zm.2-9.4zm15.2-13.5a3 3 0 1 1 2 2.8 3 3 0 0 1-2-2.8zm-10.4-31c5 0 10 1 14.8 2.6l-4.1 9h-21.4l-4.1-9a44 44 0 0 1 14.8-2.6zm-28.8 12a44 44 0 0 1 12.3-8.6l3.4 9.4-7.5 7.5-7.5 7.5-9.3-3.5c2-4.5 5-8.7 8.5-12.3zm-11.4 36.1a40.7 40.7 0 0 1 2-22l9 4.2v21.3l-9 4c-1-2.4-1.7-5-2-7.5zm11.4 21.8a43.7 43.7 0 0 1-8.6-12.4l9.3-3.4 7.5 7.5 7.5 7.5-3.4 9.3c-4.6-2-8.8-5-12.4-8.6zm28.8 12c-5 0-10-1-14.7-2.6l4.1-9h21.3l4.1 9A43.8 43.8 0 0 1 957 462v.1zm29-12a43.8 43.8 0 0 1-12.4 8.5l-3.5-9.3 7.6-7.5 7.5-7.5 9.3 3.4c-2.1 4.6-5 8.8-8.6 12.3zM995 436l-9-4.2v-21.2l9-4.2c1.6 4.4 2.5 9 2.7 13.7v1.2c0 5-1 10-2.7 14.7z" fill="#09265E"/><path d="M1029.2 417.6a72 72 0 0 0-76-68.7 72.4 72.4 0 1 0 76 68.7zm-72.3 50.5a47 47 0 0 1-46.9-46.9 47 47 0 0 1 93.8-1.8v1.8a47 47 0 0 1-46.9 47zM1089.6 152l-.1-.4-7.5-80c0-.5-1.5-13.2-11.3-13.2l-116.3 2H944l-185.5 3.3h-3l-247.8 4.2h-.3c-2 0-15.5.5-16.9 13.3-1.5 14.8-6.8 110-6.8 111 0 .2-1.4 11.5 3.6 17.1a9.6 9.6 0 0 0 7.6 3.2c12.8 0 188.4-5.3 247.4-7l22.2-.7 169.8-4.3 25.4-.6 69.8-1.8c2-.5 25.4-6.4 44.3-21.8 19-15.3 15.7-24.1 15.7-24.2zm-19.3 19.8a118.8 118.8 0 0 1-41.5 20.6l-94.5 2.4-169.8 4.3-22.2.6a43144 43144 0 0 1-249 6.9l-1.6-1c-2-2.5-2.6-8.3-2.1-12.7v-.3l.1-2.2a5726 5726 0 0 1 6.7-108.6c.8-7.4 8.7-8 11.1-8h.3l242.5-4.1 14.4-.3 23-.4 156.5-2.7 16-.2 110.5-1.8c4.6 0 5.6 7.9 5.6 8l7.4 80 .3 1.5c0 .6 0 7-13.7 18z" fill="#09265E"/><path d="M759.2 207.3c-26.6.8-249.6 7.5-264.2 7.5a12.6 12.6 0 0 1-9.9-4.1c-5.8-6.7-4.4-19-4.3-19.5 0-.8 5.4-96 6.9-111 1.6-15.8 19-15.9 20-15.8L755.5 60c-.8-14.7-1.6-28-2.4-38.8C593 26.4 430.7 33.9 403.2 44c4.4-1.8 41.2-17.3 92.3-20.7a12002 12002 0 0 1 257.3-5.5L751.6 1c-87 1.2-266.4 4.8-316.7 14.7C367.6 29 312 81.4 312 81.4l-4.4 4 9.9.6a1.5 1.5 0 0 1 .9 2.6c-.9.8-83.6 75.4-105.3 92a363 363 0 0 1-35.9 24l-3.7 3.6c-3.6 4.1-36.7 11.2-36.7 11.2s-86 28.6-101.3 38.8c-15.3 10.1-24 86-24 86v10.5a57 57 0 0 1-8.4.8c-6.8.4 0 50.8 0 55 0 4.2 47.5 25.2 47.5 25.2l59.2 4.2-.8-12.2h11.1a72.2 72.2 0 0 1 2-24.9h-12.2l-94.3.8a1.5 1.5 0 0 1 0-3l76.5-.6a100 100 0 0 1 71.6-81.5 105 105 0 0 1 59.3-1.6l-5.2-31.7c0-.3-2-19.3-3.4-43.4a342 342 0 0 1 .2-40.9 1.5 1.5 0 0 1 2.5-.3c.2.3.4.7.3 1.1-.8 13.3-.8 26.7 0 40 1.3 24 3.3 42.8 3.3 43l5.5 33a107.1 107.1 0 0 1 46 28.4c.7.7 15 16.4 23.6 47.5l115.6-3.4 68.4-2 275-8.2c.2-2.1.2-4.4.3-6.7.2-21.1 0-38 0-38.2 0-.1 1.3-21.1 3.9-117.2l.2-10.6zm-637.3 47.3-3.9 4a94.3 94.3 0 0 0-24.5 39.8l-.1.4-62.1 7.7v-.8c0-1.3-1.5-31.8 16.4-41.2 17.7-9.4 82.3-22.8 85-23.4l2.4-.5-13.2 14zm148.8-7.7-.7-.1c-4.2-2-25-11.9-27.2-16-2.2-4-3.7-41.2-.2-46.8 3.8-6 75.8-71.8 92-78.2 24.7-10 46.9-15 67.7-15.7l8.4-.2c12.5-.5 17.7-.7 20.4 2 1.7 1.7 2 4.3 1.8 8-.6 10.3-10.6 94.5-11 98.1v.3c-.2.6-4.8 15.9-20.8 19.6-3.3.8-9.1 2.4-16.6 4.6-26.5 7.5-75.8 21.6-113.8 24.4zm126.4 10.3c-3.3-.9-3.2-4.7-.4-6.1l.3-.2c1-.4 2.2-.6 3.4-.7 6.6-.6 13.2-1.2 19.9-2 6.4-.8 13-2.4 19.4-2 3 .2 4.7 2.8 2.5 5.3-1.8 2-4.9 2.1-7.3 2.5-4.9.8-31.9 3.5-32 3.5-1.9.2-3.9.2-5.8-.3zM756 72.3l3.2 123.4h5l-4-123.4H756zm195-3 5 120.7h3.8l-4.4-120.7H951z" fill="#09265E"/></svg>