<svg width="417" height="313" viewBox="0 0 417 313" fill="none" xmlns="http://www.w3.org/2000/svg"><path d="M356.6 306.8a37.2 37.2 0 1 1 0-74.4 37.2 37.2 0 0 1 0 74.4z" stroke="#09265E" stroke-width="9.2" stroke-miterlimit="10"/><path d="M356.6 278.4a8.8 8.8 0 1 1 0-17.6 8.8 8.8 0 0 1 0 17.6z" fill="#09265E"/><path d="m370.9 235.2-14.3 34.4-34.4-14.2m20.2 48.6 14.2-34.4 34.5 14.2" stroke="#09265E" stroke-width="3.7" stroke-miterlimit="10"/><path d="m391 255.3-34.4 14.3-14.2-34.4" stroke="#09265E" stroke-width="3.7" stroke-miterlimit="10"/><path d="m322.3 283.9 34.3-14.3L371 304" stroke="#09265E" stroke-width="3.7" stroke-miterlimit="10"/><path d="M42 306.8a37.2 37.2 0 1 1 0-74.4 37.2 37.2 0 0 1 0 74.4z" stroke="#09265E" stroke-width="9.2" stroke-miterlimit="10"/><path d="M42 278.4a8.8 8.8 0 1 1 0-17.6 8.8 8.8 0 0 1 0 17.6z" fill="#09265E"/><path d="M56.3 235.2 42 269.6 7.6 255.4M27.8 304 42 269.6l34.4 14.2" stroke="#09265E" stroke-width="3.7" stroke-miterlimit="10"/><path d="M76.4 255.3 42 269.6l-14.2-34.4M7.6 283.9 42 269.6 56.3 304" stroke="#09265E" stroke-width="3.7" stroke-miterlimit="10"/><path d="M58.4 220.5c-26.6-10.2-39.5 1.3-48 8 0 0-9.2-8 14.7-21.7 0 0 2.7-20 35-40 4-2.2 7.2-2.7 10.3-4.4l44-148.3H89.8v-1.3c8-7.1 18.7-12 29.3-12h207.3a24 24 0 0 1 19.6 12V14h-13.4l14.2 93.2c1.4 0 2.3-.9 2.7-.4 4 2.2 5.8 55.5 8.9 58.6 3.5 3 4.9 3 14.6 3 9.8 0 16.5-1.3 20 4.5a94 94 0 0 1 8.4 24.4s13.8 0 13.8 56.8c0 9.8-17.3-38.1-61.2-38.1-44 0-46.7 47-54.6 51.5-8 4.8-11.6 4-20 4H121.9c-11.1 0-13.8 5.3-20.9-5.4-7-10.6-16-35.5-42.6-45.7zm60.4-206.4L76.2 158.8c8-4.9 13.3-6.6 16.8-8.4L133 14h-14.2zm196.2 0 14.6 94.6c4.5-1 9.4-.5 13.4-.5l-14.7-94.1H315zM121.9 226.3c1.8 4 2.2 7 15 6.2a4210 4210 0 0 1 48.5-2.7l4.4-45.2s-6.7-16 8-17c14.7-.8 25.3-.8 25.3-.8s17.8-20 37.7-20.9c0 0 2.7-.4 6.3-1.7 0 0-1.4-8.5 4-17.8 5.3-8.9 14.6-31 28.8-27.5 0 0 5.8-4.9 11.5-4 5.8.4 11.1 3.1 6.3 13.8 0 0 3 1.3 7 .4l-14.1-95H137.4L98 147.3c1.4-.5 2.2-1.4 2.7-1.4 2.2 0 6.6 6.3 4.9 10.3-1.8 4-4.5 5.7-.5 14.6.5.9 1 1.8 1.4 3.1l55-56-.4-.4 3.5-3.5-3.5-15.6-5.8-5.7 2.6-3.1 35.6 35.5-3.1 3-6.7-6.6-14.7-3-3.5 3.5-.4-.5-56.9 56.9c5 16 12.5 44.8 13.8 47.9z" fill="#09265E"/></svg>