<svg width="340" height="98" viewBox="0 0 340 98" fill="none" xmlns="http://www.w3.org/2000/svg"><g clip-path="url(#a)" fill="#09265E"><path d="M335.6 76v-3.7s-3.4-19-3.7-19.6c-.2-.6-4.5-15.6-6.6-18a15 15 0 0 1-2.8-5.5s11.8-5 11.7-5.7c-.2-.7 0-4 0-4L308 20l-.8 2.1s8.7 4.2 10.7 7c2 3-7.3 3.4-7.3 3.4s-21.2-8-25.5-9.2c-4.4-1-28.1 2.8-28.1 2.8l-8.8-8.2-29.4-3S196 6.2 184.3 2.6c-11.7-3.6-29.2-1-36.4 0-7.3 1.1-59.4 28.7-59.4 28.7s-12.4.1-24.7 3.9C51.6 38.9 23.5 60 23.5 60L2 68.7l7.1 7.8c3.2 6-8.4 4.3-8.4 4.3L2 83.6l44.6 1a30.3 30.3 0 1 1 52.8 1c9.3 0 22.7-.2 27.4-.7 7.4-.9 126-1.4 126-1.4h1.2a30.3 30.3 0 1 1 53.6 1.8l30.8 1 1.1-9.8-4-.6zM95.4 30.5l33.8-18.1L104 33.9l-8.6-3.3zm17 5.4s17.7-19.9 34.5-23.5a96.4 96.4 0 0 1 46 2.6c6.3 3 14.1 10 14.1 10s-34.2 15.7-94.7 11z"/><path d="m75.5 62.1 1.5.8 6-8c-1.2-.9-2.5-1.5-3.8-2L75.5 62zM89.3 74c.5-1.3.8-2.7.9-4.2l-10.4-.6-.3 1.6 9.8 3.3zm-10.7-9.6a5 5 0 0 1 1.1 2.5l10.5.7a17 17 0 0 0-5.5-11.4l-6 8.2zM68.3 64l.7-.7-5.6-8.3a17 17 0 0 0-3.3 3.1l8.2 5.8zm2.7-1.8a6 6 0 0 1 2.3-.5l3.8-9.5c-4-.9-8.2-.3-11.9 1.6l5.7 8.4zm7.3 10.5a3 3 0 0 1-1.2 1l1.6 11a17 17 0 0 0 9.8-8.6l-10.2-3.4zM75 74.8l-1.7.2-.5 10.7h.5l3.2-.3L75 74.8zm-3.9-.1L70 74l-9.5 6c2.6 3 6.2 5 10.1 5.6l.5-10.8zm-4.5-6.2v-.1c0-1 .2-1.8.6-2.6l-8.4-5.9a16.9 16.9 0 0 0-2.3 11.3l10.1-2.7zM57 73.4c.4 1.7 1.2 3.3 2.1 4.7l9-5.5c-.4-.6-.8-1.2-1-2L57 73.4z"/><path d="M73.3 43.7a25 25 0 1 0 0 50.1 25 25 0 0 0 0-50.1zm0 44a19 19 0 1 1 0-37.9 19 19 0 0 1 0 37.9z"/><path d="M73.3 73.7a5.3 5.3 0 1 0 0-10.7 5.3 5.3 0 0 0 0 10.7zm210.1-11.6 1.5.8 6-8c-1.2-.9-2.5-1.5-3.8-2l-3.7 9.2zM297.2 74c.5-1.3.8-2.7.9-4.2l-10.4-.6-.3 1.6 9.8 3.3zm-10.7-9.6a5 5 0 0 1 1.1 2.5l10.5.7a17 17 0 0 0-5.5-11.4l-6.1 8.2zm-10.3-.4.7-.7-5.6-8.3a17 17 0 0 0-3.3 3.1l8.2 5.8zm2.6-1.8c.8-.3 1.6-.5 2.3-.5l3.9-9.5c-4-.9-8.3-.3-11.9 1.6l5.7 8.4zm7.4 10.5c-.4.4-.8.8-1.2 1l1.5 11a17 17 0 0 0 9.9-8.6l-10.2-3.4zm-3.2 2.1-1.8.2-.5 10.7h.5l3.2-.3-1.5-10.6zm-4-.1-1.2-.6-9.4 5.8c2.6 3 6.2 5 10.1 5.6l.5-10.8zm-4.5-6.2v-.1c0-1 .2-1.8.5-2.6l-8.3-5.9a16.9 16.9 0 0 0-2.3 11.3l10.1-2.7zm-9.6 4.9c.4 1.7 1.2 3.3 2.1 4.7l9-5.5c-.5-.6-.8-1.2-1.1-2l-10 2.8z"/><path d="M281.2 43.7a25 25 0 1 0 0 50.1 25 25 0 0 0 0-50.1zm0 44a19 19 0 1 1 0-37.9 19 19 0 0 1 0 37.9z"/><path d="M281.2 73.7a5.3 5.3 0 1 0 0-10.7 5.3 5.3 0 0 0 0 10.7z"/></g><defs><clipPath id="a"><path fill="#fff" transform="translate(.7 .7)" d="M0 0h339.3v97.1H0z"/></clipPath></defs></svg>