<svg width="992" height="332" viewBox="0 0 992 332" fill="none" xmlns="http://www.w3.org/2000/svg"><path d="m973.6 179.6-17.7-.1v36.8h30.7c3.3-2.5 5.4-11.2 5.4-11.2v-25.5h-18.4zm-750.1-55.5v25.4l6.3 11h7.6c-1-13.5-1.8-26.4-2.1-36.4h-11.8z" fill="#09265E"/><path d="M415.3 17.6 413 89.4h24.3a.9.9 0 0 1 .8-.3l.4.3h14.7V15.6l-38 2zm0 0L413 89.4h24.3a.9.9 0 0 1 .8-.3l.4.3h14.7V15.6l-38 2zm0 0L413 89.4h24.3a.9.9 0 0 1 .8-.3l.4.3h14.7V15.6l-38 2zm0 0L413 89.4h24.3a.9.9 0 0 1 .8-.3l.4.3h14.7V15.6l-38 2zm0 0L413 89.4h24.3a.9.9 0 0 1 .8-.3l.4.3h14.7V15.6l-38 2zM944 104.4h25.8v-4c0-4.4-5.2-12.2-5.2-12.2L615.5 95s-6.5-69.6-11.9-83C598.1-1.2 586 .3 586 .3h-48s-156.8 2-168.6 4c-12 2.1-35.6 11.3-43.1 11.3-7.6 0-112 64.7-112 64.7L202.8 82 178 99.7l-.4.1-87.5 7.6a.9.9 0 0 1-.8-1 .8.8 0 0 1 .4-.6h.3l87.2-7.7L199 82.4l-13 1.8S92.3 93.6 72.3 96.8a189 189 0 0 0-50.3 15c-3.8 2-5.6 6.9-6.4 12h22.7s4.5-.6 7.3 1.8a6.7 6.7 0 0 1 2.2 5.3v20.4c0 .2 0 .4-.2.6L34 166.2s-2.4 2.9-2.4 8.4v17.2a.9.9 0 0 1-.8.8H15.3v.1s-10.2 5-12.6 6.5C.3 200.7.5 201.4 0 203c-.5 1.5 3.2 5.9 3.2 5.9v19c-.3 2.7-.3 5.3 0 7.9.5 6.3 16.5 12.8 16.5 12.8v11.7s-3.5 7.6-4.5 10.8c-1.1 3.3 30.5 5.4 30.5 5.4l2.4-19.9H52a77.8 77.8 0 0 1 155.5 3.7v3.1a71.4 71.4 0 0 1 26-4.7h68s7.3-14 9-14.6a39 39 0 0 1 8.7 0l6.1 10.8h16s.8-3.7 4.3-4.3c3.4-.6 7.5 4.2 9.5 4.1h21.1l2-.3s3.8-7.3 5-7.6a398 398 0 0 1 16.4-1.1h75.5s2.3 10.7 12.6 10.7 191.7-2 191.7-2h24a77.8 77.8 0 0 1 152.5-15h105.2c4 0 4-4.4 4-4.4v-17H955a.8.8 0 0 1-.9-.9v-37.6h-3a.9.9 0 0 1-.8-.9v-24.4a52.8 52.8 0 0 0-7.3-15.9v-33a.9.9 0 0 1 .6-.8h.3zm-698.7 130h-.2a.9.9 0 0 1-.8-.7c-1.4-7.4-4.2-36.3-6.3-64.9h-12.1a.9.9 0 0 1-.8-.4l-10-18.2v-34.7a.8.8 0 0 1 .8-.9H235l.1-6.5a92.2 92.2 0 0 1 5.9-28.3.9.9 0 0 1 1-.5.8.8 0 0 1 .5 1.1c0 .2-4.6 10.8-5.7 27.8-1.2 17.4 6.6 112 9.2 125.2a.8.8 0 0 1-.2.6.9.9 0 0 1-.5.4zM419.9 127h-26a3.8 3.8 0 0 1 0-7.5h26a3.8 3.8 0 0 1 0 7.5zm123.8-36.2h-89a.9.9 0 0 1-.6.3h-15.6c-1 3.8-4.5 18.3-4.5 24.4 0 7 1.1 58.7 1.1 59.2l3.6 58.8a.9.9 0 0 1-.8 1 .8.8 0 0 1-.9-.9l-3.6-58.8c0-.6-1.1-52.2-1.1-59.3 0-6.1 3.3-20 4.4-24.4h-25.4c-6.9 0-53.5.3-62.2 9-9.9 9.9-25.5 8.1-26.2 8l-76.2 2.6a.8.8 0 0 1-.8-.6c-.2-.8-5-18.8 3-27.4 7.7-8.3 71.3-52.6 93.3-60.1s71.8-6.7 72.3-6.7l39.6-2h106.1c9.2 0 13.8 19.8 14.1 60.6V78c.3 4.6-21.1 10.4-30.4 12.7l-.2.1zm34.6 36.2h-26a3.8 3.8 0 0 1 0-7.5h26a3.8 3.8 0 0 1 0 7.5zm15.2 28.6c-.1 7-1 69-4.8 73.7a.9.9 0 0 1-.7.3c-.2 0-.4 0-.5-.2a.9.9 0 0 1-.1-1.2c2.6-3.2 4-45.2 4.4-72.6V92a1710.2 1710.2 0 0 0-9.2-70.8.8.8 0 0 1 1.5 0v.4c3.5 19.2 9.3 69.8 9.4 70.3v63.7zm245.1 16.7-.6.3c-.2 0-.4 0-.6-.2a92.5 92.5 0 0 0-152.6 70.2l-.5.2a.8.8 0 0 1-.9-.8 94.2 94.2 0 0 1 155.3-70.7.8.8 0 0 1 .1.6c0 .2 0 .3-.2.3zM413 89.3h24.3a.9.9 0 0 1 .8-.2l.4.3h14.7V15.6l-38 2-2.2 71.8zm2.3-71.7L413 89.4h24.3a.9.9 0 0 1 .8-.3l.4.3h14.7V15.6l-38 2zm0 0L413 89.4h24.3a.9.9 0 0 1 .8-.3l.4.3h14.7V15.6l-38 2zm0 0L413 89.4h24.3a.9.9 0 0 1 .8-.3l.4.3h14.7V15.6l-38 2zm0 0L413 89.4h24.3a.9.9 0 0 1 .8-.3l.4.3h14.7V15.6l-38 2z" fill="#09265E"/><path d="M952.1 154.3H974l-.3 17.8v5.8l-21.5-.1v-23.5zm21.8-2h-22c-1.3-4.9-6.2-12.8-7-14.2v-32h25.6c1 .7 2.5 3.1 3 11.6.5 6.7.5 22 .4 34.6zm-744.6 9.8a.8.8 0 0 1-.8-.4l-6.6-11.5a1 1 0 0 1 0-.4v-26.5a.9.9 0 0 1 .8-.9h12.5l-.2-6h-18.2v33.1l9.6 17.6h11.5l-.4-5h-8.2zM13.5 160l-3.7 1.3v14.5c0 6.1 5.5 4.6 5.5 4.6V191H30v-16.4a15 15 0 0 1 2.8-9.6l2.2-2.3-6.3-2.3v-28.8H46v-.7a5 5 0 0 0-1.6-4c-2.2-2-6-1.4-6.1-1.4h-23a71 71 0 0 0 .1 15.6s-6-1.3-6.5 0c-.4 1.3-.4 15.4-.4 15.4h5v3.5zm110.8 119.4 1.4 24.4h8.3l1.4-24.4c-3.6 1-7.5 1-11 0h-.1zM101.9 294l18.3-16.3c-3.3-1.8-6-4.5-7.9-7.8L96 288l5.9 5.9zm7.9-33.8c0-1.9.3-3.8.8-5.6L86.2 256v8.3l24.4 1.4c-.5-1.8-.8-3.7-.8-5.5zm10.4-17.5-18.3-16.3-5.9 5.8 16.3 18.3c1.8-3.3 4.5-6 7.9-7.8z" fill="#09265E"/><path d="M148.1 260.2a18.3 18.3 0 1 0-36.6 0 18.3 18.3 0 0 0 36.6 0zm1.7 0c0 1.9-.3 3.7-.8 5.5l24.4-1.4V256l-24.4-1.4c.5 1.8.8 3.7.8 5.6z" fill="#09265E"/><path d="m135.3 241-1.3-24.5h-8.3l-1.4 24.5c3.6-1 7.4-1 11 0z" fill="#09265E"/><path d="M129.8 188.6a71.6 71.6 0 1 0 0 143.2 71.6 71.6 0 0 0 0-143.2zm45.3 76.5v.2a45.4 45.4 0 0 1-9.7 23.4l-.2.3a46 46 0 0 1-6.6 6.5l-.2.2-.3.2a45.4 45.4 0 0 1-23.3 9.6h-.1a45 45 0 0 1-9.7 0h-.3a45.2 45.2 0 0 1-23.4-9.8l-.2-.2c-2.4-2-4.6-4.1-6.6-6.5l-.2-.3-.2-.3a45.3 45.3 0 0 1-9.5-23.3v-.1c-.4-3.2-.4-6.5 0-9.7v-.3a45.2 45.2 0 0 1 9.7-23.4l.2-.2c2-2.4 4.2-4.6 6.6-6.6l.2-.2.3-.2a45.3 45.3 0 0 1 23.3-9.6h.1c3.2-.3 6.5-.3 9.7 0h.3a45.3 45.3 0 0 1 23.4 9.8l.2.2c2.4 2 4.6 4.2 6.6 6.6l.2.2.2.3a45.5 45.5 0 0 1 9.6 23.3v.1c.3 3.2.3 6.5 0 9.7v.1z" fill="#09265E"/><path d="m163.6 288.1-16.3-18.3a20 20 0 0 1-7.8 7.9l18.2 16.3 5.9-5.9zm-5.9-61.7-18.2 16.3a20 20 0 0 1 7.8 7.8l16.3-18.3-5.9-5.8zm617.7 53 1.4 24.4h8.3l1.4-24.4c-3.6 1-7.4 1-11 0zM753 294l18.3-16.3c-3.3-1.8-6-4.5-7.8-7.8l-16.3 18.3 5.9 5.8zm8-33.8c0-1.9.3-3.8.8-5.6l-24.4 1.4v8.3l24.4 1.4a20 20 0 0 1-.8-5.5zm10.3-17.5-18.2-16.3-5.9 5.8 16.3 18.3c1.8-3.3 4.5-6 7.8-7.8zm19.9 34.5 18.3 16.3 5.8-5.8-16.2-18.3c-1.9 3.3-4.6 6-7.9 7.8z" fill="#09265E"/><path d="M799.3 260.2a18.3 18.3 0 1 0-36.6 0 18.3 18.3 0 0 0 36.6 0zm1.7 0c0 1.9-.3 3.7-.8 5.5l24.4-1.4V256l-24.4-1.4c.5 1.8.8 3.7.8 5.6z" fill="#09265E"/><path d="m786.5 241-1.4-24.4h-8.3l-1.4 24.4c3.7-1 7.5-1 11.1 0z" fill="#09265E"/><path d="M781 188.6a71.6 71.6 0 1 0 0 143.2 71.6 71.6 0 0 0 0-143.2zm45.3 76.5v.2a45.3 45.3 0 0 1-9.7 23.4l-.2.3a45 45 0 0 1-6.6 6.5l-.2.2-.3.2a45.3 45.3 0 0 1-23.3 9.6h-.1a45 45 0 0 1-9.7 0h-.2a45.3 45.3 0 0 1-23.4-9.8l-.2-.2c-2.4-2-4.6-4.1-6.6-6.5l-.2-.3s-.2-.1-.2-.3a45.4 45.4 0 0 1-9.6-23.3v-.1c-.3-3.2-.3-6.5 0-9.7v-.3a45.4 45.4 0 0 1 9.8-23.4l.2-.2c2-2.4 4.2-4.6 6.6-6.6l.2-.2.3-.2a45.4 45.4 0 0 1 23.3-9.6c3.3-.3 6.6-.3 9.8 0h.3a45.2 45.2 0 0 1 23.4 9.8l.2.2c2.4 2 4.6 4.2 6.6 6.6l.2.2.2.3a45.4 45.4 0 0 1 9.5 23.3v.1c.4 3.2.4 6.5 0 9.7v.1z" fill="#09265E"/><path d="m809 226.4-18.4 16.3c3.3 1.8 6 4.5 7.9 7.8l16.3-18.3-5.9-5.8z" fill="#09265E"/></svg>