<svg width="1036" height="300" viewBox="0 0 1036 300" fill="none" xmlns="http://www.w3.org/2000/svg"><path d="M188.2 171.5a55.6 55.6 0 1 0 0 111.2 55.6 55.6 0 0 0 0-111.2zm28.7 14.3c1.1.2 2.1.5 3 1.1a22.8 22.8 0 0 1 7 6.2c1.3 1.9 2.6 4.1 2.6 5.3 0 2.5-20.8 17-28.8 16.4-.8-8.1 13.8-29 16.2-29zm-37.6-8.2a6 6 0 0 1 2.9-1.3 23.2 23.2 0 0 1 9.2-.7c2.3.5 4.8 1.1 5.7 2 1.7 1.7-2.8 26.8-8.9 32-6.2-5.2-10.6-30.3-9-32zm16.9 58.8a2.7 2.7 0 1 1-5.3-1.3 2.7 2.7 0 0 1 5.3 1.3zm-5.4-18.8a2.7 2.7 0 1 1-5.2-1.2 2.7 2.7 0 0 1 5.2 1.3zm-6.6 18.8a2.7 2.7 0 1 1-2-3.3 2.7 2.7 0 0 1 2 3.3zm-36.3-41a22.8 22.8 0 0 1 6.2-7c1.9-1.3 4.1-2.6 5.3-2.6 2.4 0 17 20.9 16.3 29-8 .6-28.8-14-28.8-16.4 0-1 .5-2 1-3zm-9.3 40.7a6.6 6.6 0 0 1-1.3-2.9 22.4 22.4 0 0 1-.6-9.2c.4-2.3 1-4.8 2-5.7 1.7-1.7 26.7 2.7 31.9 8.9-5.2 6.2-30.3 10.6-32 9zm20.8 32.5c-1-.1-2-.5-3-1.1a23.3 23.3 0 0 1-7-6.1c-1.2-2-2.5-4.2-2.5-5.4 0-2.4 20.8-17 28.8-16.3.7 8-13.9 28.9-16.3 28.9zm19.5-43.5a2.7 2.7 0 1 1-2-3.2 2.7 2.7 0 0 1 2 3.3zm18.2 51.7a6 6 0 0 1-2.9 1.4 22.3 22.3 0 0 1-9.3.6c-2.2-.4-4.7-1.1-5.5-2-1.8-1.7 2.7-26.7 8.8-32v.1c6.2 5.2 10.6 30.2 8.9 32zm1.6-49.7a2.7 2.7 0 1 1 1 .1h-1zm29.7 32a23.4 23.4 0 0 1-6 7c-2 1.2-4.2 2.5-5.5 2.5-2.4 0-17-20.8-16.3-28.8 8-.7 28.9 13.8 28.9 16.3-.1 1-.5 2-1 3zm9.3-23c-1.7 1.8-26.7-2.7-32-8.8h.1c5.2-6.2 30.3-10.6 32-8.9.6.8 1 1.8 1.3 2.9a23.2 23.2 0 0 1 .6 9.3c-.4 2.2-1 4.7-2 5.5z" fill="#09265E"/><path d="M188.2 157.3a71 71 0 1 0 0 142.2 71 71 0 0 0 0-142.2zm0 127.5a57.5 57.5 0 1 1 0-115 57.5 57.5 0 0 1 0 115zm374.8-157c-76.5-.5-165.6-.4-235.2-.2-.3 3-.4 6.1-.4 9l-.1 3c-.4 10.6-.4 18.6-.2 26.2a855 855 0 0 0 4.3 59.7c30.8-.4 133-1.9 226.9-5.5-1.9-24.6 1.5-63.9 4.6-92.2zM30 151l-2.6 5.5L15 153c-.8 2.7-1.5 5.6-2.1 8.4l13 1-3.4 5.6-11-.4-1.6 7.2 10.8-1.2-3.6 7.3-8.3-.4c-1 5-1.6 9-2 11.2 3.6-.6 7.6-1.4 9-2.3 2.8-1.9 24.3-43.5 26.1-48 1.4-3.5-3-6.2-3-6.2l-11-6.8-2.4 1.4c-3.2 2-6.2 9-9 17.8l13.7 3.6zm989.2-.3-3.5-9.4h-16.3a1.8 1.8 0 0 1-1.7-1.1 1.8 1.8 0 0 1 1.7-2.5h15l-3.3-8.9c-4-6.3-8.1-12.8-9-13.4-.5-.4-1-.7-1.4-1.2-3.3-2.7-12-10-22.7-10.2l-5.4-.2c-10.4-.5-17.3-.9-23.9 8.3 0 .3.3 2.1 7.3 6.1l7.9 4.8c14.3 8.8 42.2 26 56.4 29.5-.7-1-1-1.8-1-1.8zm-55.6-37.3a1.8 1.8 0 1 1 0-3.6h24.3a1.8 1.8 0 1 1 0 3.6h-24.3zm13.6 11.9a1.8 1.8 0 0 1 1.8-1.8h24.4a1.8 1.8 0 0 1 0 3.5h-24.3a1.8 1.8 0 0 1-1.8-1.7zm-676-31.1c17.7 0 30.4-1.9 37.6-5.7a1014 1014 0 0 0 28-16.8c28.2-17.2 67-40.8 76.7-44.5 3.8-1.4 9.2-4 15.3-7a336.6 336.6 0 0 1 39.6-16.8c-17 1.8-35.8 5-50.8 10.2-37 12.8-149.5 74.2-149.5 74.2l-7.8.2a12.7 12.7 0 0 0 11 6.2zm-196.9 38.5c-3 0-6 .1-8.8.4a265 265 0 0 0-42.3 9.3c-2.4 1.1-12.8 17.5-18.7 27.6h-.1c-.5.7-1.7 2.6-1.1 3.7.4.8 2 1.3 4.3 1.3 3.3 0 9.8-1 17-2.4 3.1-4.5 17.4-21.8 58-24a40 40 0 0 0 10.4-10.4 1.7 1.7 0 0 0-.3-1.8c-2-2.6-10-3.7-18.4-3.7z" fill="#09265E"/><path d="m1035.6 203-1.8-11.3-3.3-16.7c-1-5-6-14.9-9-20.3-7.6-1.5-19.5-7.3-31.3-13.9-1.7 3.4-9.1 14-36 19.7a1413 1413 0 0 1-79 12.9 75.8 75.8 0 0 1 17.5 85.5h4l5.8 2 92.7-17.7c19.4-3.8 29.1-10.8 29.1-10.8l5.2-1.4c2.2-2.5 4-5.4 5.3-8.4 1.5-4.1-3-8.7-3-8.7l3.8-11zm-26-20.2-83.4 8.5h-.1a1 1 0 0 1-.1-1.8l83.3-8.6a1 1 0 0 1 1 .8 1 1 0 0 1-.8 1zm-21-42.9a769.8 769.8 0 0 1-33.5-20c-5.3-3.1-8-5.5-8.2-7.5a1.8 1.8 0 0 1 .3-1.4c7.2-10 15.3-9.6 25.5-9.1l5.4.2c11.3.3 20.4 7.9 23.8 10.7a34 34 0 0 1 6.1 7.6v-8.8s-3.8-5.4-4.8-8.1c-.9-2.7-7.2-11.6-7.2-11.6l-1.3-4.6s-24.4-2-30.4-2.7c-6-.6-63-11.9-63-11.9l-91.5-40.3s-52-26.3-87.1-27C687.5 5 544.8.5 544.8.5s-16 .1-36.6 2c-17.4 4.5-35 13-48.5 19.5-6.3 3-11.7 5.6-15.6 7-9.6 3.7-48.2 27.2-76.4 44.4a969 969 0 0 1-28 16.9 63 63 0 0 1-23.7 5.5 54.1 54.1 0 0 1-35.6 18.2L136 128a1 1 0 0 1-1-.8 1 1 0 0 1 .8-1l144.3-14c.2 0 21-1.8 33.4-16.4-3.8.3-8 .4-12.4.4-7 0-11-4.5-13-8-20 .7-68.6 3.4-135 12.5C75.2 111.3 43 121 29.6 127.3l10 6.2c2 1.2 5.3 4.5 3.8 8.4-1 2.5-23.3 46.7-26.8 49a34.2 34.2 0 0 1-10.4 2.6l-5.5 1.9s-.5 17.1.8 21.3c1.3 4.2 7.4 2.2 7.4 2.2l2.6 16a25 25 0 0 1-3 3.6c-2.4 2.4 2.7 6.2 2.7 6.2s-5.2.8-4.1 5.8c1 5 96 20.1 96 20.1l14.5-8.5h2.6a75.8 75.8 0 1 1 141.5-16l69.8-1.2a875 875 0 0 1-1.8-17.5h-7.6a1 1 0 1 1 0-1.8l7.4-.1-.6-6.6a862 862 0 0 1-3.6-53 389 389 0 0 1 .1-26.3v-3c.1-2.9.2-6 .5-9-66.9.1-115.4.4-116.4.4a1 1 0 0 1-.7-1.6c.2-.2.4-.3.7-.3l116.7-.4c.3-3 1-6 2.2-8.8.1-.2.3-.4.6-.5a1 1 0 0 1 1.1 1.3c-1 2.5-1.7 5.2-2 8 69.6-.2 158.7-.2 235 .2 2-17.8 3.9-31 4.1-32.5a1 1 0 0 1 .7-.8 1 1 0 0 1 1.2 1c-.1.4-2 13.8-4 32.3l28 .2c152.9 1.2 173 8.3 173.8 8.6a1 1 0 0 1 .5.5 1 1 0 0 1-.3 1.1 1 1 0 0 1-.8.1c-.8-.3-21.4-7.3-173.2-8.4l-28.2-.2c-3.1 28.4-6.5 67.9-4.7 92.2 80.2-3 153.9-7.7 170.9-14.6a1 1 0 0 1 1.2.6 1 1 0 0 1-.5 1.1c-17.4 7-91.2 11.8-171.5 14.9a46 46 0 0 0 3.8 17.1 1 1 0 0 1-1.7.2c-2-3.6-3.2-9.6-3.9-17.3a9466 9466 0 0 1-226.8 5.4l1.9 17.5 414.7-7.1a75.8 75.8 0 0 1 125.3-66c21.3-3 58.8-8.5 80.3-13.1 26-5.6 33.1-16 34.5-18.8zm-925 112.4a43.5 43.5 0 0 1-13.3 1.3l-7.4-.1a1 1 0 0 1-.5-1.6l.6-.3a75 75 0 0 0 19.9-1c1.8-.9 4.8-3.8 2.5-14H30.6a1 1 0 0 1 0-2H65a88.5 88.5 0 0 0-4.3-12H25.8a1 1 0 0 1 0-1.8h34l-.2-.5c-9.7-21.3-31.2-16.3-32-16a1 1 0 0 1-.9-1.7l.4-.1c.2 0 23.8-5.7 34.2 17l.7 1.8c10 23 5.4 29.3 1.6 31zm61.1-113.5c-2.3 6.8-32.9 28-38.7 29.1l-8.1 1.7a326 326 0 0 1-40.3 7.3c-3.2 0-5.2-.8-6-2.4-1-2.3.9-5 1.3-5.5 2.7-4.6 15.9-26.6 19.5-28.3 3.7-1.7 30.9-8.3 43-9.5 9.2-1 25.1-.6 28.8 4a3.6 3.6 0 0 1 .5 3.6zm413.1-24.6h-34.4a3.5 3.5 0 0 1 0-7h34.4a3.5 3.5 0 0 1 0 7zm-175.1-19s49.1-37.4 94.8-54.8C503 22.9 566 17.9 566 17.9l-18 71.6-185.4 5.7zM589.3 88l-37.6 1.4 17.6-71.6h20V88zm138.8-.8H592V18c81.8-1.1 137.5 18.4 137.5 18.4l-1.5 51zm8.1-46.7a191 191 0 0 1 63 45.6h-63V40.5zm13.1 73.7a3.5 3.5 0 0 1 0-7h34.4a3.5 3.5 0 1 1 0 7h-34.4zm46.9 22-7.7 6.7c-19.2 16.7-35.8 31-44.4 56-9.5 28-9.7 35.5-9.7 35.6a1 1 0 0 1-1 1 1 1 0 0 1-.8-1c0-.3 0-7.8 9.8-36.2 8.8-25.4 26.4-40.7 45-56.8l7.6-6.6c21.3-18.9 23.7-32.3 23.8-32.4a1 1 0 1 1 1.8.3c-.1.5-2.6 14.1-24.4 33.4zM261.3 248a75 75 0 0 1-6.1 15.7l18 .2 481.3-4a75 75 0 0 1-6-20.3L261.3 248zm455.8 3.4L298.4 257a1 1 0 1 1 0-1.9l418.7-5.5a1 1 0 0 1 1 .9 1 1 0 0 1-1 1z" fill="#09265E"/><path d="M823.4 171.5a55.6 55.6 0 1 0 0 111.2 55.6 55.6 0 0 0 0-111.2zm28.7 14.3c1 .2 2.1.5 3 1.1a22.8 22.8 0 0 1 7 6.2c1.3 1.9 2.6 4.1 2.6 5.3 0 2.5-20.8 17-28.9 16.4-.7-8.1 13.9-29 16.3-29zm-37.6-8.2a6 6 0 0 1 2.8-1.3 23.2 23.2 0 0 1 9.3-.7c2.3.5 4.8 1.1 5.7 2 1.7 1.7-2.8 26.8-9 32-6.1-5.2-10.6-30.3-8.8-32zm16.9 58.8a2.7 2.7 0 1 1-5.3-1.3 2.7 2.7 0 0 1 5.3 1.3zm-5.4-18.8a2.7 2.7 0 1 1-5.2-1.2 2.7 2.7 0 0 1 5.2 1.3zm-6.6 18.8a2.7 2.7 0 1 1-2-3.3 2.7 2.7 0 0 1 2 3.3zm-36.3-41a22.9 22.9 0 0 1 6.1-7c2-1.3 4.2-2.6 5.4-2.6 2.4 0 17 20.9 16.3 29-8 .6-28.9-14-28.9-16.4.2-1 .5-2 1.1-3zm-9.3 40.7a6.6 6.6 0 0 1-1.3-2.9 22.4 22.4 0 0 1-.7-9.2c.5-2.3 1.1-4.8 2-5.7 1.7-1.7 26.8 2.7 32 8.9h-.1c-5.2 6.2-30.2 10.6-32 9h.1zm20.8 32.5c-1-.1-2-.5-3-1.1a23.3 23.3 0 0 1-7-6.1c-1.3-2-2.6-4.2-2.6-5.4 0-2.4 20.9-17 28.9-16.3.7 8-13.9 28.9-16.3 28.9zm19.4-43.5a2.7 2.7 0 1 1-.3-2c.4.6.5 1.4.3 2zm18.3 51.7a7 7 0 0 1-2.9 1.4 22.3 22.3 0 0 1-9.3.6c-2.3-.4-4.8-1.1-5.6-2-1.7-1.7 2.7-26.7 8.9-32v.1c6.1 5.2 10.6 30.2 8.9 32zm1.6-49.7a2.7 2.7 0 1 1 1 0h-1zm29.7 32a23.4 23.4 0 0 1-6.1 7c-2 1.2-4.2 2.5-5.4 2.5-2.4 0-17-20.8-16.3-28.8 8-.7 28.9 13.8 28.9 16.3-.2 1-.5 2-1.1 3zm9.3-23c-1.7 1.8-26.8-2.7-32-8.8h.1c5.2-6.2 30.2-10.6 32-8.9.6.8 1 1.8 1.3 2.9a23.3 23.3 0 0 1 .6 9.3c-.5 2.2-1.1 4.7-2 5.5z" fill="#09265E"/><path d="M823.4 157.3a71 71 0 1 0 0 142.2 71 71 0 0 0 0-142.2zm0 127.5a57.5 57.5 0 1 1 0-115 57.5 57.5 0 0 1 0 115z" fill="#09265E"/></svg>