<svg width="1036" height="396" viewBox="0 0 1036 396" fill="none" xmlns="http://www.w3.org/2000/svg"><path d="M178 247.2a61.6 61.6 0 1 0 0 123.3 61.6 61.6 0 0 0 0-123.3zm31 15.8s3.8 1.5 8.6 6.3c4.8 5 6.4 8.6 6.4 8.6L199.4 294l-2.5-4-4-2.5L209 263zm-8.7 45.8a22.2 22.2 0 1 1-44.4 0 22.2 22.2 0 0 1 44.4 0zM178 253c6.8 0 10.5 1.6 10.5 1.6l-5.9 28.7-4.6-1-4.7 1-5.9-28.7s3.7-1.6 10.6-1.6zm-39.6 16.4c4.9-4.8 8.5-6.3 8.5-6.3l16.2 24.4-4 2.6-2.5 4-24.5-16.1s1.5-3.7 6.3-8.6zM122.1 309c0-6.8 1.6-10.6 1.6-10.6l28.8 6-1.2 4.6 1.2 4.6-28.8 6s-1.6-3.8-1.6-10.6zm25 45.9s-3.7-1.5-8.5-6.4-6.4-8.5-6.4-8.5l24.5-16.3 2.5 4.1 4 2.5-16.1 24.6zm31 10a29 29 0 0 1-10.6-1.6l6-28.7 4.6 1.1 4.6-1.1 6 28.7s-3.8 1.6-10.6 1.6zm39.5-16.4c-4.8 4.9-8.5 6.4-8.5 6.4l-16.2-24.5 4.1-2.5 2.5-4L224 340s-1.5 3.7-6.4 8.5zm-14-34.9 1.2-4.6-1.2-4.6 28.8-6s1.6 3.8 1.6 10.6-1.6 10.5-1.6 10.5l-28.8-5.9z" fill="#09265E"/><path d="M178 290a18.8 18.8 0 1 0 0 37.7 18.8 18.8 0 0 0 0-37.7z" fill="#09265E"/><path d="M178 222a87 87 0 1 0 0 173.8 87 87 0 0 0 0-173.9zm0 151.8a65 65 0 1 1 0-129.9 65 65 0 0 1 0 130zm629.5-126.6a61.6 61.6 0 1 0 0 123.3 61.6 61.6 0 0 0 0-123.3zm31 15.8s3.7 1.5 8.5 6.3c4.8 5 6.4 8.6 6.4 8.6L829 294l-2.5-4-4-2.5 16.1-24.5zm-8.8 45.8a22.2 22.2 0 1 1-44.3 0 22.2 22.2 0 0 1 44.3 0zM807.5 253a29 29 0 0 1 10.6 1.6l-6 28.7-4.6-1-4.6 1-6-28.7s3.8-1.6 10.6-1.6zM768 269.3c4.8-4.8 8.5-6.3 8.5-6.3l16.1 24.4-4 2.5-2.5 4-24.5-16s1.5-3.7 6.4-8.6zM751.6 309c0-6.8 1.5-10.6 1.5-10.6l28.8 6-1.1 4.6 1 4.6-28.7 6s-1.5-3.8-1.5-10.6zm25 45.9s-3.8-1.5-8.6-6.4a32.4 32.4 0 0 1-6.4-8.5l24.6-16.3 2.4 4.1 4.1 2.5-16.2 24.6zm30.9 10c-6.8 0-10.6-1.6-10.6-1.6l6-28.7 4.6 1.1 4.6-1.1 6 28.7s-3.8 1.6-10.6 1.6zm39.5-16.4a30.7 30.7 0 0 1-8.5 6.4l-16.2-24.6 4.1-2.4 2.5-4.1 24.5 16.1s-1.5 3.8-6.4 8.6zm-14-35 1.2-4.5-1.2-4.7 28.8-5.9s1.6 3.7 1.6 10.6c0 6.8-1.6 10.5-1.6 10.5l-28.8-6z" fill="#09265E"/><path d="M807.5 290a18.8 18.8 0 1 0 0 37.7 18.8 18.8 0 0 0 0-37.7z" fill="#09265E"/><path d="M807.5 222a87 87 0 1 0 0 173.8 87 87 0 0 0 0-173.9zm0 151.8a65 65 0 1 1 0-129.9 65 65 0 0 1 0 130zM963.3 23l3.4-.4-3.7-6-169.1-1.1c-.9-.1-3-.3-3.7.7-.4.7-.1 2 1 3.8 4.2 7 48.5 78.1 49 78.8 0 .1 2.3 4 14 4 12.5 0 132.2-1.1 133.4-1.1h13.8c-.7-3.9-1.7-7.7-3-11.4-7.4-18.3-35.4-65.5-35.6-66a.8.8 0 0 1 .2-1.1l.4-.2zM16.7 270.8a.8.8 0 0 1-.8.8H9.7A143.3 143.3 0 0 1 11 286c.2.5.5.9.8 1.2 1.9 1.9 6.2 2 9.7 2a6.8 6.8 0 0 0 6.9-4.8l6.7-43H17.7l-1 29.5zm1.4-60.2 21.3-2.6.4-.3c1.5-6.9 9.6-42.6 15.5-46a55 55 0 0 1 14.9-4.7c11.8-4.5 30.5-8.4 32.3-8.7 2.7-.4 6.7-5.4 8.9-8.5-11.2 1.5-70.5 9.5-77.8 12.3-5.4 2.1-12.2 35.8-15.5 58.5z" fill="#09265E"/><path d="M898.9 285.2a93.7 93.7 0 0 1 3 21.8c25.5-3.2 98.4-12.4 106.9-15.6 4.7-1.7 10.8-9.8 16-18-25.2 4.2-74.5 8.3-126 11.8zM714 295l-441.8 8.6a104 104 0 0 1-.3 13.3h441.4a95 95 0 0 1 .8-22zM562.3 20.8H533l-3.2 85.7 33.7-1.2-1.2-84.5zm0 0H533l-3.2 85.7 33.7-1.2-1.2-84.5zm463.6 172.1-.9-16H858.1a.8.8 0 0 1-.6-.2.8.8 0 0 1 0-1.2l.6-.2h150.3a661 661 0 0 0-6.7-71.9h-14.1l-133.4 1c-13 0-15.4-4.6-15.5-4.8l-49-78.8c-1.5-2.4-1.8-4.3-1-5.6 1.4-2 4.9-1.5 5.3-1.4l169.4 1a.8.8 0 0 1 .7.5l4.4 7 3.6-.4-.7-1.2 8-1.7-7.2-12L843.7.2H618.2A2268 2268 0 0 0 468.5 7c-17 2.3-30.4 3.1-54.7 8.8-24.2 5.7-138.2 89.8-138.2 89.8l-27.4 3c-4.2 5.4-10.7 13.8-13.9 17.5-5 6-102.4 10-113.5 10.5a.8.8 0 0 1-.6-1.4.8.8 0 0 1 .6-.3c43.2-1.7 108.8-5.8 112.3-9.9a424 424 0 0 0 12.8-16h-1.1s-5 1-56.7 4.6C136.5 117.4 55.8 134 34 142.4c-22 8.5-18.9 26.8-26.3 48.5-7.4 21.7-9.1 56.4-4.9 93.8 4.3 37.4 33.1 39 33.1 39s1.2 1.5 2.6 8.8c1.4 7.3 8.8 9.8 8.8 9.8l37 1.4v-24.5A94.4 94.4 0 1 1 272.2 302l442.3-8.5a94.4 94.4 0 0 1 184-9.9 1652 1652 0 0 0 127.5-11.9c5.5-8.8 9.7-17.3 9.7-17.3V210l-9.7-17zM30 284.6a8.5 8.5 0 0 1-8.5 6.2H21c-4 0-8.3-.3-10.5-2.5a5.3 5.3 0 0 1-1.5-3.8c0-4.6-1-13.5-1-13.6a.8.8 0 0 1 .2-.7.8.8 0 0 1 .6-.2h6.3l1-29.6a.8.8 0 0 1 .9-.8h19a.8.8 0 0 1 .6.3.9.9 0 0 1 .2.7l-6.9 44zm84-145.5c-.7 1-6.6 10.2-11.1 10.9-5.3.8-37.4 8.3-40.5 13.3-1.2 2-4 8.6-7.4 16.4-9.4 21.8-13.1 29.6-15.2 30l-22.5 2.7a.9.9 0 0 1-.9-.6v-.4c.8-5.8 8.4-57.6 16.8-60.9 8-3.2 77-12.3 79.8-12.7a.8.8 0 0 1 .8.4.9.9 0 0 1 .1 1zm418.3-120h31a.8.8 0 0 1 .7.8l1.2 86.2a.8.8 0 0 1-.2.6.8.8 0 0 1-.6.2l-35.4 1.3a1 1 0 0 1-.6-.2.8.8 0 0 1-.2-.7l3.3-87.4a.8.8 0 0 1 .8-.8zm-215.8 96.5c.2-.4 18.4-37 71.7-65.4 53.2-28.3 90.9-29.7 91.3-29.7l48.4-1.5c.3 0 .5.1.6.3a.8.8 0 0 1 .3.6l-3.4 87.8a.8.8 0 0 1-.8.8l-207.3 8.3a.8.8 0 0 1-.7-.4.8.8 0 0 1 0-.8zm211.4 31.7a3.4 3.4 0 0 1-3.4 3.4h-43.6a3.4 3.4 0 0 1 0-6.8h43.6a3.4 3.4 0 0 1 3.4 3.4zm148.8 85-136 4.7-225.2 6.6a.8.8 0 0 1-.7-.4l-4.5-9a.9.9 0 0 1 .3-1.1.8.8 0 0 1 .7 0 .8.8 0 0 1 .5.4l4.2 8.5 224.6-6.6 136-4.7a.8.8 0 0 1 .6.2.8.8 0 0 1 .3.6.8.8 0 0 1-.8.8zm61.6-81.6h-43.6a3.4 3.4 0 0 1 0-6.8h43.6a3.4 3.4 0 0 1 0 6.8zm23.2-47.4a.8.8 0 0 1-.6.4L569 106.5a.8.8 0 0 1-.8-.8l-1.7-85.8a.8.8 0 0 1 .2-.6.8.8 0 0 1 .6-.3l161-2a.9.9 0 0 1 .8.5c.3.5 25 50.7 32.6 85.2a.9.9 0 0 1-.2.6zM562.3 20.8H533l-3.2 85.7 33.7-1.2-1.2-84.5z" fill="#09265E"/><path d="M1022.8 137h-15.3a394 394 0 0 0-4.4-35.2 73 73 0 0 0-3.2-12.2c-6.7-16.8-30.8-57.9-35-65.1l3.4-.5 4.9-.6c7 11 32.7 52.3 41.3 73.7 10 24.8 8.3 38.2 8.3 38.2v1.6zm2.2 38.2h-15c-.1-3.8-.9-19.2-2.4-36.2h15.2l2 36.2zM272.3 303.7l-21 .4a.8.8 0 0 1-.5-.3.8.8 0 0 1-.3-.6.8.8 0 0 1 .8-.8l20.9-.4v1.7z" fill="#09265E"/></svg>