<svg width="900" height="314" viewBox="0 0 900 314" fill="none" xmlns="http://www.w3.org/2000/svg"><path d="M178.5 245c-.9-12-6.2-23.2-15-31.3a45.7 45.7 0 0 0-63.4 1.2 47.4 47.4 0 0 0-13.8 31.8v.7A47.8 47.8 0 0 0 99 281.9a46.2 46.2 0 0 0 33.3 14.5 45.5 45.5 0 0 0 33.4-14.5 47.1 47.1 0 0 0 12.7-36.9zm-18-26.2c2.6 2.7 4.8 5.8 6.5 9.1L136.7 243l14.8-30.8a40 40 0 0 1 9 6.6zm-25 28.6a3.3 3.3 0 0 1-1.8 3.1 3.1 3.1 0 0 1-3.6-.7 3.3 3.3 0 0 1-.8-2.4c0-.5 0-1 .3-1.5.3-.6.9-1.1 1.5-1.4a3.1 3.1 0 0 1 3.8 1c.5.5.7 1.2.7 1.9zm-3-40.4c3.6 0 7.3.7 10.8 1.8l-10.9 32.4-11-32.4c3.6-1.1 7.3-1.7 11-1.8zm-28.2 11.8c2.7-2.6 5.7-4.8 9-6.6L128 243l-30.3-15c1.7-3.4 4-6.5 6.5-9.2zm-11.6 28.6v-.8c.1-3.5.7-7 1.7-10.3l28 9.7 4 1.4-32 11.1c-1-3.6-1.6-7.3-1.7-11.1zm11.6 28.6a40 40 0 0 1-6.5-9.1l30.3-15.1-14.8 30.8c-3.3-1.8-6.3-4-9-6.6zm28.1 11.8c-3.7 0-7.4-.6-11-1.7l11-32.5 11 32.5a39.1 39.1 0 0 1-11 1.7zm28.1-11.8a40.1 40.1 0 0 1-9 6.6l-14.8-30.8 30.3 15c-1.7 3.4-4 6.5-6.5 9.2zm9.9-17.4-31.9-11.2 5-1.8 27-9.3a41.4 41.4 0 0 1 1.7 11.1c-.1 3.8-.7 7.5-1.8 11.1z" fill="#09265E"/><path d="M196.8 245a66.1 66.1 0 0 0-20-45.2 63.8 63.8 0 0 0-90.2 1.4A66.2 66.2 0 0 0 68 247v.4a66.6 66.6 0 0 0 18.5 46.9 64.4 64.4 0 0 0 45.9 19.5 63.5 63.5 0 0 0 45.9-19.5 65.7 65.7 0 0 0 18.5-49.3zm-64.4 52a48 48 0 0 1-34.5-14.6 50.1 50.1 0 0 1-14.2-35v-.7a50 50 0 0 1 14.1-34.3 48.3 48.3 0 0 1 68-1.2 50 50 0 0 1-33.4 85.8zM754 237.9v-1a47 47 0 0 0-17-26.7 45.6 45.6 0 0 0-59 2.4 47.3 47.3 0 0 0-13.7 47.5 47.3 47.3 0 0 0 23.2 29.4 45.6 45.6 0 0 0 64-23.2 47.7 47.7 0 0 0 2.6-28.4zm-17-19c2.6 2.7 4.8 5.7 6.5 9L723 238.4l-1.4.7-8.3 4 1.9-3.9.3-.6 12.7-26.3a40 40 0 0 1 9 6.6zM709 207c3.6 0 7.3.7 10.9 1.8l-10.1 30-.2.5-.7 2-.6-2-.2-.5-10.1-30c3.5-1.2 7.2-1.7 11-1.8zm3.1 40.4a3.3 3.3 0 0 1-2 3 3.1 3.1 0 0 1-3.4-.7 3.2 3.2 0 0 1-.7-3.5 3.2 3.2 0 0 1 3-2c.8 0 1.6.3 2.2 1 .6.5.9 1.3.9 2.2zm-31.2-28.6c2.7-2.6 5.7-4.8 9-6.6l12.9 26.9.2.4 1.7 3.5-6.7-3.3-.8-.4-22.8-11.4a39 39 0 0 1 6.5-9zm-11.7 28.6c0-2.3.3-4.5.7-6.8v-.2l1-4.1 10.5 3.6.8.3 20.6 7.2-32 11.1c-1-3.6-1.5-7.3-1.6-11.1zM681 276a40 40 0 0 1-6.5-9.1l30.3-15.1-14.8 30.8c-3.3-1.7-6.3-4-9-6.6zm28 11.8c-3.6 0-7.3-.6-10.9-1.7l11-32.5 11 32.5a39.3 39.3 0 0 1-11 1.7zm28-11.8a40.2 40.2 0 0 1-9 6.6l-14.8-30.8 30.3 15a37.3 37.3 0 0 1-6.5 9.2zm10-17.4-32-11.2 26.1-9.1 2.7-1 3.1-1a257.3 257.3 0 0 0 .5 1.8 40 40 0 0 1 1.3 9.3 38 38 0 0 1-1.8 11.1z" fill="#09265E"/><path d="M772.6 237.3v-.6a65.8 65.8 0 0 0-22.9-40 63.7 63.7 0 0 0-85 3.1 66 66 0 0 0-20.2 47.6 66.6 66.6 0 0 0 18.6 46.9 64.4 64.4 0 0 0 45.9 19.5 63.5 63.5 0 0 0 45.8-19.5 65.7 65.7 0 0 0 17.8-57zM708.9 297a47.8 47.8 0 0 1-34.4-14.6 50.1 50.1 0 0 1 1.6-71.7 48.3 48.3 0 0 1 80.5 26.1l.1 1a50.5 50.5 0 0 1-10.1 41 49 49 0 0 1-37.7 18.2zM13.7 166.2v7h11.5c.7 0 1.4-.3 2-.8.4-.4.8-1 1-1.7v-27.4a2.8 2.8 0 0 0-.7-2.1c-.7-.5-1.5-.7-2.3-.6H14.7l-.3 4.8h6.7v5.2h-7v2.5h7v5.3h-7.3v2.5H21v5.2h-7.4zm393.9-46h-29.1a3.7 3.7 0 0 0-3.5 2.3l-.2 1.5v7.8a3.8 3.8 0 0 0 1 2.7 3.7 3.7 0 0 0 2.7 1.1h29.1c1 0 2-.4 2.6-1 .7-.8 1.1-1.7 1.1-2.8V124a3.8 3.8 0 0 0-2.3-3.5c-.4-.2-.9-.3-1.4-.3zm-2.7 10.3h-23.7c-.6 0-1.2-.4-1.6-.8a2.6 2.6 0 0 1 0-3.5 2 2 0 0 1 1.6-.8H405a2 2 0 0 1 1.6.8 2.6 2.6 0 0 1 0 3.5 3 3 0 0 1-1.6.8zM309.3 20l-97 67.4c-2.1.2-4.1-.2-6-1 17.3-13.1 67.5-50.4 99-66.3h4zm553.9 199-2 5.7c0 .2-21.6.6-35.3.7 0-1 .3-2.1.5-3.2h.7a36.8 36.8 0 0 0 12.8-3.7 36 36 0 0 0 12.4 1.5c3.7 0 7.3-.3 11-1zm-4.2-84.1c0 7.6-.4 15.2-1.3 22.7l-.9.5-1.7.8-1 .4a28.5 28.5 0 0 1-9 1.6h-1.8l-3.1-.1c-.7 0-1.3 0-2-.2h-.9l-1.6-.3-1.5-.2-1.3-.3-.9-.2-.8-.2V135h27.9zm10.6 81.9z" fill="#09265E"/><path d="M844 162.4a51 51 0 0 1-13-1.7c-.1 0-1-.1-1-.3v-25.8a72.8 72.8 0 0 1-14-13.2c-3-5 .3-11.6.5-11.9l1-1c-.1 0 .1 0 0 0l39.5-1c-2-9-2.3-8.6-6-17l-431.6 5.7 27.6-.8V5.6h-45.8s-47.4-.1-79.1 8a76 76 0 0 0-13.4 5.2h3.6c.1 0 .2 0 .3.2.2 0 .2.2.3.3v.4l-.3.3-99 68.7-.3.1h-1.2c-1 0-1.9 0-2.8-.2a9.3 9.3 0 0 1-3.4-1.3l-5 3.9-6-.2-18.8 16.1-.4.2c-1 0-101.6 9.1-115.7 11a21.2 21.2 0 0 0-17 11h17c1 0 2.1.4 3 1a3.6 3.6 0 0 1 1 2.8v1.3c0 3.8.1 7.1-1.6 7.4-1.4.5-12.3 11-13.1 13.7-.7 2.3-1.2 14.7-1.3 21-.5 2-2.4 6-6.6 6H13.5l-.7.6-6.7 6.5-4.6 13.2s-.4 10.2 0 18.3c.3 8.1 19 21 19 21l16.6 3.7 27.4 1.1A70.5 70.5 0 0 1 85 198.8a68.1 68.1 0 0 1 95.4-1.3 70.5 70.5 0 0 1 21.6 47.6h350.6l73.8-.2 15-3.2a71 71 0 0 1 21-45 68.1 68.1 0 0 1 91.5-3c13 11 21.4 26.5 23.9 43.5l6.2.6c1.7.2 3.2-1.5 3.2-1.5h11.5c6.7 0 13.5-5.6 13.5-5.6l2.9-5.1h10c.5-4.3.6-4.4 1-4.5l1-.2c10.2-1.8 12.8-3 13.1-3.5l.1-.1.1-.2.1-.2.2-.6a18.7 18.7 0 0 0 .8-3.4l.7-4.5.3-1.9.2-1.5.1-1 .2-1.5.2-1.5 1-9.4.2-1.6.2-2.3.1-1.8.1-.2.3-.2 5-4.5 1-.1a68.4 68.4 0 0 0 6-17.1s.8-2.8 1-4.4a30.2 30.2 0 0 1-14 3zM60.3 158c12-11.4 26.5-19.9 42.2-25 23.7-7.5 60.7-9.3 101.6 25l.2.4v.5a.7.7 0 0 1-.6.2c-.2 0-.3 0-.4-.2-40.5-33.8-77-32-100.4-24.5A110.2 110.2 0 0 0 60.7 159a.7.7 0 0 1-.6-.9l.2-.2zm147.5 73.2a.6.6 0 0 1-.5-.2.6.6 0 0 1-.1-.5 89.2 89.2 0 0 0-10.4-35.7c-9-16.3-27.7-35.7-66-35.7-38.4 0-57.1 19.4-66 35.7A88.6 88.6 0 0 0 54.2 231l-.4.2-.5-.2a90.2 90.2 0 0 1 10.3-36.8c9.2-16.6 28.2-36.4 67.2-36.4s58 19.8 67.2 36.4a90.2 90.2 0 0 1 10.3 36.8.7.7 0 0 1-.5.2zm29.1-135c0-3.4 3.4-7 5.7-9.4l.4-.3a72 72 0 0 1 4.7-4.6l.2-.2 1.5-1.2 2.6-2.3 5.9-4.4a336.3 336.3 0 0 1 26.7-17.6l3-1.9 6.8-4.1 7.8-4.8 1.3-.8.5-.2.1-.1 5.1-3.3.6-.4h.1l1.7-1 10.4-6.4 2.3-1.3a47 47 0 0 1 10.2-5.2c11-3.5 23.9-5.2 40.4-5.6l47.4-1.8c-1.2-14.8-12.2 77-3 77l27.7-1-26 1h-53.4c-4.7 0-20.7.6-31.8 8.6-6.2 4.3-13.3 7-20.8 8l-77.4 2.7a.6.6 0 0 1-.6-.4c-.2-.2-2.1-5.6-.1-19zM413.5 124v7.9c0 1.3-.6 2.6-1.5 3.6a5 5 0 0 1-3.6 1.5h-29.1a5 5 0 0 1-3.6-1.5 5 5 0 0 1-1.5-3.6v-8a5 5 0 0 1 1.5-3.5 5 5 0 0 1 3.6-1.5h29.1a5 5 0 0 1 3.6 1.4 5.1 5.1 0 0 1 1.5 3.7zm188.4 73-376.6 8.4-.5-.1a.7.7 0 0 1 0-1l.5-.2 376.5-8.4.5.1.2.5c0 .2 0 .3-.2.5l-.5.2zm0-8.5L225.3 197c-.2 0-.4 0-.5-.2a.7.7 0 0 1-.2-.5.7.7 0 0 1 .2-.5l.2-.1h.3l376.5-8.5c.2 0 .4 0 .5.2l.2.4a.7.7 0 0 1-.2.5.7.7 0 0 1-.5.2zm37.6-28.7a112 112 0 0 1 42.2-25c23.8-7.5 60.7-9.3 101.6 25 .2 0 .2.2.3.4 0 .2 0 .3-.2.5a.7.7 0 0 1-.5.2l-.4-.1c-40.5-33.9-76.9-32-100.4-24.7A110.8 110.8 0 0 0 640 161a.6.6 0 0 1-.6-.4.7.7 0 0 1 0-.5l.1-.2zM787.1 233c-.2 0-.3 0-.5-.2a88.5 88.5 0 0 0-10.6-36.2c-9-16.3-27.6-35.7-66-35.7-38.3 0-57 19.4-66 35.7a89.2 89.2 0 0 0-10.6 36.2.6.6 0 0 1-.9 0 .6.6 0 0 1-.1-.5 90 90 0 0 1 10.5-36.3c9-16.6 28.1-36.4 67.1-36.4 39 0 58 19.8 67.2 36.4a90.2 90.2 0 0 1 10.3 36.8.6.6 0 0 1-.5.2z" fill="#09265E"/><path d="m404.7 21.7-30.6.6a142 142 0 0 0-40 5.6l-1 .3-.4.1a11 11 0 0 0-1 .5l-.4.1-2 1.2c-5.1 2.8-13.3 8-13.3 8l-7.4 4.6-2.5 1.6-2.7 1.4-1.3.7-7.8 4.8-6.7 4.2-3 1.9L280 60a320.5 320.5 0 0 0-30.6 21.3l-1.4 1.2-.3.3c-.2 0-.7.5-.8.6l-.2.3a80.3 80.3 0 0 0-3.6 3.5l-.4.4c-2 2-5.3 5.6-5.3 8.5-1.7 11-.6 16.5-.2 18l77-2.7s11-1 20-7.6c11.4-8.3 27.8-9 32.6-9h35.4l2.5-73.1zm-5.6 69.8a144 144 0 0 0-56.3 5.7c-7 2.5-13.5 7.2-17.7 9.3a36.5 36.5 0 0 1-10.8 2.6l-.8.1h-.9l-72.4 1.7s-4.2-15 8.2-25.2C260.7 75.5 327.7 33 337 29.8c9.4-3.2 65.3-4.9 65.3-4.9L399 91.5zm459.9 37h-6.4l-7.4-7.6v-5.2h13.2c.4 3.9.6 8.2.7 12.8z" fill="#09265E"/><path d="M859.1 133.5h-28.3c-1.5-1-11.6-8.6-14.2-12.9-2.2-3.8 0-9.6.7-11.2l40-.6.7 4 .2 1.6h-13.7c-.1 0-.3 0-.4.2l-.2.4v6.1a.6.6 0 0 0 .2.5l7.8 8 .5.2h6.7v3.7zm-797.8 6.9A54.4 54.4 0 0 0 47 155c-.9 3-1.3 20.6-1.3 21.2 0 .2-1 4.8-5.3 4.8H13.7v-6.5h11.5c1 0 2-.4 2.7-1 .8-.7 1.3-1.5 1.6-2.5v-27.6a4 4 0 0 0-1.3-3.2c-.9-.7-2-1-3.1-.9H14.8l1-8.6h43.3a3 3 0 0 1 2 .6 2.3 2.3 0 0 1 .7 1.8v1.3c.1 1.8.1 5.7-.5 6zM192 91l-17.4 14.9c-5.2.5-101.7 9.2-115.6 11-12.8 1.7-17.3 10.3-18.1 12.4H16c.3-2 .8-3.8 1.6-5.6 4.6-9.9 4.3-11.6 76.9-23 52-8.3 83.8-9.6 97.5-9.7zm677 109.1a85 85 0 0 1-4 14.4l-.4.9-.8 2.2c-7.3 2-20.9.9-23-.1 1.7-3.7 3.9-25.9 4.4-31.3l4.8-3.5 18.3.3s2 9.5.7 17.1zm-7-40.5zM41.3 130.7zM422 21.4v73.5h-19.7l2.4-73.2 17.4-.3zM329.5 30h-.2l2-1 .2-.2h.2l.3-.2.7-.3h.3c.7-.2-1.2.6-3.5 1.6z" fill="#09265E"/></svg>