<svg width="924" height="284" viewBox="0 0 924 284" fill="none" xmlns="http://www.w3.org/2000/svg"><path d="M168.3 153.5a64.8 64.8 0 1 0 0 129.5 64.8 64.8 0 0 0 0-129.5zm0 115.9a51.1 51.1 0 1 1 0-102.2 51.1 51.1 0 0 1 0 102.2zm551.9-115.9a64.8 64.8 0 1 0 0 129.5 64.8 64.8 0 0 0 0-129.5zm0 115.9a51.1 51.1 0 1 1 0-102.3 51.1 51.1 0 0 1 0 102.3z" fill="#09265E"/><path d="M720.2 170.3a48 48 0 1 0 0 96 48 48 0 0 0 0-96zm-30 19a10.2 10.2 0 0 1 11-2.9l12.4 12.2-1 12.5-12.5 1.3-12.5-12.2a10.2 10.2 0 0 1 2.6-11zm12 61.5a10.9 10.9 0 0 1-13.9-13.5l12.3-12.5 12.5 1 1.2 12.5-12.2 12.5zm18-27.5zm18-37.6a10.9 10.9 0 0 1 13.8 13.5l-12.2 12.5-12.5-1-1.3-12.5 12.3-12.5zm12 61.6a10.2 10.2 0 0 1-11 2.8L726.9 238l1-12.5 12.5-1.3 12.5 12.2a10.2 10.2 0 0 1-2.6 11z" fill="#09265E"/><path d="M917 153.5c-2.5-.5-4.8-1.2-7-2.2v31.8a.8.8 0 0 1-.7.8c-.6 0-59.5 8.3-79.1 8.3-20.2 0-22.9-7-23-7.2a.8.8 0 0 1 .5-1 .8.8 0 0 1 1 .4c0 .1 2.7 6.2 21.4 6.2a956 956 0 0 0 78.2-8.2v-32.2a.8.8 0 0 1 1.1-.8c1.5.7 3 1.2 4.6 1.7l-4.6-12.5L902 116s-3-25-7.3-29.6l-7.8-8-19.8-1.6-58-4.2-43-19.7s-88-37-93.1-39c-5.2-2-82.8-15.7-154.7-12.4C446.5 4.7 405.5 13.9 389 18.3c-16.4 4.4-129.2 73.1-129.2 73.1s-153 16.5-198.8 32.5c-45.7 16-44.5 39.8-44.5 39.8a23.5 23.5 0 0 1-8.9 10.9c-6.4 4-2.4 48.1-3.6 48-1.2-.2-3.6 9.4-3.6 9.4l16.9 7.2 14.4 6.8h60.7l10.4-.2a71 71 0 1 1 132.1-3l14-.3h400.3l4.2-.3a71 71 0 1 1 135.8-7.2l10.4-.5s70.2-6.2 81.1-10c11-3.7 22-7.1 22-7.1s10.2-4.1 14-8.1c3.7-4 5.3-15 5.3-15l1.6-36.6-6.7-4.2zm-805.2-22.3c-.2.1-22.4 12.4-28.7 23.9a.9.9 0 0 1-.6.4L57 159.7c-12.7 2-26.4 4.2-31.9 4.8a.8.8 0 0 1-.7-.4.8.8 0 0 1 0-.8c.4-1 11.2-24.7 18.4-27.2 7.2-2.5 50.7-9.8 67-12 7.1-1 8.4-.3 8.8.8.5 2.1-4 4.8-6.9 6.3zm156.8 84.7s17.3-6.8 26.5-7.2l311.3-14.1 20 8.8-357.8 12.5zm-9.4-84.5c-6.7 35 8.5 79 8.7 79.5a.8.8 0 0 1 0 .6.8.8 0 0 1-.5.4h-.3a.8.8 0 0 1-.7-.5c-.2-.4-12.6-36.5-10-69.5a373 373 0 0 1 1.7-12.6 67 67 0 0 1 5.4-15.8C282 77.3 384.7 28 403.7 21.5a.8.8 0 0 1 1 .6.8.8 0 0 1-.5 1c-18.8 6.3-121 55.3-139.3 91.1a63.4 63.4 0 0 0-5.5 16.6l232.5-20.5 203.2-8.9-435.9 30zm426.5-55.8a.8.8 0 0 1-.6.4l-41 1.8h-.8L539.7 82h-.2l-23 1.1-37.5 2.4-.3.1-186 10.7a.8.8 0 0 1-.8-.5.8.8 0 0 1 .3-.9c.5-.4 55.9-47.1 113.2-65.4C441 18 467.1 15.5 482 15.3h5.9l29.9-.1h2.2c72.3.1 110.4 6.1 118.7 7.6h.3l1.5.3c2.6.4 5 1.1 7.5 2 9.4 3 48.8 16.4 49.6 24 .9 8-11.4 25.8-11.9 26.5zm109.4 86.6a213.2 213.2 0 0 1-25-2 .8.8 0 0 1-.1-.5.8.8 0 0 1 .8-.7c.4 0 36 4.6 45.5-2 9-6 48.6-25.2 56.7-29.1-9-4.7-47.3-24.9-49.2-31.2v-.3h-53a.8.8 0 0 1-.7-1 .8.8 0 0 1 .4-.5h54.1c6.3 0 61.4-.4 65.8 2 4.5 2.5 11.5 30.7 12.3 33.9a.8.8 0 0 1-.8 1l-27-3c-3.3 1.6-48.3 23.2-57.7 29.6-4.3 3-13.2 3.8-22.1 3.8z" fill="#09265E"/><path d="M117 125.4c0 .7-2.8 2.8-6 4.4-24.5 0-46.3 21.5-52.3 28-12.2 2-25.8 4.2-32.3 5 3.5-7.5 11.9-23.4 17-25.2a834 834 0 0 1 71.7-12.4c.7-.1 1.4 0 2 .2zm783.9 4.6-25.9-2.8c-19-9.9-47.6-26-49.6-30.8 13.4 0 30.6 0 43.8.3 1 2.4 7.4 14.6 26.4 14.6 2 6 3.9 13.1 5.3 18.7zM518.8 16.8l-.4.5v-.5h.4zm-22.1.5 19.6-.5-3.8 64.8-32.5 2.2 16.7-66.5zM57.1 159.7H57h.1zm581.1-135 7.8 1.4-3.4 49.5H635l3.2-50.9zM168 170a48 48 0 1 0 0 96 48 48 0 0 0 0-96zm-30 19a10.2 10.2 0 0 1 10.9-2.9l12.5 12.2-1 12.5-12.5 1.3-12.5-12.2a10.2 10.2 0 0 1 2.6-11zm11.9 61.5a10.9 10.9 0 0 1-13.8-13.5l12.2-12.5 12.5 1 1.3 12.5-12.2 12.5zm18-27.5a5 5 0 1 1 .1 0zm18.2-37.6a10.9 10.9 0 0 1 13.7 13.5l-12.2 12.5-12.5-1-1.3-12.5 12.3-12.5zm11.8 61.6a10.2 10.2 0 0 1-10.8 2.8l-12.5-12.2 1-12.5 12.4-1.3 12.5 12.2a10.2 10.2 0 0 1-2.5 11z" fill="#09265E"/></svg>