<svg width="875" height="334" viewBox="0 0 875 334" fill="none" xmlns="http://www.w3.org/2000/svg"><path d="M170.6 216a43.8 43.8 0 1 0 0 87.6 43.8 43.8 0 0 0 0-87.7zm13.3 5.2s17 8.5 17.6 13a6.8 6.8 0 0 1-2.9 6.8l-18.8 11.6-2.8-2.3 6.9-29.1zm-29 .3a6.8 6.8 0 0 1 5.7 4.6l6.2 21.3-3 2-26.2-14.5s12.8-14 17.4-13.4zM138.2 283s-9.9-16.2-8-20.3a6.8 6.8 0 0 1 6-4.3l22.1.1 1.2 3.5-21.3 21zm21.8 13.8a6.8 6.8 0 0 1-1.6-7.1l8.4-20.5 3.7.3 11.4 27.6s-18.7 3-22-.4v.1zm45.2-16.9a6.8 6.8 0 0 1-7.3-.4L180.3 266l1.3-3.4 29.7-3.6s-2.2 18.8-6.2 21z" fill="#09265E"/><path d="M170.6 211.2a48.6 48.6 0 1 0 0 97.1 48.6 48.6 0 0 0 0-97.1zm0 94.2a45.7 45.7 0 1 1 0-91.4 45.7 45.7 0 0 1 0 91.4z" fill="#09265E"/><path d="M170.6 186a73.8 73.8 0 1 0 0 147.5 73.8 73.8 0 0 0 0-147.5zm0 124.1a50.4 50.4 0 1 1 0-100.8 50.4 50.4 0 0 1 0 100.8zM696.5 216a43.8 43.8 0 1 0 0 87.6 43.8 43.8 0 0 0 0-87.7zm13.3 5.2s17 8.5 17.6 13a6.8 6.8 0 0 1-2.9 6.8l-18.8 11.6-2.8-2.3 7-29.1zm-29 .3a6.8 6.8 0 0 1 5.8 4.5l6.1 21.3-3 2-26.2-14.4s12.8-14 17.4-13.4zM664 283s-9.9-16.2-8-20.4a6.8 6.8 0 0 1 6-4.2l22.1.1 1.2 3.5-21.3 21zm21.8 13.8a6.8 6.8 0 0 1-1.6-7.1l8.4-20.5 3.7.3 11.4 27.6s-18.7 3-21.9-.4zm45.2-16.9a6.8 6.8 0 0 1-7.3-.4L706.3 266l1.2-3.5 29.7-3.5s-2.1 18.8-6.2 21z" fill="#09265E"/><path d="M696.5 211.2a48.6 48.6 0 1 0 0 97.1 48.6 48.6 0 0 0 0-97.1zm0 94.2a45.7 45.7 0 1 1 0-91.3 45.7 45.7 0 0 1 0 91.3z" fill="#09265E"/><path d="M696.5 186a73.8 73.8 0 1 0 0 147.5 73.8 73.8 0 0 0 0-147.5zm0 124.1a50.4 50.4 0 1 1 0-100.8 50.4 50.4 0 0 1 0 100.8zM55.9 139.6a7446 7446 0 0 0 65.8-11.3 40.7 40.7 0 0 1 24.5-8.3l2.4-.3c6-.7 12.2-1.7 18.1-2.7l2.7-.4 19.4-3.4 3-.5c8-2.4 27.3-9.7 30.3-18C207 97 124.2 110 92 117.9a351.5 351.5 0 0 0-68.8 26.3l-.7 2.8c11-3 22.1-5.4 33.4-7.3zM774.2 19.3c0 1.7 7.2 7.5 13.9 12 1.7-.4 8.8-1.6 13.6-1.3l-2-2.3c-2.5-4.2 9.8-4 9.8-4l4.7-6.8-32.6-3.1-6.4-.5c-.6 2-1 4-1 6zm-734.4 221c-1.3-14.9-3.3-31.1-4.7-32.8-.8-.3-3.8-.4-7.7-.4-5.8 0-13.7.3-19.4.5-1.7 0-2.8.3-3.5 1-1.3 1.6-1.4 6-.2 14.2 1.3 9.6 5.4 12.8 7.8 13.8a7.4 7.4 0 0 1 4 4.5l4.4 13.6a5.4 5.4 0 0 0 5.1 3.8h14.6c.5-1.8.2-10.5-.4-18.2zM10.3 214h19.8a1.4 1.4 0 1 1 0 3H10.3a1.4 1.4 0 0 1 0-3zm0 6.3h19.8a1.4 1.4 0 1 1 0 3H10.3a1.4 1.4 0 0 1 0-3zm0 9.3a1.4 1.4 0 0 1 0-3h19.8a1.4 1.4 0 1 1 0 3H10.3zm9.1 7.8a1.4 1.4 0 0 1 1.4-1.4h13.6a1.4 1.4 0 0 1 0 2.9H20.8a1.4 1.4 0 0 1-1.4-1.5zm.6 6.2a1.4 1.4 0 0 1 1.5-1.4H35a1.4 1.4 0 0 1 0 2.9H21.5a1.4 1.4 0 0 1-1.5-1.5zm16.7 8.3H23.2a1.4 1.4 0 0 1 0-2.8h13.5a1.4 1.4 0 0 1 0 2.8zm824.1-136.3v-9c-11.1-2.4-33.7-8.2-31.1-12 3.3-5 15.3-2.4 13.5-11.2-.8-4.1-.8-8.3.2-12.3-9.7-9.4-30.8-29.7-39.6-39-3.1-.8-10 0-14 .7L824 67c.4.4 7 8.2 2.9 12.4-3.7 3.7-44.8 6.6-53.4 7.2-.5.2-1.4.7-1.4 1.4 0 .4.4 2 5.8 4.2 10.8 4.6 69 19.8 69.7 20a116 116 0 0 0 13.2 3.4zm-841 64.1h.2c4.7 0 47.5-17.4 60.6-23l17.8-22.4c-14.5 2.5-32.1 5.5-42.3 7.1a340 340 0 0 0-34 7.6L16 174.7c1.2 2 2.7 4.2 3.8 5zM263.4 85c27-10.5 100-52 110.2-58l-7.1-5.5c-34 13.8-116.7 61.3-122.7 66.5a18 18 0 0 1-4 2.5c4.5.2 11.8-1 23.6-5.5zm609.4 142.8c-2.5.4-8 1.7-11.7 6.1a19 19 0 0 0-3.9 13.8 88 88 0 0 0 16.5-5.6c1.2-1.6-1.3-11-1.3-11l.4-3.3z" fill="#09265E"/><path d="M873.6 210c-.4-5.8-4.5-6.8-6.8-6.9-16.7 9.5-77.5 13-80.3 13.2a1 1 0 0 1-.7-1.6l.6-.3c.7 0 61.2-3.5 78.5-12.3l-1.7-4.7V191s-.3-13 0-23.8c.2-11-2.4-25.3-2.4-25.3v-24.4c-4.6-1-9.2-2-13.7-3.5-1.7-.5-30.5-8-51-14-3.8 5.4-30.5 44.3-36.5 50a1 1 0 0 1-1.2.1 1 1 0 0 1-.1-1.4 762 762 0 0 0 35.9-49.2 197 197 0 0 1-17-5.6c-4.7-2-7-3.9-7-6 0-1.6 1.8-2.7 2.7-3l.3-.1c19-1.3 50-4.2 52.4-6.7 2.9-3-2.8-9.7-2.9-9.8L787.3 33c-3.6-2.4-15-10.2-15-13.7.2-2 .5-4 1-6L600 .4 465 3.1s-64.3 8.3-89.9 15.4c-1.8.5-4 1.3-6.4 2.3l7.4 5.7a1 1 0 0 1 .2 1.2l-.3.3c-.9.5-82.7 47.4-111.7 58.7a69 69 0 0 1-23.6 5.7 19 19 0 0 1-4.1-.4 51 51 0 0 1-12 2.4h-.3c-2.7 11.4-30.6 19.7-31.8 20h-.1l-3 .6-19.5 3.4-2.6.4c-6 1-12.1 2-18.2 2.7l-2.5.3c-4.4.5-9 1-13.1 2.4-2.6.9-5.1 2-7.5 3.5l-3 2.3c-1.4 1-34.5 25.3-38.1 27-2 1-17.6 7.5-33 13.6-24 9.5-30.1 11-32 11-.4 0-.7 0-1-.2a15 15 0 0 1-3.4-4l-1.9 7.9S6.3 198.6 3 202C-.3 205.3.6 224.2.6 224.2l6 37a34 34 0 0 0 9.4 9.1c5.6 3.6 69.2 8 69.2 8h7.5a80 80 0 1 1 156.9-5l367.4-4.4a80.1 80.1 0 0 1 47.1-82.4l24.2-79.2-10.7-17.6a1 1 0 0 1-.2-.7 1 1 0 0 1 .5-.6 1 1 0 0 1 1.3.4l10.8 17.9a1 1 0 0 1 .1.7l-23.8 78.2a80.1 80.1 0 0 1 110 81.5l7.7.3s26.7-3 30.2-3c3.6 0 10.4-6.9 10.4-6.9s18 .5 23-2.2c5-2.6 3-5.8 3-5.8l4.8-1.3a21 21 0 0 1 4.3-15.5 21.2 21.2 0 0 1 13.2-6.8c.6-5.3.8-10.6.7-15.9zM40.9 260.2c-.2 0-.7.2-6 .2h-9.3a7.3 7.3 0 0 1-6.9-5.1l-4.3-13.7a5.5 5.5 0 0 0-3-3.3c-2.8-1.2-7.5-4.8-9-15.2-1.2-9.2-1-13.5.7-15.6 1.2-1.5 3-1.7 4.8-1.7 4.2-.2 25.4-1 28 0 .7.4 2 1 4 18 1 8.2 1.7 16.3 1.7 16.4 1.5 19.6.1 19.9-.7 20zM505.6 32.6S502 61.7 504 74.5a194 194 0 0 0 3.6 18.6l-37.6.5s10-53.2 7.6-59.8l28.1-1.2zm-97.2 6.6c10.3-2.1 20.6-4.1 31-5.7 8-1.2 16.2-2.4 24.3-2.3 2.8 0 5.6-.2 7.5 2.2 2 2.8 2 7 1.5 10.2-1.5 13.9-11.6 53.6-11.6 53.6s-182.5 10-187.3 7c0-.1 88-55.3 134.6-65zm58.1 80.6a3.8 3.8 0 0 1-3.7 3.8H441a3.8 3.8 0 0 1-4-3.8 3.8 3.8 0 0 1 4-3.8h21.7a3.8 3.8 0 0 1 3.8 3.7zm-196-6.1a1 1 0 0 1 1.4-.2 1 1 0 0 1 .2 1.3c-.1.1-9.6 13-8.7 40.8a807.7 807.7 0 0 0 7.2 71.4.9.9 0 0 1-.4.6 1 1 0 0 1-.3.1h-.2a1 1 0 0 1-.9-.8c0-.4-6.3-43.2-7.2-71.3-1-28.5 8.5-41.4 9-42zm328 137.6H262.4a1 1 0 0 1 0-1.9h336a1 1 0 0 1 .7 1.6 1 1 0 0 1-.6.3zm0-23.7-115 2.4-188.9 4a1 1 0 0 1-1-1 1 1 0 0 1 1-1l187.9-3.8c0-6.8-.6-50 0-73.7.6-25.6 5.2-52.2 5.3-52.5a1 1 0 0 1 1.8.4c0 .2-4.6 26.7-5.2 52.2-.6 23.5-.1 66.7 0 73.6l114.1-2.4a1 1 0 1 1 0 1.8zm41.2-104.1h-21.8a3.8 3.8 0 0 1 0-7.6h21.8a3.8 3.8 0 1 1 0 7.6zm5.1-35.8-131.1 5.4a159.8 159.8 0 0 1-5.4-52c.3-7.7 3.1-13 11.4-14 15.7-1.5 115 0 115 0s7.6 2.9 10.1 15.8 0 44.8 0 44.8zm5-4.3s2-40.6-5.8-52h12L678 82l-28.2 1.4zm102-26.9s-32 17-49.5 22.7c-17.5 5.7-19.5 4-19.5 4l-22-53.5c50-5 85.2 13.5 91 19 5.9 5.6 0 7.8 0 7.8zM860 104.8a1 1 0 0 1-.7-.4 1 1 0 0 1-.2-.6 24 24 0 0 0-1.7-12.3 94 94 0 0 0-13-16.5 1 1 0 1 1 1.4-1.3c.4.4 10.4 10.8 13.3 17 1.8 4.2 2.5 8.8 1.9 13.3a1 1 0 0 1-1 .8z" fill="#09265E"/></svg>