<svg width="400" height="240" viewBox="0 0 400 240" fill="none" xmlns="http://www.w3.org/2000/svg"><path d="m307.8 131.5 12.4-7.2c.9-.5 3 .4 3.5 1.3l10.2 31.9c3.6 2.2 6.2 5.8 6.2 10.7a12 12 0 1 1-24 0c0-1.7.5-3 1-4.9l-10.7-28.2c-.4-1.4 0-2.7 1.4-3.6zM277.2 175H259c-.4 0-.9-.5-.9-1-.4-1.7-.4-4.4-.4-6.2 0-26 13.3-49 33.7-61.5l8 20.2a52.2 52.2 0 0 0-20.9 47.1c0 1-.9 1.4-1.3 1.4zm25.2-46.7-.4-.9c-.5-.9.4-3.1 1.3-3.6l13.3-7.2c1.3-.9 3.1 0 3.6 1.4l.4.9c.5.9-.4 2.2-1.3 3.1l-13.3 7.2c-1.4.9-2.7.9-3.6-.9zM343.2 75l-38.5 4.9.4.4c.4 1-.4 2.3-1.3 3.2l-13.3 7.1c-1 .5-2.2.5-3.1-.9l-3.6-7.1-31.5 4a10 10 0 0 1-10.6-9l-2.2-22c-1-6.7 4-11.2 10.2-11.2l93.5.5c12.5 0 18.2 27.3 0 30zM91 56c-.5 1.9-2.3 2.3-4.5 2.3h-5.8c-2.2 0-4.9-1.8-4.9-4.5-1.3-21-14.6-31.4 0-31.4H94c4 0 6.7 3.6 5.3 7.2L91 56.1z" fill="#09265E"/><path d="M209.8 129.2 224 97.4c.4-1.4 1.7-3.2 3.5-3.2l52.8-5.4c2.2 5 4.4 9-1.8 10.8-26.6 8-32 49.3-33.7 71.3-.4 2.3-2.2 4.5-4.9 4.5l-28.4.5c-3.5 0-5.3-4.5-3.5-6.8 8.9-10.7 5.3-29.6 1.8-35.4a7.7 7.7 0 0 1 0-4.5zm86.9-15.2-.5-1c-.4-.8.5-3 1.4-3.5l12.8-7.2c1.4-1 3.1 0 3.6 1.3l.4 1c.5.8-.4 2.2-1.3 3l-13.3 7.2c-1 .5-2.7.5-3.1-.8z" fill="#09265E"/><path d="m165 130-9.8-32.7c-.4-1.8.9-3.1 3.1-3.1h50.1c1.8 0 3.1 1.8 2.2 3.6l-13.3 35.4a25 25 0 0 1 7.1 17.5c0 9.4-4 17.5-12.8 22v6.7H302c7.5 0 13.7 6.8 40.3 6.8v9.8c-26.6 0-32.3 6.3-40.3 6.3H192c-14.2 0-23-6.7-23-21v-6.4c-9-4-15.1-13-15.1-23.3.4-9 4.9-16.6 11-21.5z" fill="#09265E"/><path d="M72.3 87.5c5.3 0 10.6.4 15.5 1.8l4-11.2c.4-1 2.2-1.8 3.5-1.4h.5l5.3-13.4-3-1.4c-1-.4-1.9-2.2-1.4-3.6l7.5-22c.5-.9 2.2-1.8 3.6-1.3l3.5 1.3 9.8-26.9c1.7-5 7-9.4 12.4-9.4h28c1.3 0 3.5 3.1 3.5 4.5v5.4c0 1.3-2.2 3.6-3.6 3.6h-22.6c-1.8 0-3.5.4-4 2.2L127.3 35c1.8-1.4 3-2.3 5.3-2.3 24 0 66.5 12.6 95.3 18.9 4 .9 6.7 4.5 7.1 8l1 18.5c.4 5.8-4.5 11.6-10.3 11.6h-93.5c-7.6-4.5-12-9.9-13.3-18.8l-5-2.3-5.3 13c1.4.5 1.8 2.3 1.4 3.2L105.5 96a72 72 0 0 1 37.3 63.3c0 39.9-32 72.2-71.4 72.2A71.8 71.8 0 0 1 0 159.3a73 73 0 0 1 72.3-71.8zm0 123.3c28 0 50.5-22.8 50.5-51.1a51 51 0 0 0-24.3-43.5l-15.6 38.6c1 1.8 1.4 3.1 1.4 5.3a12 12 0 1 1-24 0 11 11 0 0 1 6.2-10.3L80.7 109c-2.6-.4-5.8-.9-8.4-.9-28 0-50.6 22.9-50.6 51.2a51 51 0 0 0 50.6 51.5zm198.7-4.5h24.8c8.9 9 20.4 12.6 32.8 12.6 28 0 50.6-22.9 50.6-51.1a50.8 50.8 0 0 0-50.6-51.2c-1.8 0-4 0-5.8.5l-6.6-20.7c4-.4 8-.9 12.4-.9a71.8 71.8 0 0 1 71.4 72.3c0 39.9-32 72.2-71.4 72.2a73 73 0 0 1-59-31.4c-.9-1 .5-2.3 1.4-2.3z" fill="#09265E"/><path d="m300.2 120.7-.4-1c-.5-.8.4-3 1.3-3.5L314 109c1.3-.9 3 0 3.5 1.4l.5.9c.4.8-.5 2.2-1.4 3l-13.3 7.3c-1.3.4-2.6.4-3-1zM311.3 95l.5 1c.4.9-.5 2.2-1.4 3.1l-13.3 7.2c-.9.5-2.2.5-3-.9l-.5-.9c-.5-.9.4-3.1 1.3-3.6l12.9-7.2c1.7-.9 3 0 3.5 1.4zm-4.4-3-13.3 7c-1 .5-2.3.5-3.1-.9l-.5-.8c-.4-1 .5-3.2 1.3-3.6l13-7.2c1.2-1 3 0 3.5 1.3l.4 1c.9.8-.4 2.6-1.3 3z" fill="#09265E"/></svg>