<svg width="794" height="317" viewBox="0 0 794 317" fill="none" xmlns="http://www.w3.org/2000/svg"><path d="M173.8 254.8c-3 1.3-6.2 3-9.5 3.9-2.8.7-8.2 1.1-9-2.7-1-3.8 24.6-23.3 29.7-27.2a44.2 44.2 0 0 0-28.4-19.6l1.1 19.9c.2 3.3.7 6.8.4 10.2-.2 3-1.6 8.2-5.5 7.7-4-.5-13.7-31.6-15.5-37.4a44.2 44.2 0 0 0-27.3 20.5l19 4.9c3.3.8 6.7 1.4 9.9 2.8 2.7 1.1 7.2 4 5.6 7.6-1.7 3.5-34.4 3.3-40.4 3.3l-.1 3.7c0 10.2 3.5 20.2 10 28 3.8-5.4 7.4-11 11.1-16.4 2-2.8 3.6-6 5.9-8.5 2-2.2 6.2-5.5 9-2.8 2.8 2.8-8.9 35.7-10.3 39.7a43.8 43.8 0 0 0 36.8 0c-4.4-5-8.8-10-13-15-2.3-2.7-4.8-5-6.7-8-1.5-2.5-3.6-7.5-.3-9.4 3.4-2 31.7 17.7 35.5 20.3a43.8 43.8 0 0 0 9.7-33l-17.7 7.5z" fill="#09265E"/><path d="M147.5 201.5a50.8 50.8 0 1 0 0 101.7 50.8 50.8 0 0 0 0-101.7zm.3 96.7a45.8 45.8 0 1 1 0-91.7 45.8 45.8 0 0 1 0 91.7z" fill="#09265E"/><path d="M147.7 186a65 65 0 1 0 0 130 65 65 0 0 0 0-130zm-.2 119a52.7 52.7 0 1 1 0-105.3 52.7 52.7 0 0 1 0 105.3zm539.8-51.3c-3.1 1.3-6.2 3-9.5 3.9-2.8.7-8.2 1.2-9.1-2.7-.9-3.8 24.7-23.3 29.8-27.1A44.2 44.2 0 0 0 670 208l1.1 19.9c.2 3.4.7 6.9.4 10.3-.3 2.9-1.7 8.1-5.5 7.6-4-.5-13.7-31.6-15.5-37.3a44.2 44.2 0 0 0-27.3 20.4c6.3 1.7 12.6 3.2 19 5 3.2.7 6.7 1.3 9.9 2.7 2.7 1.1 7.2 4 5.6 7.6-1.7 3.5-34.4 3.3-40.4 3.3l-.2 3.7a44 44 0 0 0 10.1 28l11-16.4c2-2.8 3.6-6 6-8.5 1.9-2.2 6.2-5.5 9-2.8 2.8 2.8-9 35.7-10.3 39.7a43.8 43.8 0 0 0 36.7 0l-13-15c-2.2-2.7-4.8-5-6.6-8-1.6-2.5-3.7-7.5-.3-9.4 3.4-2 31.7 17.7 35.4 20.3a43.8 43.8 0 0 0 9.7-33l-17.6 7.5z" fill="#09265E"/><path d="M661 200.4a50.8 50.8 0 1 0 0 101.7 50.8 50.8 0 0 0 0-101.7zm.3 96.7a45.8 45.8 0 1 1 0-91.7 45.8 45.8 0 0 1 0 91.7z" fill="#09265E"/><path d="M661.2 185a65 65 0 1 0 0 130 65 65 0 0 0 0-130zm-.2 119a52.7 52.7 0 1 1 0-105.4 52.7 52.7 0 0 1 0 105.3z" fill="#09265E"/><path d="m69.4 135.6-41.7 2.6c-.4.4-1.7 1.8-4.5 6.2a29.4 29.4 0 0 0-2.5 11.3c1.7-.4 3.4-.6 5.1-.8 18.5-1.5 32.4 1.4 41.5-4.9 9.2-6.2 9.2-8 9.2-8s-8.1-2.6-7.1-6.4zm650.5-92.4c-3.7-9.3 7.8-18 7.8-18L708 22.7c-1.2 2-3 4-5 5-3 1.4-7.6 5.8-8.9 7 .3 2 1 4 2.4 5.7l32.2 36.1c1.5 1 17.9 10.7 27.6 8C745.7 74 722.8 50.3 720 43.2zm49 78.4a6 6 0 0 1-1.8-4.9c.3-5.7 1.4-11.2 6.8-12.8-.7-1.5-1.4-3-2.3-4.3h-41c-1 .2-4 1-4.8 2.8-.5 1.2-.1 2.8 1.1 4.6 1.8 2.5 4.1 7 6.6 11.7 4.4 8.5 10.5 20 13.6 20.6 3 .7 15.2-.5 25.5-1.8l1.8-2.4 2.5-6.2.1-4.3c-2.6-.3-6-1-8.1-3zm5.6-16c-3.6 1-5.2 4.3-5.6 11.2a4.3 4.3 0 0 0 1.3 3.5c1.6 1.6 4.5 2.2 6.8 2.5-.1-4.8-.6-11.5-2.5-17.2zm16.7 100.7 1.8-8.8a46.2 46.2 0 0 0-27.5 11.3l-.7.2h-23.1c4 9.8 6.1 20.3 6.1 30.9a1 1 0 0 1-.9.9 1 1 0 0 1-1-1c0-45-38-81.6-84.6-81.6a87 87 0 0 0-28.4 4.7 82.1 82.1 0 0 0-56.4 77 1 1 0 0 1-1.8 0 83.8 83.8 0 0 1 57.7-78.7c1.6-6.2 15.3-57.7 14.2-69.6-.9-9.2-3.8-15-5.3-17.6L595 86l-114 .4 2.6-66s117.7-.7 128.4 6c9 5.7 24.1 35.6 28.6 44.7a1 1 0 0 1 1.1.3c.2.3 5.5 6.9 6.7 20 1.1 11.9-11.3 59.2-14 69.2a89 89 0 0 1 26.9-4.2c35.7 0 66.4 21 79.6 50.8h23.6a48 48 0 0 1 28.6-11.5l-1.6-12.4s-7.6-9.6-8.7-10.4c-1.1-.8-5.8-9-5.8-9l-4.2-24.6c-7.5 1-17.5 2-23 2-1 0-2 0-3.1-.2-3.7-.8-8.4-9.4-14.8-21.5-2.5-4.7-4.8-9.1-6.4-11.6-1.7-2.5-2.1-4.5-1.3-6.3 1.4-3.2 6-3.9 6.3-4h39.8a32 32 0 0 0-8.6-7.7l-4-4a15 15 0 0 1-5.1.8 58.3 58.3 0 0 1-25.1-9L695 41.7c-2.5-2.8-2.8-7-2.9-7.2a1 1 0 0 1 .3-.7c.3-.2 6-5.8 9.7-7.6 1.5-.9 2.8-2.1 3.8-3.6l-34.4-4.4s-3.7-.9-7.9-5C659.6 8.7 613.1.4 613.1.4H425.5c-24.1 0-55.2 10.2-55.2 10.2s-28.4 8.9-31.6 10.3c-3.3 1.3-129.8 77-129.8 77s-60 6.5-80.3 7.7a439.5 439.5 0 0 0-81 17.4c-14.2 4.6-18.2 10.5-19.4 13.3l46.7-3h.1c1 .1 10.5.8 13 2a73 73 0 0 1 7.8 4.4 1 1 0 0 1-.3 1.2c-3.6 2.3-35.7 22-40 22.2L20.3 166v4.4s-12.2 6.8-16 11.2c-1.5 1.8-2 8.8-2.1 16.4a22.7 22.7 0 0 1 15.4-8.3c4.3-.4 7.7.4 10 2.5 1.8 1.7 2.8 4 3 6.5.4 6.7 1.4 28.9-3.7 30.4-3.6.8-7.3 1.2-11 1.1-5 0-9.8-.6-11.5-2.7l-2.9-3.9-.1.3-1 7 4.4 19.4-2 1c-2.1 1-1.2 1.8-1.2 1.8s13.2 5.8 23.2 8.8c10 3 47.1 4.4 47.1 4.4l5.4-.1a72 72 0 1 1 141.5-3.4h272.9l62.2-.9 18.8 5.1 18.5.8a72 72 0 1 1 142-12.3l8-.7s15.1-1.6 28.3-1.6c13.1 0 15.3-11.5 15.3-11.5s4.4-3.4 6.4-6.5c.5-.9 1-2.7 1.2-5a43.3 43.3 0 0 1-27 8.5 1 1 0 1 1 0-1.8 41 41 0 0 0 27.3-9.3c.5-5.4.5-11.5.5-11.5l-2-9.8zM585.4 115h36.3a2.7 2.7 0 0 1 0 5.4h-36.3c-.7 0-1.4-.3-1.9-.8a2.7 2.7 0 0 1 2-4.6zM481.6 20.4l-2.9 66.3-38.5 2.5 20-68.4 21.4-.4zm-37.3 97.2a2.7 2.7 0 0 1-2.6 2.7h-36.3a2.7 2.7 0 0 1 0-5.3h36.3a2.7 2.7 0 0 1 2.6 2.6zM269 79.6c23-16 74.5-45.2 99.4-51.5 24.8-6.3 89.8-7.7 89.8-7.7l-21 69.4-31 1.3c-25.3 1-50.5 2.3-75.8 3a1292.1 1292.1 0 0 1-48.3.6h-17.7s-18.4 1 4.6-15zM232.3 240c0-45-38-81.7-84.7-81.7S62.9 194.8 62.9 240a1 1 0 1 1-1.9 0c0-46 38.9-83.5 86.6-83.5 47.7 0 86.6 37.5 86.6 83.5a1 1 0 0 1-1.9 0zm353 13.2h-352V250H448l-.8-38-180.8 8.8a1 1 0 0 1-1-.8.9.9 0 0 1 1-1l180.8-8.8a988.2 988.2 0 0 1 1.2-71c-15 .7-187.7 9.5-207.7 9.5A52.6 52.6 0 0 1 205 133a1 1 0 0 1 0-1.3 1 1 0 0 1 1.4 0c.1.2 13.9 15.2 34.3 15.2 20 0 194.6-9 207.9-9.6a149.7 149.7 0 0 1 10.2-46.5.9.9 0 0 1 1.3 0 .9.9 0 0 1 .2.7v.4c-.2.1-7.1 15-9.9 45.3l104.8-3.8a.9.9 0 0 1 1 .8 1 1 0 0 1-1 1l-105 3.8a957.3 957.3 0 0 0-1.2 71l115.2-5.6a1 1 0 0 1 1 .8 1 1 0 0 1-.9 1L449 211.9c.2 18.5.7 33.8.8 38.1h135.5v3zM28.6 198.7c-.1-2-1-3.8-2.4-5.2-1.9-1.7-4.8-2.4-8.6-2-8.6.7-13.6 6.7-15.6 9.6 0 10 .6 20 .6 20l-.3.6 3.4 4.7c2.2 2.7 15.7 2.3 20.6.9 2.5-.8 3.1-15.4 2.3-28.6z" fill="#09265E"/><path d="M449.9 251.2a1 1 0 0 1-.9 1 .9.9 0 0 1-.9-.9V250h1.7v1.2zM633 163c.2-.2.5-.3.8-.3a.9.9 0 0 1-.9.2zm9-89.2-.7.2-1-1.5a1 1 0 0 1 .1-1.3h.2l1.3 2.6z" fill="#09265E"/></svg>