<svg width="576" height="228" viewBox="0 0 576 228" fill="none" xmlns="http://www.w3.org/2000/svg"><path d="M487 130a49 49 0 1 0 0 98 49 49 0 0 0 0-98zm0 82a32.9 32.9 0 1 1 0-65.9 32.9 32.9 0 0 1 0 65.8zm-385-62a29 29 0 1 0 0 58 29 29 0 0 0 0-58zm-18.1 11.4a6.2 6.2 0 0 1 6.6-1.7l7.5 7.4-.6 7.6-7.5.7-7.6-7.3a6.2 6.2 0 0 1 1.6-6.7zm7.2 37.2a6.6 6.6 0 0 1-8.4-8.1l7.4-7.5 7.6.6.7 7.5-7.3 7.5zM102 182zm11-22.7a6.6 6.6 0 0 1 8.2 8.1l-7.4 7.6-7.5-.6-.8-7.6 7.4-7.5zm7 37.2a6.2 6.2 0 0 1-6.5 1.7l-7.5-7.4.6-7.5 7.5-.8 7.5 7.4a6.2 6.2 0 0 1-1.5 6.6z" fill="#09265E"/><path d="M102 130a49 49 0 1 0 0 98 49 49 0 0 0 0-98zm0 82a33 33 0 1 1 0-66 33 33 0 0 1 0 66zm385-62a29 29 0 1 0 0 58 29 29 0 0 0 0-58zm-18.1 11.4a6.1 6.1 0 0 1 6.6-1.7l7.5 7.4-.6 7.6-7.5.7-7.6-7.3a6.2 6.2 0 0 1 1.6-6.7zm7.2 37.2a6.6 6.6 0 0 1-8.4-8.1l7.4-7.5 7.6.6.7 7.5-7.3 7.5zM487 182zm10.9-22.7a6.6 6.6 0 0 1 8.3 8.1l-7.4 7.6-7.5-.6-.8-7.6 7.4-7.5zm7.2 37.2a6.2 6.2 0 0 1-6.6 1.7l-7.5-7.4.6-7.5 7.5-.8 7.5 7.4a6.2 6.2 0 0 1-1.5 6.6z" fill="#09265E"/><path d="M49.5 179c0 5.4.8 10.7 2.4 15.7H12C8.8 192 0 182.2 1 160.2c0 0-2.8-12 3.6-16.5a11 11 0 0 0 3.6-4.1 90 90 0 0 0 35.3 6h4l14.3-.4A52.4 52.4 0 0 0 49.5 179zm8.7 29H5v-.8a8.3 8.3 0 0 1 6.9-8.1h41.4l.5 1 .5 1a52 52 0 0 0 3.8 7zm383.8-.9H146.8c1.7-2.5 3-5.2 4.2-8h287c1.1 2.8 2.5 5.5 4 8z" fill="#09265E"/><path d="M360.1 151.7v-75h-156a44.2 44.2 0 0 0-11.5 30.2v87.8h167.5v-43zm-19.3-57.4H317a4.7 4.7 0 0 1-4.6-4.5 4.8 4.8 0 0 1 4.8-4.8H341a4.7 4.7 0 0 1 4.7 4.5 4.8 4.8 0 0 1-4.9 4.8zM563 117.2s-1.2-18.5-6.7-33.8C551 68 534.7 56.3 534.7 56.3L532 49c-2.4-7-25.2-31.8-27-33.7l-34.3 1 35.5 57.5H385.4v-60h81.8l37.5-1.1c-.6-3.2-1.9-8.4-4.5-10C496.4.5 371.4.2 371.4.2L233.6 5c-8.4.3-73.5 63-76.7 66.2l-5.4.2-9.7.5h-.1c-9.6.6-23 1.7-37.8 3.9a285.3 285.3 0 0 0-46 10.5C17.6 99.5 9.8 127.6 8.7 132.9c-.1.6-.1 1 0 1.6.3.8.3 1.6.3 2.5 6.5 2.8 17.6 6 34.8 6h2.5c.3 0 13.3-.8 18.8-1.4a52.7 52.7 0 0 1 87.4 53.2H190v-88a46 46 0 0 1 10.5-30.1l49.7-60h112.6v178h73.6a53.1 53.1 0 0 1 68-65.8h67.1a57.5 57.5 0 0 0-8.5-11.7zM54.8 99.6c-.2 2.4-1 4.7-2 6.8a54.8 54.8 0 0 1-13 16.4 28.7 28.7 0 0 1-13.2 7.5c-3 .5-5.1-2.3-5.3-5-.3-4.2 2.4-7.6 4.7-10.7a76 76 0 0 1 5.8-7.1c4-4.4 8.8-8.2 14.6-9.9 1.4-.4 2.8-.5 4.3-.5 1.2 0 3.6-.4 4 1.2.2.4.2.8.1 1.3zm488.2 9.3c-7-10.2-8-29.3-6.7-37.3 0 0 17.5 6.2 17.2 23.2-.3 17-3.5 24.3-10.5 14.1z" fill="#09265E"/><path d="M572.8 131.6h-62a53.1 53.1 0 0 1 21.5 75.5h28.1l2.4-8.2h.2l1.1-4.2 4.2-15.4a268 268 0 0 0 2.3-8.2c2.2-8.6 4.9-20.8 4.9-28.4a27 27 0 0 0-2.7-11.1zM54.4 201.2a52.2 52.2 0 0 1-1-2.1l.5 1 .5 1v.1zM49.5 179a52.8 52.8 0 0 1 12.4-34v.1a52.4 52.4 0 0 0-12.4 34z" fill="#09265E"/></svg>