<svg width="720" height="408" viewBox="0 0 720 408" fill="none" xmlns="http://www.w3.org/2000/svg"><path d="M419.4 400a53.8 53.8 0 1 1 0-107.5 53.8 53.8 0 0 1 0 107.5z" stroke="#09265E" stroke-width="15" stroke-miterlimit="10"/><path d="M419.4 359a12.7 12.7 0 1 1 0-25.5 12.7 12.7 0 0 1 0 25.5z" fill="#09265E"/><path d="m439.9 296.5-20.5 49.7-49.7-20.5m29.1 70.3 20.6-49.8 49.6 20.6" stroke="#09265E" stroke-width="6" stroke-miterlimit="10"/><path d="m469 325.6-49.6 20.6-20.6-49.6" stroke="#09265E" stroke-width="6" stroke-miterlimit="10"/><path d="m369.7 366.8 49.7-20.6L440 396" stroke="#09265E" stroke-width="6" stroke-miterlimit="10"/><path d="m133.3.5.2-.1-.1-.4-.3.1.2.4zm28.1 321.7c0-1.8.3-3.2.3-4.6l-.4-157.2c0-33.9.3-67.7.4-101.6 0-9.8 4.3-17.5 11.4-23.8 8.6-7.6 18.9-12 29.6-15.6 16.8-5.6 34.2-8.7 51.7-11 43-5.5 86.3-6.4 129.5-7.2C430.5.3 477.1-.6 523.7.6c34 .9 68 2.7 101.7 7a274 274 0 0 1 59 12.8 121 121 0 0 1 21.8 10.4c9.4 5.6 13.8 14 13.8 25.5-.2 87.5-.1 174.9-.2 262.3 0 2-.1 4-.4 5.9-1.9 12-8.5 17.9-20.8 18.2H498c-1.4-5.7-2.4-11-4.2-15.9-2.5-7-5.1-14.3-8.6-21a62.5 62.5 0 0 0-37.2-30.7 83.6 83.6 0 0 0-55.8.6 67 67 0 0 0-43.8 49.3c-1.5 5.5-2.4 11.2-3.7 17.3H91.5v-20h69.9zM438.7 180h212V83h-212v97zM218.1 296.8H315V179.9h16.2V83H224.3v1.9h-6.2v212z" fill="#09265E"/><path d="M0 322.2h176.2v20.1H0v-20zM362.8 61.5v132.7H315V84.8h-97v109.4h-18.7V61.5h163.5z" fill="#09265E"/><path d="M20.8 376.1v-43.8" stroke="#09265E" stroke-width="1.5" stroke-miterlimit="10"/><path d="M4 357h33.7v23H4v-23zM162.5 51.7l-36 224.8s-13.6 45.7 36 45.7" fill="#09265E"/><path d="M419.4 400a53.8 53.8 0 1 1 0-107.5 53.8 53.8 0 0 1 0 107.5z" stroke="#09265E" stroke-width="15" stroke-miterlimit="10"/><path d="M419.4 359a12.7 12.7 0 1 1 0-25.5 12.7 12.7 0 0 1 0 25.5z" fill="#09265E"/><path d="m439.9 296.5-20.5 49.7-49.7-20.5m29.1 70.3 20.6-49.8 49.6 20.6" stroke="#09265E" stroke-width="6" stroke-miterlimit="10"/><path d="m469 325.6-49.6 20.6-20.6-49.6" stroke="#09265E" stroke-width="6" stroke-miterlimit="10"/><path d="m369.7 366.8 49.7-20.6L440 396" stroke="#09265E" stroke-width="6" stroke-miterlimit="10"/></svg>