<svg width="53" height="53" viewBox="0 0 53 53" fill="none" xmlns="http://www.w3.org/2000/svg">
<path opacity="0.1" fill-rule="evenodd" clip-rule="evenodd" d="M26.9006 52.2731C41.3151 52.2731 53.0004 40.5878 53.0004 26.1733C53.0004 11.7588 41.3151 0.0734863 26.9006 0.0734863C12.4861 0.0734863 0.800781 11.7588 0.800781 26.1733C0.800781 40.5878 12.4861 52.2731 26.9006 52.2731Z" fill="#3265AF"/>
<path d="M25.9661 30.9769L30.8731 26.3443C33.8599 23.5708 34.439 21.6812 34.439 19.6087C34.439 15.738 31.2693 13.2998 26.5147 13.2998C22.6745 13.2998 19.6877 14.8542 18.0419 17.2619L21.6383 19.5782C22.6745 18.1458 24.2289 17.4448 26.0576 17.4448C28.3129 17.4448 29.4711 18.4201 29.4711 20.0964C29.4711 21.1326 29.1358 22.2298 27.2462 24.028L19.0172 31.7998V35H35.14V30.9769H25.9661Z" fill="#3F95F7"/>
</svg>
