<svg width="53" height="53" viewBox="0 0 53 53" fill="none" xmlns="http://www.w3.org/2000/svg">
<path opacity="0.1" fill-rule="evenodd" clip-rule="evenodd" d="M26.6828 52.2731C41.0973 52.2731 52.7826 40.5878 52.7826 26.1733C52.7826 11.7588 41.0973 0.0734863 26.6828 0.0734863C12.2683 0.0734863 0.583008 11.7588 0.583008 26.1733C0.583008 40.5878 12.2683 52.2731 26.6828 52.2731Z" fill="#3265AF"/>
<path d="M29.6365 22.3517L34.452 16.8657V13.6655H19.5179V17.6277H28.6003L24.2115 22.5955V25.8567H26.4669C29.2708 25.8567 30.4594 26.8624 30.4594 28.4778C30.4594 30.215 28.9356 31.2208 26.4669 31.2208C24.242 31.2208 21.9866 30.5198 20.3713 29.3007L18.4512 33.0799C20.5237 34.5428 23.6019 35.3657 26.5888 35.3657C32.6538 35.3657 35.4273 32.0741 35.4273 28.4778C35.4273 25.3385 33.4767 22.9613 29.6365 22.3517Z" fill="#3F95F7"/>
</svg>
