<svg width="27" height="27" viewBox="0 0 27 27" fill="none" xmlns="http://www.w3.org/2000/svg">
<circle opacity="0.1" cx="13.2319" cy="13.9751" r="13.0091" fill="#000046"/>
<path d="M18.73 12.7153V12.4833C18.73 9.71728 16.266 7.47028 13.2321 7.47028C10.197 7.47028 7.73401 9.71728 7.73401 12.4833V12.7153C7.16297 12.8383 6.72705 13.3183 6.72705 13.8793V15.5503C6.72705 16.2083 7.31299 16.7413 8.03406 16.7413H8.77002C9.49097 16.7413 10.077 16.2083 10.077 15.5503V13.8793C10.077 13.3183 9.64099 12.8523 9.07105 12.7153V12.4833C9.07105 10.3873 10.933 8.69028 13.2321 8.69028C15.53 8.69028 17.393 10.3873 17.393 12.4833V12.7153C16.822 12.8383 16.386 13.3183 16.386 13.8793V15.5503C16.386 16.1253 16.837 16.6053 17.423 16.7143C17.047 17.8783 15.966 18.7823 14.629 18.9873C14.584 18.7003 14.298 18.4673 13.968 18.4673H12.511C12.135 18.4673 11.835 18.7413 11.835 19.0833V19.8643C11.835 20.2063 12.135 20.4793 12.511 20.4793H13.968C14.313 20.4793 14.599 20.2333 14.629 19.9183C16.506 19.6863 18.0241 18.3993 18.444 16.7413C19.165 16.7283 19.736 16.1943 19.736 15.5503V13.8793C19.751 13.3183 19.3149 12.8383 18.73 12.7153Z" fill="#979CB6"/>
</svg>
