<svg width="16" height="16" viewBox="0 0 16 16" fill="none" xmlns="http://www.w3.org/2000/svg">
<path d="M13.92 6.78296V6.52197C13.92 3.41089 11.149 0.884033 7.73602 0.884033C4.32397 0.884033 1.55298 3.41089 1.55298 6.52197V6.78296C0.911011 6.92212 0.421021 7.46094 0.421021 8.09204V9.97192C0.421021 10.7109 1.08002 11.311 1.89099 11.311H2.71899C3.53003 11.311 4.18798 10.7109 4.18798 9.97192V8.09204C4.18798 7.46094 3.69897 6.93701 3.057 6.78296V6.52197C3.057 4.16504 5.15099 2.2561 7.73602 2.2561C10.321 2.2561 12.416 4.16504 12.416 6.52197V6.78296C11.774 6.92212 11.284 7.46094 11.284 8.09204V9.97192C11.284 10.6179 11.791 11.158 12.45 11.281C12.028 12.5901 10.811 13.606 9.307 13.8369C9.25701 13.5139 8.93597 13.252 8.56402 13.252H6.92498C6.50298 13.252 6.16497 13.5601 6.16497 13.9451V14.823C6.16497 15.208 6.50298 15.5149 6.92498 15.5149H8.56402C8.953 15.5149 9.27398 15.239 9.307 14.885C11.419 14.6231 13.126 13.176 13.599 11.311C14.41 11.2959 15.052 10.6961 15.052 9.97193V8.09205C15.068 7.46095 14.579 6.92213 13.92 6.78297L13.92 6.78296Z" fill="#3F95F7"/>
</svg>
