<svg width="62" height="62" viewBox="0 0 62 62" fill="none" xmlns="http://www.w3.org/2000/svg">
<circle opacity="0.2" cx="31.2386" cy="30.7583" r="30.7481" fill="#3F95F7"/>
<path d="M22.162 19.849C21.487 19.849 20.937 20.399 20.937 21.074C20.937 21.75 21.487 22.299 22.162 22.299C22.837 22.299 23.387 21.75 23.387 21.074C23.387 20.399 22.837 19.849 22.162 19.849Z" fill="#09265E"/>
<circle cx="38.436" cy="45.491" r="2.66506" transform="rotate(-67.4859 38.436 45.491)" fill="#09265E"/>
<path d="M33.656 45.4839C33.656 45.2089 33.681 44.9399 33.726 44.6779H19.915C18.793 44.6779 17.881 43.765 17.881 42.6439C17.881 41.5219 18.793 40.6089 19.915 40.6089H29.436C31.6 40.6089 33.362 38.848 33.362 36.6829C33.362 34.5189 31.601 32.757 29.436 32.757H25.243L23.985 34.8619H29.436C30.44 34.8619 31.257 35.679 31.257 36.6829C31.257 37.6879 30.44 38.5049 29.436 38.5049H19.915C17.633 38.5049 15.776 40.361 15.776 42.6439C15.776 44.926 17.633 46.7819 19.915 46.7819H33.837C33.72 46.369 33.656 45.934 33.656 45.4839H33.656Z" fill="#09265E"/>
<path d="M50.661 30.9196C50.644 30.5047 50.385 30.1386 50 29.9846L38.816 25.5117C38.492 25.3817 38.125 25.4207 37.836 25.6167C37.547 25.8126 37.373 26.1386 37.373 26.4876V40.8327C37.712 40.7567 38.064 40.7147 38.425 40.7147C38.787 40.7147 39.139 40.7567 39.478 40.8336V37.1657L50.077 31.9036C50.449 31.7196 50.677 31.3336 50.661 30.9196Z" fill="#09265E"/>
<path fill-rule="evenodd" clip-rule="evenodd" d="M28.665 20.944C28.665 17.381 25.776 14.493 22.213 14.493C18.649 14.493 15.761 17.381 15.761 20.944V20.971C15.761 22.259 16.105 23.523 16.759 24.633L21.669 32.972C21.891 33.349 22.436 33.351 22.661 32.975L27.641 24.649C28.311 23.53 28.665 22.249 28.665 20.944H28.665ZM22.162 24.403C20.326 24.403 18.833 22.91 18.833 21.074C18.833 19.239 20.326 17.745 22.162 17.745C23.998 17.745 25.491 19.239 25.491 21.074C25.491 22.91 23.998 24.403 22.162 24.403Z" fill="#09265E"/>
</svg>
