<svg width="63" height="62" viewBox="0 0 63 62" fill="none" xmlns="http://www.w3.org/2000/svg">
<circle opacity="0.2" cx="31.3699" cy="30.7349" r="30.7249" fill="#BBF67F"/>
<path fill-rule="evenodd" clip-rule="evenodd" d="M47.2126 36.1758H46.4126V30.7748C46.4126 30.1748 46.1127 29.5248 45.6626 29.0748L40.7117 24.1238C40.2616 23.6738 39.6117 23.3738 39.0116 23.3738H36.8107V20.9738C36.8107 19.6728 35.7107 18.5728 34.4106 18.5728H18.4076C17.0576 18.5728 16.0077 19.6728 16.0077 20.9738V36.9758C16.0077 38.3258 17.0576 39.3758 18.4076 39.3758H19.2076C19.2076 42.0268 21.3586 44.1768 24.0087 44.1768C26.6587 44.1768 28.8097 42.0268 28.8097 39.3758H35.2107C35.2107 42.0268 37.3606 44.1768 40.0116 44.1768C42.6616 44.1768 44.8117 42.0268 44.8117 39.3758H47.2127C47.6127 39.3758 48.0126 39.0258 48.0126 38.5758V36.9758C48.0126 36.5758 47.6127 36.1758 47.2127 36.1758L47.2126 36.1758ZM24.0087 41.7768C22.6587 41.7768 21.6086 40.7268 21.6086 39.3758C21.6086 38.0758 22.6587 36.9758 24.0087 36.9758C25.3086 36.9758 26.4087 38.0758 26.4087 39.3758C26.4087 40.7268 25.3086 41.7768 24.0087 41.7768ZM40.0116 41.7768C38.6606 41.7768 37.6106 40.7268 37.6106 39.3758C37.6106 38.0758 38.6606 36.9758 40.0116 36.9758C41.3116 36.9758 42.4116 38.0758 42.4116 39.3758C42.4116 40.7268 41.3116 41.7768 40.0116 41.7768ZM44.0116 31.3748H36.8107V25.7738H39.0116L44.0116 30.7748V31.3748Z" fill="#93C264"/>
</svg>
