<svg width="62" height="62" viewBox="0 0 62 62" fill="none" xmlns="http://www.w3.org/2000/svg">
<circle opacity="0.2" cx="30.759" cy="30.7583" r="30.7481" fill="#7FF6E1"/>
<path d="M40.412 38.143C40.414 39.871 41.814 41.272 43.542 41.274C45.271 41.274 46.672 39.872 46.672 38.143C46.672 36.415 45.271 35.013 43.542 35.013C41.813 35.013 40.412 36.415 40.412 38.143Z" fill="#57A89A"/>
<path d="M12.9791 32.9461V35.6591C12.9791 36.8421 13.9041 37.8261 15.0871 37.8261H16.1221C16.3081 35.3681 18.4521 33.5271 20.9091 33.7131C23.1081 33.8801 24.8551 35.6271 25.0221 37.8261H39.0921C39.2791 35.3681 41.4221 33.5271 43.8801 33.7131C46.0781 33.8801 47.8251 35.6271 47.9921 37.8261H48.5581C49.7411 37.8261 50.6661 36.8421 50.6661 35.6591V33.2831C50.6731 32.3191 50.0331 31.4711 49.1051 31.2131L42.6071 29.4351C42.4671 29.3961 42.3441 29.3121 42.2571 29.1951L38.3691 24.1021C37.7831 23.3421 36.8771 22.8981 35.9181 22.9011H23.6321C22.5721 22.8921 21.5821 23.4341 21.0191 24.3331L17.9961 29.1521C17.9261 29.2621 17.8261 29.3491 17.7071 29.4021L14.2181 30.9941C13.4571 31.3451 12.9721 32.1091 12.9791 32.9461V32.9461Z" fill="#57A89A"/>
<path d="M17.441 38.143C17.443 39.871 18.844 41.272 20.572 41.274C22.3 41.274 23.702 39.872 23.702 38.143C23.702 36.415 22.3 35.013 20.571 35.013C18.843 35.013 17.441 36.415 17.441 38.143Z" fill="#57A89A"/>
</svg>
