<svg width="462" height="426" viewBox="0 0 462 426" fill="none" xmlns="http://www.w3.org/2000/svg">
<rect x="68.7896" y="286.83" width="72.0986" height="136.829" fill="#E0E0E0"/>
<rect x="107.087" y="286.83" width="33.8011" height="136.829" fill="#EBEBEB"/>
<rect x="83.9137" y="299.7" width="6.47724" height="15.7529" fill="#F5F5F5"/>
<rect x="83.9137" y="361.339" width="6.47724" height="15.7529" fill="#F5F5F5"/>
<path d="M107.087 321.637C107.087 321.773 98.5134 321.878 87.9384 321.878C77.3634 321.878 68.7894 321.773 68.7894 321.637C68.7894 321.501 77.3634 321.385 87.9384 321.385C98.5134 321.385 107.087 321.501 107.087 321.637Z" fill="#F5F5F5"/>
<rect x="83.9137" y="330.755" width="6.47724" height="15.7529" fill="#F5F5F5"/>
<path d="M107.087 352.692C107.087 352.818 98.5134 352.933 87.9384 352.933C77.3634 352.933 68.7894 352.818 68.7894 352.692C68.7894 352.566 77.3634 352.44 87.9384 352.44C98.5134 352.44 107.087 352.556 107.087 352.692Z" fill="#F5F5F5"/>
<rect x="114.267" y="299.7" width="6.47723" height="15.7529" fill="#E0E0E0"/>
<rect x="128.332" y="299.7" width="6.47723" height="15.7529" fill="#E0E0E0"/>
<rect x="114.267" y="329.592" width="6.47723" height="15.7529" fill="#E0E0E0"/>
<rect x="128.332" y="329.592" width="6.47723" height="15.7529" fill="#E0E0E0"/>
<rect x="114.267" y="359.473" width="6.47723" height="15.7529" fill="#E0E0E0"/>
<rect x="128.332" y="359.473" width="6.47723" height="15.7529" fill="#E0E0E0"/>
<rect x="63.371" y="283.518" width="82.9359" height="3.42726" fill="#E0E0E0"/>
<path d="M141.391 287.27C141.391 287.406 125.282 287.511 105.41 287.511C85.5384 287.511 69.4184 287.406 69.4184 287.27C69.4184 287.134 85.5274 287.029 105.41 287.029C125.292 287.029 141.391 287.134 141.391 287.27Z" fill="#EBEBEB"/>
<rect x="21.4157" y="338.144" width="64.5418" height="85.1264" fill="#EBEBEB"/>
<rect x="55.6989" y="338.144" width="30.2585" height="85.1264" fill="#E0E0E0"/>
<rect x="34.9466" y="349.673" width="5.80646" height="14.0969" fill="#F5F5F5"/>
<rect x="34.9466" y="404.856" width="5.80646" height="14.0969" fill="#F5F5F5"/>
<path d="M55.6994 369.304C55.6994 369.462 48.0164 369.587 38.5524 369.587C29.0874 369.587 21.4154 369.462 21.4154 369.304C21.4154 369.147 29.0874 369.011 38.5524 369.011C48.0164 369.011 55.6994 369.147 55.6994 369.304Z" fill="#F5F5F5"/>
<rect x="34.9466" y="377.469" width="5.80646" height="14.0969" fill="#F5F5F5"/>
<path d="M55.6994 397.1C55.6994 397.257 48.0164 397.393 38.5524 397.393C29.0874 397.393 21.4154 397.257 21.4154 397.1C21.4154 396.943 29.0874 396.817 38.5524 396.817C48.0164 396.817 55.6994 396.943 55.6994 397.1Z" fill="#F5F5F5"/>
<rect x="62.1237" y="349.673" width="5.80646" height="14.0969" fill="#F5F5F5"/>
<rect x="74.7114" y="349.673" width="5.80646" height="14.0969" fill="#F5F5F5"/>
<rect x="62.1237" y="376.421" width="5.80646" height="14.0969" fill="#F5F5F5"/>
<rect x="74.7114" y="376.421" width="5.80646" height="14.0969" fill="#F5F5F5"/>
<rect x="62.1237" y="403.179" width="5.80646" height="14.0969" fill="#F5F5F5"/>
<rect x="74.7114" y="403.179" width="5.80646" height="14.0969" fill="#F5F5F5"/>
<rect x="16.563" y="335.178" width="74.2471" height="3.07091" fill="#E0E0E0"/>
<path d="M86.4084 338.553C86.4084 338.71 71.9864 338.836 54.1894 338.836C36.3934 338.836 21.9714 338.71 21.9714 338.553C21.9714 338.396 36.3934 338.26 54.1894 338.26C71.9864 338.26 86.4084 338.385 86.4084 338.553Z" fill="#EBEBEB"/>
<path d="M55.5314 18.1185C55.5314 18.1185 45.2594 21.2626 54.7344 43.2726C64.2094 65.2826 71.0644 76.4237 71.0644 76.4237C71.0644 76.4237 72.6674 81.5067 68.4434 81.9996C64.2204 82.4925 55.1224 80.4166 52.9324 85.4056C50.6474 90.5736 54.1684 95.8246 61.6734 100.719C69.1774 105.614 85.2344 116.954 86.6914 117.981C88.1484 119.008 89.4474 121.409 86.6174 122.174C83.7873 122.939 62.9834 123.798 63.9474 133.65C64.9114 143.502 88.0534 153.711 90.5904 154.874C93.1264 156.038 93.6404 157.17 93.3364 158.574C93.0324 159.978 85.9994 159.622 80.1094 160.041C74.2184 160.461 67.4274 162.085 68.4544 167.713C69.4814 173.342 82.7814 185.929 116.666 191.537L132.555 193.109L142.135 180.291C160.896 151.489 160.592 133.2 157.133 128.63C153.675 124.06 147.941 127.98 143.602 132.026C139.263 136.071 134.819 141.511 133.583 140.798C132.346 140.086 131.874 138.901 132.713 136.271C133.551 133.64 141.653 109.649 135.039 102.291C128.426 94.9337 113.794 109.733 111.3 111.284C108.806 112.835 107.936 110.236 108.156 108.485C108.376 106.735 110.86 87.2196 112.348 78.3737C113.836 69.5277 112.348 63.3956 106.961 61.6036C101.794 59.8536 97.1824 67.9657 93.9754 70.7435C90.7684 73.5206 88.0854 68.9086 88.0854 68.9086C88.0854 68.9086 84.5424 56.3317 74.6694 34.4896C64.7964 12.6476 55.3214 18.1915 55.3214 18.1915" fill="#EBEBEB"/>
<path d="M133.153 196.924C125.963 180.815 113.658 151.961 102.968 127.246C92.2774 102.532 82.5934 80.187 75.4764 64.0359L67.0914 44.929C66.1064 42.686 65.3314 40.936 64.8064 39.688L64.2204 38.3259L64.0314 37.854C64.1184 37.999 64.1954 38.1499 64.2614 38.3049C64.4194 38.6299 64.6284 39.0701 64.8904 39.647L67.2694 44.803C69.3664 49.2891 72.2584 55.7981 75.8534 63.8579C83.0434 79.967 92.7914 102.302 103.481 127.005C114.172 151.709 126.414 180.595 133.53 196.735" fill="#E0E0E0"/>
<path d="M65.5194 88.823C65.8824 88.9131 66.2334 89.043 66.5674 89.2109C67.2594 89.4839 68.2444 89.9031 69.4604 90.437C71.8814 91.4851 75.1934 93.0891 78.8094 94.8921L88.0644 99.5349L90.8834 100.918C91.2554 101.058 91.6074 101.245 91.9314 101.474C91.5704 101.385 91.2184 101.259 90.8834 101.096C90.1914 100.824 89.2064 100.394 88.0014 99.8491C85.5904 98.749 82.2994 97.135 78.6734 95.332L69.3874 90.762L66.5674 89.3889C66.1984 89.24 65.8474 89.05 65.5194 88.823L65.5194 88.823Z" fill="#E0E0E0"/>
<path d="M93.1053 100.53C92.9793 100.468 95.9143 93.5083 99.6663 84.9664C103.418 76.4244 106.563 69.5494 106.688 69.6014C106.814 69.6543 103.869 76.6233 100.117 85.1653C96.3653 93.7073 93.2313 100.635 93.1053 100.53Z" fill="#E0E0E0"/>
<path d="M107.799 139.216C108.005 138.879 108.244 138.563 108.512 138.272L110.608 135.82C112.348 133.724 114.727 130.862 117.243 127.592C119.758 124.322 121.938 121.304 123.531 119.092L125.376 116.472C125.589 116.14 125.831 115.828 126.099 115.539C125.955 115.911 125.765 116.263 125.533 116.587C125.145 117.237 124.558 118.17 123.814 119.302C122.326 121.555 120.188 124.637 117.662 127.907C115.136 131.177 112.715 134.038 110.912 136.061C110 137.109 109.256 137.874 108.732 138.409C108.454 138.713 108.141 138.984 107.799 139.216Z" fill="#E0E0E0"/>
<path d="M80.5384 134.174C80.8904 134.158 81.2424 134.186 81.5864 134.258L84.5214 134.688C86.9954 135.076 90.4014 135.642 94.1534 136.292C97.9054 136.941 101.312 137.56 103.775 138.031L106.678 138.618C107.039 138.663 107.392 138.758 107.726 138.901C107.374 138.909 107.023 138.878 106.678 138.807L103.754 138.377C101.28 138 97.8744 137.434 94.1114 136.774C90.3494 136.113 86.9534 135.505 84.5004 135.034L81.5974 134.447C81.2354 134.397 80.8804 134.305 80.5384 134.174V134.174Z" fill="#E0E0E0"/>
<path d="M89.1754 169.914C89.6394 169.921 90.1024 169.967 90.5584 170.051L94.3214 170.585C97.4654 171.057 101.867 171.749 106.688 172.535C111.51 173.321 115.88 174.075 119.035 174.631L122.766 175.323C123.226 175.389 123.679 175.498 124.118 175.648C123.654 175.64 123.191 175.595 122.735 175.511L118.972 174.977C115.828 174.505 111.436 173.813 106.605 173.027C101.773 172.241 97.4234 171.497 94.2584 170.931L90.5274 170.239C90.0664 170.179 89.6134 170.07 89.1754 169.914Z" fill="#E0E0E0"/>
<path d="M123.322 175.27C123.585 174.844 123.88 174.438 124.202 174.054L126.697 170.847C128.793 168.143 131.685 164.391 134.767 160.157C137.848 155.922 140.531 152.023 142.46 149.183C143.393 147.821 144.158 146.689 144.745 145.819C145.01 145.394 145.308 144.991 145.636 144.613C145.429 145.068 145.187 145.506 144.912 145.924C144.42 146.752 143.686 147.925 142.753 149.372C140.898 152.264 138.257 156.205 135.165 160.45C132.073 164.695 129.139 168.416 126.969 171.067C125.921 172.398 124.978 173.457 124.349 174.212C124.038 174.594 123.694 174.948 123.322 175.27L123.322 175.27Z" fill="#E0E0E0"/>
<path d="M361.922 237.684C340.687 222.854 335.877 195.32 336.715 170.605C336.851 166.477 336.401 162.116 338.361 158.489C340.321 154.863 344.911 152.389 348.611 154.129C351.682 155.575 353.023 159.149 354.732 162.095C357.024 166.034 360.385 169.243 364.427 171.35C367.058 172.712 370.307 173.551 372.906 172.114C376.469 170.155 376.889 165.228 376.868 161.121C376.819 153.435 376.77 145.777 376.721 138.146C376.721 134.038 376.721 129.845 377.958 125.947C379.194 122.048 382.066 118.42 385.976 117.331C389.885 116.24 394.717 118.483 395.534 122.509C395.88 124.186 395.534 125.915 395.66 127.624C395.786 129.332 396.561 131.218 398.186 131.689C399.811 132.162 401.466 131.009 402.693 129.803C406.938 125.611 409.82 120.319 412.503 114.993C415.186 109.669 417.806 104.24 421.653 99.7124C425.499 95.1845 430.824 91.6106 436.703 91.2754C442.583 90.9394 448.861 94.5764 450.329 100.352C451.796 106.126 448.442 112.018 444.763 116.712C439.306 123.665 432.874 129.792 425.667 134.907C424.367 135.83 422.963 136.825 422.47 138.345C421.579 141.081 424.179 143.805 426.883 144.707C429.943 145.756 433.266 145.409 436.473 145.756C439.68 146.102 443.139 147.548 444.355 150.566C446.042 154.759 442.531 159.17 439.114 162.095C432.19 167.873 424.323 172.415 415.857 175.521C412.838 176.622 409.652 177.617 407.22 179.714C404.789 181.81 403.311 185.53 404.778 188.424C406.246 191.316 410.019 192.238 413.163 191.652C416.307 191.064 419.158 189.345 422.177 188.214C427.826 186.117 435.11 186.474 438.737 191.358C441.105 194.565 441.315 199.03 440.12 202.887C438.925 206.745 436.473 210.003 433.884 213.043C424.839 223.66 413.247 232.212 400.156 236.751C387.066 241.29 374.918 242.527 361.901 237.8" fill="#F5F5F5"/>
<path d="M361.596 256.037C362.753 244.574 365.002 233.249 368.314 222.214C372.417 208.731 377.295 195.496 382.925 182.575C384.403 179.138 385.849 175.731 387.285 172.388C388.721 169.045 390.157 165.722 391.75 162.567C394.833 156.516 398.244 150.638 401.969 144.959C405.49 139.52 409.033 134.478 412.376 129.793C415.72 125.108 418.937 120.811 422.029 117.017C426.883 111.001 432.203 105.376 437.939 100.195C439.962 98.3711 441.587 97.051 442.698 96.0869L443.966 95.0381C444.104 94.9109 444.255 94.7981 444.416 94.7029C444.295 94.844 444.162 94.9741 444.018 95.0911L442.792 96.1389C441.744 97.093 440.13 98.4971 438.138 100.331C432.486 105.584 427.232 111.249 422.417 117.279C419.367 121.084 416.191 125.391 412.858 130.087C409.525 134.782 406.025 139.824 402.535 145.263C398.835 150.929 395.448 156.794 392.389 162.829C390.806 165.974 389.402 169.254 387.956 172.608C386.509 175.962 385.073 179.358 383.595 182.796C377.97 195.689 373.071 208.888 368.922 222.33C365.603 233.344 363.329 244.648 362.13 256.089" fill="#E0E0E0"/>
<path d="M391.97 162.473C391.775 161.902 391.642 161.312 391.571 160.712C391.351 159.58 391.1 157.924 390.806 155.88C390.23 151.793 389.612 146.112 388.972 139.855C388.333 133.598 387.631 127.938 386.991 123.861C386.677 121.828 386.404 120.182 386.205 119.05C386.061 118.467 385.984 117.869 385.975 117.269C386.206 117.822 386.378 118.398 386.488 118.987C386.782 120.109 387.127 121.744 387.536 123.777C388.312 127.833 389.087 133.504 389.737 139.771C390.387 146.039 390.922 151.541 391.362 155.818C391.561 157.746 391.739 159.371 391.875 160.67C391.974 161.266 392.006 161.87 391.97 162.473H391.97Z" fill="#E0E0E0"/>
<path d="M444.794 152.631C444.104 152.778 443.403 152.863 442.698 152.883C441.346 152.998 439.386 153.166 436.965 153.449C432.122 153.962 425.435 154.927 418.172 156.3C410.909 157.673 404.316 159.224 399.61 160.492C397.252 161.1 395.355 161.645 394.045 162.012C393.363 162.244 392.661 162.416 391.949 162.525C392.578 162.195 393.238 161.929 393.919 161.729C395.208 161.278 397.064 160.681 399.432 159.978C404.117 158.585 410.678 156.96 417.994 155.566C424.233 154.364 430.53 153.483 436.86 152.925C439.291 152.715 441.272 152.631 442.635 152.6C443.353 152.531 444.078 152.541 444.794 152.631V152.631Z" fill="#E0E0E0"/>
<path d="M368.964 221.166C368.964 221.166 368.807 220.957 368.597 220.527L367.696 218.619C366.92 216.953 365.851 214.511 364.552 211.492C362.005 205.434 358.745 196.966 355.276 187.575C351.807 178.184 348.631 169.684 346.21 163.584L343.328 156.373L342.552 154.413C342.449 154.186 342.375 153.946 342.332 153.7C342.48 153.9 342.6 154.118 342.688 154.35C342.94 154.864 343.233 155.493 343.6 156.258C344.376 157.924 345.434 160.356 346.744 163.385C349.302 169.432 352.551 177.901 356.02 187.302C359.489 196.704 362.665 205.183 365.086 211.283L367.968 218.494C368.283 219.28 368.534 219.93 368.744 220.464C368.843 220.689 368.917 220.925 368.964 221.166H368.964Z" fill="#E0E0E0"/>
<path d="M439.155 198.58C438.939 198.706 438.706 198.801 438.463 198.863L436.42 199.544L428.905 201.986C422.553 204.082 413.823 206.986 404.18 210.256C394.538 213.526 385.755 216.387 379.372 218.316C376.175 219.28 373.576 220.034 371.773 220.517L369.677 221.062C369.441 221.144 369.193 221.19 368.943 221.198C369.162 221.078 369.394 220.983 369.635 220.915L371.668 220.234L379.193 217.792C385.534 215.695 394.276 212.792 403.918 209.522C413.56 206.252 422.333 203.391 428.726 201.462C431.923 200.498 434.512 199.743 436.315 199.261L438.411 198.716C438.65 198.631 438.901 198.585 439.155 198.58Z" fill="#E0E0E0"/>
<path d="M461.951 425.168C461.951 425.315 358.598 425.44 231.129 425.44C103.659 425.44 0.285995 425.315 0.285995 425.168C0.285995 425.021 103.617 424.885 231.129 424.885C358.64 424.885 461.951 425.011 461.951 425.168Z" fill="#263238"/>
<path d="M127.692 262.419C144.347 245.65 144.168 220.055 139.368 197.941C138.561 194.241 138.257 190.247 135.899 187.313C133.541 184.378 129.002 182.9 125.963 185.07C123.437 186.873 122.819 190.31 121.771 193.235C120.357 197.155 117.86 200.593 114.57 203.15C112.474 204.806 109.644 206.084 107.076 205.246C103.544 204.061 102.36 199.701 101.71 196.002C100.508 189.105 99.2961 182.212 98.0731 175.323C97.4231 171.623 96.7521 167.85 94.9291 164.548C93.1051 161.247 90.0131 158.459 86.3131 158.113C82.6141 157.767 78.6411 160.586 78.5581 164.339C78.6991 165.894 78.9441 167.438 79.2911 168.961C79.4691 170.512 79.0611 172.336 77.6881 173.027C76.3151 173.719 74.6171 172.954 73.3171 172.074C68.8211 169.034 65.3621 164.737 62.0711 160.366C58.7801 155.996 55.5411 151.562 51.3381 148.125C47.1361 144.687 41.7691 142.329 36.4241 142.989C31.0791 143.649 26.0271 147.957 25.6391 153.386C25.2511 158.815 29.2551 163.573 33.3221 167.189C39.3651 172.553 46.1541 177.012 53.4771 180.427C54.8671 180.895 56.0711 181.794 56.9141 182.995C58.1621 185.311 56.2751 188.183 53.9901 189.44C51.4011 190.855 48.3621 191.117 45.5421 191.977C42.7231 192.836 39.8411 194.681 39.2541 197.605C38.4261 201.661 42.3041 205.036 45.8881 207.038C53.0451 211.091 60.8441 213.885 68.9461 215.297C71.8501 215.8 74.8681 216.146 77.4051 217.655C79.9411 219.164 81.8701 222.246 81.0211 225.097C80.1721 227.948 76.9221 229.394 73.9771 229.383C71.0321 229.373 68.2131 228.335 65.3101 227.759C59.8801 226.774 53.3821 228.314 50.9301 233.293C49.3261 236.573 49.8821 240.63 51.5691 243.868C53.4271 247.028 55.9001 249.783 58.8431 251.97C68.6491 260.174 80.4581 265.625 93.0631 267.765C105.577 269.704 116.698 268.813 127.65 262.409" fill="#93C264"/>
<path d="M130.983 278.864C128.073 268.733 124.195 258.905 119.402 249.517C113.496 238.065 106.938 226.962 99.76 216.261L94.174 207.814C92.329 205.036 90.495 202.29 88.546 199.722C84.786 194.773 80.755 190.035 76.472 185.531C72.416 181.213 68.412 177.272 64.639 173.604C60.866 169.935 57.302 166.592 53.854 163.689C48.511 159.067 42.805 154.882 36.791 151.174C34.695 149.854 32.986 148.89 31.844 148.25L30.534 147.527C30.389 147.437 30.234 147.363 30.073 147.307C30.208 147.413 30.352 147.508 30.502 147.59L31.77 148.376C32.902 149.047 34.558 150.053 36.655 151.405C42.592 155.197 48.236 159.429 53.539 164.066C56.914 166.99 60.478 170.355 64.24 174.012C68.003 177.67 71.975 181.664 76.011 185.982C80.267 190.468 84.273 195.184 88.011 200.11C89.95 202.678 91.753 205.351 93.598 208.18C95.442 211.01 97.297 213.777 99.194 216.628C106.354 227.304 112.911 238.372 118.836 249.779C123.63 259.133 127.536 268.916 130.501 279" fill="#263238"/>
<path d="M88.347 199.722C88.436 199.182 88.461 198.633 88.42 198.087C88.42 197.039 88.42 195.498 88.315 193.612C88.169 189.839 87.781 184.63 87.341 178.939C86.9 173.247 86.596 168.007 86.502 164.265C86.502 162.389 86.429 160.859 86.418 159.811C86.459 159.261 86.431 158.708 86.334 158.165C86.222 158.703 86.162 159.251 86.156 159.8C86.072 160.848 86.03 162.379 86.02 164.265C86.02 168.049 86.209 173.268 86.659 179.022C87.11 184.776 87.519 189.797 87.823 193.696C87.959 195.457 88.064 196.945 88.148 198.15C88.155 198.68 88.221 199.207 88.347 199.722V199.722Z" fill="#263238"/>
<path d="M39.222 199.502C39.871 199.518 40.519 199.48 41.161 199.387C42.398 199.272 44.19 199.093 46.402 198.957C50.835 198.632 56.977 198.402 63.769 198.444C70.561 198.486 76.702 198.8 81.146 199.156C83.368 199.314 85.161 199.492 86.387 199.607C87.027 199.713 87.677 199.752 88.326 199.722C87.702 199.539 87.064 199.41 86.418 199.334C85.192 199.146 83.4 198.884 81.178 198.664C76.734 198.182 70.571 197.794 63.758 197.741C57.947 197.684 52.136 197.926 46.349 198.465C44.128 198.664 42.335 198.915 41.109 199.114C40.468 199.178 39.836 199.308 39.222 199.502Z" fill="#263238"/>
<path d="M118.658 248.752C118.754 248.548 118.828 248.333 118.878 248.113L119.381 246.247C119.8 244.623 120.356 242.254 121.005 239.33C122.305 233.461 123.846 225.317 125.428 216.272C127.011 207.227 128.478 199.104 129.621 193.214C130.197 190.352 130.669 187.973 131.036 186.254C131.182 185.5 131.308 184.871 131.413 184.357C131.467 184.138 131.495 183.913 131.497 183.686C131.497 183.686 131.392 183.896 131.277 184.326L130.774 186.191C130.344 187.816 129.788 190.174 129.139 193.109C127.839 198.968 126.298 207.122 124.716 216.167C123.133 225.212 121.676 233.345 120.523 239.225C119.936 242.076 119.475 244.466 119.108 246.174C118.951 246.939 118.836 247.568 118.731 248.071C118.68 248.294 118.656 248.523 118.658 248.752L118.658 248.752Z" fill="#263238"/>
<path d="M51.821 239.906C52.039 239.975 52.264 240.02 52.491 240.043L54.441 240.326L61.599 241.29C67.647 242.097 75.979 243.313 85.192 244.665C94.405 246.017 102.758 247.17 108.827 247.809C111.856 248.155 114.308 248.406 116.006 248.553L117.966 248.7C118.196 248.73 118.428 248.73 118.658 248.7C118.443 248.618 118.217 248.568 117.987 248.553L116.037 248.27L108.879 247.316C102.831 246.499 94.499 245.283 85.286 243.931C76.074 242.579 67.72 241.426 61.662 240.787C58.623 240.441 56.17 240.189 54.472 240.043L52.512 239.896C52.283 239.858 52.049 239.862 51.821 239.906H51.821Z" fill="#263238"/>
<path d="M318.446 72.4213C321.66 69.7375 323.192 65.5385 322.46 61.4155C321.654 57.3444 319.249 53.7653 315.784 51.4804C314.222 50.4313 312.283 49.5514 310.47 50.0964C308.764 50.7055 307.527 52.1965 307.242 53.9843C306.973 55.7543 307.183 57.5644 307.85 59.2255C309.83 64.9694 312.807 70.1574 318.446 72.4413" fill="#455A64"/>
<path d="M323.76 82.2311C330.315 76.3771 339.287 74.0361 347.866 75.9421C350.014 76.4352 352.425 77.5771 352.781 79.7473C353.138 81.9162 351.188 83.7712 349.281 84.8723C341.052 89.4472 330.879 88.6191 323.498 82.7761" fill="#455A64"/>
<path d="M354.532 36.8169C350.914 35.955 347.101 36.6101 343.977 38.6298C340.891 40.643 338.309 43.34 336.431 46.5119C332.627 52.517 331.295 60.5769 331.128 67.673C338.999 67.3579 345.738 61.164 348.945 57.81C354.029 52.507 360.003 39.8249 354.521 36.8479" fill="#455A64"/>
<path d="M311.822 92.9527C312.539 92.0079 313.194 91.0169 313.782 89.9869C315.827 85.9888 317.321 81.7337 318.226 77.3358C319.11 72.8778 318.769 68.2637 317.24 63.9827C316.756 62.7039 316.116 61.4888 315.333 60.3668C314.767 59.5809 314.4 59.2039 314.358 59.2349C315.273 60.8199 316.062 62.4739 316.716 64.1817C318.042 68.3887 318.291 72.8619 317.44 77.1888C316.525 81.5279 315.119 85.7469 313.247 89.7669" fill="#263238"/>
<path d="M311.822 93.0471L315.92 87.8069C319.379 83.3311 324.158 77.158 329.545 70.4189C334.932 63.679 339.869 57.6321 343.464 53.261L347.709 48.084C348.259 47.4719 348.754 46.813 349.186 46.113C348.565 46.6389 347.987 47.2141 347.457 47.832C346.409 48.9961 344.879 50.7141 343.024 52.853C339.313 57.1179 334.293 63.113 328.916 69.863C323.54 76.613 318.813 82.8491 315.469 87.4189C313.803 89.7041 312.472 91.6111 311.57 92.8689" fill="#263238"/>
<path d="M342.961 80.5852C342.526 80.3801 342.063 80.2393 341.588 80.1663C341.048 80.0212 340.498 79.9163 339.942 79.8523C339.21 79.7302 338.472 79.6502 337.731 79.6104C335.8 79.4942 333.862 79.5684 331.945 79.8313C327.229 80.4802 322.728 82.2202 318.802 84.9143C317.206 86.0132 315.724 87.2703 314.379 88.6663C313.858 89.1934 313.368 89.7493 312.912 90.3323C312.526 90.7542 312.175 91.2063 311.864 91.6853C311.35 92.4502 311.424 92.8062 311.465 92.8372C312.487 91.5252 313.575 90.2652 314.725 89.0642C316.094 87.7542 317.578 86.5684 319.159 85.5222C321.104 84.2793 323.164 83.2263 325.311 82.3772C327.476 81.5603 329.715 80.9563 331.998 80.5752C333.869 80.2793 335.763 80.1502 337.657 80.1873C340.948 80.2603 342.929 80.7212 342.961 80.5852V80.5852Z" fill="#263238"/>
<path d="M281.867 425.032L141.559 424.382C124.684 424.308 111.069 410.191 111.164 392.845L112.684 31.3983C112.757 14.0524 126.498 0.0394325 143.382 0.123422L283.692 0.773322C300.566 0.846322 314.18 14.9645 314.087 32.3104L312.557 393.756C312.493 411.102 298.753 425.115 281.867 425.032Z" fill="#455A64"/>
<path d="M302.965 330.305C302.965 332.012 301.581 333.396 299.873 333.396C298.166 333.396 296.782 332.012 296.782 330.305C296.782 328.597 298.166 327.213 299.874 327.213H299.884C301.588 327.218 302.965 328.601 302.965 330.305Z" fill="#E0E0E0"/>
<path d="M299.884 337.086C299.521 334.84 299.521 332.55 299.884 330.305C300.247 332.55 300.247 334.84 299.884 337.086Z" fill="#E0E0E0"/>
<path d="M286.489 12.7002L258.432 12.5952C254.583 12.6643 251.519 15.8403 251.588 19.6892V19.6912V24.7742C251.646 28.6162 248.585 31.7803 244.744 31.8494L190.044 31.5972C186.196 31.4893 183.163 28.2861 183.262 24.4392V19.3552C183.368 15.5083 180.334 12.3032 176.486 12.1973H176.481H166.608L142.03 12.0403C129.84 11.9822 119.911 21.8172 119.853 34.0073L119.852 34.0503L118.354 388.191C118.296 400.381 128.131 410.311 140.321 410.369H140.364L284.802 411.04C296.998 411.092 306.927 401.247 306.98 389.051V389.03L308.468 34.8782C308.514 22.6882 298.679 12.7632 286.489 12.7002H286.489Z" fill="#FAFAFA"/>
<path d="M127.965 292.164C129.202 291.242 189.603 264.631 189.603 264.631L119.045 229.436L118.804 286.148L127.965 292.164Z" fill="#EBEBEB"/>
<path d="M131.654 228.346L183.126 202.185L127.818 171.518L119.287 173.656L119.077 223.273L131.654 228.346Z" fill="#93C264"/>
<path opacity="0.7" d="M131.654 228.346L183.126 202.185L127.818 171.518L119.287 173.656L119.077 223.273L131.654 228.346Z" fill="white"/>
<path d="M121.142 167.955L279.792 93.8543L122.609 42.4871L121.142 167.955Z" fill="#EBEBEB"/>
<path d="M119.297 360.93L191.794 323.723L299.716 387.217L274.007 409.761H181.91L119.297 371.495L119.297 360.93Z" fill="#EBEBEB"/>
<path d="M206.069 319.698L295.723 372.857L305.722 371.725V320.609L256.587 294.606L206.069 319.698Z" fill="#EBEBEB"/>
<path d="M220.805 268.938L305.334 316.491V254.328L274.751 241.227L220.805 268.938Z" fill="#EBEBEB"/>
<path d="M130.522 295.141L180.107 322.349L240.289 291.179L192.475 266.863L130.522 295.141Z" fill="#EBEBEB"/>
<path d="M204.958 201.839L275.201 236.646L307.776 220.013L307.986 196.683L260.539 173.656L204.958 201.839Z" fill="#EBEBEB"/>
<path d="M133.121 232.203L203.364 267.01L235.939 250.377L236.149 227.047L188.691 204.02L133.121 232.203Z" fill="#EBEBEB"/>
<path d="M142.848 169.642L200.095 198.308L253.485 169.642L198.167 144.404L142.848 169.642Z" fill="#EBEBEB"/>
<path d="M253.485 352.828C253.121 352.683 252.771 352.508 252.437 352.304L249.481 350.638L238.109 344.066L196.018 319.383L195.148 318.87L196.049 318.409L251.273 290.341V291.619L210.041 269.609L208.742 268.918L210.052 268.226L267.32 238.166V239.623L260.486 236.165L132.199 171.078L130.994 170.47L132.22 169.883L200.346 137.392L219.212 128.494L224.18 126.209L225.469 125.643C225.614 125.575 225.765 125.522 225.92 125.486C225.796 125.588 225.659 125.673 225.511 125.737L224.274 126.387L219.359 128.934L200.619 138.168L132.796 171.151V169.914L261.22 234.718L268.053 238.177L269.468 238.9L268.064 239.634L210.754 269.63V268.247L251.934 290.341L253.149 290.991L251.923 291.609L196.531 319.404V318.43L238.371 343.584L249.586 350.407L252.468 352.21C252.827 352.382 253.167 352.589 253.485 352.828H253.485Z" fill="#93C264"/>
<path fill-rule="evenodd" clip-rule="evenodd" d="M241.17 91.8731C241.17 81.3922 230.186 74.7891 218.981 80.0301C216.451 81.2142 214.38 83.2 213.091 85.679C210.272 91.14 211.519 97.3761 214.066 102.553L222.786 124.647C223.532 126.581 225.704 127.543 227.637 126.797C228.625 126.416 229.406 125.635 229.787 124.647L238.329 102.438C241.295 95.6461 241.17 91.8731 241.17 91.8731H241.17ZM230.689 100.971C223.153 105.352 215.523 97.2601 219.652 89.274C220.194 88.22 221.022 87.3411 222.042 86.7381C229.578 82.356 237.208 90.4481 233.078 98.4342C232.525 99.494 231.682 100.373 230.647 100.971H230.689Z" fill="#93C264"/>
<path d="M224.442 206.263L224.19 193.916L256.377 209.501V222.33L224.442 206.263Z" fill="#F5F5F5"/>
<path d="M256.378 209.501L296.352 189.64V203.465L256.378 222.33V209.501Z" fill="#E0E0E0"/>
<path d="M224.19 193.915L263.42 174.295L296.351 189.639L256.377 209.5L224.19 193.915Z" fill="#F5F5F5"/>
<path d="M228.393 199.251V205.236L231.537 206.65V200.928L228.393 199.251Z" fill="#FAFAFA"/>
<path d="M233.424 201.462V207.457L236.579 208.872V203.15L233.424 201.462Z" fill="#FAFAFA"/>
<path d="M123.175 128.357V112.29L161.273 130.747V145.924L123.175 128.357Z" fill="#E0E0E0"/>
<path d="M161.273 130.747L208.605 107.228V123.599L161.273 145.924L161.273 130.747Z" fill="#F5F5F5"/>
<path d="M123.175 112.29L169.606 89.075L208.605 107.228L161.273 130.747L123.175 112.29Z" fill="#FAFAFA"/>
<path d="M128.153 118.6V125.696L131.874 127.373V120.592L128.153 118.6Z" fill="#FAFAFA"/>
<path d="M134.107 121.23V128.315L137.838 130.002V123.221L134.107 121.23Z" fill="#FAFAFA"/>
<path d="M238.025 262.66V275.321L251.651 282.019V268.939L238.025 262.66Z" fill="#E0E0E0"/>
<path d="M268.944 260.648L251.598 268.938V282.019L268.944 272.334V260.648Z" fill="#E0E0E0"/>
<path d="M238.025 262.66L255.214 254.328L268.944 260.648L251.598 268.938L238.025 262.66Z" fill="#F5F5F5"/>
<path d="M242.847 271.748V277.733L245.991 279.158V273.435L242.847 271.748Z" fill="#FAFAFA"/>
<path d="M128.342 256.11V268.771L141.915 275.468V262.388L128.342 256.11Z" fill="#E0E0E0"/>
<path d="M159.271 254.098L141.915 262.388V275.469L159.271 265.784V254.098Z" fill="#E0E0E0"/>
<path d="M128.342 256.11L145.541 247.778L159.271 254.098L141.915 262.388L128.342 256.11Z" fill="#F5F5F5"/>
<path d="M133.163 265.197V271.182L136.307 272.607V266.885L133.163 265.197Z" fill="#FAFAFA"/>
<path d="M184.635 172.535V185.206L198.208 191.903V178.823L184.635 172.535Z" fill="#F5F5F5"/>
<path d="M215.564 170.533L198.208 178.823V191.904L215.564 182.219V170.533Z" fill="#E0E0E0"/>
<path d="M184.635 172.535L201.834 164.213L215.564 170.533L198.208 178.823L184.635 172.535Z" fill="#F5F5F5"/>
<path d="M189.457 181.632V187.617L192.601 189.042V183.309L189.457 181.632Z" fill="#E0E0E0"/>
<path d="M169.543 281.044V293.716L183.116 300.402V287.333L169.543 281.044Z" fill="#E0E0E0"/>
<path d="M200.472 279.032L183.126 287.333V300.403L200.472 290.729V279.032Z" fill="#EBEBEB"/>
<path d="M169.543 281.044L186.742 272.722L200.472 279.032L183.126 287.333L169.543 281.044Z" fill="#F5F5F5"/>
<path d="M174.364 290.131V296.126L177.508 297.541V291.819L174.364 290.131Z" fill="#FAFAFA"/>
<path d="M225.595 311.638V327.517L254.177 344.36V327.967L225.595 311.638Z" fill="#F5F5F5"/>
<path d="M275.966 316.25L254.208 327.968V344.36L275.966 332.223V316.25Z" fill="#E0E0E0"/>
<path d="M225.595 311.627L247.165 301.188L275.967 316.249L254.208 327.967L225.595 311.627Z" fill="#FAFAFA"/>
<path d="M236.401 326.322V333.826L240.352 336.195V328.775L236.401 326.322Z" fill="#FAFAFA"/>
<path d="M156.766 344.318V360.196L185.379 377.05V360.647L156.766 344.318Z" fill="#E0E0E0"/>
<path d="M219.526 342.148L185.379 360.647V377.05L219.62 358.068L219.526 342.148Z" fill="#FAFAFA"/>
<path d="M156.766 344.318L192.883 326.825L219.62 342.211L185.379 360.647L156.766 344.318Z" fill="#F5F5F5"/>
<path d="M167.572 359.001V366.516L171.513 368.885V361.454L167.572 359.001Z" fill="#FAFAFA"/>
<path d="M265.077 284.943V348.363L282.937 357.597V293.38L265.077 284.943Z" fill="#F5F5F5"/>
<path d="M278.273 278.864L265.077 284.943L282.937 293.38L294.948 286.609L278.273 278.864Z" fill="#FAFAFA"/>
<path d="M282.936 293.38V357.597L293.805 351.749L294.947 286.609L282.936 293.38Z" fill="#E0E0E0"/>
<path d="M189.603 233.576V296.996L207.463 306.23V242.013L189.603 233.576Z" fill="#F5F5F5"/>
<path d="M202.788 227.486L189.603 233.576L207.463 242.013L219.474 235.242L202.788 227.486Z" fill="#FAFAFA"/>
<path d="M207.463 242.013V306.229L218.321 300.874L219.474 235.242L207.463 242.013Z" fill="#E0E0E0"/>
<path d="M197.705 354.18V370.059L226.329 386.912V370.52L197.705 354.18Z" fill="#E0E0E0"/>
<path d="M248.077 358.802L226.329 370.52V386.912L248.077 374.775V358.802Z" fill="#FAFAFA"/>
<path d="M197.705 354.18L219.526 342.148L248.077 358.802L226.329 370.52L197.705 354.18Z" fill="#F5F5F5"/>
<path d="M208.511 368.864V376.379L212.462 378.748V371.317L208.511 368.864Z" fill="#FAFAFA"/>
<path d="M261.345 164.863L209.234 141.375L281.804 104.44L305.617 139.949L261.345 164.863Z" fill="#EBEBEB"/>
<path d="M307.734 186.432L308.09 145.766L267.686 168.761L307.734 186.432Z" fill="#93C264"/>
<path d="M277.036 227.161C277.007 228.869 275.599 230.229 273.892 230.2C272.184 230.172 270.824 228.764 270.853 227.057C270.881 225.37 272.257 224.017 273.944 224.017C275.66 224.046 277.036 225.445 277.036 227.161Z" fill="#E0E0E0"/>
<path d="M273.944 233.943C273.58 231.697 273.58 229.407 273.944 227.161C274.307 229.407 274.307 231.697 273.944 233.943Z" fill="#E0E0E0"/>
<path d="M192.695 219.584C192.695 221.321 191.287 222.728 189.551 222.728C187.814 222.728 186.407 221.321 186.407 219.584C186.407 217.847 187.814 216.439 189.551 216.439C191.258 216.41 192.666 217.771 192.695 219.478C192.696 219.513 192.696 219.549 192.695 219.584Z" fill="#E0E0E0"/>
<path d="M189.603 226.407C189.24 224.161 189.24 221.871 189.603 219.626C189.967 221.871 189.967 224.161 189.603 226.407Z" fill="#E0E0E0"/>
<path d="M151.379 262.744C151.379 264.452 149.995 265.836 148.287 265.836C146.58 265.836 145.195 264.452 145.195 262.744C145.195 261.037 146.58 259.652 148.287 259.652C149.995 259.652 151.379 261.037 151.379 262.744Z" fill="#E0E0E0"/>
<path d="M148.319 269.526C147.956 267.28 147.956 264.99 148.319 262.744C148.682 264.99 148.682 267.28 148.319 269.526Z" fill="#E0E0E0"/>
<path d="M154.471 229.436C154.471 231.144 153.086 232.529 151.379 232.528C149.671 232.528 148.287 231.144 148.287 229.436C148.288 227.749 149.64 226.374 151.327 226.344C153.034 226.315 154.442 227.676 154.471 229.384V229.436Z" fill="#E0E0E0"/>
<path d="M151.379 236.217C151.016 233.971 151.016 231.682 151.379 229.436C151.742 231.682 151.742 233.971 151.379 236.217Z" fill="#E0E0E0"/>
<path d="M230.773 226.407C230.807 228.143 229.428 229.578 227.691 229.613C225.955 229.647 224.52 228.268 224.485 226.532C224.451 224.796 225.83 223.36 227.566 223.326C227.604 223.325 227.643 223.325 227.681 223.325C229.384 223.325 230.767 224.703 230.773 226.407Z" fill="#E0E0E0"/>
<path d="M227.681 233.157C227.317 230.911 227.317 228.621 227.681 226.375C228.044 228.621 228.044 230.911 227.681 233.157Z" fill="#E0E0E0"/>
<path d="M279.603 249.538C279.603 251.246 278.219 252.63 276.511 252.63C274.804 252.63 273.42 251.246 273.42 249.538C273.42 247.831 274.804 246.446 276.511 246.446C278.219 246.446 279.603 247.831 279.603 249.538Z" fill="#E0E0E0"/>
<path d="M276.511 256.32C276.148 254.074 276.148 251.784 276.511 249.538C276.875 251.784 276.875 254.074 276.511 256.32Z" fill="#E0E0E0"/>
<path d="M281.574 267.723C281.574 269.43 280.189 270.815 278.482 270.815C276.774 270.815 275.39 269.43 275.39 267.723C275.39 266.015 276.774 264.631 278.482 264.631C280.189 264.631 281.574 266.015 281.574 267.723Z" fill="#E0E0E0"/>
<path d="M278.482 274.504C278.119 272.258 278.119 269.969 278.482 267.723C278.845 269.969 278.845 272.258 278.482 274.504Z" fill="#E0E0E0"/>
<path d="M194.886 305.455C194.885 307.163 193.501 308.546 191.793 308.546C190.086 308.545 188.702 307.161 188.702 305.453C188.702 303.767 190.055 302.392 191.741 302.363C193.449 302.333 194.856 303.695 194.885 305.401L194.886 305.455Z" fill="#E0E0E0"/>
<path d="M191.794 312.235C191.431 309.99 191.431 307.7 191.794 305.454C192.157 307.7 192.157 309.99 191.794 312.235Z" fill="#E0E0E0"/>
<circle cx="293.365" cy="359.358" r="3.0919" fill="#E0E0E0"/>
<path d="M293.365 366.139C293.002 363.893 293.002 361.604 293.365 359.358C293.728 361.604 293.728 363.893 293.365 366.139Z" fill="#E0E0E0"/>
<path d="M237.407 393.169C237.436 394.906 236.051 396.337 234.315 396.365C232.579 396.394 231.148 395.01 231.119 393.273C231.091 391.537 232.475 390.106 234.211 390.078C234.246 390.077 234.28 390.077 234.315 390.078C236.023 390.078 237.407 391.462 237.407 393.169V393.169Z" fill="#E0E0E0"/>
<path d="M234.263 399.951C233.899 397.705 233.899 395.415 234.263 393.169C234.626 395.415 234.626 397.705 234.263 399.951Z" fill="#E0E0E0"/>
<path d="M213.573 383.831C213.573 385.539 212.189 386.923 210.481 386.923C208.774 386.923 207.389 385.538 207.389 383.831C207.389 382.123 208.774 380.739 210.481 380.739C212.189 380.739 213.573 382.123 213.573 383.831Z" fill="#E0E0E0"/>
<path d="M210.481 390.612C210.118 388.366 210.118 386.077 210.481 383.831C210.859 386.076 210.859 388.367 210.481 390.612Z" fill="#E0E0E0"/>
<path d="M268.169 377.051C268.169 378.786 266.761 380.195 265.024 380.195C263.288 380.195 261.88 378.786 261.88 377.051C261.88 375.313 263.288 373.905 265.024 373.905C266.732 373.876 268.139 375.238 268.169 376.945C268.169 376.979 268.169 377.014 268.169 377.051Z" fill="#E0E0E0"/>
<path d="M265.077 383.831C264.713 381.585 264.713 379.296 265.077 377.05C265.44 379.296 265.44 381.585 265.077 383.831Z" fill="#E0E0E0"/>
<circle cx="218.531" cy="317.507" r="3.09189" fill="#E0E0E0"/>
<path d="M218.541 324.289C218.178 322.043 218.178 319.753 218.541 317.507C218.905 319.753 218.905 322.043 218.541 324.289Z" fill="#E0E0E0"/>
<path d="M229.42 287.333C229.42 289.04 228.036 290.425 226.329 290.425C224.621 290.425 223.237 289.04 223.237 287.333C223.237 285.625 224.621 284.241 226.329 284.241C228.036 284.241 229.42 285.625 229.42 287.333Z" fill="#E0E0E0"/>
<path d="M226.329 294.114C225.965 291.868 225.965 289.578 226.329 287.333C226.692 289.578 226.692 291.868 226.329 294.114Z" fill="#E0E0E0"/>
<path d="M154.471 290.729C154.471 292.436 153.086 293.821 151.379 293.821C149.671 293.821 148.287 292.436 148.287 290.728C148.288 289.041 149.64 287.665 151.327 287.637C153.034 287.608 154.442 288.968 154.471 290.676V290.729Z" fill="#E0E0E0"/>
<path d="M151.379 297.51C151.016 295.264 151.016 292.974 151.379 290.729C151.742 292.974 151.742 295.264 151.379 297.51Z" fill="#E0E0E0"/>
<path d="M297.243 262.744C297.243 264.452 295.859 265.836 294.151 265.836C292.443 265.836 291.059 264.452 291.059 262.744C291.059 261.037 292.443 259.652 294.151 259.652C295.859 259.652 297.243 261.037 297.243 262.744Z" fill="#E0E0E0"/>
<path d="M294.151 269.526C293.788 267.28 293.788 264.99 294.151 262.744C294.514 264.99 294.514 267.28 294.151 269.526Z" fill="#E0E0E0"/>
<path d="M288.952 216.492C288.952 218.199 287.568 219.584 285.86 219.584C284.153 219.584 282.769 218.199 282.769 216.492C282.769 214.784 284.153 213.4 285.86 213.4C287.568 213.4 288.952 214.784 288.952 216.492Z" fill="#E0E0E0"/>
<path d="M285.86 223.263C285.497 221.017 285.497 218.727 285.86 216.481C286.224 218.727 286.224 221.017 285.86 223.263Z" fill="#E0E0E0"/>
<circle cx="223.258" cy="175.616" r="3.09188" fill="#E0E0E0"/>
<path d="M223.258 182.387C222.881 180.142 222.881 177.85 223.258 175.606C223.622 177.851 223.622 180.141 223.258 182.387Z" fill="#E0E0E0"/>
<path d="M167.237 233.944C167.237 235.65 165.852 237.034 164.145 237.034C162.437 237.034 161.053 235.649 161.053 233.942C161.053 232.255 162.406 230.879 164.093 230.852C165.8 230.822 167.208 232.182 167.236 233.89L167.237 233.944Z" fill="#E0E0E0"/>
<path d="M164.145 240.724C163.782 238.478 163.782 236.188 164.145 233.943C164.522 236.187 164.522 238.479 164.145 240.724Z" fill="#E0E0E0"/>
<path d="M203.564 153.553C203.564 155.29 202.156 156.697 200.42 156.697C198.683 156.697 197.275 155.29 197.275 153.553C197.275 151.816 198.683 150.408 200.42 150.408C202.127 150.379 203.535 151.74 203.564 153.447C203.565 153.482 203.565 153.518 203.564 153.553Z" fill="#E0E0E0"/>
<path d="M200.472 160.377C200.109 158.131 200.109 155.841 200.472 153.596C200.835 155.841 200.835 158.131 200.472 160.377Z" fill="#E0E0E0"/>
<path d="M266.607 146.752C266.578 148.459 265.17 149.819 263.463 149.791C261.756 149.762 260.395 148.354 260.424 146.647C260.453 144.96 261.828 143.607 263.515 143.607C265.223 143.607 266.607 144.991 266.607 146.699V146.752Z" fill="#E0E0E0"/>
<path d="M263.515 153.554C263.152 151.308 263.152 149.018 263.515 146.772C263.878 149.018 263.878 151.308 263.515 153.554Z" fill="#E0E0E0"/>
<path d="M284.037 143.922C284.037 145.658 282.629 147.066 280.892 147.066C279.156 147.065 277.748 145.657 277.748 143.921C277.748 142.184 279.156 140.777 280.893 140.777H280.945C282.652 140.777 284.037 142.161 284.037 143.869V143.922Z" fill="#E0E0E0"/>
<path d="M280.945 150.703C280.582 148.457 280.582 146.167 280.945 143.922C281.308 146.167 281.308 148.457 280.945 150.703Z" fill="#E0E0E0"/>
<path d="M277.036 121.115C277.036 122.823 275.651 124.207 273.944 124.207C272.236 124.207 270.852 122.823 270.852 121.115C270.852 119.407 272.236 118.023 273.944 118.023C275.639 118.051 277.007 119.419 277.036 121.115Z" fill="#E0E0E0"/>
<path d="M273.944 127.886C273.58 125.64 273.58 123.35 273.944 121.105C274.307 123.35 274.307 125.64 273.944 127.886Z" fill="#E0E0E0"/>
<path d="M179.95 173.656C179.95 175.364 178.566 176.749 176.858 176.749C175.15 176.748 173.766 175.363 173.767 173.655C173.767 171.968 175.119 170.593 176.806 170.564C178.513 170.535 179.921 171.896 179.95 173.603V173.656Z" fill="#E0E0E0"/>
<path d="M176.858 180.437C176.495 178.192 176.495 175.902 176.858 173.656C177.222 175.902 177.222 178.192 176.858 180.437Z" fill="#E0E0E0"/>
<path d="M251.808 144.404C251.837 146.14 250.452 147.571 248.716 147.6C246.98 147.628 245.549 146.244 245.52 144.508C245.491 142.771 246.876 141.341 248.612 141.312C248.647 141.311 248.681 141.311 248.716 141.312C250.424 141.312 251.808 142.696 251.808 144.404Z" fill="#E0E0E0"/>
<path d="M248.716 151.185C248.353 148.939 248.353 146.65 248.716 144.404C249.079 146.65 249.079 148.939 248.716 151.185Z" fill="#E0E0E0"/>
<path d="M164.994 74.7681C165.023 76.5049 163.638 77.9351 161.902 77.9641C160.166 77.9929 158.735 76.6089 158.706 74.8721C158.678 73.136 160.062 71.7051 161.798 71.676C161.833 71.676 161.867 71.676 161.902 71.676C163.61 71.676 164.994 73.061 164.994 74.7681Z" fill="#E0E0E0"/>
<path d="M161.944 81.5391C161.676 80.4319 161.584 79.2891 161.672 78.1541C161.584 77.0181 161.676 75.875 161.944 74.7681C162.218 75.874 162.31 77.0181 162.217 78.1541C162.31 79.2891 162.218 80.4331 161.944 81.5391Z" fill="#E0E0E0"/>
<path d="M200.472 91.6951C200.472 93.4031 199.088 94.7871 197.38 94.7871C195.673 94.7871 194.288 93.4031 194.288 91.6951C194.288 89.9871 195.673 88.603 197.38 88.603C199.088 88.603 200.472 89.9871 200.472 91.6951Z" fill="#E0E0E0"/>
<path d="M197.38 98.4761C197.113 97.3689 197.021 96.2271 197.108 95.0911C197.021 93.9519 197.113 92.8059 197.38 91.6951C197.648 92.8059 197.74 93.9519 197.653 95.0911C197.739 96.2271 197.647 97.3689 197.38 98.4761Z" fill="#E0E0E0"/>
<path d="M144.126 145.168C144.126 146.905 142.719 148.312 140.982 148.312C139.246 148.312 137.838 146.905 137.838 145.168C137.838 143.431 139.246 142.024 140.982 142.024C142.689 141.995 144.097 143.355 144.126 145.062C144.127 145.097 144.127 145.134 144.126 145.168V145.168Z" fill="#E0E0E0"/>
<path d="M140.982 151.992C140.619 149.746 140.619 147.457 140.982 145.211C141.345 147.457 141.345 149.746 140.982 151.992Z" fill="#E0E0E0"/>
<path d="M147.176 94.7869C147.205 96.5227 145.821 97.9539 144.084 97.9827C142.348 98.0107 140.917 96.6267 140.889 94.8909C140.86 93.1548 142.244 91.7239 143.981 91.6948C144.015 91.6938 144.05 91.6938 144.084 91.6948C145.792 91.6948 147.176 93.0789 147.176 94.7869Z" fill="#E0E0E0"/>
<path d="M144.126 101.568C143.853 100.462 143.761 99.3181 143.854 98.1831C143.761 97.043 143.853 95.897 144.126 94.7871C144.394 95.8979 144.486 97.043 144.399 98.1831C144.485 99.3181 144.393 100.461 144.126 101.568Z" fill="#E0E0E0"/>
<path d="M280.232 238.953L305.722 225.443L305.617 249.811L280.232 238.953Z" fill="#EBEBEB"/>
<path d="M174.364 325.358L118.521 354.18V300.402L124.705 297.646L174.364 325.358Z" fill="#EBEBEB"/>
<path d="M257.771 354.18C257.771 356.148 256.176 357.744 254.208 357.744C252.24 357.744 250.644 356.148 250.644 354.18C250.644 352.212 252.24 350.617 254.208 350.617C256.176 350.617 257.771 352.212 257.771 354.18Z" fill="#93C264"/>
<path d="M290.378 99.8181L308.164 105.226V133.252L290.378 99.8181Z" fill="#EBEBEB"/>
<path d="M308.342 62.3799L308.237 31.796C306.755 20.9031 297.483 12.761 286.489 12.7L258.432 12.595C254.583 12.6641 251.519 15.8401 251.588 19.689V19.691V24.774C251.646 28.616 248.585 31.7801 244.744 31.8492L190.044 31.597C186.196 31.4891 183.163 28.2859 183.262 24.439V19.355C183.368 15.5081 180.334 12.303 176.486 12.1971H176.481H166.608L142.03 12.0401C136.5 12.0272 131.168 14.096 127.095 17.836C124.632 22.584 121.938 29.365 123.175 34.49L308.206 94.7242L308.342 62.3799Z" fill="#93C264"/>
<path opacity="0.7" d="M308.342 62.3799L308.237 31.796C306.755 20.9031 297.483 12.761 286.489 12.7L258.432 12.595C254.583 12.6641 251.519 15.8401 251.588 19.689V19.691V24.774C251.646 28.616 248.585 31.7801 244.744 31.8492L190.044 31.597C186.196 31.4891 183.163 28.2859 183.262 24.439V19.355C183.368 15.5081 180.334 12.303 176.486 12.1971H176.481H166.608L142.03 12.0401C136.5 12.0272 131.168 14.096 127.095 17.836C124.632 22.584 121.938 29.365 123.175 34.49L308.206 94.7242L308.342 62.3799Z" fill="white"/>
<path d="M286.489 12.6997H287.244C287.991 12.7139 288.737 12.7769 289.476 12.8887C292.408 13.2517 295.227 14.2378 297.746 15.7808C299.622 16.8997 301.315 18.2998 302.766 19.9316C304.545 21.8699 305.965 24.1099 306.959 26.5447C308.091 29.3938 308.64 32.4417 308.573 35.5068V45.9138C308.468 75.3337 308.321 117.897 308.133 170.491C307.944 223.084 307.682 285.708 307.409 355.249C307.409 363.935 307.374 372.732 307.305 381.64V388.338C307.336 390.608 307.04 392.871 306.424 395.056C305.806 397.259 304.847 399.353 303.584 401.261C302.302 403.167 300.748 404.876 298.972 406.334C295.34 409.258 290.883 410.97 286.227 411.228C285.064 411.302 283.911 411.281 282.758 411.281H279.299H272.351L244.23 411.155L186.449 410.872L156.934 410.736L142.03 410.62C136.94 410.881 131.904 409.467 127.692 406.596C123.494 403.669 120.418 399.399 118.972 394.49C118.285 392.065 117.984 389.546 118.081 387.028V379.586C118.123 369.685 118.165 359.843 118.207 350.061C118.291 330.497 118.371 311.257 118.448 292.343C118.616 254.496 118.773 217.991 118.93 183.215C119.087 148.439 119.234 115.403 119.37 84.4739C119.44 69.0107 119.51 54.0957 119.58 39.7297V34.3748C119.58 33.4836 119.664 32.5818 119.716 31.6907C119.769 30.8008 119.947 29.9307 120.177 29.0708C120.985 25.6387 122.586 22.4438 124.852 19.7427C129.318 14.4739 135.967 11.5608 142.869 11.8508L162.112 11.9448H171.366H175.905C177.443 11.8686 178.964 12.2998 180.233 13.1719C181.516 14.0527 182.485 15.3188 183 16.7878C183.407 18.2026 183.553 19.6797 183.43 21.1477V23.2436C183.383 23.9416 183.383 24.6418 183.43 25.3398C183.6 26.7117 184.173 28.0027 185.076 29.0498C185.952 30.0867 187.133 30.8208 188.45 31.1458C189.102 31.3057 189.772 31.3757 190.442 31.3557H192.475H200.451L229.557 31.5127L242.396 31.5867H245.404C246.368 31.4797 247.296 31.1567 248.119 30.6428C249.722 29.6457 250.856 28.0437 251.263 26.1987C251.416 25.3137 251.476 24.4138 251.441 23.5159V20.8748C251.404 20.0168 251.446 19.1577 251.567 18.3066C251.706 17.4778 251.99 16.6797 252.405 15.9487C253.176 14.5178 254.427 13.4048 255.937 12.8047C257.353 12.3628 258.843 12.2097 260.318 12.3537L274.635 12.4477L283.439 12.5107H286.447H283.439H274.635H260.318C258.863 12.3628 257.393 12.5168 256 12.9617C254.539 13.5388 253.323 14.6057 252.562 15.9807C252.165 16.6977 251.893 17.4778 251.755 18.2856C251.642 19.1267 251.604 19.9758 251.64 20.8227V23.4639C251.681 24.3757 251.618 25.2907 251.451 26.1887C251.048 28.0898 249.891 29.7468 248.244 30.7798C247.397 31.3137 246.441 31.6496 245.446 31.7646C244.398 31.8489 243.434 31.7646 242.406 31.7646H229.567L200.462 31.6496H192.486H190.452C189.747 31.6748 189.042 31.6037 188.356 31.4397C187.011 31.1147 185.794 30.3918 184.866 29.3647C183.922 28.2668 183.324 26.9138 183.147 25.4758C183.079 24.7617 183.058 24.0437 183.084 23.3276V21.2307C183.207 19.8208 183.068 18.3996 182.675 17.0388C182.194 15.6758 181.3 14.4968 180.118 13.6638C178.907 12.8337 177.455 12.4287 175.989 12.5107H171.45H162.196L142.942 12.4377C136.2 12.1157 129.682 14.9048 125.261 20.0046C123.042 22.6606 121.474 25.7968 120.68 29.1657C120.46 30.0036 120.387 30.8838 120.23 31.7436C120.073 32.6028 120.115 33.4836 120.104 34.3747V39.7297C120.041 54.0747 119.982 68.9897 119.926 84.4738C119.811 115.403 119.674 148.407 119.538 183.215C119.402 218.022 119.245 254.485 119.087 292.343C119.011 311.271 118.916 330.518 118.804 350.082C118.804 359.864 118.766 369.706 118.689 379.607V387.059C118.591 389.535 118.884 392.011 119.559 394.396C120.965 399.175 123.951 403.335 128.028 406.197C132.147 408.983 137.065 410.345 142.03 410.075L156.934 410.138L186.459 410.274L244.157 410.547L272.277 410.683H279.226H282.685C283.838 410.683 284.991 410.683 286.122 410.631C290.671 410.379 295.025 408.707 298.574 405.851C300.309 404.427 301.828 402.757 303.081 400.894C304.312 399.033 305.249 396.993 305.858 394.846C306.459 392.705 306.745 390.488 306.707 388.264V381.567C306.749 372.658 306.787 363.858 306.822 355.165C307.147 285.635 307.43 223.011 307.661 170.418C307.891 117.824 308.132 75.2607 308.279 45.8408C308.279 42.1648 308.297 38.6958 308.332 35.4328C308.412 32.3908 307.878 29.3647 306.759 26.5346C305.79 24.1098 304.391 21.8808 302.63 19.9526C301.19 18.3447 299.515 16.9626 297.662 15.8547C295.16 14.3088 292.36 13.3088 289.445 12.9196C288.706 12.7988 287.961 12.7287 287.212 12.7097C286.741 12.7307 286.489 12.6997 286.489 12.6997V12.6997Z" fill="#263238"/>
</svg>
