<svg width="26" height="32" viewBox="0 0 26 32" fill="none" xmlns="http://www.w3.org/2000/svg">
<path d="M9.1004 15.2806C8.73434 14.9145 8.14072 14.9145 7.77459 15.2806C7.40847 15.6467 7.40847 16.2403 7.77459 16.6064L10.6913 19.5231C10.8743 19.7061 11.1143 19.7977 11.3542 19.7977C11.594 19.7977 11.834 19.7062 12.017 19.5231L17.8503 13.6898C18.2165 13.3236 18.2165 12.7301 17.8503 12.3639C17.4843 11.9978 16.8906 11.9978 16.5245 12.3639L11.3541 17.5343L9.1004 15.2806Z" fill="#73B92D"/>
<path d="M24.6819 4.375C21.9797 4.375 19.5178 2.89025 18.2571 0.500125C18.0949 0.1925 17.7757 0 17.4279 0H8.19706C7.84931 0 7.53006 0.1925 7.36781 0.500125C6.10719 2.89025 3.64531 4.375 0.9375 4.375C0.41975 4.375 0 4.79475 0 5.3125V14.8594C0 18.6974 1.19919 22.3623 3.46788 25.4579C5.73669 28.5536 8.87031 30.8007 12.5302 31.9564C12.6221 31.9854 12.7172 31.9999 12.8125 31.9999C12.9078 31.9999 13.0029 31.9854 13.0948 31.9564C16.7547 30.8007 19.8883 28.5536 22.1571 25.4579C24.4258 22.3623 25.625 18.6974 25.625 14.8594V5.3125C25.625 4.79475 25.1996 4.375 24.6819 4.375ZM23.75 14.8594C23.75 21.7978 19.3671 27.8757 12.8125 30.0766C6.25787 27.8757 1.875 21.7978 1.875 14.8594V6.20294C4.71237 5.91494 7.24988 4.32263 8.74238 1.875H16.8827C18.3744 4.32137 20.9104 5.91331 23.75 6.2025V14.8594Z" fill="#09265E"/>
<path d="M16.1624 4.09425C15.9843 3.87638 15.7177 3.75 15.4364 3.75H10.1886C9.90719 3.75 9.64069 3.87638 9.46269 4.09425C8.13706 5.71619 6.38456 6.91931 4.39469 7.57344C4.01 7.69988 3.75 8.05906 3.75 8.46406V14.8595C3.75 20.6009 7.16556 25.7349 12.4517 27.9391C12.5672 27.9872 12.6899 28.0113 12.8125 28.0113C12.9351 28.0113 13.0579 27.9872 13.1733 27.9391C18.4594 25.7349 21.875 20.6009 21.875 14.8595V8.46469C21.875 8.05975 21.6151 7.70056 21.2304 7.57406C19.2404 6.91969 17.4879 5.71644 16.1624 4.09425ZM20 14.8595C20 19.7097 17.1918 24.0602 12.8125 26.0514C8.43319 24.0602 5.625 19.7098 5.625 14.8595V9.12362C7.549 8.37587 9.25981 7.179 10.623 5.625H15.0019C16.3652 7.17919 18.0758 8.37625 20 9.12412V14.8595Z" fill="#09265E"/>
</svg>
