<svg width="32" height="32" viewBox="0 0 32 32" fill="none" xmlns="http://www.w3.org/2000/svg">
<path d="M20.4375 5.6875H12.9375C12.4197 5.6875 12 6.10725 12 6.625C12 7.14275 12.4197 7.5625 12.9375 7.5625H20.4375C20.9552 7.5625 21.375 7.14275 21.375 6.625C21.375 6.10725 20.9552 5.6875 20.4375 5.6875Z" fill="#09265E"/>
<path d="M20.4375 9.4375H12.9375C12.4197 9.4375 12 9.85725 12 10.375C12 10.8928 12.4197 11.3125 12.9375 11.3125H20.4375C20.9552 11.3125 21.375 10.8928 21.375 10.375C21.375 9.85725 20.9552 9.4375 20.4375 9.4375Z" fill="#09265E"/>
<path d="M19.9375 13.1875H4.9375C4.41975 13.1875 4 13.6072 4 14.125C4 14.6428 4.41975 15.0625 4.9375 15.0625H19.9375C20.4552 15.0625 20.875 14.6428 20.875 14.125C20.875 13.6072 20.4552 13.1875 19.9375 13.1875Z" fill="#09265E"/>
<path d="M17.0261 17H4.97393C4.43606 17 4 17.4477 4 18C4 18.5523 4.43606 19 4.97393 19H17.0261C17.5639 19 18 18.5523 18 18C18 17.4477 17.5639 17 17.0261 17Z" fill="#09265E"/>
<path d="M24.4375 16.9375V2.8125C24.4375 1.258 23.119 0 21.5625 0H8.43738C8.19969 0 7.95519 0.094 7.77187 0.277375L0.271875 7.83988C0.0995625 8.01356 0 8.25513 0 8.5V29.1875C0 30.7383 1.26169 32 2.8125 32C4.79037 32 5.44712 32 5.44431 32C8.3195 32 13.9771 32 24.4375 32C28.5771 32 32 28.5916 32 24.4375C32 20.302 28.6075 16.9375 24.4375 16.9375ZM7.5 3.21419V7.5625H3.18762L7.5 3.21419ZM2.8125 30.125C2.29556 30.125 1.875 29.7044 1.875 29.1875V9.4375H8.4375C8.95525 9.4375 9.375 9.01775 9.375 8.5V1.875H21.5625C22.0952 1.875 22.5625 2.31306 22.5625 2.8125V17.1709C20.5726 17.6762 18.8964 18.9662 17.8902 20.6875H4.6875C4.16975 20.6875 3.75 21.1073 3.75 21.625C3.75 22.1427 4.16975 22.5625 4.6875 22.5625H17.1143C16.9581 23.162 16.875 23.7903 16.875 24.4375H4.6875C4.16975 24.4375 3.75 24.8573 3.75 25.375C3.75 25.8927 4.16975 26.3125 4.6875 26.3125H17.1128C17.4917 27.7786 18.3111 29.0999 19.4804 30.125H2.8125ZM24.4375 30.125C21.3546 30.125 18.75 27.5204 18.75 24.4375C18.75 21.3359 21.3014 18.8125 24.4375 18.8125C27.5736 18.8125 30.125 21.3359 30.125 24.4375C30.125 27.5204 27.5204 30.125 24.4375 30.125Z" fill="#09265E"/>
<path d="M27.9809 21.8426C27.6179 21.4735 27.0242 21.4685 26.655 21.8316L23.4947 24.9402L22.2144 23.7013C21.8424 23.3412 21.2489 23.351 20.8888 23.723C20.5287 24.0951 20.5385 24.6886 20.9105 25.0487L22.848 26.9237C23.2135 27.2774 23.7945 27.2752 24.1574 26.9184L27.9699 23.1684C28.339 22.8053 28.3439 22.2117 27.9809 21.8426Z" fill="#73B92D"/>
</svg>
