<svg width="10" height="16" viewBox="0 0 10 16" fill="none" xmlns="http://www.w3.org/2000/svg">
<path d="M1 3.56429C1 5.42857 2.26882 7.03571 4.09677 7.44286C4.35484 7.50714 4.54839 7.74286 4.54839 8C4.54839 8.25714 4.35484 8.49286 4.09677 8.55714C2.26882 8.96429 1 10.5714 1 12.4357V14H9V12.4357C9 10.5714 7.73118 8.96429 5.90323 8.55714C5.64516 8.49286 5.45161 8.25714 5.45161 8C5.45161 7.74286 5.64516 7.50714 5.90323 7.44286C7.73118 7.03571 9 5.42857 9 3.56429V2H1V3.56429Z" fill="#979CB6"/>
<path d="M10 15H0V16H10V15Z" fill="#979CB6"/>
<path d="M10 0H0V1H10V0Z" fill="#979CB6"/>
</svg>
