<svg width="16" height="16" viewBox="0 0 16 16" fill="none" xmlns="http://www.w3.org/2000/svg">
<path d="M7.2 13.8569C5.19385 11.208 3.69231 8.8386 3.69231 5.99002C3.69231 3.55408 4.77538 1.41098 6.44923 0.0798674C6.15385 0.0266228 5.84615 0 5.53846 0C2.46154 0 0 2.66223 0 5.99002C0 9.38436 2.46154 12.2729 5.53846 15.9734C6.11692 15.228 6.68308 14.5225 7.2 13.8569ZM10.4615 0.0266228C7.38462 0.0266228 4.92308 2.68885 4.92308 6.01664C4.92308 9.41098 7.38462 12.2995 10.4615 16C13.5385 12.0067 16 9.34443 16 6.01664C16 2.68885 13.5385 0.0266228 10.4615 0.0266228ZM10.4615 4.01997C11.4831 4.01997 12.3077 4.91181 12.3077 6.01664C12.3077 7.12146 11.4831 8.01331 10.4615 8.01331C9.45231 8.01331 8.61539 7.12146 8.61539 6.01664C8.61539 4.91181 9.44 4.01997 10.4615 4.01997Z" fill="#979CB6"/>
</svg>
