<svg width="16" height="14" viewBox="0 0 16 14" fill="none" xmlns="http://www.w3.org/2000/svg">
<path d="M15.3351 4.095H13.8749L13.3502 1.86667C12.9737 0.268333 12.5288 0 10.1447 0H5.71852C3.52827 0 3.01493 0.245 2.62707 1.86667L2.10232 4.095H0.653561C-0.202006 4.095 -0.156376 5.985 0.436817 6.20667L1.14409 6.475V13.2067C1.14409 13.6617 1.47491 14 1.9198 14H2.66129C3.10619 14 3.43701 13.6617 3.43701 13.2067V12.145C5.88963 12.215 10.1561 12.215 12.5516 12.145V13.2067C12.5516 13.6617 12.8825 14 13.3274 14H14.0574C14.4909 14 14.8332 13.6617 14.8332 13.2067V6.48667L15.5404 6.20667C16.1678 6.00833 16.2021 4.095 15.3351 4.095ZM3.56249 9.01833C2.92367 9.01833 2.42173 8.505 2.42173 7.85167C2.42173 7.175 2.92367 6.67333 3.56249 6.67333C4.22413 6.67333 4.72606 7.175 4.72606 7.85167C4.72606 8.505 4.22413 9.01833 3.56249 9.01833ZM12.3349 9.01833C11.6961 9.01833 11.1827 8.505 11.1827 7.85167C11.1827 7.175 11.6961 6.67333 12.3349 6.67333C13.0194 6.67333 13.5099 7.175 13.5099 7.85167C13.5099 8.505 13.0194 9.01833 12.3349 9.01833Z" fill="#979CB6"/>
</svg>
