<svg id="Layer_1" data-name="Layer 1" xmlns="http://www.w3.org/2000/svg" viewBox="0 0 16 16"><defs><style>.cls-1{fill:#3f95f7;}</style></defs><path class="cls-1" d="M15.54,5.91V5L11.62,2.75h0l-1,.58V2.64h.58V1.88L7.92,0h0L4.65,1.88v.76h.59v.6l-.86-.49h0L.46,5v.91h.7V9.74H.46v.64h.7v5H.46V16H15.54v-.65h-.7v-5h.7V9.74h-.7V5.91ZM4.23,14.27H2.89V11.65H4.23Zm0-5.61H2.89V6H4.23Zm1.63,5.61H4.52V11.65H5.86Zm0-5.61H4.52V6H5.86ZM7.8,4.94H6.68V2.75H7.8Zm1.36,0H8V2.75H9.16Zm2.32,9.33H10.14V11.65h1.34Zm0-5.61H10.14V6h1.34Zm1.63,5.61H11.77V11.65h1.34Zm0-5.61H11.77V6h1.34Z"/></svg>