<svg id="Layer_1" data-name="Layer 1" xmlns="http://www.w3.org/2000/svg" viewBox="0 0 16 16"><defs><style>.cls-1{fill:#3f95f7;}</style></defs><rect class="cls-1" x="14.14" y="4.06" width="0.86" height="11.94"/><polygon class="cls-1" points="15.38 3.75 13.75 3.75 13.41 1.38 15.71 1.38 15.38 3.75"/><polygon class="cls-1" points="13.24 0.72 15.89 0.72 16 1.07 13.13 1.07 13.24 0.72"/><path class="cls-1" d="M14.14,0H15a.49.49,0,0,1,.49.41H13.65A.5.5,0,0,1,14.14,0Z"/><path class="cls-1" d="M10.58,9.44v2.4H9.1V9.44H7.55v-5H5.61V6.26H4.48V4.42H2.54v5H4v2.4H2.54V9.44H0V16H13.12V9.44ZM4,13H2.54v-.55H4ZM5.61,7.14H4.48V6.72H5.61Zm5,5.85H9.1v-.55h1.48Z"/></svg>