<svg id="Layer_1" data-name="Layer 1" xmlns="http://www.w3.org/2000/svg" viewBox="0 0 16 16"><defs><style>.cls-1{fill:#3f95f7;}</style></defs><path class="cls-1" d="M15.42,0h-9V4.94h9ZM7.11.64h3.5V4.3H7.11ZM14.75,4.3h-3.5V.64h3.5Z"/><path class="cls-1" d="M3,6.2H1.7V4.6H2.93l-.38-2H.4L0,4.6H1.25V6.2H0V7.4H3Zm-1.19.6H1.19a.09.09,0,0,1-.09-.1.09.09,0,0,1,.09-.09h.57a.09.09,0,0,1,.09.09A.09.09,0,0,1,1.76,6.8Z"/><path class="cls-1" d="M3,7.77H0V9H3Zm-1.19.6H1.19a.09.09,0,0,1-.09-.09.09.09,0,0,1,.09-.1h.57a.09.09,0,0,1,.09.1A.09.09,0,0,1,1.76,8.37Z"/><path class="cls-1" d="M15.55,11.32h0l-.13-1.44h0V5.22H3.49V9.88h0l-.13,1.44h0a.45.45,0,0,0-.45.45V16H4.67V14.44a1,1,0,0,1,1-1h7.59a1,1,0,0,1,1,1V16H16V11.77A.45.45,0,0,0,15.55,11.32ZM9.91,9.24a.72.72,0,0,1,.72-.72H14a.71.71,0,0,1,.71.72v.22H9.91Zm-5.75,0a.71.71,0,0,1,.71-.72H8.28A.72.72,0,0,1,9,9.24v.22H4.16Zm-.34,2.08v-.8a.64.64,0,0,1,.64-.64h10a.64.64,0,0,1,.64.64v.8Z"/></svg>