<svg id="Layer_1" data-name="Layer 1" xmlns="http://www.w3.org/2000/svg" viewBox="0 0 16 16"><defs><style>.cls-1{fill:#3f95f7;}</style></defs><path class="cls-1" d="M15.45,8.87h0l-.16-1.76h0V1.41H.71v5.7h0L.55,8.87h0A.56.56,0,0,0,0,9.43v5.16H2.16v-1.9a1.21,1.21,0,0,1,1.2-1.21h9.28a1.21,1.21,0,0,1,1.2,1.21v1.9H16V9.43A.56.56,0,0,0,15.45,8.87ZM8.56,6.33a.88.88,0,0,1,.88-.88H13.6a.88.88,0,0,1,.87.88v.26H8.56Zm-7,0a.88.88,0,0,1,.87-.88H6.56a.88.88,0,0,1,.88.88v.26H1.53ZM1.11,8.87v-1a.78.78,0,0,1,.79-.78H14.1a.78.78,0,0,1,.79.78v1Z"/></svg>