<svg id="Layer_1" data-name="Layer 1" xmlns="http://www.w3.org/2000/svg" viewBox="0 0 16 16"><defs><style>.cls-1{fill:#3f95f7;}</style></defs><path class="cls-1" d="M0,0V3.53H5.16V0ZM4.78,3.13H.4V.4H4.78Z"/><rect class="cls-1" x="0.75" y="0.72" width="1.62" height="2.1"/><rect class="cls-1" x="2.72" y="0.72" width="1.7" height="2.1"/><rect class="cls-1" x="1.44" y="6.4" width="0.9" height="0.23"/><path class="cls-1" d="M6.93,4.38V3.06a.67.67,0,0,0-1.34,0v.46h.25V3.06a.42.42,0,0,1,.84,0V4.38H0V8.87H3.78V5.35h.64V8.87h2.3V5.35h.61v-1Zm-4.59.54a.21.21,0,0,1,.21.21.21.21,0,0,1-.21.21.22.22,0,0,1-.21-.21A.21.21,0,0,1,2.34,4.92Zm-.88,0a.21.21,0,0,1,.21.21.21.21,0,1,1-.41,0A.2.2,0,0,1,1.46,4.92Zm-.88,0a.21.21,0,0,1,.21.21.21.21,0,0,1-.21.21.21.21,0,0,1-.2-.21A.2.2,0,0,1,.58,4.92ZM3.43,8.19H.38V6H3.43ZM3.22,5.34A.22.22,0,0,1,3,5.13a.21.21,0,0,1,.21-.21.21.21,0,0,1,.21.21A.21.21,0,0,1,3.22,5.34Z"/><polygon class="cls-1" points="13.47 0 13.47 0.82 13.72 0.82 13.72 0.25 16 0.25 16 0 13.47 0"/><path class="cls-1" d="M13.8,1h-.41a.44.44,0,0,0-.44.44h1.28A.44.44,0,0,0,13.8,1Z"/><polygon class="cls-1" points="11.39 0 11.27 0 11.14 0 10.15 0 10.15 5.23 8.95 5.23 8.95 5.48 16 5.48 16 5.23 11.39 5.23 11.39 0"/><rect class="cls-1" x="12.28" y="2.52" width="1.26" height="0.1" transform="translate(1.96 9.88) rotate(-45)"/><rect class="cls-1" x="12.41" y="3.09" width="2.13" height="0.1" transform="translate(1.73 10.44) rotate(-45)"/><rect class="cls-1" x="13.4" y="3.65" width="1.26" height="0.1" transform="translate(1.5 11) rotate(-45)"/><path class="cls-1" d="M15.22,9.42H16V6.51H8.93v4.1h0l-.11,1.27h0a.4.4,0,0,0-.4.4v3.34H7.14V14.06H3.86v-.61H3.29v.61H0V16H16v-.38H10v-1a.86.86,0,0,1,.86-.87H16V11.88H9.22v-.7a.58.58,0,0,1,.57-.57H16v-.37H14.59v-.19A.63.63,0,0,1,15.22,9.42Zm-1.44.82H9.52v-.19a.63.63,0,0,1,.63-.63h3a.63.63,0,0,1,.63.63Z"/><rect class="cls-1" x="0.75" y="10" width="5.65" height="3.17"/></svg>