<svg xmlns="http://www.w3.org/2000/svg" xmlns:xlink="http://www.w3.org/1999/xlink" viewBox="0 0 612 186.71"><defs><style>.cls-1{fill:url(#linear-gradient);}</style><linearGradient id="linear-gradient" x1="306" y1="186.71" x2="306" gradientUnits="userSpaceOnUse"><stop offset="0" stop-color="#fff"/><stop offset="1" stop-color="#d7e8fb"/></linearGradient></defs><g id="katman_2" data-name="katman 2"><g id="bgs"><polygon class="cls-1" points="612 81.4 591.75 81.4 587.54 57.87 578.93 57.87 578.93 38.35 580 38.35 580 36.58 575.82 36.58 575.82 28.98 575.31 28.98 575.31 36.58 572.42 36.58 572.42 30.35 571.91 30.35 571.91 36.58 554.5 36.58 554.5 38.35 555.69 38.35 555.69 77.96 535.82 77.96 535.82 60.22 524.5 60.22 524.5 16.61 525.53 16.61 525.53 14.47 523.27 14.47 523.27 11.73 520.67 11.73 520.67 10.7 520.67 7.57 520.67 4.86 517.53 4.86 517.53 0 517.15 0 516.77 0 516.77 4.86 515.08 4.86 514.06 7.57 507.21 7.57 507.21 11.73 489.28 11.73 489.28 14.47 487.02 14.47 487.02 16.61 488.06 16.61 488.06 44.98 473.05 44.98 473.05 72.86 456.41 66.7 456.41 39.64 459.1 39.64 459.1 37.65 454.37 37.65 454.37 32.25 434.14 32.25 434.14 37.65 427.53 37.65 427.53 32.25 424.13 32.25 424.13 37.65 420.74 37.65 420.74 32.25 417 32.25 417 37.65 409.18 37.65 409.18 39.64 410.37 39.64 410.37 77.14 402.79 77.14 402.79 76.75 401.41 76.75 401.41 66.06 402.79 66.06 402.79 65.2 401.41 65.2 401.41 54.52 402.79 54.52 402.79 53.66 401.41 53.66 401.41 42.97 402.79 42.97 402.79 42.11 401.41 42.11 401.41 31.43 402.79 31.43 402.79 30.57 401.41 30.57 401.41 19.88 402.79 19.88 402.79 19.02 401.41 19.02 401.41 11.5 403.76 11.5 403.76 10.64 404.96 10.64 404.96 8.3 382.61 8.3 382.61 5.69 383.34 5.69 383.34 4.94 371.17 4.94 371.17 5.69 371.9 5.69 371.9 8.3 366.36 8.3 366.36 10.64 367.56 10.64 367.56 11.5 369.91 11.5 369.91 19.02 368.54 19.02 368.54 19.88 369.91 19.88 369.91 30.57 368.54 30.57 368.54 31.43 369.91 31.43 369.91 42.11 368.54 42.11 368.54 42.97 369.91 42.97 369.91 53.66 368.54 53.66 368.54 54.52 369.91 54.52 369.91 65.2 368.54 65.2 368.54 66.06 369.91 66.06 369.91 76.75 368.54 76.75 368.54 77.61 369.91 77.61 369.91 86.34 362.29 86.34 362.29 52.59 331.59 52.59 331.59 77.14 326.61 77.14 326.61 15.32 322.93 15.32 322.93 17.29 316.12 18.68 316.12 17.4 312.44 17.4 312.44 19.43 305.63 20.83 305.63 19.36 301.95 19.36 301.95 21.58 295.14 22.97 295.14 21.76 291.46 21.76 291.46 23.73 284.65 25.11 284.65 24.07 280.97 24.07 280.97 84.52 275.78 84.52 275.78 44.48 256.57 44.48 256.57 69.1 236.88 69.1 236.88 48.1 234.45 48.1 234.45 41.21 235.89 41.21 235.89 40.52 229.52 40.52 229.52 38.35 228.84 38.35 228.84 40.52 226.8 40.52 226.8 29.39 226.29 29.39 226.29 40.52 223.63 40.52 223.63 41.21 225.2 41.21 225.2 48.1 212.2 48.1 212.2 64.12 199.54 64.12 192.94 84.52 179.68 84.52 179.68 17.92 162.12 17.92 162.12 15.53 163.12 15.53 163.12 14.7 149.82 14.7 149.82 15.53 150.87 15.53 150.87 17.92 150.87 21.75 150.87 67.37 142.59 67.37 142.59 50.13 145.53 50.13 145.53 48.57 124.7 48.57 124.7 38.16 120.73 38.16 120.73 36.02 111.86 36.02 111.86 38.16 104.64 38.16 104.64 75.34 80.97 75.34 80.97 47.77 61.03 47.77 61.03 69.54 43.73 69.54 43.73 83.48 31.26 83.48 31.26 65.96 14.85 65.96 14.85 80.89 0 80.89 0 186.71 612 186.71 612 81.4"/></g></g></svg>