<svg xmlns="http://www.w3.org/2000/svg" viewBox="0 0 54.44 54.44"><defs><style>.cls-1{fill:#fff;}.cls-2{fill:#09265e;}.cls-3{fill:#3f95f7;}.cls-4{fill:#ebf0f3;}.cls-5{fill:#e1e6e9;}.cls-6{fill:#bdbec1;}</style></defs><g id="katman_2" data-name="katman 2"><g id="content"><circle class="cls-1" cx="27.22" cy="27.22" r="27.22"/><path class="cls-2" d="M41.48,32.47h3.08a1.06,1.06,0,0,1,1.07,1l0,6.12a1.07,1.07,0,0,1-1,1.07H41.53a1.05,1.05,0,0,1-1.07-1.05l0-6.12a1.08,1.08,0,0,1,1.06-1.07Z"/><path class="cls-2" d="M10.15,32.66l3.08,0A1.08,1.08,0,0,1,14.3,33.7l0,6.11a1.05,1.05,0,0,1-1.05,1.07l-3.08,0a1.06,1.06,0,0,1-1.07-1.06l0-6.11a1.06,1.06,0,0,1,1.06-1.07Z"/><path class="cls-2" d="M45,17.58a.51.51,0,0,0-.45.5,1,1,0,0,1-.75,1.1H43l.39,1.15s4.94,0,4.79-1.65c-.12-1.26-2.26-1.2-3.21-1.11Z"/><path class="cls-2" d="M9.52,17.58a.52.52,0,0,1,.45.5,1,1,0,0,0,.75,1.1h.77l-.4,1.15s-4.93,0-4.78-1.65c.11-1.26,2.25-1.2,3.21-1.11Z"/><path class="cls-3" d="M47.09,27.2a8.47,8.47,0,0,0-1-3.43L44,20s-3.69-8.32-5.23-9-11-.78-11.61-.79h0c-.63,0-10.12.28-11.6.93s-5.12,9.05-5.12,9.05L8.37,24a8.51,8.51,0,0,0-1,3.45,24.78,24.78,0,0,0,.85,7.9,2.78,2.78,0,0,0,2.7,2l16.34-.1h0l16.34-.09a2.77,2.77,0,0,0,2.67-2.07,24.85,24.85,0,0,0,.76-7.92Z"/><path class="cls-2" d="M19.3,32.15l15.93-.1a.53.53,0,0,1,.52.52v2.71a.53.53,0,0,1-.51.52l-15.93.09a.52.52,0,0,1-.52-.51V32.67a.5.5,0,0,1,.51-.52Z"/><path class="cls-2" d="M39.06,12.23a1.06,1.06,0,0,0-.93-.61L27.24,11.4h0l-10.89.35a1,1,0,0,0-.91.62l-3.13,7,15-.09h0l15-.09Z"/><path class="cls-4" d="M42.6,31.59a1.91,1.91,0,1,0,1.92,1.89h0a1.91,1.91,0,0,0-1.92-1.89Z"/><path class="cls-4" d="M12.08,31.78A1.9,1.9,0,1,0,14,33.67a1.89,1.89,0,0,0-1.91-1.89Z"/><rect class="cls-2" x="20.13" y="27.33" width="13.86" height="1.73"/><path class="cls-5" d="M45.27,24.61a.73.73,0,0,0-.82-.65h-.09L38,25.52a.74.74,0,0,0-.45.34l-1.26,2.08a.74.74,0,0,0,.25,1,.72.72,0,0,0,.38.1h6.19a.73.73,0,0,0,.41-.12,4.22,4.22,0,0,0,1.73-4.32Z"/><path class="cls-6" d="M42.27,25.19a1.39,1.39,0,1,0,1.44,1.34,1.39,1.39,0,0,0-1.44-1.34Z"/><path class="cls-6" d="M39.32,26.52a1.06,1.06,0,1,0,1.1,1h0a1.05,1.05,0,0,0-1.1-1Z"/><path class="cls-5" d="M9.23,24.61A.73.73,0,0,1,10,24h.1l6.34,1.55a.74.74,0,0,1,.45.34l1.26,2.08a.74.74,0,0,1-.25,1,.75.75,0,0,1-.38.1h-6.2a.78.78,0,0,1-.41-.12,4.22,4.22,0,0,1-1.72-4.32Z"/><path class="cls-6" d="M12.23,25.19A1.39,1.39,0,0,1,12.12,28a1.39,1.39,0,0,1,.11-2.78Z"/><path class="cls-6" d="M15.17,26.52a1.06,1.06,0,0,1,1,1.1,1.07,1.07,0,0,1-1.1,1,1,1,0,0,1-1-1.1h0a1.05,1.05,0,0,1,1.09-1Z"/></g></g></svg>