<svg xmlns="http://www.w3.org/2000/svg" viewBox="0 0 54.44 54.44"><defs><style>.cls-1{fill:#fff;}.cls-2{fill:#09265e;}.cls-3{fill:#153d7c;}.cls-4{fill:#041e49;}.cls-5{fill:#3f95f7;}.cls-6{fill:#4d4b75;opacity:0.25;}</style></defs><g id="katman_2" data-name="katman 2"><g id="content"><circle class="cls-1" cx="27.22" cy="27.22" r="27.22"/><path class="cls-2" d="M39,27l-5.46-.45A1.46,1.46,0,0,1,32.2,25a1.48,1.48,0,0,1,.51-1l4.15-3.57A11.76,11.76,0,0,0,30.69,16L28.58,21a1.47,1.47,0,0,1-2.72,0L23.76,16a11.9,11.9,0,0,0-6.18,4.5L21.74,24a1.48,1.48,0,0,1,.16,2.08,1.52,1.52,0,0,1-1,.51L15.44,27c0,.06,0,.12,0,.19A11.71,11.71,0,0,0,17.8,34.3l4.67-2.84a1.47,1.47,0,0,1,2.2,1.6l-1.26,5.32a11.6,11.6,0,0,0,7.63,0l-1.26-5.32a1.47,1.47,0,0,1,1.09-1.78,1.44,1.44,0,0,1,1.11.18l4.66,2.84A11.75,11.75,0,0,0,39,27.22C39,27.16,39,27.1,39,27ZM27.22,29.43a2.21,2.21,0,1,1,2.21-2.21A2.21,2.21,0,0,1,27.22,29.43Z"/><path class="cls-3" d="M27.22,5.85A21.38,21.38,0,1,0,48.6,27.22,21.37,21.37,0,0,0,27.22,5.85Zm0,33.17A11.8,11.8,0,1,1,39,27.22,11.79,11.79,0,0,1,27.22,39Z"/><rect class="cls-4" x="20.22" y="6.84" width="1.47" height="2.21" transform="translate(-1.43 6.86) rotate(-18)"/><rect class="cls-4" x="32.75" y="45.39" width="1.47" height="2.21" transform="translate(-12.73 12.62) rotate(-18)"/><rect class="cls-4" x="26.49" y="5.85" width="1.47" height="2.21"/><rect class="cls-4" x="26.49" y="46.39" width="1.47" height="2.21"/><rect class="cls-4" x="14.57" y="9.72" width="1.47" height="2.21" transform="translate(-3.44 11.07) rotate(-36.01)"/><rect class="cls-4" x="38.4" y="42.51" width="1.47" height="2.21" transform="translate(-18.17 31.34) rotate(-36.01)"/><rect class="cls-4" x="10.09" y="14.2" width="1.47" height="2.21" transform="translate(-7.92 15.06) rotate(-53.99)"/><rect class="cls-4" x="42.88" y="38.03" width="1.47" height="2.21" transform="translate(-13.68 51.41) rotate(-53.99)"/><rect class="cls-4" x="7.21" y="19.85" width="1.47" height="2.21" transform="translate(-14.44 22.04) rotate(-72)"/><rect class="cls-4" x="45.77" y="32.38" width="1.47" height="2.21" transform="translate(0.28 67.37) rotate(-72)"/><rect class="cls-4" x="5.85" y="26.49" width="2.21" height="1.47"/><rect class="cls-4" x="46.39" y="26.49" width="2.21" height="1.47"/><rect class="cls-4" x="6.84" y="32.75" width="2.21" height="1.47" transform="translate(-9.96 4.1) rotate(-18.01)"/><rect class="cls-4" x="9.71" y="38.4" width="2.21" height="1.47" transform="translate(-20.94 13.83) rotate(-36)"/><rect class="cls-4" x="38.03" y="10.09" width="2.21" height="1.47" transform="translate(7.38 36.12) rotate(-54)"/><rect class="cls-4" x="32.38" y="7.21" width="2.21" height="1.47" transform="translate(15.58 37.34) rotate(-71.99)"/><path class="cls-4" d="M47.78,21.32l-.46-1.4-1.44.47c.11.48.2,1,.27,1.46Z"/><path class="cls-4" d="M45,15.25l-.87-1.19-.5.37c.25.43.48.87.7,1.31Z"/><path class="cls-4" d="M14.06,44.08l1.19.87.49-.67c-.45-.22-.88-.45-1.31-.7Z"/><path class="cls-4" d="M19.92,47.32l1.4.46.52-1.63c-.49-.07-1-.16-1.46-.27Z"/><path class="cls-4" d="M45.68,22l.47-.15c-.07-.5-.16-1-.27-1.47l-.66.22Z"/><path class="cls-4" d="M43.16,16.55l1.12-.81c-.22-.45-.45-.88-.7-1.31l-1.29.93Z"/><path class="cls-4" d="M15.36,42.29l-.93,1.29c.43.25.86.48,1.31.7l.81-1.12Z"/><path class="cls-4" d="M20.6,45.22l-.22.66c.49.11,1,.2,1.47.27l.15-.47Z"/><path class="cls-5" d="M27.22,11.74A15.48,15.48,0,1,0,42.7,27.22,15.48,15.48,0,0,0,27.22,11.74Zm0,27.28A11.8,11.8,0,1,1,39,27.22,11.79,11.79,0,0,1,27.22,39Z"/><path class="cls-6" d="M33.93,17.54A11.91,11.91,0,0,0,30.69,16l-.41,1A16.69,16.69,0,0,1,33.93,17.54Z"/><path class="cls-6" d="M24.47,17.68,23.76,16a11.9,11.9,0,0,0-6.18,4.5l.87.74A16.24,16.24,0,0,1,24.47,17.68Z"/></g></g></svg>