<svg xmlns="http://www.w3.org/2000/svg" viewBox="0 0 54.44 54.44"><defs><style>.cls-1{fill:#fff;}.cls-2{fill:#3f95f7;}.cls-3{fill:#09265e;}</style></defs><g id="katman_2" data-name="katman 2"><g id="content"><circle class="cls-1" cx="27.22" cy="27.22" r="27.22"/><path class="cls-2" d="M44.66,13.88V25.6A23.32,23.32,0,0,1,27.05,48.2,23.31,23.31,0,0,1,9.47,25.6V13.88c8.14-.92,12.75-4,17.59-7.63,4.85,3.61,9.46,6.71,17.6,7.63Z"/><path class="cls-3" d="M27.06,43.57a18.83,18.83,0,0,1-13.14-18V17.66a35.73,35.73,0,0,0,13.14-5.92,34.79,34.79,0,0,0,13.15,5.92V25.6a18.83,18.83,0,0,1-13.15,18Z"/><path class="cls-1" d="M24.15,34.39l-4.34-4.33L22,27.85,24.15,30l8-8,2.2,2.2Z"/></g></g></svg>