<svg xmlns="http://www.w3.org/2000/svg" viewBox="0 0 54.44 54.44"><defs><style>.cls-1{fill:#fff;}.cls-2{fill:#09265e;}.cls-3{fill:#3f95f7;}</style></defs><g id="katman_2" data-name="katman 2"><g id="content"><circle class="cls-1" cx="27.22" cy="27.22" r="27.22"/><path class="cls-2" d="M41.19,42.87H27.57a1.36,1.36,0,0,1,0-2.72H41.19a1.36,1.36,0,0,1,0,2.72Z"/><path class="cls-2" d="M41.19,29.25H27.57a1.36,1.36,0,0,1,0-2.72H41.19a1.36,1.36,0,0,1,0,2.72Z"/><path class="cls-2" d="M41.19,15.63H27.57a1.36,1.36,0,1,1,0-2.72H41.19a1.36,1.36,0,0,1,0,2.72Z"/><path class="cls-3" d="M21.1,37.42H18V18.36H21.1a1,1,0,0,0,.94-.62,1.15,1.15,0,0,0,.08-.41,1,1,0,0,0-.27-.69l-4.43-4.77a1,1,0,0,0-1.49,0L11.5,16.64a1,1,0,0,0,.75,1.72h3.06V37.42H12.25a1,1,0,0,0-.75,1.72l4.43,4.77a1,1,0,0,0,1.49,0l4.43-4.77a1,1,0,0,0,.27-.7A1.19,1.19,0,0,0,22,38a1,1,0,0,0-.94-.61Z"/></g></g></svg>