<svg xmlns="http://www.w3.org/2000/svg" viewBox="0 0 54.44 54.44"><defs><style>.cls-1{fill:#fff;}.cls-2{fill:#fff5f5;}.cls-3{fill:#041e49;}.cls-4{fill:#263658;}.cls-5{fill:#3f95f7;}</style></defs><g id="katman_2" data-name="katman 2"><g id="content"><circle class="cls-1" cx="27.22" cy="27.22" r="27.22"/><path class="cls-2" d="M36.24,32.68A13.53,13.53,0,1,1,22.71,19.14,13.53,13.53,0,0,1,36.24,32.68Z"/><rect class="cls-3" x="21.59" y="19.14" width="2.25" height="3.38"/><rect class="cls-3" x="21.59" y="42.83" width="2.25" height="3.38"/><rect class="cls-3" x="22.71" y="19.14" width="1.12" height="3.38"/><rect class="cls-4" x="22.71" y="42.83" width="1.12" height="3.38"/><rect class="cls-3" x="32.86" y="31.55" width="3.38" height="2.25"/><rect class="cls-3" x="9.18" y="31.55" width="3.38" height="2.25"/><path class="cls-5" d="M22.71,18A14.66,14.66,0,1,0,37.37,32.68,14.67,14.67,0,0,0,22.71,18Zm0,27.06a12.41,12.41,0,1,1,12.41-12.4,12.42,12.42,0,0,1-12.41,12.4Z"/><path class="cls-5" d="M37.37,32.68A14.67,14.67,0,0,1,22.71,47.33V45.08a12.41,12.41,0,1,0,0-24.81V18A14.68,14.68,0,0,1,37.37,32.68Z"/><path class="cls-5" d="M46.39,18.58A9.59,9.59,0,1,1,36.8,9a9.59,9.59,0,0,1,9.59,9.58Z"/><path class="cls-3" d="M40.8,20.84a3.37,3.37,0,0,1-2.87,3.33v1.21H35.68v-1.2a3.35,3.35,0,0,1-2.85-3.3h2.24A1.08,1.08,0,0,0,36.16,22h1.26a1.13,1.13,0,1,0,0-2.25H36.19A3.38,3.38,0,0,1,35.68,13v-1.2h2.25V13a3.37,3.37,0,0,1,2.84,3.33H38.53a1.14,1.14,0,0,0-1.14-1.13h-1.2a1.13,1.13,0,0,0,0,2.26h1.23a3.38,3.38,0,0,1,3.38,3.38Z"/><path class="cls-3" d="M40.8,20.84a3.37,3.37,0,0,1-2.87,3.33v1.21H36.8V22h.62a1.13,1.13,0,1,0,0-2.25H36.8V17.46h.62a3.38,3.38,0,0,1,3.38,3.38Z"/><path class="cls-3" d="M37.39,15.2H36.8V11.79h1.13V13a3.37,3.37,0,0,1,2.84,3.33H38.53a1.14,1.14,0,0,0-1.14-1.13Z"/><path class="cls-3" d="M29.48,31.55V33.8H21.59V25.94h2.24v5.61Z"/><path class="cls-3" d="M29.48,31.55V33.8H22.71V25.94h1.12v5.61Z"/></g></g></svg>