<svg xmlns="http://www.w3.org/2000/svg" viewBox="0 0 130.31 37.58"><defs><style>.cls-1{fill:#09265e;fill-rule:evenodd;}</style></defs><g id="katman_2" data-name="katman 2"><g id="content"><path class="cls-1" d="M69.22,11.75V29.32H66.54l-9.69-11.9v11.9H53.61V11.75H56.3L66,23.65V11.75Zm17,11c0,.21,0,.52,0,.92H75.66A3.67,3.67,0,0,0,77.09,26a5.3,5.3,0,0,0,6.55-.6l1.68,1.93A5.56,5.56,0,0,1,83,28.94a9,9,0,0,1-7-.32,6.47,6.47,0,0,1-2.61-2.44,7,7,0,0,1-.91-3.56,7,7,0,0,1,.88-3.51,6.27,6.27,0,0,1,2.49-2.46,7.15,7.15,0,0,1,3.56-.88,6.83,6.83,0,0,1,3.49.88,5.94,5.94,0,0,1,2.41,2.43,7.29,7.29,0,0,1,.88,3.62Zm-6.78-4.42a3.81,3.81,0,0,0-2.56.9,3.7,3.7,0,0,0-1.25,2.36h7.6A3.66,3.66,0,0,0,82,19.18,3.76,3.76,0,0,0,79.45,18.28Zm18,11L94,24.68,90.5,29.32H87l5.22-6.8-5-6.6h3.49L94,20.31l3.29-4.39h3.39l-5,6.55L101,29.32ZM116,15.92v13.4h-3V27.61A4.91,4.91,0,0,1,111.12,29a6.13,6.13,0,0,1-2.43.48A5.92,5.92,0,0,1,104.45,28a6,6,0,0,1-1.54-4.45V15.92h3.14v7.23a4,4,0,0,0,.81,2.71,3.07,3.07,0,0,0,2.33.88,3.52,3.52,0,0,0,2.66-1,4.21,4.21,0,0,0,1-3V15.92Zm8.25,13.58a11.8,11.8,0,0,1-3.19-.43A7.86,7.86,0,0,1,118.57,28l1.2-2.38a8.45,8.45,0,0,0,2.16,1,9.61,9.61,0,0,0,2.51.35c1.88,0,2.81-.5,2.81-1.48a1,1,0,0,0-.73-1,11.56,11.56,0,0,0-2.28-.53,19.13,19.13,0,0,1-2.71-.58,4.17,4.17,0,0,1-1.81-1.13A3.26,3.26,0,0,1,119,20a3.57,3.57,0,0,1,1.58-3,7.25,7.25,0,0,1,4.32-1.15,12.37,12.37,0,0,1,2.76.32,7.87,7.87,0,0,1,2.26.83l-1.21,2.39a7.41,7.41,0,0,0-3.84-1,4.29,4.29,0,0,0-2.11.43,1.23,1.23,0,0,0-.7,1.08,1.12,1.12,0,0,0,.75,1.08,14.11,14.11,0,0,0,2.39.58,18.19,18.19,0,0,1,2.63.57,4,4,0,0,1,1.76,1.11,3,3,0,0,1,.75,2.21,3.5,3.5,0,0,1-1.63,3,7.7,7.7,0,0,1-4.44,1.13Z"/><path class="cls-1" d="M31,37.51,42.18,13.73s2.84-5.07,1-8.43S37.83,1.13,35.66.68A58.28,58.28,0,0,0,19.1.53s5.85.45,8.47,2S32.21,5.9,30.72,10,18.65,37.58,18.65,37.58H31Z"/><path class="cls-1" d="M10.11,33.86,19.25,14.4s2.33-4.1.83-6.86-4.42-3.43-6.22-3.8A45.3,45.3,0,0,0,.3,3.59S5.09,4,7.19,5.23s3.75,2.75,2.62,6S0,33.86,0,33.86Z"/></g></g></svg>