<svg width="69" height="69" viewBox="0 0 69 69" fill="none" xmlns="http://www.w3.org/2000/svg">
<path opacity="0.2" fill-rule="evenodd" clip-rule="evenodd" d="M34.4601 68.0837C53.0475 68.0837 68.1155 53.0157 68.1155 34.4283C68.1155 15.841 53.0475 0.772949 34.4601 0.772949C15.8727 0.772949 0.804688 15.841 0.804688 34.4283C0.804688 53.0157 15.8727 68.0837 34.4601 68.0837Z" fill="#7FF6E1"/>
<path fill-rule="evenodd" clip-rule="evenodd" d="M34.9122 32.217H29.3832V27.793C29.3832 25.969 30.8762 24.4761 32.7003 24.4761H44.8652C46.6902 24.4761 48.1832 25.969 48.1832 27.793V32.217H42.6533V31.1111C42.6533 29.894 41.6582 28.8989 40.4412 28.8989H37.1242C35.9072 28.8989 34.9122 29.894 34.9122 31.1111L34.9122 32.217ZM49.2882 42.1699V44.3811H51.5002V46.593H18.3242V44.3811H21.6422V32.217H23.8532V44.3811H28.2772V42.1699H26.0652V37.7461C26.0652 35.917 27.5532 34.428 29.3832 34.428H48.1832C50.0122 34.428 51.5002 35.917 51.5002 37.7461V42.1699H49.2882ZM47.0772 42.1699H30.4893V44.3811H47.0772V42.1699ZM25.4422 22.981L25.1732 22.2639H20.3232L20.0532 22.981C19.6482 24.063 18.3242 27.687 18.3242 28.8989V30.0049H27.1712V28.8989C27.1712 27.687 25.8482 24.063 25.4422 22.981Z" fill="#09265E"/>
</svg>
