<svg width="69" height="69" viewBox="0 0 69 69" fill="none" xmlns="http://www.w3.org/2000/svg">
<path opacity="0.2" fill-rule="evenodd" clip-rule="evenodd" d="M34.4601 68.0837C53.0475 68.0837 68.1155 53.0157 68.1155 34.4283C68.1155 15.841 53.0475 0.772949 34.4601 0.772949C15.8727 0.772949 0.804688 15.841 0.804688 34.4283C0.804688 53.0157 15.8727 68.0837 34.4601 68.0837Z" fill="#7FF6E1"/>
<path fill-rule="evenodd" clip-rule="evenodd" d="M43.5954 23.0022L35.4904 18.3704C35.1334 18.1672 34.6974 18.1672 34.3414 18.3704L26.2354 23.0022C25.7794 23.2622 25.5564 23.7974 25.6914 24.3042C25.8254 24.8123 26.2844 25.1653 26.8104 25.1653H43.0214C43.5464 25.1653 44.0054 24.8122 44.1404 24.3042C44.2754 23.7974 44.0514 23.2622 43.5954 23.0022Z" fill="#09265E"/>
<path fill-rule="evenodd" clip-rule="evenodd" d="M50.857 36.003L45.067 29.057C44.859 28.807 44.555 28.6571 44.23 28.6422C43.906 28.616 43.589 28.7491 43.359 28.9801L40.224 32.1141H29.604L26.469 28.9801C26.24 28.7491 25.922 28.617 25.598 28.6422C25.273 28.6571 24.969 28.807 24.761 29.057L18.972 36.003C18.684 36.3492 18.622 36.8292 18.812 37.2352C19.003 37.6422 19.412 37.9022 19.861 37.9022H49.967C50.417 37.9022 50.825 37.6422 51.016 37.2352C51.207 36.8292 51.144 36.3492 50.857 36.003H50.857Z" fill="#09265E"/>
<path fill-rule="evenodd" clip-rule="evenodd" d="M27.9688 26.323V28.8391L30.0848 30.9551H32.5998V28.6389C32.5998 27.999 33.1188 27.481 33.7578 27.481H36.0738C36.7137 27.481 37.2317 27.999 37.2317 28.6389V30.9551H39.7468L41.8638 28.8391V26.323H27.9688Z" fill="#09265E"/>
<path fill-rule="evenodd" clip-rule="evenodd" d="M49.9671 48.324V39.0601H41.8621V48.324H40.7041V39.0601H29.1241V48.324H27.9671V39.0601H19.8611V48.324C19.2221 48.324 18.7031 48.8411 18.7031 49.4819C18.7031 50.1221 19.2221 50.6389 19.8611 50.6389H49.9671C50.6071 50.6389 51.1251 50.1221 51.1251 49.4819C51.1251 48.8411 50.6071 48.324 49.9671 48.324ZM44.1781 42.5339C44.1781 41.8941 44.6961 41.376 45.3361 41.376H46.4931C47.1331 41.376 47.6511 41.8941 47.6511 42.5339V43.6919C47.6511 44.3311 47.1331 44.8501 46.4931 44.8501H45.3361C44.6961 44.8501 44.1781 44.3311 44.1781 43.6919V42.5339ZM22.1771 42.5339C22.1771 41.8941 22.6951 41.376 23.3351 41.376H24.4931C25.1321 41.376 25.6511 41.8941 25.6511 42.5339V43.6919C25.6511 44.3311 25.1321 44.8501 24.4931 44.8501H23.3351C22.6951 44.8501 22.1771 44.3311 22.1771 43.6919V42.5339ZM32.5981 48.324V42.5339C32.5981 41.894 33.1171 41.376 33.7561 41.376H36.0721C36.7121 41.376 37.2301 41.894 37.2301 42.5339V48.324H32.5981Z" fill="#09265E"/>
</svg>
