<svg width="462" height="247" viewBox="0 0 462 247" fill="none" xmlns="http://www.w3.org/2000/svg">
<path fill-rule="evenodd" clip-rule="evenodd" d="M339.904 21.0029C315.871 14.2949 291.885 7.40698 267.948 0.339111C244.635 7.36499 221.323 14.2529 198.01 21.0029C175.334 14.2529 152.705 7.36499 130.123 0.339111C105.497 7.40698 80.8278 14.2949 56.1168 21.0029L0.46875 246.821C32.5868 240.05 64.6788 233.162 96.7437 226.158C126.764 233.172 156.822 240.06 186.916 246.821C217.646 240.081 248.376 233.194 279.106 226.158C310.482 233.204 341.896 240.092 373.347 246.821C402.752 240.05 432.126 233.162 461.468 226.158L405.788 0.339111C383.864 7.36499 361.902 14.2529 339.904 21.0029Z" fill="#09265E"/>
<path opacity="0.8" fill-rule="evenodd" clip-rule="evenodd" d="M339.904 21.0029C315.871 14.2949 291.885 7.40698 267.948 0.339111C244.635 7.36499 221.323 14.2529 198.01 21.0029C175.334 14.2529 152.705 7.36499 130.123 0.339111C105.497 7.40698 80.8278 14.2949 56.1168 21.0029L0.46875 246.821C32.5868 240.05 64.6788 233.162 96.7437 226.158C126.764 233.172 156.822 240.06 186.916 246.821C217.646 240.081 248.376 233.194 279.106 226.158C310.482 233.204 341.896 240.092 373.347 246.821C402.752 240.05 432.126 233.162 461.468 226.158L405.788 0.339111C383.864 7.36499 361.902 14.2529 339.904 21.0029Z" fill="white"/>
<path fill-rule="evenodd" clip-rule="evenodd" d="M187.535 233.708C217.862 226.968 248.163 220.08 278.436 213.044C309.389 220.091 340.374 226.979 371.389 233.708C395.9 228.007 420.394 222.178 444.871 216.223C429.486 149.687 414.121 83.157 398.777 16.6321C379.861 22.5759 360.9 28.4041 341.889 34.116C317.432 27.408 293.018 20.52 268.646 13.4529C244.931 20.457 221.189 27.345 197.421 34.116C174.32 27.366 151.263 20.478 128.246 13.4529C107.202 19.376 86.1305 25.2041 65.0325 30.937C49.6465 97.4619 34.2815 163.987 18.9375 230.513C45.5665 224.769 72.1695 218.941 98.7455 213.028C128.278 220.033 157.875 226.926 187.535 233.708Z" fill="#09265E"/>
<path fill-rule="evenodd" clip-rule="evenodd" d="M187.535 233.708C217.862 226.968 248.163 220.08 278.436 213.044C309.389 220.091 340.374 226.979 371.389 233.708C395.9 228.007 420.394 222.178 444.871 216.223C429.486 149.687 414.121 83.157 398.777 16.6321C379.861 22.5759 360.9 28.4041 341.889 34.116C317.432 27.408 293.018 20.52 268.646 13.4529C244.931 20.457 221.189 27.345 197.421 34.116C174.32 27.366 151.263 20.478 128.246 13.4529C107.202 19.376 86.1305 25.2041 65.0325 30.937C49.6465 97.4619 34.2815 163.987 18.9375 230.513C45.5665 224.769 72.1695 218.941 98.7455 213.028C128.278 220.033 157.875 226.926 187.535 233.708Z" fill="#09265E"/>
<path fill-rule="evenodd" clip-rule="evenodd" d="M256.263 174.277C255.071 161.561 254.101 150.005 249.11 143.329C237.984 128.563 211.36 131.71 194.639 134.762C192.779 131.583 188.011 122.73 182.781 101.383C177.79 81.0061 154.711 71.1831 136.909 65.4451C131.886 63.855 125.671 61.7251 124.638 60.2629C123.16 53.5391 116.69 53.2219 110.332 52.9351C105.23 52.697 99.4129 52.427 94.7709 49.343C90.6229 46.5769 95.3909 33.5281 101.606 20.9551L96.3769 22.386C95.9319 23.355 95.4709 24.3249 95.026 25.3101C87.6349 41.8091 83.8199 52.3311 90.0189 56.3369C96.2179 60.342 103.068 60.613 108.727 60.8831C114.386 61.1531 117.088 61.4551 117.437 63.2351C118.359 68.0039 124.256 70.1179 133.889 73.074C150.308 78.113 170.272 85.79 175.311 103.894C183.735 134.095 188.932 141.247 189.918 142.153L191.396 143.52L193.447 143.091C208.404 140.246 232.707 136.844 242.387 147.732C246.186 152.008 247.155 163.452 247.902 174.833C248.745 188.995 248.236 205.033 252.544 219.084L265.101 216.191C258.854 201.838 257.455 186.929 256.263 174.277L256.263 174.277Z" fill="#09265E"/>
<path opacity="0.2" fill-rule="evenodd" clip-rule="evenodd" d="M256.263 174.277C255.071 161.561 254.101 150.005 249.11 143.329C237.984 128.563 211.36 131.71 194.639 134.762C192.779 131.583 188.011 122.73 182.781 101.383C177.79 81.0061 154.711 71.1831 136.909 65.4451C131.886 63.855 125.671 61.7251 124.638 60.2629C123.16 53.5391 116.69 53.2219 110.332 52.9351C105.23 52.697 99.4129 52.427 94.7709 49.343C90.6229 46.5769 95.3909 33.5281 101.606 20.9551L96.3769 22.386C95.9319 23.355 95.4709 24.3249 95.026 25.3101C87.6349 41.8091 83.8199 52.3311 90.0189 56.3369C96.2179 60.342 103.068 60.613 108.727 60.8831C114.386 61.1531 117.088 61.4551 117.437 63.2351C118.359 68.0039 124.256 70.1179 133.889 73.074C150.308 78.113 170.272 85.79 175.311 103.894C183.735 134.095 188.932 141.247 189.918 142.153L191.396 143.52L193.447 143.091C208.404 140.246 232.707 136.844 242.387 147.732C246.186 152.008 247.155 163.452 247.902 174.833C248.745 188.995 248.236 205.033 252.544 219.084L265.101 216.191C258.854 201.838 257.455 186.929 256.263 174.277L256.263 174.277Z" fill="white"/>
<g opacity="0.5">
<path fill-rule="evenodd" clip-rule="evenodd" d="M280.664 95.1841L333.546 99.635C335.056 111.651 335.803 117.675 337.313 129.692L301.883 126.322L300.532 110.173L281.458 107.773C281.109 102.75 280.95 100.223 280.664 95.1841V95.1841Z" fill="white"/>
<path fill-rule="evenodd" clip-rule="evenodd" d="M278.629 112.43L296.4 114.846L297.751 132.33L279.662 130.931L278.629 112.43Z" fill="white"/>
</g>
<path opacity="0.5" fill-rule="evenodd" clip-rule="evenodd" d="M364.461 59.4209C358.803 61.6621 355.958 62.7739 350.156 65.0161L352.62 81.1331C358.548 79.2729 361.489 78.3511 367.354 76.4761C366.242 69.657 365.653 66.239 364.461 59.4209V59.4209Z" fill="white"/>
<path opacity="0.5" fill-rule="evenodd" clip-rule="evenodd" d="M99.5882 160.607C88.4623 164.088 82.8193 165.821 71.4552 169.286C69.5952 179.268 68.6573 184.275 66.7812 194.257C78.3533 191.364 84.0913 189.933 95.4722 187.04C97.1092 176.47 97.9353 171.177 99.5882 160.607L99.5882 160.607Z" fill="white"/>
<path fill-rule="evenodd" clip-rule="evenodd" d="M272.271 88.8579C298.243 90.977 324.205 93.0959 350.156 95.216H350.665C371.455 89.6001 392.214 83.883 412.941 78.0649L411.351 71.501C390.645 77.3921 369.903 83.157 349.123 88.7939L320.814 86.489C313.068 65.095 305.65 43.6159 298.561 22.052L290.614 19.7949C297.692 41.9199 305.078 63.935 312.771 85.8379L271.111 82.4199C259.984 86.458 254.342 88.4919 242.929 92.53H194.72C170.539 88.7151 146.368 84.852 122.208 80.9419C131.459 60.6919 140.381 40.31 148.975 19.7949L143.777 18.2051C134.844 39.176 125.583 59.9871 115.993 80.6399C94.4403 83.8191 72.8763 86.9399 51.3013 90.0019C50.7133 92.5769 50.4113 93.865 49.8233 96.3601C71.7893 93.1809 93.7613 90.002 115.739 86.823C124.147 107.105 133.446 126.91 143.094 146.636L107.887 143.806C83.4613 150.302 58.9943 156.66 34.4843 162.88C33.5623 166.838 33.1013 168.825 32.1953 172.783C57.2993 166.509 82.3653 160.109 107.394 153.582L147.449 156.761C154.697 181.398 162.581 205.844 171.291 229.988L179.668 231.896C170.544 207.386 162.295 182.447 154.649 157.365L190.778 160.289C219.675 167.951 248.641 175.458 277.675 182.812C298.275 176.189 318.827 169.408 339.332 162.467C347.708 175.008 352.047 181.27 360.917 193.811C378.486 203.984 396.187 213.94 414.021 223.678L427.151 220.499C407.282 209.637 387.535 198.569 367.91 187.295C359.963 176.168 356.053 170.541 348.487 159.367L359.947 155.441C382.613 151.34 405.274 147.192 427.929 142.996C427.023 139.117 426.578 137.178 425.688 133.3C402.503 137.644 379.312 141.936 356.116 146.175C329.763 155.277 303.346 164.168 276.865 172.846C260.843 168.756 244.837 164.607 228.846 160.401C234.982 139.769 240.709 119.026 246.029 98.1721C256.615 94.532 261.86 92.593 272.271 88.8579H272.271ZM222.536 158.716C210.663 155.537 204.766 153.947 193.115 150.864L151.041 147.414C141.234 127.721 131.745 107.932 123.162 87.666C146.707 91.438 170.253 95.1469 193.798 98.792H239.528C234.198 118.894 228.507 138.868 222.457 158.716H222.536Z" fill="white"/>
<path opacity="0.1" fill-rule="evenodd" clip-rule="evenodd" d="M96.7125 226.158C64.6475 233.172 32.5565 240.06 0.4375 246.821L56.0695 21.0029C80.7815 14.2839 105.45 7.39697 130.076 0.339111L96.7125 226.158Z" fill="black"/>
<path opacity="0.1" fill-rule="evenodd" clip-rule="evenodd" d="M279.088 226.158C248.358 233.204 217.628 240.092 186.898 246.821C190.607 171.585 194.315 96.312 198.024 21.0029C221.337 14.2529 244.649 7.36499 267.962 0.339111C271.66 75.6169 275.369 150.89 279.088 226.158H279.088Z" fill="black"/>
<path opacity="0.1" fill-rule="evenodd" clip-rule="evenodd" d="M461.422 226.158C432.08 233.172 402.706 240.06 373.301 246.821L339.922 21.0029C361.92 14.2529 383.871 7.36499 405.774 0.339111L461.422 226.158Z" fill="black"/>
<path opacity="0.1" fill-rule="evenodd" clip-rule="evenodd" d="M369.928 77.9541C369.928 79.718 365.509 81.1331 360.073 81.1331C354.637 81.1331 350.234 79.718 350.234 77.9541C350.234 76.1899 354.637 74.7749 360.073 74.7749C365.509 74.7749 369.928 76.2051 369.928 77.9541Z" fill="black"/>
<path opacity="0.1" fill-rule="evenodd" clip-rule="evenodd" d="M297.971 160.019C297.971 161.767 293.568 163.198 288.132 163.198C282.696 163.198 278.277 161.767 278.277 160.019C278.277 158.271 282.696 156.84 288.132 156.84C293.568 156.84 297.971 158.255 297.971 160.019Z" fill="black"/>
<path opacity="0.1" fill-rule="evenodd" clip-rule="evenodd" d="M147.464 167.649C147.464 169.413 143.045 170.828 137.609 170.828C132.173 170.828 127.77 169.413 127.77 167.649C127.77 165.884 132.173 164.47 137.609 164.47C143.045 164.47 147.464 165.916 147.464 167.649Z" fill="black"/>
<path opacity="0.1" fill-rule="evenodd" clip-rule="evenodd" d="M115.135 75.824C115.135 77.5879 110.732 79.0029 105.296 79.0029C99.8604 79.0029 95.4414 77.5879 95.4414 75.824C95.4414 74.0601 99.8604 72.645 105.296 72.645C110.732 72.645 115.135 74.0759 115.135 75.824Z" fill="black"/>
<path fill-rule="evenodd" clip-rule="evenodd" d="M240.128 47.783C232.906 47.783 227.051 53.6379 227.051 60.8601C227.051 68.054 232.912 82.166 240.128 82.166C247.345 82.166 253.183 68.054 253.183 60.8601C253.183 53.647 247.342 47.7949 240.128 47.783ZM240.128 66.1689C237.247 66.1819 234.901 63.8569 234.888 60.9751C234.876 58.094 237.201 55.748 240.082 55.7351C242.964 55.7219 245.31 58.0481 245.323 60.929C245.323 60.9451 245.323 60.96 245.323 60.9751C245.248 63.7939 242.948 66.043 240.128 66.0549V66.1689Z" fill="white"/>
<path opacity="0.1" fill-rule="evenodd" clip-rule="evenodd" d="M269.315 81.1169C269.315 82.865 264.912 84.2959 259.476 84.2959C254.04 84.2959 249.621 82.865 249.621 81.1169C249.621 79.3689 254.04 77.938 259.476 77.938C264.912 77.938 269.315 79.353 269.315 81.1169Z" fill="black"/>
</svg>
