<svg width="1209" height="454" viewBox="0 0 1209 454" fill="none" xmlns="http://www.w3.org/2000/svg">
<path fill-rule="evenodd" clip-rule="evenodd" d="M43.0078 10.5939C43.0078 5.02917 47.5189 0.518066 53.0837 0.518066H1198.71C1204.27 0.518066 1208.78 5.02918 1208.78 10.5939V415.643C1208.78 421.208 1204.27 425.719 1198.71 425.719H53.0836C47.5188 425.719 43.0078 421.208 43.0078 415.643V10.5939Z" fill="#F7F8FA"/>
<path fill-rule="evenodd" clip-rule="evenodd" d="M176.008 241.835L75.25 313.719V425.719H1162.67L1163.44 313.719L1064.7 239.316L964.947 217.149L866.708 170.296L767.964 104.299L668.717 92.7119L569.974 68.0259L472.238 142.084L372.991 191.959L272.75 169.432L176.008 241.835Z" fill="url(#paint0_linear_1014_8)"/>
<path fill-rule="evenodd" clip-rule="evenodd" d="M61.1445 321.938C61.1445 317.486 64.7535 313.877 69.2055 313.877H83.3115C87.7635 313.877 91.3725 317.486 91.3725 321.938V425.719H61.1445L61.1445 321.938Z" fill="#5FAC9F"/>
<path fill-rule="evenodd" clip-rule="evenodd" d="M1028.61 54.6289C1026.38 54.6289 1024.58 52.8252 1024.58 50.5991V38.5078C1024.58 36.2822 1026.38 34.478 1028.61 34.478H1040.7C1042.93 34.478 1044.73 36.2822 1044.73 38.5078V50.5991C1044.73 52.8252 1042.93 54.6289 1040.7 54.6289H1028.61Z" fill="#5FAC9F"/>
<path fill-rule="evenodd" clip-rule="evenodd" d="M159.887 248.384C159.887 243.932 163.496 240.323 167.947 240.323H182.054C186.505 240.323 190.114 243.932 190.114 248.384V425.719H159.887V248.384Z" fill="#5FAC9F"/>
<path fill-rule="evenodd" clip-rule="evenodd" d="M258.629 177.853C258.629 173.402 262.238 169.792 266.69 169.792H280.796C285.247 169.792 288.857 173.402 288.857 177.853V425.719H258.629L258.629 177.853Z" fill="#5FAC9F"/>
<path fill-rule="evenodd" clip-rule="evenodd" d="M357.371 199.012C357.371 194.561 360.981 190.952 365.432 190.952H379.538C383.99 190.952 387.599 194.561 387.599 199.012V425.719H357.371L357.371 199.012Z" fill="#5FAC9F"/>
<path fill-rule="evenodd" clip-rule="evenodd" d="M456.117 149.641C456.117 145.189 459.726 141.58 464.177 141.58H478.284C482.735 141.58 486.344 145.189 486.344 149.641V425.719H456.117L456.117 149.641Z" fill="#5FAC9F"/>
<path fill-rule="evenodd" clip-rule="evenodd" d="M554.859 76.0869C554.859 71.6348 558.468 68.0259 562.92 68.0259H577.026C581.477 68.0259 585.087 71.6348 585.087 76.0869V425.719H554.859L554.859 76.0869Z" fill="#5FAC9F"/>
<path fill-rule="evenodd" clip-rule="evenodd" d="M653.602 100.269C653.602 95.8179 657.211 92.208 661.663 92.208H675.769C680.221 92.208 683.83 95.8179 683.83 100.269V425.719H653.602L653.602 100.269Z" fill="#5FAC9F"/>
<path fill-rule="evenodd" clip-rule="evenodd" d="M752.348 112.36C752.348 107.909 755.957 104.299 760.408 104.299H774.515C778.966 104.299 782.575 107.909 782.575 112.36V425.719H752.348L752.348 112.36Z" fill="#5FAC9F"/>
<path fill-rule="evenodd" clip-rule="evenodd" d="M851.09 177.853C851.09 173.402 854.699 169.792 859.151 169.792H873.257C877.708 169.792 881.318 173.402 881.318 177.853V425.719H851.09L851.09 177.853Z" fill="#5FAC9F"/>
<path fill-rule="evenodd" clip-rule="evenodd" d="M949.832 225.21C949.832 220.758 953.441 217.149 957.893 217.149H971.999C976.451 217.149 980.06 220.758 980.06 225.21V425.719H949.832L949.832 225.21Z" fill="#5FAC9F"/>
<path fill-rule="evenodd" clip-rule="evenodd" d="M1048.58 247.376C1048.58 242.925 1052.19 239.316 1056.64 239.316H1070.74C1075.2 239.316 1078.81 242.925 1078.81 247.376V425.719H1048.58V247.376Z" fill="#5FAC9F"/>
<path fill-rule="evenodd" clip-rule="evenodd" d="M1147.32 321.938C1147.32 317.486 1150.93 313.877 1155.38 313.877H1169.49C1173.94 313.877 1177.55 317.486 1177.55 321.938V425.719H1147.32L1147.32 321.938Z" fill="#5FAC9F"/>
<path fill-rule="evenodd" clip-rule="evenodd" d="M50.5581 446.483C50.5581 447.591 50.2621 448.45 49.6711 449.063C49.0801 449.664 48.2581 449.965 47.2051 449.965C46.5701 449.965 45.9791 449.825 45.4311 449.546C44.8831 449.267 44.4051 448.869 43.9961 448.353L44.7541 447.16C45.1091 447.58 45.4961 447.902 45.9151 448.128C46.3451 448.342 46.7691 448.45 47.1881 448.45C47.7691 448.45 48.2151 448.278 48.5261 447.934C48.8381 447.58 48.9941 447.08 48.9941 446.435V440.035H45.0121V438.616H50.5581L50.5581 446.483ZM58.5901 449.901V448.708C57.9561 449.546 56.9621 449.965 55.6081 449.965C55.0161 449.965 54.4951 449.853 54.0441 449.627C53.6031 449.401 53.2591 449.09 53.0121 448.692C52.7761 448.294 52.6571 447.849 52.6571 447.354C52.6571 446.591 52.9371 445.989 53.4961 445.548C54.0651 445.097 54.8551 444.866 55.8661 444.855H58.5741V444.452C58.5741 443.85 58.3861 443.388 58.0101 443.066C57.6441 442.732 57.1071 442.566 56.3981 442.566C55.5381 442.566 54.6621 442.872 53.7701 443.485L53.1411 442.453C53.7541 442.055 54.3181 441.771 54.8341 441.598C55.3601 441.416 55.9841 441.324 56.7041 441.324C57.7681 441.324 58.5901 441.587 59.1701 442.114C59.7511 442.63 60.0461 443.356 60.0571 444.291L60.0731 449.901L58.5901 449.901ZM55.9141 448.724C56.6121 448.724 57.2041 448.558 57.6871 448.224C58.1821 447.881 58.4771 447.429 58.5741 446.87V446.016H56.0751C55.3981 446.016 54.8931 446.117 54.5601 446.322C54.2371 446.527 54.0761 446.849 54.0761 447.289C54.0761 447.73 54.2431 448.079 54.5761 448.337C54.9091 448.595 55.3551 448.724 55.9141 448.724V448.724ZM67.4901 441.324C68.4891 441.324 69.2741 441.62 69.8441 442.211C70.4131 442.791 70.6981 443.597 70.6981 444.629V449.901H69.1991V445.032C69.1991 444.312 68.9951 443.754 68.5861 443.356C68.1891 442.948 67.6351 442.743 66.9261 442.743C66.1631 442.754 65.5391 443.001 65.0561 443.485C64.5831 443.957 64.3141 444.576 64.2491 445.339V449.901H62.7501V441.373H64.2491V443.178C64.8191 441.964 65.8991 441.346 67.4901 441.324V441.324ZM80.9221 441.373V449.901H79.4061V448.095C78.8481 449.31 77.7941 449.928 76.2471 449.949C75.2581 449.949 74.4841 449.659 73.9251 449.079C73.3661 448.487 73.0871 447.676 73.0871 446.644V441.373H74.6021V446.241C74.6021 446.962 74.7961 447.526 75.1831 447.934C75.5801 448.332 76.1231 448.531 76.8111 448.531C77.6061 448.52 78.2351 448.24 78.6971 447.692C79.1701 447.133 79.4061 446.424 79.4061 445.564V441.373L80.9221 441.373ZM89.0541 449.901V448.708C88.4201 449.546 87.4251 449.965 86.0711 449.965C85.4801 449.965 84.9591 449.853 84.5071 449.627C84.0671 449.401 83.7231 449.09 83.4761 448.692C83.2391 448.294 83.1211 447.849 83.1211 447.354C83.1211 446.591 83.4011 445.989 83.9591 445.548C84.5291 445.097 85.3191 444.866 86.3291 444.855H89.0381V444.452C89.0381 443.85 88.8501 443.388 88.4731 443.066C88.1081 442.732 87.5711 442.566 86.8611 442.566C86.0011 442.566 85.1251 442.872 84.2331 443.485L83.6051 442.453C84.2171 442.055 84.7821 441.771 85.2971 441.598C85.8241 441.416 86.4471 441.324 87.1671 441.324C88.2311 441.324 89.0541 441.587 89.6341 442.114C90.2141 442.63 90.5101 443.356 90.5211 444.291L90.5371 449.901L89.0541 449.901ZM86.3781 448.724C87.0761 448.724 87.6671 448.558 88.1511 448.224C88.6451 447.881 88.9411 447.429 89.0381 446.87V446.016H86.5391C85.8621 446.016 85.3571 446.117 85.0231 446.322C84.7011 446.527 84.5401 446.849 84.5401 447.289C84.5401 447.73 84.7061 448.079 85.0391 448.337C85.3731 448.595 85.8191 448.724 86.3781 448.724L86.3781 448.724ZM94.7131 443.211C94.9931 442.598 95.3901 442.136 95.9061 441.824C96.4221 441.502 97.0351 441.335 97.7441 441.324V442.775C96.8731 442.743 96.1691 442.969 95.6321 443.452C95.0951 443.936 94.7881 444.586 94.7131 445.403V449.901H93.2141V441.373H94.7131V443.211ZM102.793 451.11C102.524 451.766 102.164 452.26 101.713 452.593C101.273 452.927 100.751 453.093 100.149 453.093C99.7841 453.093 99.4501 453.04 99.1491 452.932C98.8491 452.824 98.5581 452.658 98.2791 452.432L98.9241 451.255C99.3001 451.524 99.6811 451.658 100.068 451.658C100.713 451.658 101.197 451.292 101.519 450.562L101.842 449.804L98.3111 441.373H99.8911L102.6 448.208L105.163 441.373H106.694L102.793 451.11Z" fill="#979CB6"/>
<path fill-rule="evenodd" clip-rule="evenodd" d="M1060.45 39.314H1062.29L1066.41 47.2461L1070.51 39.314H1072.36V50.5991H1070.91L1070.9 41.5869L1066.88 49.4058H1065.93L1061.88 41.5869V50.5991H1060.45L1060.45 39.314ZM1079 42.0229C1079.84 42.0229 1080.6 42.2051 1081.25 42.5708C1081.92 42.936 1082.44 43.4468 1082.8 44.102C1083.18 44.7471 1083.36 45.4888 1083.36 46.3271C1083.36 47.165 1083.18 47.9121 1082.8 48.5679C1082.44 49.2231 1081.92 49.7339 1081.25 50.0991C1080.6 50.4648 1079.84 50.647 1079 50.647C1078.14 50.647 1077.37 50.4648 1076.71 50.0991C1076.05 49.7339 1075.54 49.229 1075.16 48.584C1074.79 47.9282 1074.61 47.1758 1074.61 46.3271C1074.61 45.4888 1074.79 44.7471 1075.16 44.102C1075.54 43.4468 1076.05 42.936 1076.71 42.5708C1077.37 42.2051 1078.14 42.0229 1079 42.0229V42.0229ZM1079 43.3281C1078.44 43.3281 1077.94 43.457 1077.5 43.7148C1077.07 43.9731 1076.73 44.333 1076.48 44.7949C1076.24 45.2471 1076.13 45.7632 1076.13 46.3428C1076.13 46.9341 1076.24 47.4609 1076.48 47.9229C1076.73 48.3848 1077.07 48.7451 1077.5 49.0029C1077.94 49.25 1078.44 49.374 1079 49.374C1079.54 49.374 1080.03 49.25 1080.46 49.0029C1080.9 48.7451 1081.24 48.3848 1081.48 47.9229C1081.73 47.4609 1081.85 46.9341 1081.85 46.3428C1081.85 45.7632 1081.73 45.2471 1081.48 44.7949C1081.24 44.333 1080.9 43.9731 1080.46 43.7148C1080.03 43.457 1079.54 43.3281 1079 43.3281ZM1083.76 42.0708H1085.36L1087.92 49.1162L1090.47 42.0708H1091.98L1088.66 50.5991H1087.1L1083.76 42.0708ZM1093.4 42.0708H1094.9V50.5991H1093.4V42.0708ZM1094.14 38.6689C1094.41 38.6689 1094.63 38.7612 1094.8 38.9429C1094.98 39.126 1095.07 39.3569 1095.07 39.6372C1095.07 39.916 1094.98 40.147 1094.8 40.3301C1094.63 40.5132 1094.41 40.604 1094.14 40.604C1093.87 40.604 1093.64 40.5132 1093.46 40.3301C1093.29 40.147 1093.2 39.916 1093.2 39.6372C1093.2 39.3569 1093.29 39.126 1093.46 38.9429C1093.64 38.7612 1093.87 38.6689 1094.14 38.6689ZM1102.56 42.0229C1103.56 42.0229 1104.34 42.3179 1104.91 42.9092C1105.48 43.4902 1105.77 44.2959 1105.77 45.3271V50.5991H1104.27V45.73C1104.27 45.0098 1104.07 44.4521 1103.66 44.0542C1103.26 43.645 1102.71 43.4409 1102 43.4409C1101.23 43.4521 1100.61 43.6992 1100.13 44.1831C1099.65 44.6558 1099.38 45.2739 1099.32 46.0371V50.5991H1097.82V42.0708H1099.32V43.8769C1099.89 42.6621 1100.97 42.0439 1102.56 42.0229ZM1115.99 42.0708V49.729C1115.99 50.5449 1115.81 51.2598 1115.44 51.873C1115.09 52.4849 1114.58 52.9531 1113.93 53.2749C1113.27 53.6079 1112.51 53.7749 1111.64 53.7749C1110.38 53.7749 1109.21 53.3769 1108.12 52.582L1108.79 51.4858C1109.21 51.8301 1109.64 52.082 1110.09 52.2432C1110.54 52.415 1111.04 52.501 1111.57 52.501C1112.46 52.501 1113.16 52.2539 1113.69 51.7598C1114.21 51.2651 1114.48 50.604 1114.48 49.7768V48.584C1114.18 49.1001 1113.77 49.5029 1113.25 49.793C1112.74 50.0718 1112.15 50.2119 1111.48 50.2119C1110.72 50.2119 1110.04 50.04 1109.45 49.6958C1108.87 49.3418 1108.42 48.853 1108.09 48.229C1107.77 47.6059 1107.61 46.8911 1107.61 46.085C1107.61 45.29 1107.77 44.5859 1108.09 43.9731C1108.42 43.3608 1108.87 42.8818 1109.45 42.5381C1110.04 42.1948 1110.72 42.0229 1111.48 42.0229C1112.16 42.0229 1112.75 42.1621 1113.25 42.4419C1113.77 42.7212 1114.18 43.1191 1114.48 43.6348V42.0708H1115.99ZM1111.77 49.0029C1112.3 49.0029 1112.76 48.8789 1113.17 48.6318C1113.58 48.3848 1113.9 48.0469 1114.12 47.6172C1114.36 47.1758 1114.48 46.6821 1114.48 46.1328C1114.48 45.5752 1114.36 45.0801 1114.12 44.6499C1113.9 44.21 1113.58 43.8662 1113.17 43.6191C1112.76 43.3711 1112.3 43.2481 1111.77 43.2481C1111.24 43.2481 1110.77 43.3711 1110.35 43.6191C1109.94 43.8662 1109.62 44.21 1109.38 44.6499C1109.15 45.0801 1109.03 45.5752 1109.03 46.1328C1109.04 46.9722 1109.3 47.6602 1109.8 48.1968C1110.31 48.7339 1110.96 49.0029 1111.77 49.0029ZM1124.45 43.9092C1124.73 43.2959 1125.12 42.834 1125.64 42.522C1126.16 42.2002 1126.77 42.0332 1127.48 42.0229V43.4731C1126.61 43.4409 1125.9 43.667 1125.37 44.1509C1124.83 44.6338 1124.52 45.2842 1124.45 46.1011V50.5991H1122.95V42.0708H1124.45L1124.45 43.9092ZM1133.93 50.5991V49.4058C1133.3 50.2441 1132.3 50.6641 1130.95 50.6641C1130.36 50.6641 1129.84 50.5508 1129.39 50.3252C1128.95 50.0991 1128.6 49.7881 1128.35 49.3901C1128.12 48.9922 1128 48.5459 1128 48.0517C1128 47.289 1128.28 46.687 1128.84 46.2461C1129.41 45.7949 1130.2 45.564 1131.21 45.5532H1133.92V45.1499C1133.92 44.5478 1133.73 44.0859 1133.35 43.7642C1132.99 43.4302 1132.45 43.2642 1131.74 43.2642C1130.88 43.2642 1130 43.5698 1129.11 44.1831L1128.48 43.1509C1129.1 42.7529 1129.66 42.4692 1130.18 42.2969C1130.7 42.1138 1131.33 42.0229 1132.05 42.0229C1133.11 42.0229 1133.93 42.2861 1134.51 42.812C1135.09 43.3281 1135.39 44.0542 1135.4 44.9888L1135.42 50.5991H1133.93ZM1131.26 49.4219C1131.96 49.4219 1132.55 49.2559 1133.03 48.9219C1133.52 48.5791 1133.82 48.127 1133.92 47.5679V46.7139H1131.42C1130.74 46.7139 1130.24 46.8159 1129.9 47.02C1129.58 47.2241 1129.42 47.5469 1129.42 47.9868C1129.42 48.4282 1129.59 48.7769 1129.92 49.0352C1130.25 49.293 1130.7 49.4219 1131.26 49.4219V49.4219ZM1142.67 50.0352C1142.02 50.4541 1141.35 50.6641 1140.67 50.6641C1139.99 50.6641 1139.45 50.4648 1139.03 50.0669C1138.61 49.6592 1138.4 49.0459 1138.4 48.229V43.5059H1137.19V42.3608H1138.4V40.0718H1139.91V42.3608H1142.53V43.5059H1139.91V47.9551C1139.91 48.4282 1140 48.7671 1140.17 48.9712C1140.34 49.1748 1140.6 49.2769 1140.95 49.2769C1141.35 49.2769 1141.8 49.1431 1142.27 48.874L1142.67 50.0352ZM1147.81 42.0229C1149.13 42.0229 1150.13 42.415 1150.81 43.1992C1151.48 43.9731 1151.82 45.0532 1151.82 46.4399C1151.82 46.6548 1151.82 46.8159 1151.81 46.9228H1145.07C1145.18 47.686 1145.5 48.2939 1146.02 48.7451C1146.55 49.1968 1147.19 49.4219 1147.95 49.4219C1148.46 49.4219 1148.93 49.3311 1149.36 49.1479C1149.8 48.9658 1150.18 48.708 1150.5 48.374L1151.32 49.229C1150.9 49.6802 1150.4 50.0298 1149.81 50.2768C1149.22 50.5239 1148.56 50.647 1147.84 50.647C1147 50.647 1146.25 50.4702 1145.6 50.1152C1144.95 49.75 1144.45 49.2402 1144.08 48.584C1143.73 47.9282 1143.55 47.1811 1143.55 46.3428C1143.55 45.5049 1143.73 44.7632 1144.08 44.1182C1144.45 43.4629 1144.95 42.9521 1145.6 42.5869C1146.24 42.2109 1146.98 42.0229 1147.81 42.0229ZM1150.47 45.7632C1150.42 44.9888 1150.17 44.3818 1149.69 43.9409C1149.22 43.4902 1148.6 43.2641 1147.82 43.2641C1147.07 43.2641 1146.44 43.4902 1145.94 43.9409C1145.44 44.3921 1145.15 45 1145.05 45.7632H1150.47ZM1160.2 39.2822C1161.11 39.2822 1161.83 39.5771 1162.34 40.1689C1162.86 40.7598 1163.12 41.582 1163.12 42.6348C1163.12 43.688 1162.86 44.5161 1162.34 45.1182C1161.83 45.709 1161.11 46.0049 1160.2 46.0049C1159.29 46.0049 1158.57 45.709 1158.05 45.1182C1157.54 44.5161 1157.28 43.688 1157.28 42.6348C1157.28 41.582 1157.54 40.7598 1158.05 40.1689C1158.57 39.5771 1159.29 39.2822 1160.2 39.2822ZM1160.2 40.1851C1159.6 40.1851 1159.13 40.3999 1158.8 40.8301C1158.47 41.249 1158.31 41.8511 1158.31 42.6348C1158.31 43.4199 1158.47 44.0269 1158.8 44.457C1159.13 44.876 1159.6 45.0859 1160.2 45.0859C1160.8 45.0859 1161.26 44.876 1161.59 44.457C1161.92 44.0269 1162.09 43.4199 1162.09 42.6348C1162.09 41.8511 1161.92 41.249 1161.59 40.8301C1161.26 40.3999 1160.8 40.1851 1160.2 40.1851ZM1167.81 39.314H1169.03L1160.67 50.5991H1159.43L1167.81 39.314ZM1168.44 43.9248C1169.35 43.9248 1170.07 44.2202 1170.58 44.812C1171.1 45.4028 1171.35 46.2251 1171.35 47.2778C1171.35 48.331 1171.1 49.1592 1170.58 49.7612C1170.07 50.352 1169.35 50.647 1168.44 50.647C1167.52 50.647 1166.81 50.352 1166.29 49.7612C1165.78 49.1592 1165.52 48.331 1165.52 47.2778C1165.52 46.2251 1165.78 45.4028 1166.29 44.812C1166.81 44.2202 1167.52 43.9248 1168.44 43.9248ZM1168.44 44.8281C1167.84 44.8281 1167.37 45.043 1167.03 45.4731C1166.71 45.8921 1166.55 46.4941 1166.55 47.2778C1166.55 48.063 1166.71 48.6699 1167.03 49.1001C1167.37 49.5191 1167.84 49.729 1168.44 49.729C1169.04 49.729 1169.5 49.5191 1169.82 49.1001C1170.16 48.6699 1170.32 48.063 1170.32 47.2778C1170.32 46.4941 1170.16 45.8921 1169.82 45.4731C1169.5 45.043 1169.04 44.8281 1168.44 44.8281Z" fill="#979CB6"/>
<path fill-rule="evenodd" clip-rule="evenodd" d="M141.348 438.616H148.7L148.683 440.019H142.896V443.726H148.103V445.129H142.896V449.901H141.348V438.616ZM153.784 441.324C155.106 441.324 156.105 441.716 156.782 442.501C157.459 443.275 157.798 444.355 157.798 445.742C157.798 445.956 157.792 446.117 157.782 446.225H151.043C151.161 446.988 151.478 447.596 151.994 448.047C152.52 448.498 153.165 448.724 153.929 448.724C154.434 448.724 154.901 448.632 155.331 448.45C155.772 448.268 156.154 448.01 156.476 447.676L157.298 448.531C156.879 448.982 156.373 449.332 155.783 449.579C155.191 449.825 154.535 449.949 153.816 449.949C152.978 449.949 152.23 449.772 151.575 449.417C150.93 449.052 150.425 448.542 150.06 447.886C149.705 447.23 149.528 446.483 149.528 445.645C149.528 444.807 149.705 444.065 150.06 443.42C150.425 442.764 150.93 442.254 151.575 441.889C152.22 441.513 152.956 441.324 153.784 441.324L153.784 441.324ZM156.444 445.065C156.401 444.291 156.143 443.683 155.67 443.243C155.196 442.791 154.574 442.566 153.8 442.566C153.047 442.566 152.419 442.791 151.914 443.243C151.419 443.694 151.124 444.302 151.027 445.065H156.444ZM164.583 441.324C165.378 441.324 166.087 441.507 166.711 441.873C167.335 442.238 167.818 442.748 168.162 443.404C168.506 444.06 168.678 444.812 168.678 445.661C168.678 446.499 168.506 447.246 168.162 447.902C167.829 448.547 167.351 449.052 166.727 449.417C166.115 449.772 165.41 449.949 164.615 449.949C163.895 449.949 163.261 449.799 162.713 449.498C162.165 449.197 161.735 448.767 161.423 448.208V449.901H159.924V437.939H161.423V443.066C161.735 442.506 162.16 442.077 162.697 441.776C163.245 441.475 163.874 441.324 164.583 441.324ZM164.293 448.644C164.841 448.644 165.33 448.515 165.76 448.257C166.2 447.999 166.539 447.639 166.776 447.176C167.022 446.714 167.146 446.193 167.146 445.613C167.146 445.043 167.022 444.528 166.776 444.065C166.529 443.603 166.19 443.243 165.76 442.985C165.33 442.727 164.841 442.598 164.293 442.598C163.745 442.598 163.25 442.727 162.81 442.985C162.38 443.243 162.041 443.603 161.794 444.065C161.547 444.528 161.423 445.043 161.423 445.613C161.423 446.204 161.547 446.73 161.794 447.193C162.041 447.644 162.38 447.999 162.81 448.257C163.25 448.515 163.745 448.644 164.293 448.644ZM172.269 443.211C172.548 442.598 172.946 442.136 173.462 441.824C173.978 441.502 174.59 441.335 175.3 441.324V442.775C174.429 442.743 173.725 442.969 173.188 443.452C172.65 443.936 172.344 444.586 172.269 445.403V449.901H170.77V441.373H172.269L172.269 443.211ZM184.47 441.373V449.901H182.954V448.095C182.395 449.31 181.342 449.928 179.795 449.949C178.806 449.949 178.032 449.659 177.473 449.079C176.914 448.487 176.635 447.676 176.635 446.644V441.373H178.15V446.241C178.15 446.962 178.344 447.526 178.731 447.934C179.129 448.332 179.671 448.531 180.359 448.531C181.154 448.52 181.783 448.24 182.245 447.692C182.718 447.133 182.954 446.424 182.954 445.564V441.373L184.47 441.373ZM192.602 449.901V448.708C191.967 449.546 190.974 449.965 189.62 449.965C189.028 449.965 188.507 449.853 188.056 449.627C187.614 449.401 187.271 449.09 187.024 448.692C186.787 448.294 186.669 447.849 186.669 447.354C186.669 446.591 186.948 445.989 187.508 445.548C188.077 445.097 188.867 444.866 189.878 444.855H192.586V444.452C192.586 443.85 192.397 443.388 192.022 443.066C191.656 442.732 191.119 442.566 190.41 442.566C189.549 442.566 188.673 442.872 187.782 443.485L187.153 442.453C187.766 442.055 188.33 441.771 188.846 441.598C189.372 441.416 189.995 441.324 190.716 441.324C191.78 441.324 192.602 441.587 193.182 442.114C193.763 442.63 194.058 443.356 194.069 444.291L194.085 449.901L192.602 449.901ZM189.926 448.724C190.624 448.724 191.216 448.558 191.699 448.224C192.193 447.881 192.489 447.429 192.586 446.87V446.016H190.087C189.41 446.016 188.904 446.117 188.572 446.322C188.249 446.527 188.088 446.849 188.088 447.289C188.088 447.73 188.254 448.079 188.588 448.337C188.92 448.595 189.367 448.724 189.926 448.724V448.724ZM198.262 443.211C198.541 442.598 198.939 442.136 199.455 441.824C199.971 441.502 200.583 441.335 201.292 441.324V442.775C200.422 442.743 199.718 442.969 199.181 443.452C198.643 443.936 198.336 444.586 198.262 445.403V449.901H196.762V441.373H198.262V443.211ZM206.341 451.11C206.072 451.766 205.713 452.26 205.261 452.593C204.82 452.927 204.299 453.093 203.698 453.093C203.332 453.093 202.998 453.04 202.698 452.932C202.397 452.824 202.107 452.658 201.826 452.432L202.472 451.255C202.848 451.524 203.23 451.658 203.617 451.658C204.262 451.658 204.745 451.292 205.068 450.562L205.39 449.804L201.859 441.373H203.44L206.147 448.208L208.711 441.373H210.243L206.341 451.11Z" fill="#979CB6"/>
<path fill-rule="evenodd" clip-rule="evenodd" d="M249.16 438.616H250.998L255.125 446.548L259.22 438.616H261.073V449.901H259.623L259.606 440.889L255.592 448.708H254.641L250.595 440.889V449.901H249.16L249.16 438.616ZM269.367 449.901V448.708C268.733 449.546 267.739 449.965 266.384 449.965C265.794 449.965 265.272 449.853 264.821 449.627C264.38 449.401 264.037 449.09 263.789 448.692C263.553 448.294 263.434 447.849 263.434 447.354C263.434 446.591 263.714 445.989 264.273 445.548C264.843 445.097 265.633 444.866 266.642 444.855H269.351V444.452C269.351 443.85 269.163 443.388 268.787 443.066C268.422 442.732 267.884 442.566 267.174 442.566C266.315 442.566 265.439 442.872 264.547 443.485L263.918 442.453C264.531 442.055 265.095 441.771 265.611 441.598C266.138 441.416 266.761 441.324 267.481 441.324C268.545 441.324 269.367 441.587 269.947 442.114C270.528 442.63 270.824 443.356 270.834 444.291L270.85 449.901L269.367 449.901ZM266.691 448.724C267.39 448.724 267.98 448.558 268.464 448.224C268.959 447.881 269.254 447.429 269.351 446.87V446.016H266.852C266.175 446.016 265.67 446.117 265.337 446.322C265.014 446.527 264.853 446.849 264.853 447.289C264.853 447.73 265.02 448.079 265.353 448.337C265.686 448.595 266.133 448.724 266.691 448.724V448.724ZM275.027 443.211C275.306 442.598 275.704 442.136 276.219 441.824C276.735 441.502 277.348 441.335 278.057 441.324V442.775C277.187 442.743 276.482 442.969 275.945 443.452C275.408 443.936 275.102 444.586 275.027 445.403V449.901H273.527V441.373H275.027V443.211ZM285.665 443.646C284.987 442.99 284.175 442.662 283.23 442.662C282.671 442.662 282.171 442.786 281.731 443.033C281.301 443.28 280.962 443.63 280.715 444.081C280.467 444.533 280.344 445.053 280.344 445.645C280.344 446.236 280.462 446.757 280.699 447.209C280.946 447.66 281.28 448.015 281.699 448.273C282.128 448.52 282.618 448.644 283.166 448.644C283.714 448.644 284.208 448.552 284.649 448.369C285.089 448.187 285.455 447.923 285.745 447.58L286.6 448.45C286.213 448.934 285.718 449.304 285.116 449.562C284.525 449.82 283.853 449.949 283.101 449.949C282.273 449.949 281.538 449.767 280.893 449.401C280.248 449.035 279.742 448.531 279.377 447.886C279.023 447.23 278.845 446.483 278.845 445.645C278.845 444.807 279.023 444.06 279.377 443.404C279.742 442.748 280.248 442.238 280.893 441.873C281.538 441.507 282.273 441.324 283.101 441.324C283.821 441.324 284.466 441.437 285.036 441.663C285.616 441.878 286.1 442.195 286.487 442.614L285.665 443.646ZM293.572 441.324C294.572 441.324 295.357 441.62 295.926 442.211C296.495 442.791 296.78 443.597 296.78 444.629V449.901H295.281V445.032C295.281 444.312 295.076 443.754 294.668 443.356C294.27 442.948 293.717 442.743 293.008 442.743C292.181 442.754 291.525 443.033 291.041 443.581C290.557 444.13 290.316 444.839 290.316 445.709V449.901H288.816V437.939H290.316V443.211C290.885 441.974 291.971 441.346 293.572 441.324H293.572Z" fill="#979CB6"/>
<path fill-rule="evenodd" clip-rule="evenodd" d="M363.338 449.901L362.145 447.16H356.197L355.02 449.901H353.391L358.405 438.616H360.017L365.015 449.901H363.338ZM356.809 445.758H361.549L359.163 440.277L356.809 445.758ZM371.247 441.324C372.043 441.324 372.752 441.507 373.375 441.873C373.999 442.238 374.482 442.748 374.826 443.404C375.17 444.06 375.342 444.812 375.342 445.661C375.342 446.499 375.17 447.246 374.826 447.902C374.493 448.547 374.015 449.052 373.391 449.417C372.778 449.772 372.075 449.949 371.279 449.949C370.56 449.949 369.925 449.799 369.377 449.498C368.829 449.197 368.399 448.767 368.087 448.208V453.029H366.588V441.373H368.087V443.066C368.399 442.506 368.824 442.077 369.361 441.776C369.909 441.475 370.538 441.324 371.247 441.324ZM370.957 448.644C371.505 448.644 371.994 448.515 372.424 448.257C372.865 447.999 373.204 447.639 373.439 447.176C373.687 446.714 373.81 446.193 373.81 445.613C373.81 445.043 373.687 444.528 373.439 444.065C373.192 443.603 372.854 443.243 372.424 442.985C371.994 442.727 371.505 442.598 370.957 442.598C370.409 442.598 369.915 442.727 369.473 442.985C369.044 443.243 368.706 443.603 368.458 444.065C368.211 444.528 368.087 445.043 368.087 445.613C368.087 446.204 368.211 446.73 368.458 447.193C368.706 447.644 369.044 447.999 369.473 448.257C369.915 448.515 370.409 448.644 370.957 448.644ZM378.933 443.211C379.212 442.598 379.61 442.136 380.126 441.824C380.642 441.502 381.254 441.335 381.964 441.324V442.775C381.093 442.743 380.389 442.969 379.852 443.452C379.315 443.936 379.008 444.586 378.933 445.403V449.901H377.433V441.373H378.933L378.933 443.211ZM383.59 441.373H385.089V449.901H383.59V441.373ZM384.331 437.971C384.599 437.971 384.82 438.063 384.992 438.245C385.175 438.428 385.266 438.659 385.266 438.938C385.266 439.218 385.175 439.449 384.992 439.632C384.82 439.814 384.599 439.906 384.331 439.906C384.062 439.906 383.837 439.814 383.654 439.632C383.482 439.449 383.396 439.218 383.396 438.938C383.396 438.659 383.482 438.428 383.654 438.245C383.837 438.063 384.062 437.971 384.331 437.971ZM388.094 437.939H389.593V449.901H388.094V437.939Z" fill="#979CB6"/>
<path fill-rule="evenodd" clip-rule="evenodd" d="M455.715 438.616H457.553L461.68 446.548L465.774 438.616H467.628V449.901H466.177L466.161 440.889L462.147 448.708H461.196L457.149 440.889V449.901H455.715L455.715 438.616ZM475.922 449.901V448.708C475.288 449.546 474.294 449.965 472.939 449.965C472.349 449.965 471.827 449.853 471.376 449.627C470.935 449.401 470.592 449.09 470.344 448.692C470.108 448.294 469.989 447.849 469.989 447.354C469.989 446.591 470.269 445.989 470.827 445.548C471.398 445.097 472.188 444.866 473.197 444.855H475.906V444.452C475.906 443.85 475.718 443.388 475.341 443.066C474.977 442.732 474.439 442.566 473.729 442.566C472.87 442.566 471.994 442.872 471.102 443.485L470.473 442.453C471.085 442.055 471.65 441.771 472.166 441.598C472.693 441.416 473.316 441.324 474.036 441.324C475.1 441.324 475.922 441.587 476.502 442.114C477.083 442.63 477.379 443.356 477.389 444.291L477.405 449.901L475.922 449.901ZM473.246 448.724C473.945 448.724 474.535 448.558 475.019 448.224C475.514 447.881 475.809 447.429 475.906 446.87V446.016H473.407C472.73 446.016 472.225 446.117 471.891 446.322C471.569 446.527 471.408 446.849 471.408 447.289C471.408 447.73 471.575 448.079 471.908 448.337C472.241 448.595 472.687 448.724 473.246 448.724V448.724ZM482.765 451.11C482.497 451.766 482.137 452.26 481.685 452.593C481.245 452.927 480.724 453.093 480.121 453.093C479.757 453.093 479.423 453.04 479.122 452.932C478.822 452.824 478.531 452.658 478.251 452.432L478.896 451.255C479.273 451.524 479.654 451.658 480.041 451.658C480.686 451.658 481.169 451.292 481.492 450.562L481.814 449.804L478.284 441.373H479.863L482.572 448.208L485.135 441.373H486.667L482.765 451.11Z" fill="#979CB6"/>
<path fill-rule="evenodd" clip-rule="evenodd" d="M556.366 446.483C556.366 447.591 556.071 448.45 555.48 449.063C554.888 449.664 554.066 449.965 553.013 449.965C552.379 449.965 551.788 449.825 551.24 449.546C550.692 449.267 550.213 448.869 549.805 448.353L550.563 447.16C550.917 447.58 551.304 447.902 551.723 448.128C552.154 448.342 552.578 448.45 552.997 448.45C553.577 448.45 554.024 448.278 554.335 447.934C554.646 447.58 554.803 447.08 554.803 446.435V440.035H550.821V438.616H556.366V446.483ZM566.736 441.373V449.901H565.221V448.095C564.662 449.31 563.609 449.928 562.061 449.949C561.072 449.949 560.298 449.659 559.74 449.079C559.181 448.487 558.901 447.676 558.901 446.644V441.373H560.417V446.241C560.417 446.962 560.61 447.526 560.997 447.934C561.394 448.332 561.937 448.531 562.626 448.531C563.42 448.52 564.049 448.24 564.512 447.692C564.984 447.133 565.221 446.424 565.221 445.564V441.373L566.736 441.373ZM574.4 441.324C575.4 441.324 576.185 441.62 576.754 442.211C577.324 442.791 577.608 443.597 577.608 444.629V449.901H576.109V445.032C576.109 444.312 575.905 443.754 575.496 443.356C575.099 442.948 574.545 442.743 573.836 442.743C573.073 442.754 572.449 443.001 571.966 443.485C571.493 443.957 571.224 444.576 571.16 445.339V449.901H569.66V441.373H571.16V443.178C571.73 441.964 572.81 441.346 574.4 441.324L574.4 441.324ZM583.705 441.324C585.027 441.324 586.027 441.716 586.704 442.501C587.381 443.275 587.719 444.355 587.719 445.742C587.719 445.956 587.714 446.117 587.703 446.225H580.965C581.083 446.988 581.4 447.596 581.916 448.047C582.443 448.498 583.088 448.724 583.85 448.724C584.356 448.724 584.824 448.632 585.253 448.45C585.694 448.268 586.075 448.01 586.397 447.676L587.22 448.531C586.8 448.982 586.296 449.332 585.704 449.579C585.114 449.825 584.458 449.949 583.737 449.949C582.899 449.949 582.153 449.772 581.497 449.417C580.852 449.052 580.347 448.542 579.981 447.886C579.626 447.23 579.449 446.483 579.449 445.645C579.449 444.807 579.626 444.065 579.981 443.42C580.347 442.764 580.852 442.254 581.497 441.889C582.141 441.513 582.878 441.324 583.705 441.324V441.324ZM586.365 445.065C586.323 444.291 586.065 443.683 585.591 443.243C585.119 442.791 584.495 442.566 583.721 442.566C582.97 442.566 582.341 442.791 581.835 443.243C581.341 443.694 581.045 444.302 580.948 445.065H586.365Z" fill="#979CB6"/>
<path fill-rule="evenodd" clip-rule="evenodd" d="M659.139 446.483C659.139 447.591 658.844 448.45 658.252 449.063C657.661 449.664 656.839 449.965 655.786 449.965C655.152 449.965 654.561 449.825 654.012 449.546C653.464 449.267 652.986 448.869 652.578 448.353L653.335 447.16C653.69 447.58 654.077 447.902 654.496 448.128C654.926 448.342 655.351 448.45 655.77 448.45C656.35 448.45 656.796 448.278 657.108 447.934C657.419 447.58 657.575 447.08 657.575 446.435V440.035H653.593V438.616H659.139V446.483ZM669.509 441.373V449.901H667.994V448.095C667.434 449.31 666.382 449.928 664.834 449.949C663.844 449.949 663.071 449.659 662.512 449.079C661.953 448.487 661.674 447.676 661.674 446.644V441.373H663.19V446.241C663.19 446.962 663.383 447.526 663.77 447.934C664.167 448.332 664.71 448.531 665.398 448.531C666.193 448.52 666.822 448.24 667.284 447.692C667.757 447.133 667.994 446.424 667.994 445.564V441.373L669.509 441.373ZM672.514 437.939H674.013V449.901H672.514V437.939ZM680.013 451.11C679.744 451.766 679.384 452.26 678.933 452.593C678.493 452.927 677.971 453.093 677.369 453.093C677.004 453.093 676.671 453.04 676.37 452.932C676.068 452.824 675.778 452.658 675.499 452.432L676.144 451.255C676.52 451.524 676.902 451.658 677.289 451.658C677.934 451.658 678.417 451.292 678.74 450.562L679.062 449.804L675.531 441.373H677.111L679.82 448.208L682.383 441.373H683.915L680.013 451.11Z" fill="#979CB6"/>
<path fill-rule="evenodd" clip-rule="evenodd" d="M749.244 449.901L748.051 447.16H742.103L740.926 449.901H739.297L744.311 438.616H745.923L750.921 449.901H749.244ZM742.715 445.758H747.455L745.069 440.277L742.715 445.758ZM759.518 441.373V449.901H758.002V448.095C757.443 449.31 756.39 449.928 754.842 449.949C753.854 449.949 753.08 449.659 752.521 449.079C751.962 448.487 751.683 447.676 751.683 446.644V441.373H753.198V446.241C753.198 446.962 753.392 447.526 753.778 447.934C754.176 448.332 754.719 448.531 755.407 448.531C756.202 448.52 756.83 448.24 757.293 447.692C757.765 447.133 758.002 446.424 758.002 445.564V441.373L759.518 441.373ZM769.987 441.373V449.03C769.987 449.848 769.804 450.562 769.439 451.175C769.085 451.787 768.579 452.255 767.924 452.577C767.268 452.911 766.505 453.077 765.635 453.077C764.377 453.077 763.205 452.679 762.12 451.884L762.781 450.788C763.2 451.131 763.636 451.384 764.087 451.545C764.538 451.718 765.032 451.803 765.57 451.803C766.451 451.803 767.155 451.556 767.682 451.062C768.208 450.567 768.472 449.906 768.472 449.079V447.886C768.171 448.402 767.763 448.805 767.247 449.095C766.731 449.374 766.139 449.514 765.473 449.514C764.71 449.514 764.033 449.342 763.442 448.998C762.862 448.644 762.41 448.155 762.088 447.531C761.766 446.907 761.604 446.193 761.604 445.387C761.604 444.592 761.766 443.888 762.088 443.275C762.41 442.662 762.862 442.184 763.442 441.84C764.033 441.497 764.71 441.324 765.473 441.324C766.151 441.324 766.741 441.464 767.247 441.744C767.763 442.023 768.171 442.421 768.472 442.937V441.373L769.987 441.373ZM765.764 448.305C766.29 448.305 766.757 448.181 767.166 447.934C767.574 447.687 767.892 447.349 768.117 446.919C768.353 446.478 768.472 445.983 768.472 445.435C768.472 444.876 768.353 444.382 768.117 443.952C767.892 443.512 767.574 443.167 767.166 442.92C766.757 442.674 766.29 442.55 765.764 442.55C765.237 442.55 764.764 442.674 764.345 442.92C763.936 443.167 763.614 443.512 763.378 443.952C763.141 444.382 763.023 444.876 763.023 445.435C763.033 446.274 763.291 446.962 763.797 447.499C764.302 448.036 764.958 448.305 765.764 448.305V448.305ZM780.268 441.373V449.901H778.752V448.095C778.193 449.31 777.14 449.928 775.593 449.949C774.603 449.949 773.829 449.659 773.271 449.079C772.712 448.487 772.433 447.676 772.433 446.644V441.373H773.948V446.241C773.948 446.962 774.142 447.526 774.529 447.934C774.926 448.332 775.469 448.531 776.157 448.531C776.952 448.52 777.581 448.24 778.043 447.692C778.516 447.133 778.752 446.424 778.752 445.564V441.373L780.268 441.373ZM787.851 443.259C787.496 443.044 787.104 442.872 786.674 442.743C786.255 442.614 785.852 442.55 785.465 442.55C785.014 442.55 784.649 442.635 784.369 442.808C784.101 442.969 783.966 443.222 783.966 443.565C783.966 443.909 784.117 444.173 784.417 444.355C784.729 444.528 785.197 444.705 785.82 444.887C786.411 445.06 786.895 445.231 787.271 445.403C787.647 445.575 787.964 445.827 788.222 446.161C788.491 446.494 788.625 446.935 788.625 447.483C788.625 448.289 788.318 448.901 787.706 449.321C787.104 449.74 786.352 449.949 785.449 449.949C784.815 449.949 784.197 449.848 783.595 449.643C783.004 449.438 782.505 449.148 782.096 448.772L782.66 447.676C783.014 447.999 783.45 448.257 783.966 448.45C784.493 448.644 785.003 448.74 785.497 448.74C785.992 448.74 786.39 448.649 786.69 448.466C786.991 448.284 787.142 448.004 787.142 447.628C787.142 447.241 786.98 446.951 786.658 446.757C786.347 446.564 785.868 446.37 785.223 446.177C784.654 446.016 784.186 445.855 783.821 445.693C783.466 445.521 783.16 445.274 782.902 444.952C782.655 444.629 782.531 444.21 782.531 443.694C782.531 442.899 782.821 442.303 783.401 441.905C783.982 441.507 784.707 441.308 785.578 441.308C786.094 441.308 786.6 441.384 787.093 441.534C787.599 441.674 788.034 441.867 788.399 442.114L787.851 443.259ZM795.186 449.337C794.53 449.756 793.864 449.965 793.187 449.965C792.51 449.965 791.962 449.767 791.543 449.369C791.124 448.961 790.914 448.348 790.914 447.531V442.808H789.705V441.663H790.914V439.374H792.429V441.663H795.041V442.808H792.429V447.257C792.429 447.73 792.515 448.068 792.687 448.273C792.859 448.477 793.117 448.579 793.461 448.579C793.869 448.579 794.31 448.445 794.783 448.176L795.186 449.337Z" fill="#979CB6"/>
<path fill-rule="evenodd" clip-rule="evenodd" d="M829.066 440.97C828.539 440.636 827.991 440.389 827.422 440.228C826.863 440.056 826.347 439.97 825.874 439.97C825.218 439.97 824.692 440.099 824.294 440.357C823.907 440.604 823.714 440.949 823.714 441.389C823.714 441.787 823.832 442.114 824.069 442.372C824.305 442.619 824.596 442.819 824.939 442.969C825.283 443.109 825.761 443.275 826.374 443.469C827.137 443.705 827.755 443.931 828.228 444.146C828.7 444.36 829.104 444.683 829.437 445.113C829.771 445.532 829.937 446.091 829.937 446.79C829.937 447.434 829.759 447.999 829.405 448.482C829.061 448.966 828.571 449.342 827.938 449.611C827.314 449.869 826.595 449.998 825.777 449.998C824.95 449.998 824.144 449.836 823.359 449.514C822.574 449.192 821.897 448.761 821.328 448.224L822.021 446.886C822.558 447.413 823.161 447.821 823.827 448.111C824.504 448.391 825.16 448.531 825.794 448.531C826.546 448.531 827.137 448.386 827.567 448.095C828.007 447.794 828.228 447.391 828.228 446.886C828.228 446.488 828.11 446.161 827.873 445.903C827.636 445.645 827.336 445.44 826.97 445.29C826.616 445.14 826.132 444.973 825.52 444.79C824.767 444.565 824.154 444.344 823.682 444.13C823.209 443.915 822.806 443.597 822.473 443.178C822.15 442.759 821.989 442.206 821.989 441.518C821.989 440.916 822.155 440.384 822.489 439.922C822.822 439.459 823.29 439.105 823.891 438.858C824.493 438.611 825.192 438.487 825.987 438.487C826.664 438.487 827.325 438.589 827.97 438.793C828.626 438.987 829.206 439.25 829.711 439.583L829.066 440.97ZM835.679 441.324C837.001 441.324 838 441.716 838.678 442.501C839.355 443.275 839.693 444.355 839.693 445.742C839.693 445.956 839.688 446.117 839.677 446.225H832.938C833.057 446.988 833.374 447.596 833.89 448.047C834.416 448.498 835.061 448.724 835.824 448.724C836.33 448.724 836.797 448.632 837.227 448.45C837.668 448.268 838.049 448.01 838.371 447.676L839.193 448.531C838.774 448.982 838.27 449.332 837.678 449.579C837.088 449.825 836.432 449.949 835.711 449.949C834.873 449.949 834.126 449.772 833.47 449.417C832.826 449.052 832.321 448.542 831.955 447.886C831.6 447.23 831.423 446.483 831.423 445.645C831.423 444.807 831.6 444.065 831.955 443.42C832.321 442.764 832.826 442.254 833.47 441.889C834.115 441.513 834.852 441.324 835.679 441.324L835.679 441.324ZM838.339 445.065C838.297 444.291 838.039 443.683 837.565 443.243C837.093 442.791 836.469 442.566 835.695 442.566C834.943 442.566 834.315 442.791 833.809 443.243C833.315 443.694 833.019 444.302 832.922 445.065H838.339ZM846.479 441.324C847.274 441.324 847.984 441.507 848.607 441.873C849.23 442.238 849.714 442.748 850.058 443.404C850.402 444.06 850.574 444.812 850.574 445.661C850.574 446.499 850.402 447.246 850.058 447.902C849.725 448.547 849.246 449.052 848.623 449.417C848.011 449.772 847.307 449.949 846.512 449.949C845.791 449.949 845.157 449.799 844.609 449.498C844.061 449.197 843.631 448.767 843.319 448.208V453.029H841.82V441.373H843.319V443.066C843.631 442.506 844.055 442.077 844.593 441.776C845.141 441.475 845.77 441.324 846.479 441.324H846.479ZM846.189 448.644C846.737 448.644 847.226 448.515 847.656 448.257C848.096 447.999 848.435 447.639 848.672 447.176C848.919 446.714 849.043 446.193 849.043 445.613C849.043 445.043 848.919 444.528 848.672 444.065C848.424 443.603 848.085 443.243 847.656 442.985C847.226 442.727 846.737 442.598 846.189 442.598C845.641 442.598 845.146 442.727 844.706 442.985C844.276 443.243 843.937 443.603 843.69 444.065C843.442 444.528 843.319 445.043 843.319 445.613C843.319 446.204 843.442 446.73 843.69 447.193C843.937 447.644 844.276 447.999 844.706 448.257C845.146 448.515 845.641 448.644 846.189 448.644ZM857.243 449.337C856.588 449.756 855.921 449.965 855.244 449.965C854.567 449.965 854.019 449.767 853.6 449.369C853.181 448.961 852.971 448.348 852.971 447.531V442.808H851.762V441.663H852.971V439.374H854.487V441.663H857.098V442.808H854.487V447.257C854.487 447.73 854.573 448.068 854.745 448.273C854.917 448.477 855.175 448.579 855.518 448.579C855.927 448.579 856.368 448.445 856.84 448.176L857.243 449.337ZM862.38 441.324C863.702 441.324 864.701 441.716 865.379 442.501C866.056 443.275 866.394 444.355 866.394 445.742C866.394 445.956 866.389 446.117 866.378 446.225H859.639C859.758 446.988 860.075 447.596 860.591 448.047C861.117 448.498 861.762 448.724 862.525 448.724C863.031 448.724 863.498 448.632 863.928 448.45C864.369 448.268 864.75 448.01 865.072 447.676L865.894 448.531C865.475 448.982 864.971 449.332 864.379 449.579C863.789 449.825 863.133 449.949 862.412 449.949C861.574 449.949 860.827 449.772 860.171 449.417C859.527 449.052 859.022 448.542 858.656 447.886C858.301 447.23 858.124 446.483 858.124 445.645C858.124 444.807 858.301 444.065 858.656 443.42C859.022 442.764 859.527 442.254 860.171 441.889C860.816 441.513 861.553 441.324 862.38 441.324L862.38 441.324ZM865.04 445.065C864.998 444.291 864.74 443.683 864.266 443.243C863.794 442.791 863.17 442.566 862.396 442.566C861.644 442.566 861.016 442.791 860.51 443.243C860.016 443.694 859.72 444.302 859.623 445.065H865.04ZM879.452 441.324C880.429 441.324 881.198 441.62 881.757 442.211C882.315 442.803 882.595 443.609 882.595 444.629V449.901H881.08V445.032C881.08 444.312 880.88 443.748 880.483 443.34C880.096 442.932 879.558 442.727 878.871 442.727C878.065 442.748 877.43 443.033 876.969 443.581C876.506 444.13 876.276 444.834 876.276 445.693V449.901H874.76V445.032C874.76 444.312 874.567 443.748 874.18 443.34C873.793 442.932 873.25 442.727 872.552 442.727C871.746 442.748 871.106 443.033 870.633 443.581C870.171 444.13 869.94 444.834 869.94 445.693V449.901H868.441V441.373H869.94V443.162C870.498 441.958 871.557 441.346 873.116 441.324C873.9 441.324 874.551 441.513 875.066 441.889C875.592 442.264 875.947 442.791 876.131 443.469C876.656 442.061 877.764 441.346 879.452 441.324L879.452 441.324ZM890.01 441.324C890.805 441.324 891.514 441.507 892.138 441.873C892.761 442.238 893.244 442.748 893.589 443.404C893.932 444.06 894.105 444.812 894.105 445.661C894.105 446.499 893.932 447.246 893.589 447.902C893.255 448.547 892.777 449.052 892.154 449.417C891.541 449.772 890.837 449.949 890.042 449.949C889.322 449.949 888.688 449.799 888.14 449.498C887.592 449.197 887.162 448.767 886.85 448.208V449.901H885.351V437.939H886.85V443.066C887.162 442.506 887.586 442.077 888.124 441.776C888.672 441.475 889.301 441.324 890.01 441.324ZM889.72 448.644C890.268 448.644 890.757 448.515 891.187 448.257C891.627 447.999 891.966 447.639 892.202 447.176C892.449 446.714 892.573 446.193 892.573 445.613C892.573 445.043 892.449 444.528 892.202 444.065C891.955 443.603 891.616 443.243 891.187 442.985C890.757 442.727 890.268 442.598 889.72 442.598C889.172 442.598 888.677 442.727 888.237 442.985C887.806 443.243 887.468 443.603 887.221 444.065C886.973 444.528 886.85 445.043 886.85 445.613C886.85 446.204 886.973 446.73 887.221 447.193C887.468 447.644 887.806 447.999 888.237 448.257C888.677 448.515 889.172 448.644 889.72 448.644ZM899.614 441.324C900.936 441.324 901.936 441.716 902.613 442.501C903.29 443.275 903.629 444.355 903.629 445.742C903.629 445.956 903.622 446.117 903.611 446.225H896.874C896.992 446.988 897.309 447.596 897.825 448.047C898.351 448.498 898.996 448.724 899.759 448.724C900.264 448.724 900.732 448.632 901.162 448.45C901.602 448.268 901.984 448.01 902.307 447.676L903.129 448.531C902.71 448.982 902.204 449.332 901.613 449.579C901.022 449.825 900.366 449.949 899.647 449.949C898.808 449.949 898.061 449.772 897.406 449.417C896.761 449.052 896.255 448.542 895.89 447.886C895.536 447.23 895.358 446.483 895.358 445.645C895.358 444.807 895.536 444.065 895.89 443.42C896.255 442.764 896.761 442.254 897.406 441.889C898.051 441.513 898.786 441.324 899.614 441.324V441.324ZM902.274 445.065C902.231 444.291 901.973 443.683 901.5 443.243C901.027 442.791 900.404 442.566 899.63 442.566C898.878 442.566 898.249 442.791 897.744 443.243C897.25 443.694 896.954 444.302 896.857 445.065H902.274ZM907.173 443.211C907.452 442.598 907.85 442.136 908.366 441.824C908.882 441.502 909.495 441.335 910.204 441.324V442.775C909.333 442.743 908.629 442.969 908.092 443.452C907.554 443.936 907.248 444.586 907.173 445.403V449.901H905.674V441.373H907.173L907.173 443.211Z" fill="#979CB6"/>
<path fill-rule="evenodd" clip-rule="evenodd" d="M938.242 438.519C939.327 438.519 940.322 438.772 941.224 439.277C942.138 439.782 942.858 440.475 943.385 441.357C943.912 442.227 944.175 443.189 944.175 444.242C944.175 445.295 943.912 446.269 943.385 447.16C942.858 448.042 942.138 448.74 941.224 449.256C940.322 449.761 939.327 450.014 938.242 450.014C937.157 450.014 936.157 449.761 935.243 449.256C934.341 448.74 933.626 448.042 933.099 447.16C932.572 446.269 932.309 445.295 932.309 444.242C932.309 443.189 932.572 442.227 933.099 441.357C933.626 440.475 934.341 439.782 935.243 439.277C936.146 438.772 937.146 438.519 938.242 438.519ZM938.258 439.906C937.473 439.906 936.743 440.099 936.066 440.486C935.4 440.873 934.868 441.4 934.47 442.066C934.072 442.722 933.873 443.447 933.873 444.242C933.873 445.037 934.072 445.769 934.47 446.435C934.868 447.101 935.4 447.633 936.066 448.031C936.743 448.418 937.473 448.611 938.258 448.611C939.043 448.611 939.762 448.418 940.418 448.031C941.084 447.633 941.611 447.101 941.998 446.435C942.396 445.769 942.595 445.037 942.595 444.242C942.595 443.447 942.396 442.722 941.998 442.066C941.611 441.4 941.084 440.873 940.418 440.486C939.762 440.099 939.043 439.906 938.258 439.906ZM952.227 443.646C951.55 442.99 950.739 442.662 949.793 442.662C949.235 442.662 948.735 442.786 948.294 443.033C947.864 443.28 947.526 443.63 947.278 444.081C947.031 444.533 946.907 445.053 946.907 445.645C946.907 446.236 947.026 446.757 947.262 447.209C947.51 447.66 947.842 448.015 948.261 448.273C948.692 448.52 949.18 448.644 949.729 448.644C950.277 448.644 950.771 448.552 951.212 448.369C951.653 448.187 952.018 447.923 952.308 447.58L953.162 448.45C952.775 448.934 952.282 449.304 951.679 449.562C951.089 449.82 950.417 449.949 949.664 449.949C948.837 449.949 948.1 449.767 947.455 449.401C946.811 449.035 946.306 448.531 945.94 447.886C945.585 447.23 945.408 446.483 945.408 445.645C945.408 444.807 945.585 444.06 945.94 443.404C946.306 442.748 946.811 442.238 947.455 441.873C948.1 441.507 948.837 441.324 949.664 441.324C950.384 441.324 951.029 441.437 951.599 441.663C952.179 441.878 952.663 442.195 953.05 442.614L952.227 443.646ZM959.878 449.337C959.222 449.756 958.556 449.965 957.879 449.965C957.202 449.965 956.654 449.767 956.235 449.369C955.815 448.961 955.606 448.348 955.606 447.531V442.808H954.397V441.663H955.606V439.374H957.121V441.663H959.733V442.808H957.121V447.257C957.121 447.73 957.207 448.068 957.379 448.273C957.55 448.477 957.808 448.579 958.153 448.579C958.561 448.579 959.001 448.445 959.475 448.176L959.878 449.337ZM965.144 441.324C965.992 441.324 966.745 441.507 967.401 441.873C968.067 442.238 968.582 442.748 968.948 443.404C969.324 444.049 969.512 444.79 969.512 445.629C969.512 446.467 969.324 447.214 968.948 447.87C968.582 448.526 968.067 449.035 967.401 449.401C966.745 449.767 965.992 449.949 965.144 449.949C964.283 449.949 963.52 449.767 962.854 449.401C962.198 449.035 961.683 448.531 961.307 447.886C960.941 447.23 960.759 446.478 960.759 445.629C960.759 444.79 960.941 444.049 961.307 443.404C961.683 442.748 962.198 442.238 962.854 441.873C963.52 441.507 964.283 441.324 965.144 441.324ZM965.144 442.63C964.584 442.63 964.085 442.759 963.644 443.017C963.214 443.275 962.875 443.635 962.629 444.097C962.392 444.549 962.274 445.065 962.274 445.645C962.274 446.236 962.392 446.762 962.629 447.225C962.875 447.687 963.214 448.047 963.644 448.305C964.085 448.552 964.584 448.676 965.144 448.676C965.692 448.676 966.18 448.552 966.611 448.305C967.051 448.047 967.389 447.687 967.626 447.225C967.873 446.762 967.997 446.236 967.997 445.645C967.997 445.065 967.873 444.549 967.626 444.097C967.389 443.635 967.051 443.275 966.611 443.017C966.18 442.759 965.692 442.63 965.144 442.63ZM976.349 441.324C977.145 441.324 977.854 441.507 978.477 441.873C979.101 442.238 979.584 442.748 979.928 443.404C980.272 444.06 980.444 444.812 980.444 445.661C980.444 446.499 980.272 447.246 979.928 447.902C979.595 448.547 979.117 449.052 978.493 449.417C977.88 449.772 977.177 449.949 976.381 449.949C975.662 449.949 975.027 449.799 974.479 449.498C973.931 449.197 973.501 448.767 973.189 448.208V449.901H971.69V437.939H973.189V443.066C973.501 442.506 973.926 442.077 974.463 441.776C975.011 441.475 975.64 441.324 976.349 441.324ZM976.059 448.644C976.607 448.644 977.097 448.515 977.526 448.257C977.967 447.999 978.306 447.639 978.541 447.176C978.789 446.714 978.912 446.193 978.912 445.613C978.912 445.043 978.789 444.528 978.541 444.065C978.295 443.603 977.956 443.243 977.526 442.985C977.097 442.727 976.607 442.598 976.059 442.598C975.511 442.598 975.017 442.727 974.576 442.985C974.146 443.243 973.808 443.603 973.56 444.065C973.313 444.528 973.189 445.043 973.189 445.613C973.189 446.204 973.313 446.73 973.56 447.193C973.808 447.644 974.146 447.999 974.576 448.257C975.017 448.515 975.511 448.644 976.059 448.644ZM985.953 441.324C987.275 441.324 988.275 441.716 988.952 442.501C989.629 443.275 989.967 444.355 989.967 445.742C989.967 445.956 989.962 446.117 989.951 446.225H983.213C983.33 446.988 983.648 447.596 984.164 448.047C984.691 448.498 985.336 448.724 986.098 448.724C986.603 448.724 987.071 448.632 987.501 448.45C987.941 448.268 988.323 448.01 988.645 447.676L989.468 448.531C989.048 448.982 988.544 449.332 987.952 449.579C987.361 449.825 986.706 449.949 985.985 449.949C985.147 449.949 984.401 449.772 983.745 449.417C983.1 449.052 982.595 448.542 982.229 447.886C981.874 447.23 981.697 446.483 981.697 445.645C981.697 444.807 981.874 444.065 982.229 443.42C982.595 442.764 983.1 442.254 983.745 441.889C984.389 441.513 985.126 441.324 985.953 441.324L985.953 441.324ZM988.613 445.065C988.57 444.291 988.312 443.683 987.839 443.243C987.367 442.791 986.743 442.566 985.969 442.566C985.217 442.566 984.588 442.791 984.083 443.243C983.588 443.694 983.293 444.302 983.196 445.065H988.613ZM993.512 443.211C993.792 442.598 994.189 442.136 994.705 441.824C995.221 441.502 995.834 441.335 996.543 441.324V442.775C995.672 442.743 994.969 442.969 994.431 443.452C993.894 443.936 993.588 444.586 993.512 445.403V449.901H992.013V441.373H993.512L993.512 443.211Z" fill="#979CB6"/>
<path fill-rule="evenodd" clip-rule="evenodd" d="M1031.01 438.616H1032.55V449.901H1030.98L1024.54 441.163V449.901H1022.98V438.616H1024.55L1031.01 447.37V438.616ZM1039.19 441.324C1040.03 441.324 1040.79 441.507 1041.44 441.873C1042.11 442.238 1042.62 442.748 1043 443.404C1043.37 444.049 1043.56 444.79 1043.56 445.629C1043.56 446.467 1043.37 447.214 1043 447.87C1042.62 448.526 1042.11 449.035 1041.44 449.401C1040.79 449.767 1040.03 449.949 1039.19 449.949C1038.33 449.949 1037.56 449.767 1036.9 449.401C1036.24 449.035 1035.72 448.531 1035.35 447.886C1034.98 447.23 1034.8 446.478 1034.8 445.629C1034.8 444.79 1034.98 444.049 1035.35 443.404C1035.72 442.748 1036.24 442.238 1036.9 441.873C1037.56 441.507 1038.33 441.324 1039.19 441.324ZM1039.19 442.63C1038.62 442.63 1038.13 442.759 1037.69 443.017C1037.25 443.275 1036.92 443.635 1036.67 444.097C1036.44 444.549 1036.31 445.065 1036.31 445.645C1036.31 446.236 1036.44 446.762 1036.67 447.225C1036.92 447.687 1037.25 448.047 1037.69 448.305C1038.13 448.552 1038.62 448.676 1039.19 448.676C1039.73 448.676 1040.22 448.552 1040.66 448.305C1041.09 448.047 1041.43 447.687 1041.67 447.225C1041.92 446.762 1042.04 446.236 1042.04 445.645C1042.04 445.065 1041.92 444.549 1041.67 444.097C1041.43 443.635 1041.09 443.275 1040.66 443.017C1040.22 442.759 1039.73 442.63 1039.19 442.63ZM1043.95 441.373H1045.54L1048.11 448.418L1050.65 441.373H1052.17L1048.85 449.901H1047.29L1043.95 441.373ZM1056.72 441.324C1058.04 441.324 1059.05 441.716 1059.72 442.501C1060.4 443.275 1060.74 444.355 1060.74 445.742C1060.74 445.956 1060.73 446.117 1060.72 446.225H1053.98C1054.1 446.988 1054.41 447.596 1054.94 448.047C1055.46 448.498 1056.1 448.724 1056.87 448.724C1057.37 448.724 1057.84 448.632 1058.27 448.45C1058.71 448.268 1059.09 448.01 1059.41 447.676L1060.23 448.531C1059.81 448.982 1059.31 449.332 1058.72 449.579C1058.13 449.825 1057.47 449.949 1056.75 449.949C1055.91 449.949 1055.17 449.772 1054.51 449.417C1053.87 449.052 1053.36 448.542 1053 447.886C1052.64 447.23 1052.47 446.483 1052.47 445.645C1052.47 444.807 1052.64 444.065 1053 443.42C1053.36 442.764 1053.87 442.254 1054.51 441.889C1055.16 441.513 1055.89 441.324 1056.72 441.324L1056.72 441.324ZM1059.38 445.065C1059.34 444.291 1059.08 443.683 1058.6 443.243C1058.14 442.791 1057.51 442.566 1056.74 442.566C1055.98 442.566 1055.36 442.791 1054.85 443.243C1054.36 443.694 1054.06 444.302 1053.97 445.065H1059.38ZM1073.79 441.324C1074.77 441.324 1075.54 441.62 1076.09 442.211C1076.66 442.803 1076.93 443.609 1076.93 444.629V449.901H1075.42V445.032C1075.42 444.312 1075.22 443.748 1074.82 443.34C1074.43 442.932 1073.9 442.727 1073.21 442.727C1072.41 442.748 1071.77 443.033 1071.31 443.581C1070.84 444.13 1070.61 444.834 1070.61 445.693V449.901H1069.1V445.032C1069.1 444.312 1068.91 443.748 1068.52 443.34C1068.13 442.932 1067.59 442.727 1066.9 442.727C1066.09 442.748 1065.44 443.033 1064.97 443.581C1064.51 444.13 1064.28 444.834 1064.28 445.693V449.901H1062.78V441.373H1064.28V443.162C1064.84 441.958 1065.9 441.346 1067.46 441.324C1068.25 441.324 1068.89 441.513 1069.4 441.889C1069.94 442.264 1070.29 442.791 1070.47 443.469C1071 442.061 1072.1 441.346 1073.79 441.324L1073.79 441.324ZM1084.35 441.324C1085.14 441.324 1085.86 441.507 1086.48 441.873C1087.1 442.238 1087.58 442.748 1087.93 443.404C1088.28 444.06 1088.45 444.812 1088.45 445.661C1088.45 446.499 1088.28 447.246 1087.93 447.902C1087.6 448.547 1087.12 449.052 1086.49 449.417C1085.88 449.772 1085.18 449.949 1084.39 449.949C1083.66 449.949 1083.03 449.799 1082.48 449.498C1081.93 449.197 1081.51 448.767 1081.19 448.208V449.901H1079.69V437.939H1081.19V443.066C1081.51 442.506 1081.93 442.077 1082.46 441.776C1083.02 441.475 1083.64 441.324 1084.35 441.324ZM1084.06 448.644C1084.61 448.644 1085.1 448.515 1085.53 448.257C1085.97 447.999 1086.31 447.639 1086.54 447.176C1086.79 446.714 1086.92 446.193 1086.92 445.613C1086.92 445.043 1086.79 444.528 1086.54 444.065C1086.29 443.603 1085.96 443.243 1085.53 442.985C1085.1 442.727 1084.61 442.598 1084.06 442.598C1083.51 442.598 1083.02 442.727 1082.57 442.985C1082.15 443.243 1081.81 443.603 1081.57 444.065C1081.31 444.528 1081.19 445.043 1081.19 445.613C1081.19 446.204 1081.31 446.73 1081.57 447.193C1081.81 447.644 1082.15 447.999 1082.57 448.257C1083.02 448.515 1083.51 448.644 1084.06 448.644ZM1093.96 441.324C1095.28 441.324 1096.28 441.716 1096.95 442.501C1097.63 443.275 1097.97 444.355 1097.97 445.742C1097.97 445.956 1097.96 446.117 1097.95 446.225H1091.22C1091.33 446.988 1091.65 447.596 1092.17 448.047C1092.69 448.498 1093.33 448.724 1094.1 448.724C1094.6 448.724 1095.07 448.632 1095.5 448.45C1095.94 448.268 1096.33 448.01 1096.65 447.676L1097.47 448.531C1097.05 448.982 1096.55 449.332 1095.95 449.579C1095.36 449.825 1094.7 449.949 1093.99 449.949C1093.15 449.949 1092.4 449.772 1091.74 449.417C1091.1 449.052 1090.59 448.542 1090.23 447.886C1089.88 447.23 1089.7 446.483 1089.7 445.645C1089.7 444.807 1089.88 444.065 1090.23 443.42C1090.59 442.764 1091.1 442.254 1091.74 441.889C1092.39 441.513 1093.12 441.324 1093.96 441.324V441.324ZM1096.62 445.065C1096.57 444.291 1096.32 443.683 1095.84 443.243C1095.37 442.791 1094.74 442.566 1093.97 442.566C1093.21 442.566 1092.59 442.791 1092.08 443.243C1091.59 443.694 1091.3 444.302 1091.2 445.065H1096.62ZM1101.52 443.211C1101.8 442.598 1102.19 442.136 1102.7 441.824C1103.22 441.502 1103.83 441.335 1104.55 441.324V442.775C1103.67 442.743 1102.97 442.969 1102.43 443.452C1101.9 443.936 1101.59 444.586 1101.52 445.403V449.901H1100.01V441.373H1101.52L1101.52 443.211Z" fill="#979CB6"/>
<path fill-rule="evenodd" clip-rule="evenodd" d="M1126.32 438.616C1127.42 438.616 1128.41 438.863 1129.28 439.358C1130.18 439.841 1130.88 440.513 1131.38 441.373C1131.89 442.232 1132.15 443.194 1132.15 444.258C1132.15 445.322 1131.88 446.285 1131.37 447.144C1130.87 448.004 1130.16 448.681 1129.27 449.175C1128.38 449.659 1127.38 449.901 1126.27 449.901H1121.73V438.616H1126.32ZM1126.35 448.498C1127.14 448.498 1127.84 448.316 1128.48 447.95C1129.12 447.585 1129.64 447.08 1130 446.435C1130.37 445.79 1130.56 445.07 1130.56 444.275C1130.56 443.469 1130.37 442.743 1130 442.098C1129.62 441.453 1129.1 440.949 1128.45 440.583C1127.8 440.207 1127.09 440.019 1126.29 440.019H1123.28V448.498L1126.35 448.498ZM1137.63 441.324C1138.95 441.324 1139.94 441.716 1140.63 442.501C1141.3 443.275 1141.64 444.355 1141.64 445.742C1141.64 445.956 1141.64 446.117 1141.63 446.225H1134.89C1135.01 446.988 1135.32 447.596 1135.83 448.047C1136.37 448.498 1137.01 448.724 1137.77 448.724C1138.27 448.724 1138.74 448.632 1139.18 448.45C1139.61 448.268 1139.99 448.01 1140.32 447.676L1141.14 448.531C1140.72 448.982 1140.22 449.332 1139.62 449.579C1139.04 449.825 1138.38 449.949 1137.66 449.949C1136.82 449.949 1136.07 449.772 1135.42 449.417C1134.78 449.052 1134.27 448.542 1133.9 447.886C1133.55 447.23 1133.37 446.483 1133.37 445.645C1133.37 444.807 1133.55 444.065 1133.9 443.42C1134.27 442.764 1134.78 442.254 1135.42 441.889C1136.06 441.513 1136.8 441.324 1137.63 441.324L1137.63 441.324ZM1140.29 445.065C1140.25 444.291 1139.98 443.683 1139.51 443.243C1139.04 442.791 1138.41 442.566 1137.65 442.566C1136.89 442.566 1136.26 442.791 1135.75 443.243C1135.26 443.694 1134.97 444.302 1134.87 445.065H1140.29ZM1149.67 443.646C1148.99 442.99 1148.18 442.662 1147.23 442.662C1146.67 442.662 1146.17 442.786 1145.74 443.033C1145.3 443.28 1144.96 443.63 1144.72 444.081C1144.47 444.533 1144.35 445.053 1144.35 445.645C1144.35 446.236 1144.47 446.757 1144.7 447.209C1144.95 447.66 1145.28 448.015 1145.7 448.273C1146.13 448.52 1146.62 448.644 1147.17 448.644C1147.71 448.644 1148.21 448.552 1148.65 448.369C1149.09 448.187 1149.46 447.923 1149.75 447.58L1150.6 448.45C1150.21 448.934 1149.72 449.304 1149.12 449.562C1148.53 449.82 1147.85 449.949 1147.11 449.949C1146.27 449.949 1145.54 449.767 1144.89 449.401C1144.25 449.035 1143.74 448.531 1143.38 447.886C1143.03 447.23 1142.85 446.483 1142.85 445.645C1142.85 444.807 1143.03 444.06 1143.38 443.404C1143.74 442.748 1144.25 442.238 1144.89 441.873C1145.54 441.507 1146.27 441.324 1147.11 441.324C1147.82 441.324 1148.47 441.437 1149.04 441.663C1149.62 441.878 1150.1 442.195 1150.49 442.614L1149.67 443.646ZM1155.77 441.324C1157.1 441.324 1158.1 441.716 1158.78 442.501C1159.45 443.275 1159.79 444.355 1159.79 445.742C1159.79 445.956 1159.78 446.117 1159.77 446.225H1153.03C1153.15 446.988 1153.48 447.596 1153.99 448.047C1154.51 448.498 1155.16 448.724 1155.92 448.724C1156.43 448.724 1156.89 448.632 1157.32 448.45C1157.77 448.268 1158.15 448.01 1158.47 447.676L1159.29 448.531C1158.88 448.982 1158.37 449.332 1157.78 449.579C1157.18 449.825 1156.53 449.949 1155.81 449.949C1154.97 449.949 1154.22 449.772 1153.57 449.417C1152.92 449.052 1152.42 448.542 1152.06 447.886C1151.7 447.23 1151.52 446.483 1151.52 445.645C1151.52 444.807 1151.7 444.065 1152.06 443.42C1152.42 442.764 1152.92 442.254 1153.57 441.889C1154.21 441.513 1154.95 441.324 1155.77 441.324L1155.77 441.324ZM1158.43 445.065C1158.39 444.291 1158.14 443.683 1157.67 443.243C1157.19 442.791 1156.57 442.566 1155.79 442.566C1155.04 442.566 1154.41 442.791 1153.91 443.243C1153.42 443.694 1153.11 444.302 1153.02 445.065H1158.43ZM1172.85 441.324C1173.83 441.324 1174.59 441.62 1175.16 442.211C1175.71 442.803 1176 443.609 1176 444.629V449.901H1174.47V445.032C1174.47 444.312 1174.28 443.748 1173.88 443.34C1173.5 442.932 1172.95 442.727 1172.27 442.727C1171.46 442.748 1170.83 443.033 1170.36 443.581C1169.9 444.13 1169.68 444.834 1169.68 445.693V449.901H1168.16V445.032C1168.16 444.312 1167.96 443.748 1167.58 443.34C1167.19 442.932 1166.64 442.727 1165.95 442.727C1165.14 442.748 1164.5 443.033 1164.04 443.581C1163.57 444.13 1163.34 444.834 1163.34 445.693V449.901H1161.84V441.373H1163.34V443.162C1163.89 441.958 1164.95 441.346 1166.51 441.324C1167.3 441.324 1167.94 441.513 1168.47 441.889C1168.99 442.264 1169.35 442.791 1169.53 443.469C1170.05 442.061 1171.16 441.346 1172.85 441.324V441.324ZM1183.41 441.324C1184.21 441.324 1184.91 441.507 1185.54 441.873C1186.16 442.238 1186.65 442.748 1186.99 443.404C1187.33 444.06 1187.5 444.812 1187.5 445.661C1187.5 446.499 1187.33 447.246 1186.99 447.902C1186.66 448.547 1186.17 449.052 1185.55 449.417C1184.94 449.772 1184.24 449.949 1183.44 449.949C1182.72 449.949 1182.08 449.799 1181.54 449.498C1180.99 449.197 1180.56 448.767 1180.25 448.208V449.901H1178.75V437.939H1180.25V443.066C1180.56 442.506 1180.98 442.077 1181.52 441.776C1182.07 441.475 1182.7 441.324 1183.41 441.324ZM1183.12 448.644C1183.66 448.644 1184.16 448.515 1184.58 448.257C1185.02 447.999 1185.37 447.639 1185.6 447.176C1185.85 446.714 1185.97 446.193 1185.97 445.613C1185.97 445.043 1185.85 444.528 1185.6 444.065C1185.36 443.603 1185.01 443.243 1184.58 442.985C1184.16 442.727 1183.66 442.598 1183.12 442.598C1182.56 442.598 1182.07 442.727 1181.64 442.985C1181.2 443.243 1180.86 443.603 1180.62 444.065C1180.37 444.528 1180.25 445.043 1180.25 445.613C1180.25 446.204 1180.37 446.73 1180.62 447.193C1180.86 447.644 1181.2 447.999 1181.64 448.257C1182.07 448.515 1182.56 448.644 1183.12 448.644ZM1193.01 441.324C1194.33 441.324 1195.33 441.716 1196.01 442.501C1196.69 443.275 1197.02 444.355 1197.02 445.742C1197.02 445.956 1197.02 446.117 1197.01 446.225H1190.27C1190.39 446.988 1190.71 447.596 1191.22 448.047C1191.74 448.498 1192.39 448.724 1193.15 448.724C1193.66 448.724 1194.13 448.632 1194.56 448.45C1195 448.268 1195.38 448.01 1195.7 447.676L1196.53 448.531C1196.11 448.982 1195.6 449.332 1195.01 449.579C1194.42 449.825 1193.76 449.949 1193.04 449.949C1192.21 449.949 1191.46 449.772 1190.81 449.417C1190.16 449.052 1189.65 448.542 1189.29 447.886C1188.93 447.23 1188.75 446.483 1188.75 445.645C1188.75 444.807 1188.93 444.065 1189.29 443.42C1189.65 442.764 1190.16 442.254 1190.81 441.889C1191.45 441.513 1192.19 441.324 1193.01 441.324L1193.01 441.324ZM1195.67 445.065C1195.63 444.291 1195.37 443.683 1194.9 443.243C1194.42 442.791 1193.8 442.566 1193.02 442.566C1192.28 442.566 1191.64 442.791 1191.14 443.243C1190.65 443.694 1190.35 444.302 1190.25 445.065H1195.67ZM1200.57 443.211C1200.85 442.598 1201.25 442.136 1201.76 441.824C1202.28 441.502 1202.89 441.335 1203.6 441.324V442.775C1202.73 442.743 1202.03 442.969 1201.49 443.452C1200.95 443.936 1200.64 444.586 1200.57 445.403V449.901H1199.07V441.373H1200.57L1200.57 443.211Z" fill="#979CB6"/>
<path fill-rule="evenodd" clip-rule="evenodd" d="M11.9076 382.127C13.4226 382.127 14.5886 382.621 15.4056 383.61C16.2226 384.588 16.6306 385.996 16.6306 387.834C16.6306 389.672 16.2226 391.085 15.4056 392.074C14.5886 393.062 13.4226 393.557 11.9076 393.557C10.3806 393.557 9.20959 393.062 8.39259 392.074C7.58659 391.085 7.18359 389.672 7.18359 387.834C7.18359 385.996 7.58659 384.588 8.39259 383.61C9.20959 382.621 10.3806 382.127 11.9076 382.127ZM11.9076 383.352C9.82259 383.352 8.77959 384.846 8.77959 387.834C8.77959 389.317 9.04259 390.434 9.56959 391.187C10.0966 391.94 10.8756 392.315 11.9076 392.315C12.9386 392.315 13.7186 391.94 14.2446 391.187C14.7716 390.434 15.0346 389.317 15.0346 387.834C15.0346 384.846 13.9926 383.352 11.9076 383.352ZM21.1116 382.159C22.0246 382.159 22.7396 382.454 23.2556 383.046C23.7716 383.637 24.0296 384.459 24.0296 385.512C24.0296 386.565 23.7716 387.393 23.2556 387.995C22.7396 388.586 22.0246 388.882 21.1116 388.882C20.1976 388.882 19.4836 388.586 18.9676 387.995C18.4516 387.393 18.1936 386.565 18.1936 385.512C18.1936 384.459 18.4516 383.637 18.9676 383.046C19.4836 382.454 20.1976 382.159 21.1116 382.159ZM21.1116 383.062C20.5096 383.062 20.0416 383.276 19.7086 383.707C19.3866 384.126 19.2256 384.727 19.2256 385.512C19.2256 386.297 19.3866 386.904 19.7086 387.334C20.0416 387.753 20.5096 387.963 21.1116 387.963C21.7136 387.963 22.1756 387.753 22.4976 387.334C22.8306 386.904 22.9976 386.297 22.9976 385.512C22.9976 384.727 22.8306 384.126 22.4976 383.707C22.1756 383.276 21.7136 383.062 21.1116 383.062ZM28.7206 382.191H29.9456L21.5786 393.476H20.3376L28.7206 382.191ZM29.3496 386.802C30.2626 386.802 30.9776 387.097 31.4936 387.689C32.0096 388.28 32.2676 389.102 32.2676 390.155C32.2676 391.208 32.0096 392.036 31.4936 392.638C30.9776 393.229 30.2626 393.525 29.3496 393.525C28.4356 393.525 27.7216 393.229 27.2056 392.638C26.6896 392.036 26.4316 391.208 26.4316 390.155C26.4316 389.102 26.6896 388.28 27.2056 387.689C27.7216 387.097 28.4356 386.802 29.3496 386.802ZM29.3496 387.705C28.7476 387.705 28.2796 387.919 27.9466 388.35C27.6246 388.769 27.4636 389.37 27.4636 390.155C27.4636 390.94 27.6246 391.547 27.9466 391.977C28.2796 392.396 28.7476 392.606 29.3496 392.606C29.9516 392.606 30.4136 392.396 30.7356 391.977C31.0686 391.547 31.2356 390.94 31.2356 390.155C31.2356 389.37 31.0686 388.769 30.7356 388.35C30.4136 387.919 29.9516 387.705 29.3496 387.705Z" fill="#979CB6"/>
<path fill-rule="evenodd" clip-rule="evenodd" d="M16.9827 342.702V344.105H8.82469V342.912L13.1937 338.381C13.6667 337.909 14.0427 337.441 14.3227 336.979C14.6017 336.506 14.7417 336.097 14.7417 335.754C14.7417 335.249 14.5427 334.851 14.1447 334.561C13.7587 334.271 13.2207 334.125 12.5327 334.125C12.0067 334.125 11.4587 334.249 10.8887 334.496C10.3187 334.733 9.80269 335.065 9.34069 335.496L8.67969 334.319C9.29269 333.824 9.94269 333.443 10.6307 333.174C11.3297 332.895 12.0277 332.755 12.7267 332.755C13.8227 332.755 14.6987 333.008 15.3547 333.513C16.0207 334.018 16.3537 334.695 16.3537 335.544C16.3537 336.544 15.6547 337.769 14.2577 339.22L10.8567 342.702L16.9827 342.702ZM21.1117 332.787C22.0247 332.787 22.7397 333.083 23.2557 333.674C23.7717 334.265 24.0297 335.088 24.0297 336.141C24.0297 337.194 23.7717 338.022 23.2557 338.623C22.7397 339.215 22.0247 339.51 21.1117 339.51C20.1977 339.51 19.4837 339.215 18.9677 338.623C18.4517 338.022 18.1937 337.194 18.1937 336.141C18.1937 335.088 18.4517 334.265 18.9677 333.674C19.4837 333.083 20.1977 332.787 21.1117 332.787ZM21.1117 333.69C20.5097 333.69 20.0417 333.905 19.7087 334.335C19.3867 334.754 19.2257 335.356 19.2257 336.141C19.2257 336.926 19.3867 337.532 19.7087 337.962C20.0417 338.381 20.5097 338.591 21.1117 338.591C21.7137 338.591 22.1757 338.381 22.4977 337.962C22.8307 337.532 22.9977 336.926 22.9977 336.141C22.9977 335.356 22.8307 334.754 22.4977 334.335C22.1757 333.905 21.7137 333.69 21.1117 333.69ZM28.7207 332.82H29.9457L21.5787 344.105H20.3377L28.7207 332.82ZM29.3497 337.43C30.2627 337.43 30.9777 337.726 31.4937 338.317C32.0097 338.908 32.2677 339.731 32.2677 340.784C32.2677 341.836 32.0097 342.665 31.4937 343.266C30.9777 343.858 30.2627 344.153 29.3497 344.153C28.4357 344.153 27.7217 343.858 27.2057 343.266C26.6897 342.665 26.4317 341.836 26.4317 340.784C26.4317 339.731 26.6897 338.908 27.2057 338.317C27.7217 337.726 28.4357 337.43 29.3497 337.43ZM29.3497 338.333C28.7477 338.333 28.2797 338.548 27.9467 338.978C27.6247 339.397 27.4637 339.999 27.4637 340.784C27.4637 341.568 27.6247 342.175 27.9467 342.605C28.2797 343.024 28.7477 343.234 29.3497 343.234C29.9517 343.234 30.4137 343.024 30.7357 342.605C31.0687 342.175 31.2357 341.568 31.2357 340.784C31.2357 339.999 31.0687 339.397 30.7357 338.978C30.4137 338.548 29.9517 338.333 29.3497 338.333Z" fill="#979CB6"/>
<path fill-rule="evenodd" clip-rule="evenodd" d="M17.0516 290.445V291.831H15.3106V294.733H13.8596V291.831H8.26562V290.638L12.2956 283.448H13.8116L9.94264 290.445H13.8596V287.559H15.3106V290.445H17.0516ZM21.1116 283.416C22.0246 283.416 22.7396 283.711 23.2556 284.302C23.7716 284.894 24.0296 285.716 24.0296 286.769C24.0296 287.822 23.7716 288.65 23.2556 289.252C22.7396 289.843 22.0246 290.138 21.1116 290.138C20.1976 290.138 19.4836 289.843 18.9676 289.252C18.4516 288.65 18.1936 287.822 18.1936 286.769C18.1936 285.716 18.4516 284.894 18.9676 284.302C19.4836 283.711 20.1976 283.416 21.1116 283.416ZM21.1116 284.318C20.5096 284.318 20.0416 284.533 19.7086 284.963C19.3866 285.383 19.2256 285.984 19.2256 286.769C19.2256 287.554 19.3866 288.16 19.7086 288.591C20.0416 289.01 20.5096 289.219 21.1116 289.219C21.7136 289.219 22.1756 289.01 22.4976 288.591C22.8306 288.16 22.9976 287.554 22.9976 286.769C22.9976 285.984 22.8306 285.383 22.4976 284.963C22.1756 284.533 21.7136 284.318 21.1116 284.318ZM28.7206 283.448H29.9456L21.5786 294.733H20.3376L28.7206 283.448ZM29.3496 288.059C30.2626 288.059 30.9776 288.354 31.4936 288.945C32.0096 289.537 32.2676 290.359 32.2676 291.412C32.2676 292.465 32.0096 293.293 31.4936 293.895C30.9776 294.486 30.2626 294.781 29.3496 294.781C28.4356 294.781 27.7216 294.486 27.2056 293.895C26.6896 293.293 26.4316 292.465 26.4316 291.412C26.4316 290.359 26.6896 289.537 27.2056 288.945C27.7216 288.354 28.4356 288.059 29.3496 288.059ZM29.3496 288.961C28.7476 288.961 28.2796 289.176 27.9466 289.606C27.6246 290.025 27.4636 290.627 27.4636 291.412C27.4636 292.197 27.6246 292.803 27.9466 293.234C28.2796 293.653 28.7476 293.862 29.3496 293.862C29.9516 293.862 30.4136 293.653 30.7356 293.234C31.0686 292.803 31.2356 292.197 31.2356 291.412C31.2356 290.627 31.0686 290.025 30.7356 289.606C30.4136 289.176 29.9516 288.961 29.3496 288.961Z" fill="#979CB6"/>
<path fill-rule="evenodd" clip-rule="evenodd" d="M15.7019 236.011C15.3469 235.785 14.9389 235.613 14.4759 235.495C14.0249 235.366 13.5789 235.301 13.1379 235.301C12.0529 235.301 11.2199 235.677 10.6399 236.43C10.0589 237.183 9.76892 238.214 9.76892 239.525C9.76892 239.73 9.77392 239.885 9.78492 239.993C10.0649 239.38 10.4839 238.913 11.0429 238.59C11.6009 238.268 12.2729 238.107 13.0579 238.107C14.1859 238.107 15.0729 238.429 15.7179 239.074C16.3729 239.719 16.7009 240.589 16.7009 241.686C16.7009 242.448 16.5399 243.115 16.2179 243.685C15.8949 244.244 15.4379 244.679 14.8469 244.99C14.2559 245.292 13.5679 245.442 12.7839 245.442C11.8489 245.442 11.0369 245.227 10.3489 244.797C9.67192 244.367 9.15092 243.744 8.78592 242.927C8.43092 242.1 8.25391 241.11 8.25391 239.961C8.25391 238.768 8.44691 237.725 8.83391 236.833C9.23191 235.93 9.78491 235.237 10.4939 234.753C11.2139 234.259 12.0579 234.012 13.0259 234.012C13.5629 234.012 14.1269 234.087 14.7179 234.237C15.3199 234.388 15.8519 234.587 16.3139 234.834L15.7019 236.011ZM12.7839 239.348C12.2359 239.348 11.7569 239.461 11.3489 239.687C10.9399 239.901 10.6229 240.191 10.3979 240.557C10.1829 240.923 10.0809 241.32 10.0909 241.75C10.0809 242.126 10.1719 242.492 10.3659 242.846C10.5589 243.201 10.8489 243.496 11.2359 243.733C11.6339 243.97 12.1169 244.088 12.6869 244.088C13.4609 244.088 14.0789 243.873 14.5409 243.443C15.0139 243.013 15.2499 242.422 15.2499 241.669C15.2499 240.96 15.0249 240.396 14.5729 239.977C14.1319 239.558 13.5359 239.348 12.7839 239.348H12.7839ZM21.1139 234.044C22.0269 234.044 22.7419 234.339 23.2579 234.931C23.7739 235.522 24.0319 236.344 24.0319 237.397C24.0319 238.45 23.7739 239.278 23.2579 239.88C22.7419 240.471 22.0269 240.767 21.1139 240.767C20.1999 240.767 19.4859 240.471 18.9699 239.88C18.4539 239.278 18.1959 238.45 18.1959 237.397C18.1959 236.344 18.4539 235.522 18.9699 234.931C19.4859 234.339 20.1999 234.044 21.1139 234.044ZM21.1139 234.947C20.5119 234.947 20.0439 235.161 19.7109 235.592C19.3889 236.011 19.2279 236.612 19.2279 237.397C19.2279 238.182 19.3889 238.789 19.7109 239.219C20.0439 239.638 20.5119 239.848 21.1139 239.848C21.7159 239.848 22.1779 239.638 22.4999 239.219C22.8329 238.789 22.9999 238.182 22.9999 237.397C22.9999 236.612 22.8329 236.011 22.4999 235.592C22.1779 235.161 21.7159 234.947 21.1139 234.947ZM28.7229 234.076H29.9479L21.5809 245.361H20.3399L28.7229 234.076ZM29.3519 238.687C30.2649 238.687 30.9799 238.982 31.4959 239.574C32.0119 240.165 32.2699 240.987 32.2699 242.04C32.2699 243.093 32.0119 243.921 31.4959 244.523C30.9799 245.114 30.2649 245.41 29.3519 245.41C28.4379 245.41 27.7239 245.114 27.2079 244.523C26.6919 243.921 26.4339 243.093 26.4339 242.04C26.4339 240.987 26.6919 240.165 27.2079 239.574C27.7239 238.982 28.4379 238.687 29.3519 238.687ZM29.3519 239.59C28.7499 239.59 28.2819 239.804 27.9489 240.235C27.6269 240.654 27.4659 241.255 27.4659 242.04C27.4659 242.825 27.6269 243.432 27.9489 243.862C28.2819 244.281 28.7499 244.491 29.3519 244.491C29.9539 244.491 30.4159 244.281 30.7379 243.862C31.0709 243.432 31.2379 242.825 31.2379 242.04C31.2379 241.255 31.0709 240.654 30.7379 240.235C30.4159 239.804 29.9539 239.59 29.3519 239.59Z" fill="#979CB6"/>
<path fill-rule="evenodd" clip-rule="evenodd" d="M12.4267 184.64C13.5658 184.64 14.4627 184.898 15.1187 185.414C15.7737 185.919 16.1017 186.618 16.1017 187.51C16.1017 188.069 15.9457 188.563 15.6347 188.993C15.3337 189.412 14.9087 189.734 14.3607 189.96C15.0807 190.186 15.6447 190.552 16.0537 191.056C16.4617 191.551 16.6667 192.142 16.6667 192.83C16.6667 193.829 16.2847 194.619 15.5217 195.2C14.7697 195.78 13.7428 196.07 12.4427 196.07C11.1417 196.07 10.1098 195.785 9.34675 195.216C8.59475 194.635 8.21875 193.85 8.21875 192.862C8.21875 192.164 8.42875 191.561 8.84775 191.056C9.26675 190.552 9.84675 190.186 10.5887 189.96C10.0078 189.713 9.55675 189.38 9.23475 188.961C8.92275 188.53 8.76675 188.031 8.76675 187.461C8.76675 186.591 9.09475 185.903 9.74975 185.398C10.4058 184.893 11.2977 184.64 12.4267 184.64V184.64ZM12.4427 185.769C11.7008 185.769 11.1207 185.93 10.7018 186.252C10.2927 186.575 10.0887 187.021 10.0887 187.59C10.0887 188.171 10.2927 188.622 10.7018 188.945C11.1207 189.267 11.7008 189.428 12.4427 189.428C13.1838 189.428 13.7587 189.267 14.1678 188.945C14.5757 188.622 14.7798 188.171 14.7798 187.59C14.7798 187.021 14.5757 186.575 14.1678 186.252C13.7587 185.93 13.1838 185.769 12.4427 185.769ZM12.4267 190.653C11.5668 190.653 10.8947 190.836 10.4107 191.202C9.92775 191.556 9.68574 192.051 9.68574 192.685C9.68574 193.362 9.92774 193.889 10.4107 194.265C10.8947 194.64 11.5717 194.829 12.4427 194.829C13.3028 194.829 13.9738 194.64 14.4577 194.265C14.9517 193.889 15.1997 193.367 15.1997 192.701C15.1997 192.067 14.9517 191.567 14.4577 191.202C13.9738 190.836 13.2968 190.653 12.4267 190.653V190.653ZM21.1118 184.672C22.0247 184.672 22.7397 184.968 23.2558 185.559C23.7717 186.151 24.0298 186.973 24.0298 188.026C24.0298 189.079 23.7717 189.907 23.2558 190.508C22.7397 191.1 22.0248 191.395 21.1118 191.395C20.1978 191.395 19.4837 191.1 18.9677 190.508C18.4518 189.907 18.1938 189.079 18.1938 188.026C18.1938 186.973 18.4518 186.151 18.9677 185.559C19.4838 184.968 20.1978 184.672 21.1118 184.672ZM21.1118 185.575C20.5098 185.575 20.0418 185.79 19.7088 186.22C19.3868 186.639 19.2258 187.241 19.2258 188.026C19.2258 188.811 19.3868 189.417 19.7088 189.847C20.0418 190.267 20.5098 190.476 21.1118 190.476C21.7138 190.476 22.1758 190.267 22.4978 189.847C22.8308 189.417 22.9978 188.811 22.9978 188.026C22.9978 187.241 22.8308 186.639 22.4978 186.22C22.1758 185.79 21.7138 185.575 21.1118 185.575ZM28.7207 184.705H29.9458L21.5788 195.99H20.3378L28.7207 184.705ZM29.3497 189.315C30.2628 189.315 30.9778 189.611 31.4937 190.202C32.0098 190.793 32.2677 191.616 32.2677 192.669C32.2677 193.721 32.0097 194.55 31.4937 195.151C30.9778 195.743 30.2628 196.038 29.3497 196.038C28.4357 196.038 27.7218 195.743 27.2057 195.151C26.6897 194.55 26.4317 193.721 26.4317 192.669C26.4317 191.616 26.6897 190.793 27.2057 190.202C27.7218 189.611 28.4357 189.315 29.3497 189.315ZM29.3498 190.218C28.7477 190.218 28.2798 190.433 27.9468 190.863C27.6248 191.282 27.4638 191.884 27.4638 192.669C27.4638 193.453 27.6248 194.06 27.9468 194.49C28.2798 194.909 28.7477 195.119 29.3498 195.119C29.9518 195.119 30.4138 194.909 30.7358 194.49C31.0688 194.06 31.2358 193.453 31.2358 192.669C31.2358 191.884 31.0688 191.282 30.7358 190.863C30.4137 190.433 29.9518 190.218 29.3498 190.218Z" fill="#979CB6"/>
<path fill-rule="evenodd" clip-rule="evenodd" d="M0.21875 135.333H4.32975V146.618H2.78275V136.736H0.21875V135.333ZM11.9097 135.268C13.4248 135.268 14.5907 135.763 15.4078 136.752C16.2248 137.73 16.6328 139.138 16.6328 140.975C16.6328 142.813 16.2248 144.227 15.4078 145.215C14.5907 146.204 13.4248 146.699 11.9097 146.699C10.3828 146.699 9.21175 146.204 8.39475 145.215C7.58875 144.227 7.18575 142.813 7.18575 140.975C7.18575 139.138 7.58875 137.73 8.39475 136.752C9.21175 135.763 10.3828 135.268 11.9097 135.268V135.268ZM11.9097 136.494C9.82475 136.494 8.78175 137.988 8.78175 140.975C8.78175 142.459 9.04475 143.576 9.57175 144.329C10.0988 145.081 10.8777 145.457 11.9097 145.457C12.9408 145.457 13.7207 145.081 14.2468 144.329C14.7738 143.576 15.0367 142.459 15.0367 140.975C15.0367 137.988 13.9948 136.494 11.9097 136.494ZM21.1138 135.301C22.0268 135.301 22.7418 135.596 23.2578 136.187C23.7738 136.779 24.0318 137.601 24.0318 138.654C24.0318 139.707 23.7738 140.535 23.2578 141.137C22.7418 141.728 22.0268 142.023 21.1138 142.023C20.1998 142.023 19.4858 141.728 18.9698 141.137C18.4538 140.535 18.1958 139.707 18.1958 138.654C18.1958 137.601 18.4538 136.779 18.9698 136.187C19.4858 135.596 20.1998 135.301 21.1138 135.301ZM21.1138 136.204C20.5118 136.204 20.0438 136.418 19.7108 136.848C19.3888 137.268 19.2278 137.869 19.2278 138.654C19.2278 139.439 19.3888 140.045 19.7108 140.476C20.0438 140.895 20.5118 141.104 21.1138 141.104C21.7157 141.104 22.1778 140.895 22.4998 140.476C22.8328 140.045 22.9998 139.439 22.9998 138.654C22.9998 137.869 22.8328 137.268 22.4998 136.848C22.1778 136.418 21.7157 136.204 21.1138 136.204ZM28.7227 135.333H29.9478L21.5808 146.618H20.3398L28.7227 135.333ZM29.3517 139.944C30.2648 139.944 30.9798 140.239 31.4958 140.83C32.0118 141.422 32.2697 142.244 32.2697 143.297C32.2697 144.35 32.0117 145.178 31.4958 145.78C30.9798 146.371 30.2648 146.666 29.3517 146.666C28.4377 146.666 27.7238 146.371 27.2078 145.78C26.6917 145.178 26.4338 144.35 26.4338 143.297C26.4338 142.244 26.6917 141.422 27.2078 140.83C27.7238 140.239 28.4377 139.944 29.3517 139.944ZM29.3517 140.846C28.7497 140.846 28.2818 141.061 27.9487 141.491C27.6268 141.91 27.4657 142.512 27.4657 143.297C27.4657 144.082 27.6268 144.688 27.9487 145.119C28.2818 145.538 28.7497 145.747 29.3517 145.747C29.9538 145.747 30.4158 145.538 30.7377 145.119C31.0708 144.688 31.2377 144.082 31.2377 143.297C31.2377 142.512 31.0708 141.91 30.7377 141.491C30.4157 141.061 29.9538 140.846 29.3517 140.846Z" fill="#979CB6"/>
<path fill-rule="evenodd" clip-rule="evenodd" d="M2.35938 85.9609H6.47038V97.2461H4.92337V87.3638H2.35938V85.9609ZM16.9844 95.8442V97.2461H8.82636V96.0532L13.1954 91.523C13.6684 91.0508 14.0444 90.583 14.3244 90.1211C14.6034 89.648 14.7434 89.2388 14.7434 88.895C14.7434 88.3911 14.5444 87.9932 14.1464 87.7022C13.7604 87.4121 13.2224 87.2671 12.5344 87.2671C12.0084 87.2671 11.4604 87.3911 10.8904 87.6382C10.3204 87.875 9.80437 88.207 9.34237 88.6372L8.68137 87.4609C9.29436 86.9658 9.94437 86.585 10.6324 86.3159C11.3314 86.0371 12.0294 85.897 12.7284 85.897C13.8244 85.897 14.7004 86.1499 15.3564 86.6548C16.0224 87.1592 16.3554 87.8359 16.3554 88.686C16.3554 89.6851 15.6564 90.9111 14.2594 92.3608L10.8584 95.8442L16.9844 95.8442ZM21.1134 85.9292C22.0264 85.9292 22.7414 86.2241 23.2574 86.8159C23.7734 87.4072 24.0314 88.229 24.0314 89.2822C24.0314 90.335 23.7734 91.1631 23.2574 91.7651C22.7414 92.356 22.0264 92.6519 21.1134 92.6519C20.1994 92.6519 19.4854 92.356 18.9694 91.7651C18.4534 91.1631 18.1954 90.335 18.1954 89.2822C18.1954 88.229 18.4534 87.4072 18.9694 86.8159C19.4854 86.2241 20.1994 85.9292 21.1134 85.9292ZM21.1134 86.832C20.5114 86.832 20.0434 87.0459 19.7104 87.4771C19.3884 87.896 19.2274 88.4971 19.2274 89.2822C19.2274 90.0669 19.3884 90.6738 19.7104 91.104C20.0434 91.523 20.5114 91.7329 21.1134 91.7329C21.7154 91.7329 22.1774 91.523 22.4994 91.104C22.8324 90.6738 22.9994 90.0669 22.9994 89.2822C22.9994 88.4971 22.8324 87.896 22.4994 87.4771C22.1774 87.0459 21.7154 86.832 21.1134 86.832ZM28.7224 85.9609H29.9474L21.5804 97.2461H20.3394L28.7224 85.9609ZM29.3514 90.5718C30.2644 90.5718 30.9794 90.8672 31.4954 91.459C32.0114 92.0498 32.2694 92.8721 32.2694 93.9248C32.2694 94.978 32.0114 95.8062 31.4954 96.4082C30.9794 96.999 30.2644 97.2949 29.3514 97.2949C28.4374 97.2949 27.7234 96.999 27.2074 96.4082C26.6914 95.8062 26.4334 94.978 26.4334 93.9248C26.4334 92.8721 26.6914 92.0498 27.2074 91.459C27.7234 90.8672 28.4374 90.5718 29.3514 90.5718ZM29.3514 91.4751C28.7494 91.4751 28.2814 91.689 27.9484 92.1201C27.6264 92.5391 27.4654 93.1401 27.4654 93.9248C27.4654 94.71 27.6264 95.3169 27.9484 95.7471C28.2814 96.166 28.7494 96.376 29.3514 96.376C29.9534 96.376 30.4154 96.166 30.7374 95.7471C31.0704 95.3169 31.2374 94.71 31.2374 93.9248C31.2374 93.1401 31.0704 92.5391 30.7374 92.1201C30.4154 91.689 29.9534 91.4751 29.3514 91.4751Z" fill="#979CB6"/>
<path fill-rule="evenodd" clip-rule="evenodd" d="M2.15625 36.5898H6.26725V47.875H4.71925V37.9922H2.15625V36.5898ZM17.0542 43.5859V44.9731H15.3132V47.875H13.8622V44.9731H8.26825V43.7798L12.2983 36.5898H13.8143L9.94526 43.5859H13.8622V40.7012H15.3132V43.5859H17.0542ZM21.1143 36.5571C22.0273 36.5571 22.7423 36.853 23.2583 37.4438C23.7743 38.0352 24.0323 38.8569 24.0323 39.9111C24.0323 40.9639 23.7743 41.792 23.2583 42.3931C22.7423 42.9839 22.0273 43.2798 21.1143 43.2798C20.2003 43.2798 19.4862 42.9839 18.9703 42.3931C18.4543 41.792 18.1963 40.9639 18.1963 39.9111C18.1963 38.8569 18.4543 38.0352 18.9703 37.4438C19.4863 36.853 20.2003 36.5571 21.1143 36.5571ZM21.1143 37.46C20.5123 37.46 20.0443 37.6748 19.7113 38.105C19.3892 38.5239 19.2283 39.126 19.2283 39.9111C19.2283 40.6948 19.3893 41.3018 19.7113 41.7319C20.0443 42.1518 20.5123 42.3608 21.1143 42.3608C21.7162 42.3608 22.1783 42.1519 22.5002 41.7319C22.8333 41.3017 23.0002 40.6948 23.0002 39.9111C23.0002 39.126 22.8333 38.5239 22.5002 38.105C22.1783 37.6748 21.7162 37.46 21.1143 37.46ZM28.7232 36.5898H29.9483L21.5813 47.875H20.3403L28.7232 36.5898ZM29.3522 41.2002C30.2653 41.2002 30.9803 41.4961 31.4963 42.0869C32.0123 42.6782 32.2703 43.5 32.2703 44.5542C32.2703 45.6069 32.0122 46.4341 31.4963 47.0361C30.9803 47.627 30.2653 47.9229 29.3522 47.9229C28.4382 47.9229 27.7243 47.627 27.2083 47.0361C26.6922 46.4341 26.4342 45.6069 26.4342 44.5542C26.4342 43.5 26.6922 42.6782 27.2083 42.0869C27.7243 41.4961 28.4382 41.2002 29.3522 41.2002ZM29.3522 42.103C28.7502 42.103 28.2823 42.3179 27.9492 42.748C27.6273 43.167 27.4662 43.769 27.4662 44.5542C27.4662 45.3379 27.6273 45.9448 27.9492 46.375C28.2823 46.7939 28.7502 47.0039 29.3522 47.0039C29.9543 47.0039 30.4163 46.7939 30.7382 46.375C31.0713 45.9448 31.2382 45.3379 31.2382 44.5542C31.2382 43.769 31.0713 43.167 30.7382 42.748C30.4162 42.3179 29.9543 42.103 29.3522 42.103Z" fill="#979CB6"/>
<defs>
<linearGradient id="paint0_linear_1014_8" x1="619.345" y1="702.471" x2="619.345" y2="347.301" gradientUnits="userSpaceOnUse">
<stop offset="0.124432" stop-color="#5FAC9F" stop-opacity="0"/>
<stop offset="0.33817" stop-color="#5FAC9F" stop-opacity="0.2"/>
</linearGradient>
</defs>
</svg>
