<svg width="74" height="26" viewBox="0 0 74 26" fill="none" xmlns="http://www.w3.org/2000/svg">
<path fill-rule="evenodd" clip-rule="evenodd" d="M63.6183 17.3521C61.5742 17.3521 59.9142 19.006 59.9142 21.052C59.9142 23.099 61.5742 24.756 63.6183 24.756C65.6553 24.756 67.3213 23.099 67.3213 21.052C67.3213 19.009 65.6613 17.3521 63.6183 17.3521ZM63.6152 22.673C62.7202 22.673 61.9873 21.947 61.9873 21.048C61.9873 20.158 62.7133 19.4251 63.6152 19.4251C64.5053 19.4251 65.2412 20.151 65.2412 21.048C65.2412 21.947 64.5122 22.673 63.6152 22.673ZM54.9743 17.3521C52.9353 17.3521 51.2743 19.006 51.2743 21.052C51.2743 23.099 52.9313 24.756 54.9743 24.756C57.0182 24.756 58.6782 23.099 58.6782 21.052C58.6753 19.009 57.0182 17.3521 54.9743 17.3521ZM54.9743 22.673C54.0842 22.673 53.3512 21.947 53.3512 21.048C53.3512 20.158 54.0802 19.4251 54.9743 19.4251C55.8722 19.4251 56.5973 20.151 56.5973 21.048C56.5973 21.947 55.8693 22.673 54.9743 22.673ZM46.2152 17.3521C44.1713 17.3521 42.5112 19.006 42.5112 21.052C42.5112 23.099 44.1682 24.756 46.2152 24.756C48.2533 24.756 49.9153 23.099 49.9153 21.052C49.9153 19.009 48.2583 17.3521 46.2152 17.3521ZM46.2152 22.673C45.3202 22.673 44.5823 21.947 44.5823 21.048C44.5823 20.158 45.3103 19.4251 46.2152 19.4251C47.1052 19.4251 47.8383 20.151 47.8383 21.048C47.8383 21.947 47.1123 22.673 46.2152 22.673ZM8.66419 4.271C8.66419 4.271 10.8693 2.27002 14.8643 0.469972V4.271H8.66419ZM15.3032 0.223022V5.10803H14.9933V19.192V20.196H41.7412C42.1963 18.116 44.0503 16.553 46.2552 16.553C48.2942 16.553 50.0162 17.868 50.6443 19.692C51.2653 17.871 52.9902 16.553 55.0222 16.553C56.9952 16.553 58.6753 17.79 59.3462 19.5341C60.0132 17.79 61.6923 16.553 63.6703 16.553C65.8802 16.553 67.7412 18.116 68.1902 20.196H71.9972V15.644H73.1813V0.223022L15.3032 0.223022ZM71.3722 17.95H70.3722V15.646H71.3722V17.95ZM3.01819 19.7061C2.96228 19.965 2.92627 20.236 2.92627 20.51C2.92627 20.7419 2.9552 20.965 3.0022 21.1851H0.991211V19.7061L3.01819 19.7061ZM13.0303 19.7061H14.5792V21.183H13.0542C13.0833 20.965 13.1083 20.739 13.1083 20.51C13.1062 20.233 13.0733 19.963 13.0303 19.7061H13.0303ZM41.6853 20.51C41.6563 20.731 41.6343 20.957 41.6343 21.1851C41.6343 21.3261 41.6453 21.457 41.6532 21.5971H14.9962V20.51H41.6853ZM68.2443 20.51H72.4053V21.594H68.2753C68.2863 21.457 68.2972 21.323 68.2972 21.1851C68.2972 20.957 68.2753 20.731 68.2443 20.51V20.51ZM1.12427 11.7841V13.4091L1.12329 19.2951H3.3772C3.92224 17.156 5.8562 15.569 8.16626 15.569C10.4712 15.569 12.4013 17.151 12.9502 19.2951H14.6102V5.08607H4.18225L1.12427 11.7841ZM13.4683 6.16602V9.68604H9.4452L6.46827 12.189H2.48927L4.70228 6.16602H13.4683ZM8.1803 17.083C5.98731 17.08 4.20923 18.859 4.20923 21.052C4.20923 23.245 5.98731 25.02 8.1803 25.02C10.3702 25.02 12.1493 23.2481 12.1493 21.052C12.1462 18.859 10.3683 17.083 8.1803 17.083ZM8.1803 22.792C7.21729 22.792 6.43628 22.012 6.43628 21.048C6.43628 20.09 7.21021 19.306 8.1803 19.306C9.14026 19.306 9.92029 20.083 9.92029 21.048C9.92029 22.012 9.14026 22.792 8.1803 22.792Z" fill="#4D4D4D"/>
</svg>
