<svg width="47" height="47" viewBox="0 0 47 47" fill="none" xmlns="http://www.w3.org/2000/svg">
<circle opacity="0.2" cx="23.363" cy="23.6715" r="22.8357" fill="#3F95F7"/>
<path d="M18.5493 18.978C18.4903 18.958 18.4313 18.958 18.3723 18.958C18.0963 18.958 17.8603 19.136 17.7813 19.411C17.7423 19.568 17.7613 19.7259 17.8403 19.864C17.9193 20.001 18.0573 20.1 18.2143 20.159C18.5493 20.2569 18.8833 20.06 18.9823 19.746C19.0213 19.588 19.0013 19.431 18.9233 19.293C18.8443 19.136 18.7063 19.037 18.5493 18.978V18.978Z" fill="#09265E"/>
<path d="M21.8755 21.8515C22.4265 21.8515 22.9585 21.7135 23.4305 21.4375C23.6275 21.3194 23.8635 21.3785 23.9815 21.5755C24.0995 21.7724 24.0405 22.0085 23.8435 22.1264C23.2535 22.4815 22.5645 22.6585 21.8755 22.6585C21.7575 22.6585 21.6395 22.6585 21.5215 22.6385" fill="#09265E"/>
<path d="M20.0055 21.2218C20.5175 21.6157 21.1475 21.8318 21.7965 21.8518C22.2495 19.8828 21.0485 17.8757 19.0605 17.3247C18.8645 17.2657 18.6675 17.2457 18.4905 17.2058L19.1395 17.4818C19.0215 17.7177 18.9425 17.9737 18.8835 18.2497C19.2185 18.3678 19.4945 18.5837 19.6715 18.8988C19.8485 19.2337 19.9075 19.6078 19.8085 19.9618C19.6315 20.5918 19.0605 20.9857 18.4315 20.9857C18.3135 20.9857 18.1755 20.9657 18.0375 20.9267C17.6635 20.8277 17.3685 20.5918 17.1715 20.2567C16.9945 19.9227 16.9355 19.5487 17.0335 19.1947C17.1715 18.6827 17.5845 18.3277 18.0575 18.2097C18.1165 17.8557 18.2145 17.5207 18.3725 17.1867C17.5845 17.1078 16.8175 17.2657 16.1085 17.6588C15.2035 18.1708 14.5535 18.9778 14.2585 19.9818C13.8055 21.4978 14.2975 23.0718 15.4785 24.0167C15.5375 24.0758 15.5575 24.1548 15.5375 24.2137L14.7505 27.2247C14.7505 27.2838 14.7505 27.3237 14.7705 27.3628L15.2225 28.3867C15.2625 28.4847 15.2225 28.5827 15.1435 28.6417L14.3965 29.1347C14.3175 29.1937 14.2785 29.2917 14.3175 29.3897L14.6915 30.1777C14.7305 30.2757 14.7115 30.3747 14.6125 30.4337L13.8845 30.9057C13.8055 30.9647 13.7665 31.0627 13.8055 31.1617L14.1795 31.9487C14.2195 32.0477 14.1795 32.1657 14.1005 32.2047L13.4515 32.5587C13.3525 32.6178 13.3135 32.7357 13.3725 32.8347L14.1005 34.1538C14.1205 34.1927 14.1795 34.2318 14.2195 34.2517H14.2785C14.3175 34.2517 14.3565 34.2517 14.3765 34.2318L15.8925 33.3468C15.9315 33.3267 15.9705 33.2877 15.9905 33.2287L18.3325 25.1777C18.3525 25.0987 18.4115 25.0398 18.4905 25.0398C19.7495 24.8628 20.9115 23.9177 21.4815 22.6588C20.7535 22.5997 20.0455 22.3237 19.4545 21.8707C19.2775 21.7337 19.2385 21.4777 19.3755 21.3007C19.5725 21.1228 19.8285 21.0837 20.0055 21.2218L20.0055 21.2218Z" fill="#09265E"/>
<path d="M18.3535 17.167C18.9835 15.868 20.3415 14.963 21.8765 14.963C23.6875 14.963 25.2815 16.2419 25.6755 17.974C25.7145 18.191 25.5765 18.407 25.3605 18.447C25.1445 18.486 24.9275 18.348 24.8685 18.132C24.5535 16.754 23.2935 15.75 21.8565 15.75C20.6565 15.75 19.5935 16.439 19.0815 17.462" fill="#09265E"/>
<path fill-rule="evenodd" clip-rule="evenodd" d="M37.6619 25.473L30.7529 18.6429C30.5959 18.486 30.163 18.132 29.6509 18.1121L25.1829 17.699H25.1439H25.0449C24.5729 17.699 24.1789 17.876 23.8249 18.23C23.4509 18.604 23.293 18.9981 23.293 19.549V19.588L23.6869 24.017C23.6869 24.5291 24.0609 24.942 24.218 25.099L31.127 31.9301C31.2059 32.0081 31.304 32.048 31.4219 32.048C31.541 32.048 31.6389 32.0081 31.718 31.9301L37.6819 26.0439C37.8189 25.887 37.8189 25.631 37.6619 25.473ZM28.3519 25.001C28.2529 25.001 28.1349 24.962 28.0569 24.8831C27.8989 24.725 27.8989 24.47 28.0569 24.312L30.025 22.3631C30.1819 22.2061 30.4379 22.2061 30.5959 22.3631C30.7529 22.521 30.7529 22.777 30.5959 22.934L28.627 24.8831C28.549 24.9621 28.45 25.001 28.3519 25.001L28.3519 25.001ZM32.8989 25.198L30.9299 27.146C30.8519 27.225 30.7529 27.265 30.635 27.265C30.517 27.265 30.419 27.225 30.34 27.146C30.182 26.989 30.182 26.733 30.34 26.5761L32.3079 24.627C32.466 24.47 32.7219 24.47 32.879 24.627C33.056 24.7841 33.056 25.04 32.8989 25.198L32.8989 25.198Z" fill="#09265E"/>
</svg>
