<svg width="46" height="47" viewBox="0 0 46 47" fill="none" xmlns="http://www.w3.org/2000/svg">
<circle opacity="0.2" cx="23.0427" cy="23.6715" r="22.8357" fill="#3F95F7"/>
<path fill-rule="evenodd" clip-rule="evenodd" d="M19.7039 24.296H23.4339V21.314H15.6349L16.7649 18.7841C16.8839 18.51 17.1529 18.333 17.4509 18.333H22.0499C21.9069 17.579 21.9039 16.866 22.0529 16.0959H17.4509C16.2569 16.0959 15.1809 16.806 14.7109 17.903L13.0948 21.675C12.1529 22.177 11.5039 23.157 11.5039 24.296V25.787C11.5039 26.886 12.1078 27.837 12.9949 28.354V31.005C12.9949 31.827 13.6629 32.496 14.4859 32.496H16.7219C17.5439 32.496 18.2129 31.827 18.2129 31.005V28.769H23.4339V25.787H19.7039C19.2919 25.787 18.9579 25.453 18.9579 25.042C18.9579 24.63 19.2919 24.296 19.7039 24.296V24.296ZM15.6039 26.905C14.5739 26.905 13.7399 26.0711 13.7399 25.042C13.7399 24.012 14.5739 23.178 15.6039 23.178C16.6329 23.178 17.4669 24.012 17.4669 25.042C17.4669 26.071 16.6329 26.905 15.6039 26.905Z" fill="#09265E"/>
<path fill-rule="evenodd" clip-rule="evenodd" d="M32.3176 16.4516C32.0096 14.6866 30.5296 13.4246 29.6816 13.1675C29.5376 13.1246 29.3976 13.2376 29.3976 13.3865V17.1265C29.3976 17.4096 29.2376 17.6675 28.9846 17.7935L28.2396 18.1656C28.0296 18.2706 27.7826 18.2706 27.5726 18.1656L26.8276 17.7935C26.5746 17.6675 26.4156 17.4086 26.4156 17.1265V13.3865C26.4156 13.2366 26.2736 13.1236 26.1296 13.1675C25.2806 13.4306 23.8006 14.7126 23.4956 16.4616C23.2326 17.9645 23.7966 19.4385 24.6856 20.3286C24.8316 20.4746 24.9236 20.6635 24.9236 20.8696V31.0056C24.9236 32.6516 26.2576 33.9855 27.9036 33.9855C29.5496 33.9855 30.8846 32.6516 30.8846 31.0056L30.8866 20.8736C30.8866 20.6646 30.9816 20.4726 31.1286 20.3236C32.0236 19.4296 32.5796 17.9486 32.3176 16.4516H32.3176ZM27.9096 32.1226C27.2926 32.1226 26.7916 31.6215 26.7916 31.0046C26.7916 30.3875 27.2926 29.8865 27.9096 29.8865C28.5276 29.8865 29.0286 30.3875 29.0286 31.0046C29.0286 31.6215 28.5276 32.1226 27.9096 32.1226Z" fill="#09265E"/>
</svg>
