<svg width="29" height="28" viewBox="0 0 29 28" fill="none" xmlns="http://www.w3.org/2000/svg">
<path fill-rule="evenodd" clip-rule="evenodd" d="M0.341797 9.43896H6.86128V26.6461H0.341797V9.43896Z" fill="#4D4D4D"/>
<path fill-rule="evenodd" clip-rule="evenodd" d="M27.5652 16.6309C27.5652 16.0112 27.3602 15.437 27.0122 14.9761C27.7063 14.4731 28.1582 13.6582 28.1582 12.7378C28.1582 11.2158 26.9192 9.97705 25.3972 9.97705H19.1193L19.9933 6.95898V5.51318C19.9933 2.84912 17.8252 0.682129 15.1613 0.682129C14.5153 0.682129 13.9893 1.20703 13.9893 1.85303V5.05908C13.5542 5.75586 11.1343 8.47119 8.49121 11.3149V25.5762L10.7472 26.4219C12.0873 26.9238 13.4933 27.1792 14.9253 27.1792H23.6193C25.1412 27.1792 26.3803 25.9399 26.3803 24.418C26.3803 23.7969 26.1742 23.2241 25.8283 22.7622C26.5212 22.2598 26.9733 21.4438 26.9733 20.5249C26.9733 19.9038 26.7672 19.3301 26.4203 18.8691C27.1133 18.3672 27.5652 17.5508 27.5652 16.6309Z" fill="#4D4D4D"/>
</svg>
