<svg width="45" height="22" viewBox="0 0 45 22" fill="none" xmlns="http://www.w3.org/2000/svg">
<path fill-rule="evenodd" clip-rule="evenodd" d="M10.8602 12.3003C8.40314 12.3003 6.41016 14.2925 6.41016 16.7505C6.41016 19.2085 8.40314 21.2007 10.8602 21.2007C13.3181 21.2007 15.3112 19.2085 15.3112 16.7505C15.3082 14.2935 13.3171 12.3037 10.8602 12.3003ZM10.8602 18.8047C9.72614 18.8047 8.80615 17.8843 8.80615 16.7505C8.80615 15.6167 9.72613 14.6963 10.8602 14.6963C11.9951 14.6963 12.9141 15.6167 12.9141 16.7505C12.9141 17.8843 11.9951 18.8047 10.8602 18.8047Z" fill="#4D4D4D"/>
<path fill-rule="evenodd" clip-rule="evenodd" d="M35.5086 12.3003C33.0507 12.3003 31.0576 14.2925 31.0576 16.7505C31.0576 19.2085 33.0507 21.2007 35.5086 21.2007C37.9656 21.2007 39.9586 19.2085 39.9586 16.7505C39.9556 14.2935 37.9647 12.3037 35.5086 12.3003ZM35.5086 18.8047C34.3737 18.8047 33.4546 17.8843 33.4546 16.7505C33.4546 15.6167 34.3737 14.6963 35.5086 14.6963C36.6426 14.6963 37.5626 15.6167 37.5626 16.7505C37.5626 17.8843 36.6426 18.8047 35.5086 18.8047Z" fill="#4D4D4D"/>
<path fill-rule="evenodd" clip-rule="evenodd" d="M41.4476 8.62306L33.4546 7.16506L26.6496 1.51906C25.9746 0.964855 25.1296 0.661145 24.2566 0.661145H14.2306C13.0866 0.658215 12.0036 1.17922 11.2906 2.07424L6.94354 7.16506H4.01458C2.31359 7.16701 0.935544 8.54494 0.933594 10.2461V14.0112C0.935544 16.0899 2.62054 17.7749 4.69854 17.7769H5.48156C4.91155 14.8062 6.85857 11.9361 9.82958 11.3662C12.8006 10.7969 15.6706 12.7432 16.2396 15.7139C16.3705 16.395 16.3705 17.0962 16.2396 17.7769H30.1286C29.5596 14.8062 31.5055 11.9361 34.4766 11.3662C37.4476 10.7969 40.3176 12.7432 40.8876 15.7139C41.0176 16.3951 41.0176 17.0962 40.8876 17.7769H40.9856C42.6866 17.7749 44.0646 16.397 44.0666 14.6958V11.669C44.0735 10.1431 42.9576 8.84428 41.4476 8.62309L41.4476 8.62306ZM15.9955 6.1382C15.9955 6.70509 15.5356 7.16505 14.9686 7.16505H10.4536C10.1706 7.16505 9.94055 6.93508 9.94055 6.65188C9.94055 6.52883 9.98358 6.41116 10.0636 6.31789L13.0516 2.81692C13.2466 2.58889 13.5326 2.45803 13.8326 2.45803H14.9686C15.5356 2.45803 15.9956 2.91798 15.9956 3.48488L15.9955 6.1382ZM21.1306 10.9302H19.7616C19.1946 10.9302 18.7346 10.4712 18.7346 9.90285C18.7346 9.33596 19.1946 8.87599 19.7616 8.87599H21.1306C21.6976 8.87599 22.1576 9.33595 22.1576 9.90285C22.1576 10.4712 21.6976 10.9302 21.1306 10.9302ZM29.2166 7.18995L19.4166 7.16701C18.8506 7.16603 18.3916 6.70705 18.3916 6.14015V3.48487C18.3916 2.91798 18.8516 2.45802 19.4186 2.45802H24.3436C24.5746 2.45802 24.7986 2.53615 24.9806 2.67921L29.5356 6.27295C29.7585 6.44922 29.7966 6.77101 29.6216 6.99414C29.5236 7.11817 29.3746 7.19092 29.2166 7.18994V7.18995Z" fill="#4D4D4D"/>
</svg>
