<svg width="34" height="35" viewBox="0 0 34 35" fill="none" xmlns="http://www.w3.org/2000/svg">
<path fill-rule="evenodd" clip-rule="evenodd" d="M17.9902 19.124V23.2798C19.5712 22.8921 20.2122 21.937 20.2122 21.2021C20.2122 20.4658 19.5692 19.5122 17.9902 19.124Z" fill="#4D4D4D"/>
<path fill-rule="evenodd" clip-rule="evenodd" d="M32.7495 20.4062L31.5065 18.4956C31.2825 18.1523 31.2825 17.7095 31.5065 17.3657L32.7505 15.4536C33.8835 13.7095 33.1165 11.3735 31.1835 10.6353L29.0545 9.81933C28.6725 9.67333 28.4105 9.31347 28.3895 8.90429L28.2725 6.62841C28.1665 4.55663 26.1755 3.11132 24.1725 3.64941L21.9705 4.2417C21.5755 4.34668 21.1535 4.21045 20.8965 3.8916L19.4625 2.11865C18.1565 0.504394 15.6975 0.507324 14.3945 2.11963L12.9605 3.8916C12.7045 4.21045 12.2805 4.34765 11.8865 4.2417L9.68549 3.64941C7.68549 3.11035 5.69049 4.55468 5.58448 6.62841L5.46748 8.90527C5.44648 9.31445 5.1855 9.67334 4.80348 9.82031L2.67451 10.6343C0.738469 11.3755 -0.0255008 13.7124 1.10847 15.4556L2.35047 17.3643C2.57447 17.7085 2.57447 18.1523 2.35151 18.4956L1.10847 20.4062C-0.0245308 22.1455 0.737499 24.4863 2.67451 25.2266L4.80348 26.0415C5.1855 26.1885 5.44649 26.5474 5.46748 26.9565L5.58448 29.2334C5.6905 31.3037 7.67951 32.7505 9.68549 32.2124L11.8865 31.6196C12.2805 31.5137 12.7025 31.6504 12.9615 31.9707L14.3945 33.7427C15.6965 35.3535 18.1555 35.3584 19.4635 33.7436L20.8965 31.9707C21.1545 31.6514 21.5765 31.5146 21.9704 31.6196L24.1745 32.2134C26.1745 32.7476 28.1665 31.3086 28.2724 29.2334L28.3895 26.9575C28.4104 26.5474 28.6725 26.1885 29.0545 26.0415L31.1835 25.2275C33.1185 24.4863 33.8835 22.1494 32.7495 20.4062H32.7495ZM22.4355 21.2026C22.4355 23.1733 20.7745 25.1074 17.9905 25.5547V26.7573C17.9905 27.3716 17.4925 27.8696 16.8795 27.8696C16.2655 27.8696 15.7685 27.3716 15.7685 26.7573V25.5547C13.0265 25.1143 11.3235 23.2095 11.3235 21.2026C11.3235 20.5884 11.8215 20.0913 12.4345 20.0913C13.0485 20.0913 13.5465 20.5884 13.5465 21.2026C13.5465 21.9375 14.1885 22.8926 15.7685 23.2803V18.8877C13.0265 18.4473 11.3235 16.5425 11.3235 14.5356C11.3235 12.5034 13.0565 10.6196 15.7685 10.1836V8.98047C15.7685 8.3667 16.2655 7.86963 16.8795 7.86963C17.4925 7.86963 17.9905 8.3667 17.9905 8.98047V10.1836C20.7325 10.6245 22.4355 12.5283 22.4355 14.5357C22.4355 15.1494 21.9375 15.6465 21.3235 15.6465C20.7105 15.6465 20.2125 15.1494 20.2125 14.5357C20.2125 13.8003 19.5695 12.8457 17.9905 12.4575V16.8506C20.7325 17.2905 22.4355 19.1953 22.4355 21.2027V21.2026Z" fill="#4D4D4D"/>
<path fill-rule="evenodd" clip-rule="evenodd" d="M13.5459 14.5352C13.5459 15.271 14.1879 16.2251 15.7679 16.6128V12.457C14.1858 12.8452 13.5459 13.7998 13.5459 14.5352V14.5352Z" fill="#4D4D4D"/>
</svg>
