<svg width="46" height="47" viewBox="0 0 46 47" fill="none" xmlns="http://www.w3.org/2000/svg">
<circle opacity="0.2" cx="23.0427" cy="23.1933" r="22.8357" fill="#3F95F7"/>
<path fill-rule="evenodd" clip-rule="evenodd" d="M18.2497 34.4029H30.1027C31.0837 34.4029 31.8807 33.6059 31.8807 32.625V20.1H27.7327C26.7517 20.1 25.9547 19.303 25.9547 18.322V14.174H18.2497C17.2697 14.174 16.4717 14.971 16.4717 15.952V32.625C16.4717 33.606 17.2697 34.403 18.2497 34.403V34.4029ZM20.6207 22.511H27.7327C28.0597 22.511 28.3247 22.776 28.3247 23.103C28.3247 23.431 28.0597 23.696 27.7327 23.696H20.6207C20.2927 23.696 20.0277 23.431 20.0277 23.103C20.0277 22.776 20.2927 22.511 20.6207 22.511ZM20.6207 24.881H27.7327C28.0597 24.881 28.3247 25.146 28.3247 25.474C28.3247 25.801 28.0597 26.067 27.7327 26.067H20.6207C20.2927 26.067 20.0277 25.801 20.0277 25.474C20.0277 25.146 20.2927 24.881 20.6207 24.881ZM20.6207 27.2519H27.7327C28.0597 27.2519 28.3247 27.5169 28.3247 27.844C28.3247 28.172 28.0597 28.437 27.7327 28.437H20.6207C20.2927 28.437 20.0277 28.172 20.0277 27.844C20.0277 27.5169 20.2927 27.2519 20.6207 27.2519ZM20.6207 29.6219H25.3617C25.6897 29.6219 25.9547 29.8879 25.9547 30.215C25.9547 30.543 25.6897 30.808 25.3617 30.808H20.6207C20.2927 30.808 20.0277 30.543 20.0277 30.215C20.0277 29.8879 20.2927 29.6219 20.6207 29.6219Z" fill="#09265E"/>
<path d="M27.7326 18.915H31.5336L27.1396 14.521V18.322C27.1396 18.6491 27.4056 18.915 27.7326 18.915L27.7326 18.915Z" fill="black"/>
</svg>
