<svg width="61" height="25" viewBox="0 0 61 25" fill="none" xmlns="http://www.w3.org/2000/svg">
<path fill-rule="evenodd" clip-rule="evenodd" d="M25.5435 13.156C24.4495 13.158 23.5625 14.045 23.5615 15.14C23.5625 15.436 23.6295 15.729 23.7585 15.9969C23.8415 16.171 23.9505 16.332 24.0805 16.474C24.8185 17.282 26.0705 17.339 26.8785 16.602C27.0665 16.431 27.2195 16.2259 27.3295 15.9969C27.4575 15.729 27.5245 15.436 27.5255 15.14C27.5255 14.045 26.6385 13.158 25.5435 13.156ZM25.5435 15.891C25.1285 15.891 24.7915 15.5539 24.7915 15.139C24.7915 14.723 25.1285 14.387 25.5435 14.387C25.9595 14.387 26.2955 14.723 26.2955 15.139C26.2955 15.554 25.9595 15.891 25.5435 15.891Z" fill="#4D4D4D"/>
<path fill-rule="evenodd" clip-rule="evenodd" d="M47.7486 13.156C46.6546 13.158 45.7676 14.045 45.7666 15.14C45.7686 15.436 45.8346 15.729 45.9626 15.9969C46.0456 16.171 46.1546 16.332 46.2845 16.474C47.0186 17.282 48.2676 17.342 49.0756 16.609C49.1246 16.564 49.1716 16.517 49.2166 16.468C49.3506 16.321 49.4616 16.155 49.5456 15.975C50.0076 14.983 49.5796 13.8051 48.5876 13.342C48.3256 13.219 48.0386 13.156 47.7486 13.156ZM47.7486 15.894C47.3336 15.894 46.9966 15.557 46.9966 15.141C46.9966 14.7259 47.3336 14.389 47.7496 14.389C48.1646 14.389 48.5016 14.7259 48.5016 15.141C48.5016 15.557 48.1645 15.894 47.7486 15.894Z" fill="#4D4D4D"/>
<path fill-rule="evenodd" clip-rule="evenodd" d="M54.257 9.72641C53.7769 9.10446 52.9359 8.78452 52.046 8.4465C51.6049 8.2894 51.174 8.10544 50.7559 7.89547C50.1309 7.55941 49.554 7.22848 48.9949 6.90646C46.3839 5.40451 44.129 4.10751 39.578 4.03048C39.2979 4.02645 39.0289 4.0184 38.762 4.01339C37.257 3.94747 35.749 4.00045 34.252 4.17147C31.4229 4.4974 28.2109 6.44039 26.3229 8.00448C26.1619 8.12948 25.2239 8.54049 24.3959 8.9045C22.471 9.7474 20.075 10.7984 19.293 11.5785C18.46 12.4105 18.335 14.3504 18.335 15.4315C18.335 16.0475 19.1459 16.2454 19.4509 16.3194C19.7759 16.4005 20.1079 16.4525 20.442 16.4745H22.932C22.778 16.1765 22.6779 15.8535 22.6339 15.5215C22.617 15.3945 22.609 15.2674 22.609 15.1395C22.609 13.5184 23.9229 12.2044 25.544 12.2044C27.1649 12.2044 28.479 13.5184 28.479 15.1395C28.479 15.2674 28.471 15.3945 28.4539 15.5215C28.411 15.8535 28.31 16.1765 28.1569 16.4745H45.137C44.984 16.1765 44.883 15.8535 44.839 15.5215C44.823 15.3945 44.814 15.2674 44.814 15.1395C44.814 13.5184 46.128 12.2044 47.749 12.2044C49.37 12.2044 50.684 13.5184 50.684 15.1395C50.684 15.2345 50.68 15.3275 50.671 15.4184C50.638 15.7574 50.546 16.0875 50.401 16.3955C51.527 16.3105 53.026 16.1584 53.9459 15.9554C54.627 15.8075 55.1569 15.2325 55.206 14.5904C55.437 11.5374 54.864 10.5134 54.257 9.72641H54.257ZM19.418 13.7245C19.533 13.0234 19.7249 12.4945 19.966 12.2535C20.018 12.2015 20.0739 12.1534 20.1329 12.1085C20.8209 12.0174 21.6279 12.0785 21.7 12.4745C21.8859 13.4864 20.3469 13.6925 19.418 13.7245ZM36.499 11.8115H35.4819C35.2189 11.8115 35.0059 11.587 35.0059 11.3109C35.0059 11.035 35.2189 10.8115 35.4819 10.8115H36.499C36.762 10.8115 36.9749 11.035 36.9749 11.3109C36.9749 11.587 36.762 11.8115 36.499 11.8115ZM37.6209 9.56052L29.3369 9.64145C29.046 9.66342 28.7919 9.44443 28.77 9.15341C28.7629 9.05942 28.7819 8.96445 28.8239 8.88046C29.049 8.52841 29.817 8.00546 30.6989 7.52548C32.1649 6.73544 33.781 6.2634 35.442 6.14047C36.03 6.09848 36.7839 6.0665 37.6209 6.06344V9.56052ZM45.776 9.42844C45.278 9.48252 44.7769 9.50547 44.2769 9.49448L38.5739 9.55051V6.07248C40.37 6.1135 42.3829 6.30246 43.9279 6.80649C44.9329 7.13547 45.9539 7.86252 46.213 8.74643C46.2969 9.03049 46.135 9.32748 45.851 9.41147C45.8259 9.4194 45.801 9.42441 45.776 9.42844ZM52.6669 11.5425C52.515 11.2345 52.5759 10.8354 52.8159 10.6775C53.062 10.5345 53.3449 10.4645 53.63 10.4764C53.865 10.8015 54.129 11.2695 54.244 12.2225C53.672 12.1985 52.875 11.9644 52.6669 11.5425Z" fill="#4D4D4D"/>
<path fill-rule="evenodd" clip-rule="evenodd" d="M11.4692 17.59C9.59522 17.592 8.07623 19.11 8.07422 20.985V20.999C8.07526 21.322 8.12225 21.6429 8.21527 21.952C8.74725 23.75 10.6373 24.775 12.4343 24.2419C13.5362 23.916 14.3982 23.054 14.7252 21.952C14.8172 21.6429 14.8642 21.322 14.8652 20.999V20.985C14.8632 19.11 13.3442 17.5909 11.4692 17.59H11.4692ZM12.6202 20.999C12.6113 21.635 12.0883 22.142 11.4523 22.133C10.8303 22.124 10.3273 21.6219 10.3182 20.999V20.985C10.3182 20.349 10.8342 19.834 11.4692 19.834C12.1052 19.834 12.6202 20.349 12.6202 20.985V20.999Z" fill="#4D4D4D"/>
<path fill-rule="evenodd" clip-rule="evenodd" d="M47.0161 17.59C45.1981 17.5909 43.7031 19.0229 43.6231 20.839C43.6211 20.887 43.6191 20.936 43.6191 20.985C43.6211 22.86 45.1422 24.38 47.0181 24.379C48.8922 24.3769 50.4101 22.859 50.4121 20.985C50.4121 20.936 50.4111 20.887 50.4081 20.839C50.3281 19.0229 48.8341 17.5909 47.0161 17.59H47.0161ZM47.0161 22.135C46.3801 22.136 45.8651 21.621 45.8651 20.986V20.985C45.8651 20.936 45.8681 20.8879 45.8742 20.839C45.9541 20.209 46.5302 19.7629 47.1611 19.843C47.6812 19.909 48.0911 20.319 48.1571 20.839C48.1632 20.8879 48.1661 20.936 48.1661 20.985C48.1671 21.62 47.6521 22.135 47.0172 22.135H47.0161L47.0161 22.135Z" fill="#4D4D4D"/>
<path fill-rule="evenodd" clip-rule="evenodd" d="M45.0228 17.1219H17.2087V3.31994C17.2067 1.61096 15.8218 0.224972 14.1118 0.223022H11.2457C7.87476 0.223022 5.11579 3.21997 3.77277 5.00696C1.56177 7.94495 0.34375 11.927 0.34375 16.219V19.074C0.34576 20.663 1.63373 21.95 3.22174 21.952H7.22974C7.15778 21.639 7.12177 21.32 7.12073 20.999V20.985C7.12073 18.583 9.06775 16.636 11.4697 16.636C13.8707 16.636 15.8177 18.583 15.8177 20.985V20.997C15.8177 21.157 15.8088 21.317 15.7908 21.475C15.7728 21.636 15.7457 21.7951 15.7098 21.952H15.7717C16.4398 21.9511 17.0187 21.49 17.1708 20.839H42.6688C42.7228 19.266 43.6227 17.844 45.0228 17.122V17.1219ZM2.70179 15.741C2.26875 16.132 1.79774 16.479 1.29676 16.7791V16.219C1.29578 15.15 1.37678 14.082 1.53974 13.025C1.80176 12.907 2.07679 12.822 2.35975 12.7729C3.05879 12.677 3.61378 13.0129 3.70179 13.64C3.80177 14.35 3.51276 14.955 2.70179 15.741ZM5.92774 9.90697C5.28675 9.90697 5.08674 9.21105 5.30274 8.57799C5.63679 7.60497 7.39777 2.942 12.5768 2.942H13.5428C14.0728 2.942 14.5028 3.37193 14.5028 3.90196V8.94603C14.5028 9.47704 14.0728 9.90599 13.5428 9.90697H5.92774ZM14.1907 12.2989H12.7088C12.4458 12.2989 12.2327 12.0754 12.2327 11.7995C12.2327 11.5225 12.4458 11.2989 12.7088 11.2989H14.1907C14.4537 11.2989 14.6667 11.5225 14.6667 11.7995C14.6667 12.0754 14.4537 12.2989 14.1907 12.2989Z" fill="#4D4D4D"/>
<path fill-rule="evenodd" clip-rule="evenodd" d="M59.4238 17.1221H49.0078C50.4078 17.8441 51.3078 19.2661 51.3618 20.8391H59.4238C59.9528 20.8381 60.3808 20.4102 60.3808 19.8821V18.0781C60.3798 17.5502 59.9518 17.1221 59.4238 17.1221H59.4238Z" fill="#4D4D4D"/>
</svg>
