<svg width="47" height="47" viewBox="0 0 47 47" fill="none" xmlns="http://www.w3.org/2000/svg">
<circle opacity="0.2" cx="23.363" cy="23.1933" r="22.8357" fill="#3F95F7"/>
<path fill-rule="evenodd" clip-rule="evenodd" d="M34.9639 22.6122C34.9639 22.3362 34.7399 22.1111 34.4639 22.1111H33.0849C32.8079 22.1111 32.5839 22.3362 32.5839 22.6122V23.2322L32.4809 23.3401L31.7259 19.2911C31.6759 19.0261 31.4459 18.8351 31.1769 18.8351H23.2509L23.7699 19.9512H25.4069C25.3319 20.0731 25.3399 20.1741 25.3399 20.2611C25.3399 20.5101 25.5419 20.7122 25.7909 20.7122H27.2319C27.4809 20.7122 27.6829 20.5101 27.6829 20.2611C27.6829 20.1771 27.6919 20.0741 27.6159 19.9512H30.7129L31.4179 23.7332H30.5929C30.5259 22.7751 29.7249 22.0021 28.7499 22.0021C27.7759 22.0021 26.9749 22.7751 26.9079 23.7332C22.6409 23.7382 21.6049 23.7332 21.6049 23.7332L21.7829 22.7781L21.0889 22.9271V26.0171C21.2989 25.8002 21.5939 25.6652 21.9199 25.6652C22.5649 25.6652 23.0779 26.1901 23.0779 26.8241C23.0779 27.4641 22.5599 27.9822 21.9199 27.9822C21.5939 27.9822 21.2989 27.8472 21.0889 27.6301V31.9861C21.3209 32.1881 21.6239 32.3102 21.9549 32.3102C22.6839 32.3102 23.2749 31.7191 23.2749 30.9901V29.8052H24.4679V30.2532C24.4679 30.5032 24.6709 30.7051 24.9209 30.7051H28.1019C28.3519 30.7051 28.5549 30.5032 28.5549 30.2532V29.8052H29.7479V30.9901C29.7479 31.7191 30.3389 32.3102 31.0679 32.3102C31.7969 32.3102 32.3879 31.7191 32.3879 30.9901V29.8052H32.6449C33.1329 29.8052 33.5289 29.4092 33.5289 28.9212V26.0822C33.5289 25.3751 33.2179 24.7411 32.7248 24.3071L33.2399 23.7652H34.4639C34.7399 23.7652 34.9649 23.5412 34.9649 23.2642V22.6122H34.9639L34.9639 22.6122ZM27.8139 28.8782H25.2089C24.9829 28.8782 24.7999 28.6951 24.7999 28.4681C24.7999 28.2421 24.9829 28.0591 25.2089 28.0591H27.8139C28.0399 28.0591 28.2229 28.2421 28.2229 28.4681C28.2229 28.6951 28.0399 28.8782 27.8139 28.8782ZM28.5089 27.2721H24.5129C24.2869 27.2721 24.1039 27.0891 24.1039 26.8631C24.1039 26.6371 24.2869 26.4531 24.5129 26.4531H28.5089C28.7349 26.4531 28.9189 26.6371 28.9189 26.8631C28.9189 27.0891 28.7349 27.2721 28.5089 27.2721ZM27.8439 23.7331C27.9079 23.2891 28.2889 22.9331 28.7499 22.9331C29.2109 22.9331 29.5929 23.2891 29.6569 23.7331H27.8439ZM31.1029 27.9822C30.4629 27.9822 29.9449 27.4641 29.9449 26.8241C29.9449 26.1891 30.4579 25.6652 31.1029 25.6652C31.7419 25.6652 32.2609 26.1841 32.2609 26.8241C32.2609 27.4591 31.7459 27.9822 31.1029 27.9822Z" fill="#09265E"/>
<path d="M20.2529 23.1071L19.8699 23.189C19.4519 23.28 19.0239 23.192 18.6769 22.954C18.5469 23.019 18.4029 23.053 18.2579 23.053C17.9259 23.053 17.6149 22.874 17.4469 22.588L16.0059 20.125C16.0059 20.125 16.0059 32.248 16.0059 32.327C16.0059 32.858 16.4369 33.2889 16.9679 33.2889C17.4999 33.2889 17.9309 32.858 17.9309 32.327V24.636H18.3459V32.326C18.3459 32.858 18.7769 33.2889 19.3079 33.2889C19.8399 33.2889 20.2699 32.858 20.2699 32.326C20.2699 32.327 20.2529 23.538 20.2529 23.1071H20.2529Z" fill="#09265E"/>
<path d="M23.4044 20.8149C23.3824 20.7679 22.1704 18.173 22.1704 18.173C21.8193 17.431 21.0624 16.951 20.2414 16.951H15.9824C14.9413 16.951 14.0754 17.798 14.0693 18.839V24.73C14.0674 25.173 14.4094 25.5341 14.8524 25.536H14.8564C15.2974 25.536 15.6764 25.18 15.6784 24.738V18.847C15.6784 18.76 15.7593 18.689 15.8474 18.689C15.9354 18.689 16.0064 18.761 16.0064 18.848V19.1169C16.1664 18.864 16.1904 18.8879 17.9084 17.8831C18.3564 17.621 18.9324 17.772 19.1944 18.219L19.2654 18.3409C19.7394 18.063 20.3004 18.182 20.6024 18.698C20.8924 19.193 20.7064 18.827 21.4744 20.452L19.3784 20.9041C18.9454 20.997 18.6704 21.424 18.7634 21.856C18.8564 22.2889 19.2834 22.5649 19.7164 22.471L22.8004 21.807C23.2384 21.713 23.5264 21.267 23.4044 20.8149V20.8149Z" fill="#09265E"/>
<circle cx="18.1384" cy="14.7598" r="1.66182" fill="#09265E"/>
<path d="M18.0114 21.6235L17.3755 20.5355C17.1125 20.0875 17.2635 19.5124 17.7115 19.2505L18.6765 18.6855L18.6054 18.5644C18.5335 18.4415 18.3764 18.4005 18.2535 18.4725L16.6704 19.3984C16.5475 19.4704 16.5064 19.6285 16.5785 19.7505L18.0365 22.2435C18.0664 22.2944 18.1104 22.3315 18.1615 22.3514C18.1104 22.2454 18.0714 22.1314 18.0454 22.0114C18.0175 21.8814 18.0064 21.7514 18.0114 21.6235Z" fill="#09265E"/>
<path d="M19.9922 19.004C19.9202 18.8819 19.7632 18.8409 19.6401 18.9119L18.0572 19.8389C17.9341 19.9109 17.8932 20.0679 17.9652 20.1899L18.3091 20.779C18.5242 20.4859 18.8422 20.2679 19.2242 20.186L20.5201 19.9059L19.9922 19.004Z" fill="#09265E"/>
</svg>
