<svg width="86" height="12" viewBox="0 0 86 12" fill="none" xmlns="http://www.w3.org/2000/svg">
<path d="M12.157 5.04006C12.399 4.8091 12.271 4.39992 11.94 4.34914L11.646 4.30324L8.65702 3.83888C8.52604 3.81886 8.41306 3.73488 8.35502 3.61525L6.91404 0.622089C6.76902 0.319839 6.34104 0.315939 6.19004 0.615249L4.69102 3.57912C4.63102 3.69826 4.51603 3.77883 4.38505 3.79689L1.09202 4.24318C0.761033 4.2881 0.624063 4.69289 0.862043 4.92922L3.21806 7.27102C3.31205 7.36526 3.35405 7.49905 3.33104 7.62991L2.82903 10.3931L2.73705 10.8989C2.67705 11.228 3.02105 11.4829 3.31902 11.3301L6.27404 9.81301C6.39306 9.75197 6.53307 9.75393 6.65008 9.81692L9.57604 11.3911C9.87005 11.5498 10.2191 11.3018 10.1661 10.9722L9.63604 7.69192C9.61504 7.56106 9.66003 7.42678 9.75604 7.33499L12.157 5.04006Z" fill="#FCD010"/>
<path d="M30.4828 5.04006C30.7248 4.8091 30.5957 4.39992 30.2658 4.34914L29.9718 4.30324L26.9828 3.83888C26.8507 3.81886 26.7387 3.73488 26.6808 3.61525L25.2398 0.622089C25.0948 0.319839 24.6668 0.315939 24.5158 0.615249L23.0158 3.57912C22.9558 3.69826 22.8418 3.77883 22.7098 3.79689L19.4178 4.24318C19.0858 4.2881 18.9497 4.69289 19.1867 4.92922L21.5428 7.27102C21.6378 7.36526 21.6798 7.49905 21.6558 7.62991L21.1538 10.3931L21.0618 10.8989C21.0028 11.228 21.3458 11.4829 21.6438 11.3301L24.5998 9.81301C24.7178 9.75197 24.8587 9.75393 24.9758 9.81692L27.9008 11.3911C28.1958 11.5498 28.5438 11.3018 28.4908 10.9722L27.9608 7.69192C27.9398 7.56106 27.9848 7.42678 28.0808 7.33499L30.4828 5.04006Z" fill="#FCD010"/>
<path d="M48.8065 5.04006C49.0484 4.8091 48.9204 4.39992 48.5895 4.34914L48.2954 4.30324L45.3065 3.83888C45.1755 3.81886 45.0625 3.73488 45.0045 3.61525L43.5635 0.622089C43.4185 0.319839 42.9905 0.315939 42.8395 0.615249L41.3405 3.57912C41.2805 3.69826 41.1654 3.77883 41.0335 3.79689L37.7415 4.24318C37.4104 4.2881 37.2735 4.69289 37.5115 4.92922L39.8675 7.27102C39.9615 7.36526 40.0035 7.49905 39.9805 7.62991L39.4785 10.3931L39.3865 10.8989C39.3265 11.228 39.6705 11.4829 39.9685 11.3301L42.9235 9.81301C43.0415 9.75197 43.1825 9.75393 43.2995 9.81692L46.2245 11.3911C46.5195 11.5498 46.8685 11.3018 46.8145 10.9722L46.2855 7.69192C46.2645 7.56106 46.3085 7.42678 46.4055 7.33499L48.8065 5.04006Z" fill="#FCD010"/>
<path d="M67.1312 5.04006C67.3732 4.8091 67.2442 4.39992 66.9142 4.34914L66.6202 4.30324L63.6312 3.83888C63.4992 3.81886 63.3862 3.73488 63.3292 3.61525L61.8882 0.622089C61.7432 0.319839 61.3152 0.315939 61.1642 0.615249L59.6642 3.57912C59.6042 3.69826 59.4902 3.77883 59.3581 3.79689L56.0662 4.24318C55.7342 4.2881 55.5982 4.69289 55.8352 4.92922L58.1912 7.27102C58.2862 7.36526 58.3282 7.49905 58.3042 7.62991L57.8022 10.3931L57.7102 10.8989C57.6502 11.228 57.9942 11.4829 58.2922 11.3301L61.2482 9.81301C61.3662 9.75197 61.5062 9.75393 61.6232 9.81692L64.5492 11.3911C64.8442 11.5498 65.1922 11.3018 65.1392 10.9722L64.6092 7.69192C64.5882 7.56106 64.6332 7.42678 64.7292 7.33499L67.1312 5.04006Z" fill="#FCD010"/>
<path d="M85.4552 5.04006C85.6972 4.8091 85.5691 4.39992 85.2381 4.34914L84.9441 4.30324L81.9552 3.83888C81.8241 3.81886 81.7111 3.73488 81.6532 3.61525L80.2121 0.622089C80.0672 0.319839 79.6391 0.315939 79.4881 0.615249L77.9892 3.57912C77.9292 3.69826 77.8142 3.77883 77.6822 3.79689L74.3902 4.24318C74.0581 4.2881 73.9221 4.69289 74.1601 4.92922L76.5161 7.27102C76.6101 7.36526 76.6521 7.49905 76.6281 7.62991L76.1272 10.3931L76.0351 10.8989C75.9751 11.228 76.3191 11.4829 76.6162 11.3301L79.5722 9.81301C79.6901 9.75197 79.8311 9.75393 79.9481 9.81692L82.8731 11.3911C83.1682 11.5498 83.5172 11.3018 83.4632 10.9722L82.9342 7.69192C82.9132 7.56106 82.9571 7.42678 83.0531 7.33499L85.4552 5.04006Z" fill="#FCD010"/>
</svg>
