<svg width="69" height="34" viewBox="0 0 69 34" fill="none" xmlns="http://www.w3.org/2000/svg">
<path fill-rule="evenodd" clip-rule="evenodd" d="M16.3494 19.1401C12.5123 19.1401 9.40234 22.25 9.40234 26.0869C9.40234 29.9229 12.5123 33.0342 16.3494 33.0342C20.1854 33.0342 23.2963 29.9229 23.2963 26.0869C23.2914 22.252 20.1843 19.144 16.3494 19.1401ZM16.3494 29.293C14.5783 29.293 13.1424 27.8569 13.1424 26.0869C13.1424 24.3159 14.5783 22.8799 16.3494 22.8799C18.1193 22.8799 19.5553 24.3159 19.5553 26.0869C19.5553 27.8569 18.1193 29.293 16.3494 29.293Z" fill="#09265E"/>
<path fill-rule="evenodd" clip-rule="evenodd" d="M54.8259 19.1401C50.9889 19.1401 47.8789 22.25 47.8789 26.0869C47.8789 29.9229 50.9889 33.0342 54.8259 33.0342C58.6619 33.0342 61.7729 29.9229 61.7729 26.0869C61.7679 22.252 58.6599 19.144 54.8259 19.1401ZM54.8259 29.293C53.0549 29.293 51.6189 27.8569 51.6189 26.0869C51.6189 24.3159 53.0549 22.8799 54.8259 22.8799C56.5959 22.8799 58.0319 24.3159 58.0319 26.0869C58.0319 27.8569 56.5959 29.293 54.8259 29.293Z" fill="#09265E"/>
<path fill-rule="evenodd" clip-rule="evenodd" d="M64.0966 13.3999L51.6186 11.124L40.9956 2.31009C39.9426 1.44486 38.6236 0.972198 37.2606 0.971218H21.6106C19.8236 0.965848 18.1326 1.77884 17.0196 3.17679L10.2346 11.1241H5.66156C3.00656 11.127 0.854552 13.2779 0.851562 15.9331V21.812C0.855563 25.0572 3.48555 27.6861 6.73056 27.69H7.95155C7.06256 23.0518 10.1016 18.5718 14.7396 17.6831C19.3766 16.793 23.8576 19.8321 24.7466 24.4702C24.9506 25.5332 24.9506 26.626 24.7466 27.69H46.4276C45.5386 23.0518 48.5776 18.5718 53.2146 17.6831C57.8526 16.793 62.3336 19.8321 63.2226 24.4702C63.4266 25.5332 63.4266 26.626 63.2226 27.69H63.3756C66.0306 27.687 68.1816 25.5352 68.1846 22.8799V18.1548C68.1966 15.773 66.4536 13.7461 64.0966 13.3999L64.0966 13.3999ZM24.3646 9.52103C24.3646 10.4058 23.6476 11.1241 22.7616 11.1241H15.7136C15.2716 11.1241 14.9126 10.7652 14.9116 10.3233C14.9116 10.1319 14.9806 9.94682 15.1046 9.80082L19.7686 4.33695C20.0736 3.98099 20.5196 3.77591 20.9886 3.77591H22.7616C23.6476 3.77591 24.3646 4.49417 24.3646 5.37894L24.3646 9.52103ZM32.3806 17.002H30.2436C29.3576 17.002 28.6406 16.2842 28.6406 15.3989C28.6406 14.5142 29.3576 13.7959 30.2436 13.7959H32.3806C33.2666 13.7959 33.9836 14.5142 33.9836 15.3989C33.9836 16.2842 33.2666 17.002 32.3806 17.002ZM45.0026 11.1631L29.7056 11.128C28.8216 11.126 28.1056 10.4082 28.1056 9.52396V5.37894C28.1056 4.49417 28.8236 3.77591 29.7086 3.77591H37.3976C37.7576 3.77591 38.1076 3.897 38.3906 4.12112L45.5016 9.73196C45.8496 10.0059 45.9086 10.5098 45.6356 10.857C45.4826 11.0508 45.2496 11.1641 45.0026 11.1631V11.1631Z" fill="#09265E"/>
</svg>
