<svg width="80" height="34" viewBox="0 0 80 34" fill="none" xmlns="http://www.w3.org/2000/svg">
<path fill-rule="evenodd" clip-rule="evenodd" d="M64.5436 33.8548C68.177 33.8548 71.1224 30.9094 71.1224 27.276C71.1224 23.6427 68.177 20.6973 64.5436 20.6973C60.9103 20.6973 57.9648 23.6427 57.9648 27.276C57.9648 30.9094 60.9103 33.8548 64.5436 33.8548Z" fill="#09265E"/>
<path fill-rule="evenodd" clip-rule="evenodd" d="M74.0502 13.7245C70.8101 12.4745 67.4051 11.4872 63.9351 10.7963C62.2411 10.4516 60.7612 9.82655 59.5272 8.93837C57.0112 7.06337 53.7382 5.22157 49.5931 3.34657C47.5872 2.39247 45.5961 1.78358 43.6891 1.53749C41.1392 1.17519 38.6891 0.994524 36.2222 0.978414C34.1821 0.945214 32.0941 1.02724 29.9722 1.20839C26.6002 1.5536 23.2451 2.68837 20.2682 4.49745L13.4761 8.54335C12.4232 9.16835 11.4201 9.6122 10.3672 9.90858L5.02216 11.4872C3.34415 11.9642 2.19315 13.4613 2.07816 15.2865C1.97916 16.7172 1.53516 17.7865 1.20615 18.4115C0.598146 19.4315 0.285156 20.6156 0.285156 21.8163V22.9516C0.285156 26.2406 2.95014 28.9213 6.23914 28.9213H8.65714C8.57416 28.3783 8.50916 27.8353 8.50916 27.2763C8.50916 21.8324 12.9331 17.4086 18.3771 17.4086C23.8211 17.4086 28.2451 21.8324 28.2451 27.2763C28.2451 27.8353 28.1791 28.3783 28.0972 28.9213H54.8231C54.7411 28.3783 54.6752 27.8353 54.6752 27.2763C54.6752 21.8324 59.0991 17.4086 64.5431 17.4086C69.9871 17.4086 74.4122 21.8324 74.4122 27.2763C74.4122 27.8353 74.3621 28.3783 74.2642 28.9213H75.4311C77.5201 28.9213 79.2302 27.2103 79.2302 25.1054V21.3222C79.2302 17.9672 77.1421 14.9086 74.0502 13.7245ZM18.7881 9.20156L21.9621 7.31044C24.5281 5.74745 27.4061 4.77724 30.2841 4.49745C31.8301 4.3495 33.3761 4.30018 34.8901 4.28358L36.0411 9.20156H18.7881ZM44.7581 9.20155C44.7411 9.20155 44.7251 9.18544 44.7081 9.18544C44.6921 9.18544 44.6752 9.20155 44.6591 9.20155H39.4122L38.2941 4.3495C39.9221 4.43153 41.5511 4.56337 43.2451 4.79335C44.8241 5.00722 46.4852 5.51747 48.2121 6.32362C50.3501 7.29335 52.2081 8.24745 53.8531 9.18544L44.7581 9.20155Z" fill="#09265E"/>
<path fill-rule="evenodd" clip-rule="evenodd" d="M18.3756 33.8548C22.009 33.8548 24.9544 30.9094 24.9544 27.276C24.9544 23.6427 22.009 20.6973 18.3756 20.6973C14.7423 20.6973 11.7969 23.6427 11.7969 27.276C11.7969 30.9094 14.7423 33.8548 18.3756 33.8548Z" fill="#09265E"/>
</svg>
