<svg width="61" height="54" viewBox="0 0 61 54" fill="none" xmlns="http://www.w3.org/2000/svg">
<path fill-rule="evenodd" clip-rule="evenodd" d="M11.2061 25.9741C5.27905 25.9741 0.457031 30.7959 0.457031 36.7241C0.457031 39.7202 2.09503 43.3389 5.32703 47.481C7.63501 50.439 9.91602 52.5781 10.012 52.667L11.2061 53.7832L12.4 52.667C12.497 52.5781 14.777 50.439 17.0861 47.481C20.317 43.3389 21.9561 39.7202 21.9561 36.7241C21.955 30.7959 17.1331 25.9741 11.2061 25.9741H11.2061ZM11.2061 40.2012C9.28802 40.2012 7.72802 38.6411 7.72802 36.7241C7.72802 34.8062 9.28802 33.2461 11.2061 33.2461C13.124 33.2461 14.684 34.8062 14.684 36.7241C14.684 38.6411 13.124 40.2012 11.2061 40.2012Z" fill="#09265E"/>
<path fill-rule="evenodd" clip-rule="evenodd" d="M49.4521 0.304199C43.5251 0.304199 38.7031 5.12598 38.7031 11.0542C38.7031 14.0498 40.3411 17.6689 43.5721 21.811C45.8801 24.769 48.1611 26.9082 48.2571 26.9971L49.4521 28.1128L50.6461 26.9971C50.7421 26.9082 53.0231 24.769 55.3311 21.811C58.5631 17.6689 60.2011 14.0498 60.2011 11.0542C60.2011 5.12695 55.3791 0.304199 49.4521 0.304199H49.4521ZM49.4521 14.5308C47.5341 14.5308 45.9741 12.9712 45.9741 11.0542C45.9741 9.13623 47.5341 7.57617 49.4521 7.57617C51.3701 7.57617 52.9301 9.13623 52.9301 11.0542C52.9301 12.9712 51.3701 14.5308 49.4521 14.5308Z" fill="#09265E"/>
<path fill-rule="evenodd" clip-rule="evenodd" d="M43.0341 53.1387H18.207V49.6387H43.0341C45.608 49.6387 47.702 47.5444 47.702 44.9717C47.702 42.3975 45.608 40.3037 43.0341 40.3037H33.246C28.7421 40.3037 25.0781 36.6406 25.0781 32.1367C25.0781 27.6323 28.7421 23.9683 33.246 23.9683H42.4511V27.4697H33.246C30.6721 27.4697 28.5791 29.5625 28.5791 32.1367C28.5791 34.7104 30.6721 36.8037 33.246 36.8037H43.0341C47.538 36.8037 51.202 40.4673 51.202 44.9717C51.202 49.4746 47.538 53.1387 43.0341 53.1387V53.1387Z" fill="#09265E"/>
</svg>
