<svg width="37" height="43" viewBox="0 0 37 43" fill="none" xmlns="http://www.w3.org/2000/svg">
<path fill-rule="evenodd" clip-rule="evenodd" d="M35.765 29.9492L31.546 27.5142L35.202 25.3579C35.876 24.96 36.101 24.0908 35.703 23.417C35.305 22.7432 34.436 22.5181 33.762 22.916L28.726 25.8848L21.132 21.501L28.724 17.1182L33.762 20.0869C33.988 20.2202 34.236 20.2832 34.481 20.2832C34.966 20.2832 35.439 20.0342 35.703 19.5849C36.1 18.9111 35.876 18.042 35.202 17.644L31.545 15.4888L35.765 13.0532C36.443 12.6621 36.675 11.7949 36.284 11.1172C35.892 10.439 35.025 10.206 34.347 10.5981L30.128 13.0342L30.09 8.78905C30.083 8.00585 29.441 7.37401 28.66 7.38378C27.877 7.3911 27.248 8.03222 27.255 8.81396L27.308 14.6621L19.715 19.0459V10.2788L24.806 7.40185C25.487 7.01611 25.727 6.15185 25.342 5.47021C24.957 4.78906 24.092 4.54785 23.411 4.93408L19.715 7.02197V2.1499C19.715 1.36719 19.08 0.73291 18.297 0.73291C17.515 0.73291 16.88 1.36719 16.88 2.1499V7.02197L13.184 4.93408C12.502 4.54785 11.638 4.78906 11.253 5.47021C10.867 6.15185 11.108 7.01709 11.789 7.40185L16.88 10.2788V19.0459L9.28702 14.6621L9.33902 8.81396C9.34702 8.03222 8.71802 7.39111 7.93501 7.38378H7.92201C7.14502 7.38378 6.51202 8.01122 6.50502 8.78905L6.46602 13.0342L2.24701 10.5981C1.56902 10.206 0.703016 10.439 0.311016 11.1172C-0.079994 11.7949 0.152016 12.6621 0.830016 13.0532L5.05002 15.4888L1.39202 17.645C0.718016 18.042 0.493016 18.9111 0.891026 19.5859C1.15502 20.0342 1.62803 20.2842 2.11402 20.2842C2.35802 20.2842 2.60602 20.2202 2.83202 20.0869L7.87001 17.1182L15.463 21.5019L7.86902 25.8862L2.83202 22.916C2.15802 22.5181 1.28902 22.7422 0.891026 23.417C0.493016 24.0908 0.718026 24.96 1.39202 25.3569L5.04902 27.5132L0.830026 29.9492C0.152036 30.3408 -0.079974 31.208 0.311026 31.8848C0.573016 32.3398 1.05003 32.5942 1.54003 32.5942C1.78002 32.5942 2.02402 32.5332 2.24702 32.4038L6.46603 29.9678L6.50402 34.2129C6.51102 34.9922 7.14503 35.6182 7.92103 35.6182H7.93502C8.71702 35.6108 9.34603 34.9712 9.33903 34.188L9.28602 28.3398L16.88 23.9561V32.7241L11.789 35.6011C11.108 35.9858 10.867 36.8511 11.253 37.5322C11.513 37.9941 11.993 38.2529 12.488 38.2529C12.724 38.2529 12.964 38.1929 13.184 38.0688L16.88 35.98V40.852C16.88 41.6348 17.515 42.27 18.297 42.27C19.08 42.27 19.715 41.6348 19.715 40.852V35.98L23.411 38.0688C23.631 38.1929 23.871 38.2529 24.107 38.2529C24.601 38.2529 25.082 37.9941 25.342 37.5322C25.727 36.8511 25.487 35.9858 24.806 35.6011L19.715 32.7241V23.9561L27.308 28.3398L27.254 34.188C27.247 34.9712 27.875 35.6108 28.658 35.6182H28.672C29.448 35.6182 30.082 34.9922 30.089 34.2139L30.128 29.9678L34.347 32.4038C34.571 32.5332 34.814 32.5952 35.055 32.5952C35.545 32.5952 36.021 32.3398 36.284 31.8862C36.675 31.208 36.443 30.3408 35.765 29.9492L35.765 29.9492Z" fill="#09265E"/>
</svg>
