<svg width="97" height="34" viewBox="0 0 97 34" fill="none" xmlns="http://www.w3.org/2000/svg">
<path fill-rule="evenodd" clip-rule="evenodd" d="M84.1347 23.3818C81.4097 23.3818 79.1967 25.5879 79.1967 28.3149C79.1967 31.0449 81.4097 33.2539 84.1347 33.2539C86.8517 33.2539 89.0717 31.0449 89.0717 28.3149C89.0717 25.5918 86.8587 23.3818 84.1347 23.3818ZM84.1317 30.477C82.9377 30.477 81.9607 29.5088 81.9607 28.3101C81.9607 27.123 82.9287 26.146 84.1317 26.146C85.3177 26.146 86.2987 27.1138 86.2987 28.3101C86.2987 29.5088 85.3267 30.477 84.1317 30.477ZM72.6107 23.3818C69.8917 23.3818 67.6767 25.5879 67.6767 28.3149C67.6767 31.0449 69.8867 33.2539 72.6107 33.2539C75.3357 33.2539 77.5487 31.0449 77.5487 28.3149C77.5457 25.5918 75.3357 23.3818 72.6107 23.3818ZM72.6107 30.477C71.4237 30.477 70.4467 29.5088 70.4467 28.3101C70.4467 27.123 71.4187 26.146 72.6107 26.146C73.8078 26.146 74.7737 27.1138 74.7737 28.3101C74.7737 29.5088 73.8037 30.477 72.6107 30.477ZM60.9327 23.3818C58.2077 23.3818 55.9947 25.5879 55.9947 28.3149C55.9947 31.0449 58.2037 33.2539 60.9327 33.2539C63.6497 33.2539 65.8657 31.0449 65.8657 28.3149C65.8657 25.5918 63.6567 23.3818 60.9327 23.3818ZM60.9327 30.477C59.7387 30.477 58.7547 29.5088 58.7547 28.3101C58.7547 27.123 59.7267 26.146 60.9327 26.146C62.1197 26.146 63.0967 27.1138 63.0967 28.3101C63.0967 29.5088 62.1287 30.477 60.9327 30.477ZM10.8667 5.94189C10.8667 5.94189 13.8067 3.2749 19.1337 0.874018V5.94189H10.8667ZM19.7187 0.545898V7.05811H19.3057V25.8359V27.1748H54.9677C55.5737 24.4019 58.0457 22.3169 60.9867 22.3169C63.7047 22.3169 66.0007 24.0708 66.8377 26.5029C67.6657 24.0752 69.9657 22.3169 72.6747 22.3169C75.3047 22.3169 77.5457 23.9658 78.4397 26.291C79.3288 23.9658 81.5677 22.3169 84.2047 22.3169C87.1507 22.3169 89.6317 24.4019 90.2307 27.1748H95.3077V21.105H96.8847V0.545908L19.7187 0.545898ZM94.1397 24.1792H93.1397V21.1079H94.1397V24.1792ZM3.33973 26.521C3.26472 26.8662 3.21671 27.228 3.21671 27.5942C3.21671 27.9019 3.25571 28.2002 3.31772 28.4941H0.636719V26.521H3.33973ZM16.6887 26.521H18.7527V28.4902H16.7197C16.7587 28.2002 16.7917 27.8979 16.7917 27.5942C16.7897 27.2241 16.7457 26.8638 16.6887 26.521ZM54.8927 27.5942C54.8537 27.8872 54.8247 28.189 54.8247 28.4941C54.8247 28.6811 54.8387 28.855 54.8497 29.043H19.3097V27.5942H54.8927ZM90.3027 27.5942H95.8507V29.0391H90.3447C90.3597 28.855 90.3737 28.6768 90.3737 28.4941C90.3737 28.189 90.3447 27.8872 90.3027 27.5942ZM0.814709 15.959V18.126L0.812729 25.9741H3.81773C4.54472 23.1211 7.12373 21.0058 10.2037 21.0058C13.2767 21.0058 15.8497 23.1138 16.5817 25.9741H18.7957V7.0288H4.89174L0.814709 15.959ZM17.2727 8.46924V13.1611H11.9077L7.93874 16.499H2.63472L5.58473 8.46923L17.2727 8.46924ZM10.2217 23.0239C7.29771 23.02 4.92671 25.3911 4.92671 28.3149C4.92671 31.2388 7.29771 33.6069 10.2217 33.6069C13.1417 33.6069 15.5137 31.2432 15.5137 28.3149C15.5097 25.3911 13.1387 23.0239 10.2217 23.0239ZM10.2217 30.6348C8.93772 30.6348 7.89671 29.5962 7.89671 28.3101C7.89671 27.0332 8.92872 25.9878 10.2217 25.9878C11.5017 25.9878 12.5417 27.0239 12.5417 28.3101C12.5417 29.5962 11.5017 30.6348 10.2217 30.6348Z" fill="#09265E"/>
</svg>
