<svg width="17" height="16" viewBox="0 0 17 16" fill="none" xmlns="http://www.w3.org/2000/svg">
<g opacity="1">
<path d="M11.666 5C12.9921 5 14.2639 5.52678 15.2016 6.46447C16.1392 7.40215 16.666 8.67392 16.666 10V15.8333H13.3327V10C13.3327 9.55797 13.1571 9.13405 12.8445 8.82149C12.532 8.50893 12.108 8.33333 11.666 8.33333C11.224 8.33333 10.8001 8.50893 10.4875 8.82149C10.1749 9.13405 9.99935 9.55797 9.99935 10V15.8333H6.66602V10C6.66602 8.67392 7.1928 7.40215 8.13048 6.46447C9.06816 5.52678 10.3399 5 11.666 5Z" fill="#000046"/>
<path d="M3.33333 5.83398H0V15.834H3.33333V5.83398Z" fill="#000046"/>
<path d="M1.66667 3.33333C2.58714 3.33333 3.33333 2.58714 3.33333 1.66667C3.33333 0.746192 2.58714 0 1.66667 0C0.746192 0 0 0.746192 0 1.66667C0 2.58714 0.746192 3.33333 1.66667 3.33333Z" fill="#000046"/>
</g>
</svg>
