<svg width="119" height="22" xmlns="http://www.w3.org/2000/svg" xml:space="preserve" version="1.1">

 <g>
  <title>Layer 1</title>
  <path stroke="null" id="svg_1" fill="#00A226" d="m69.19581,3.69494l-3.93271,0l-0.49456,1.88314l-0.49456,-1.88314l-0.90353,0c-0.73233,0 -1.31249,-0.57065 -1.31249,-1.31249s0.57065,-1.31249 1.31249,-1.31249l5.81585,0c0.73233,0 1.31249,0.57065 1.31249,1.31249s-0.57065,1.31249 -1.30298,1.31249m0,-3.69494l-5.81585,0c-1.31249,0 -2.38245,1.06521 -2.38245,2.38245s1.06521,2.38245 2.38245,2.38245l0.24728,0l1.15081,2.9531l1.15081,-2.9531l3.36207,0c1.31249,0 2.38245,-1.06521 2.38245,-2.38245c-0.10462,-1.31725 -1.16983,-2.38245 -2.47756,-2.38245m43.45008,3.03394l3.44766,0l0,4.01831l2.79142,0l0,2.29686l-2.79142,0l0,4.83624c0,0.81793 0.24728,1.06521 1.15081,1.06521c0.57065,0 1.15081,0 1.63586,-0.0856l0,2.29686c-0.65625,0.0856 -1.88314,0.16168 -2.70582,0.16168c-3.27647,0 -3.52375,-1.22689 -3.52375,-3.11479l0,-5.2452l-2.13517,0l0,-2.20651l2.13517,0l-0.00476,-4.02307zm-89.27786,6.39126c-1.56453,0 -2.9531,0.81793 -2.9531,3.0387l0,4.99792l-3.44766,0l0,-10.40481l3.27647,0l0,1.47417c0.65625,-0.90353 2.20651,-1.79754 4.26559,-1.79754c1.79754,0 4.42728,0.65625 4.42728,3.77103l0,6.9619l-3.44766,0l0,-5.39262c0.00951,0 -0.01902,-2.64876 -2.12091,-2.64876l0,0zm14.09976,5.49249c1.47417,0 3.27647,-0.49456 3.27647,-2.86751c0,-2.36819 -1.79754,-2.86751 -3.27647,-2.86751c-1.47417,0 -3.27647,0.49456 -3.27647,2.86751c0.00476,2.37294 1.8023,2.86751 3.27647,2.86751m3.43815,-7.86067l3.27647,0l0,9.58688c0,3.60935 -2.29686,4.99792 -6.63854,4.99792c-2.54414,0 -6.06313,-0.32337 -6.40077,-3.44766l3.60935,0c0.24728,0.81793 0.90353,1.31249 2.86751,1.31249c1.72145,0 3.11479,-0.40896 3.11479,-2.9531l0,-0.81793c-0.97961,1.06521 -2.45854,1.56453 -4.18,1.56453c-4.0944,0 -5.90621,-2.54414 -5.90621,-5.15961c0,-2.86751 1.79754,-5.15961 6.22482,-5.15961c1.47417,0 3.0387,0.40896 3.93271,1.56453l0,-1.48844l0.09986,0zm5.33556,-3.6997l3.44766,0l0,2.38245l-3.44766,0l0,-2.38245zm0,3.6997l3.44766,0l0,10.40481l-3.44766,0l0,-10.40481zm54.75842,7.20443c0.16168,0.90353 0.73233,1.47417 2.54414,1.47417c1.56453,0 2.45854,-0.40896 2.45854,-1.15081c0,-0.57065 -0.32337,-0.81793 -1.97349,-1.06521l-3.11479,-0.40896c-2.20651,-0.32337 -3.44766,-0.97961 -3.44766,-2.9531c0,-2.79142 2.86751,-3.52375 5.65417,-3.52375c4.75064,0 5.90621,1.56453 6.15349,3.52375l-3.77103,0c-0.16168,-1.06521 -1.31249,-1.38858 -2.29686,-1.38858c-0.90353,0 -2.20651,0.0856 -2.20651,1.06521c0,0.49456 0.24728,0.81793 1.72145,0.97961l2.38245,0.24728c3.44766,0.32337 4.58896,1.38858 4.58896,3.20038c0,3.11479 -3.44766,3.52375 -6.40077,3.52375c-3.93271,0 -5.90621,-1.15081 -6.15349,-3.60935l3.85663,0l0.00476,0.0856zm-39.59345,-3.11479c0,-0.57065 -0.73233,-2.38245 -3.20038,-2.38245c-2.70582,0 -3.27647,2.04482 -3.27647,2.29686l6.47685,0l0,0.0856zm3.36207,3.20038c-0.97961,2.45854 -3.36207,3.52375 -6.47685,3.52375c-4.0944,0 -6.88582,-1.63586 -6.88582,-5.56857s2.79142,-5.56857 6.88582,-5.56857c4.51287,0 6.63854,2.29686 6.63854,6.22482l0,0.32337l-9.99585,0c0,0.97961 0.97961,2.54414 3.36207,2.54414c1.38858,0 2.38245,-0.49456 2.86751,-1.38858l3.60935,0l0,-0.09035l-0.00476,0zm4.841,-0.0856c0.16168,0.90353 0.73233,1.47417 2.54414,1.47417c1.55977,0 2.45854,-0.40896 2.45854,-1.15081c0,-0.57065 -0.32337,-0.81793 -1.97349,-1.06521l-3.11479,-0.40896c-2.20651,-0.32337 -3.44766,-0.97961 -3.44766,-2.9531c0,-2.79142 2.86751,-3.52375 5.65417,-3.52375c4.75064,0 5.90621,1.56453 6.15349,3.52375l-3.77103,0c-0.16168,-1.06521 -1.31249,-1.38858 -2.29686,-1.38858c-0.90353,0 -2.20651,0.0856 -2.20651,1.06521c0,0.49456 0.24728,0.81793 1.72145,0.97961l2.45854,0.32337c3.44766,0.32337 4.58896,1.38858 4.58896,3.20038c0,3.11479 -3.44766,3.52375 -6.40077,3.52375c-3.93271,0 -5.90621,-1.15081 -6.15349,-3.60935c0.01427,0.00951 3.7853,0.00951 3.7853,0.00951l0,0zm22.37415,-7.20443l3.44766,0l0,10.40481l-3.44766,0l0,-10.40481zm0,-3.6997l3.44766,0l0,2.38245l-3.44766,0l0,-2.38245zm-6.06313,-1.55026l3.44766,0l0,15.74037l-3.44766,0l0,-15.74037zm-77.56055,4.83624l-2.13517,5.49249l4.34168,0l-2.20651,-5.49249zm3.20038,7.95103l-6.40077,0l-1.1413,2.86751l-4.01831,0l6.06313,-13.76688l4.51287,0l6.06789,13.85248l-4.01831,0l-1.06521,-2.9531z" class="st0"/>
 </g>
</svg>