<svg width="114" height="36" viewBox="0 0 114 36" fill="none" xmlns="http://www.w3.org/2000/svg">
<path d="M14 12.7618V16.5919H23.16C23.0174 18.3889 22.2823 20.0876 21.07 21.4218C20.1531 22.3572 19.05 23.0898 17.8322 23.5721C16.6143 24.0545 15.3088 24.2758 14 24.2219C11.354 24.1389 8.84415 23.0295 7.00179 21.1285C5.15942 19.2275 4.12918 16.6841 4.12918 14.0369C4.12918 11.3896 5.15942 8.84619 7.00179 6.94518C8.84415 5.04418 11.354 3.93478 14 3.85186C16.5717 3.81734 19.0525 4.80246 20.9 6.59185L23.6 3.89184C22.3431 2.63197 20.8453 1.63824 19.1959 0.969903C17.5465 0.301563 15.7794 -0.0277056 14 0.00182414C10.287 0.00182414 6.72601 1.47684 4.1005 4.10235C1.47499 6.72786 0 10.2888 0 14.0018C0 17.7149 1.47499 21.2759 4.1005 23.9014C6.72601 26.5269 10.287 28.0018 14 28.0018C15.8156 28.0773 17.6265 27.766 19.3126 27.0884C20.9987 26.4109 22.5215 25.3826 23.78 24.0718C26.014 21.6371 27.2057 18.4244 27.1 15.1218C27.112 14.3172 27.045 13.5134 26.9 12.7219L14 12.7618Z" fill="#4285F4"/>
<path d="M38.55 9.64207C36.7593 9.64803 35.0105 10.1851 33.5252 11.1854C32.0398 12.1857 30.8845 13.6041 30.2057 15.2611C29.5268 16.9182 29.3548 18.7395 29.7115 20.4944C30.0681 22.2493 30.9374 23.859 32.2092 25.1196C33.4811 26.3803 35.0983 27.2352 36.8563 27.5763C38.6143 27.9174 40.4339 27.7293 42.085 27.0358C43.736 26.3423 45.1442 25.1746 46.1312 23.6804C47.1183 22.1862 47.6399 20.4328 47.63 18.6421C47.6409 17.4504 47.4129 16.2686 46.9594 15.1665C46.5059 14.0644 45.8362 13.0643 44.9898 12.2254C44.1434 11.3864 43.1375 10.7256 42.0314 10.2819C40.9253 9.8382 39.7416 9.62064 38.55 9.64207ZM38.55 24.172C37.4508 24.2483 36.354 23.992 35.4024 23.4366C34.4508 22.8811 33.6883 22.0521 33.2142 21.0574C32.7401 20.0627 32.5763 18.9485 32.744 17.8594C32.9118 16.7704 33.4033 15.757 34.1548 14.9511C34.9063 14.1453 35.8829 13.5841 36.9576 13.3408C38.0322 13.0974 39.1553 13.1831 40.1806 13.5866C41.2059 13.9902 42.0861 14.6929 42.7066 15.6034C43.3272 16.514 43.6594 17.5902 43.66 18.6921C43.6936 19.3896 43.5871 20.0868 43.3468 20.7426C43.1065 21.3983 42.7374 21.9993 42.2611 22.5101C41.7848 23.0209 41.2111 23.4311 40.5737 23.7165C39.9363 24.002 39.2482 24.1568 38.55 24.172Z" fill="#EA4335"/>
<path d="M83.0601 11.7019H82.9201C82.3141 11.0497 81.5762 10.5341 80.7555 10.1892C79.9347 9.84438 79.05 9.67826 78.1601 9.70192C75.8506 9.79058 73.6687 10.7842 72.0857 12.4682C70.5028 14.1522 69.6458 16.3914 69.7001 18.7019C69.7001 23.7819 73.6401 27.7019 78.1601 27.7019C79.0554 27.724 79.9447 27.5511 80.7666 27.1955C81.5885 26.8398 82.3233 26.3097 82.9201 25.6419H83.0601V26.9119C83.0601 30.3619 81.2101 32.2219 78.2301 32.2219C77.2348 32.1987 76.2691 31.8789 75.4567 31.3034C74.6443 30.728 74.0222 29.9231 73.6701 28.9919L70.2501 30.4719C70.9031 32.0555 72.0125 33.4088 73.4371 34.3598C74.8618 35.3107 76.5372 35.8162 78.2501 35.8119C82.9101 35.8119 86.8501 33.0719 86.8501 26.3919V10.1119H83.0801L83.0601 11.7019ZM78.5001 24.2019C75.7601 24.2019 73.6701 21.8719 73.6701 18.7219C73.6701 15.5719 75.7601 13.2419 78.5001 13.2419C81.2401 13.2419 83.3301 15.5719 83.3301 18.7519C83.3301 21.9319 81.2501 24.1719 78.5001 24.1719V24.2019Z" fill="#4285F4"/>
<path d="M58.8 9.64207C57.0093 9.64803 55.2605 10.1851 53.7752 11.1854C52.2898 12.1857 51.1345 13.6041 50.4557 15.2611C49.7768 16.9182 49.6048 18.7395 49.9615 20.4944C50.3181 22.2493 51.1874 23.859 52.4592 25.1196C53.7311 26.3803 55.3483 27.2352 57.1063 27.5763C58.8643 27.9174 60.6839 27.7293 62.335 27.0358C63.986 26.3423 65.3942 25.1746 66.3812 23.6804C67.3683 22.1862 67.8899 20.4328 67.88 18.6421C67.8909 17.4504 67.6629 16.2686 67.2094 15.1665C66.7559 14.0644 66.0862 13.0643 65.2398 12.2254C64.3934 11.3864 63.3875 10.7256 62.2814 10.2819C61.1753 9.8382 59.9916 9.62064 58.8 9.64207ZM58.8 24.172C57.7008 24.2483 56.604 23.992 55.6524 23.4366C54.7008 22.8811 53.9383 22.0521 53.4642 21.0574C52.9901 20.0627 52.8263 18.9485 52.994 17.8594C53.1618 16.7704 53.6533 15.757 54.4048 14.9511C55.1563 14.1453 56.1329 13.5841 57.2076 13.3408C58.2822 13.0974 59.4053 13.1831 60.4306 13.5866C61.4559 13.9902 62.3361 14.6929 62.9566 15.6034C63.5772 16.514 63.9094 17.5902 63.91 18.6921C63.9436 19.3896 63.8371 20.0868 63.5968 20.7426C63.3565 21.3983 62.9874 21.9993 62.5111 22.5101C62.0348 23.0209 61.4611 23.4311 60.8237 23.7165C60.1863 24.002 59.4982 24.1568 58.8 24.172Z" fill="#FBBC05"/>
<path d="M89.9501 0.37207H93.8601V27.7021H89.9501V0.37207Z" fill="#34A853"/>
<path d="M105.93 24.1719C105.008 24.2082 104.096 23.9664 103.313 23.4778C102.53 22.9891 101.912 22.2763 101.54 21.4319L113.64 16.4319L113.23 15.4319C112.48 13.4319 110.23 9.67188 105.49 9.67188C100.75 9.67188 96.96 13.3319 96.96 18.6719C96.9383 19.8597 97.1562 21.0398 97.6008 22.1415C98.0454 23.2433 98.7076 24.2441 99.5477 25.0842C100.388 25.9243 101.389 26.5864 102.49 27.031C103.592 27.4756 104.772 27.6936 105.96 27.6719C107.45 27.6812 108.918 27.3207 110.234 26.6226C111.55 25.9244 112.672 24.9105 113.5 23.6719L110.38 21.7019C109.917 22.4662 109.263 23.0973 108.483 23.5337C107.703 23.9701 106.824 24.1969 105.93 24.1919V24.1719ZM105.65 13.0419C106.354 12.999 107.055 13.1661 107.664 13.5222C108.273 13.8783 108.762 14.4073 109.07 15.0419L100.9 18.4219C100.9 14.6119 103.59 13.0419 105.65 13.0419Z" fill="#EA4335"/>
</svg>
