<svg width="72" height="54" viewBox="0 0 72 54" fill="none" xmlns="http://www.w3.org/2000/svg">
<path d="M0.0313152 4.67699C-0.0463942 4.04688 0.020986 3.40731 0.228309 2.80719C0.435632 2.20708 0.777425 1.66223 1.22758 1.21427C1.67774 0.766297 2.22435 0.427079 2.82571 0.222442C3.42707 0.0178046 4.06727 -0.0468491 4.69743 0.0334997H25.8835C26.5121 -0.0435439 27.15 0.0235957 27.7488 0.229709C28.3476 0.435822 28.8916 0.775544 29.3394 1.22311C29.7873 1.67067 30.1272 2.21431 30.3334 2.81276C30.5397 3.41121 30.6068 4.04875 30.5297 4.67699V27.4774C30.6045 29.5375 30.0355 31.5697 28.9016 33.2916L16.3329 52.3616C16.0924 52.8893 15.6939 53.3292 15.1923 53.6207C14.6908 53.9122 14.111 54.0408 13.5332 53.9887H3.06924C1.2028 53.9887 0.507846 52.8378 1.2028 51.2106L10.5151 30.7318H4.69743C4.06727 30.8122 3.42707 30.7475 2.82571 30.5429C2.22435 30.3383 1.67774 29.9991 1.22758 29.5511C0.777425 29.1031 0.435632 28.5583 0.228309 27.9582C0.020986 27.358 -0.0463942 26.7185 0.0313152 26.0884V4.67699ZM41.4702 4.67699C41.3931 4.04875 41.4603 3.41121 41.6665 2.81276C41.8727 2.21431 42.2127 1.67067 42.6605 1.22311C43.1083 0.775544 43.6523 0.435822 44.2511 0.229709C44.8499 0.0235957 45.4879 -0.0435439 46.1165 0.0334997H67.3026C67.9327 -0.0468491 68.5729 0.0178046 69.1743 0.222442C69.7756 0.427079 70.3223 0.766297 70.7724 1.21427C71.2226 1.66223 71.5644 2.20708 71.7717 2.80719C71.979 3.40731 72.0464 4.04688 71.9687 4.67699V27.4774C72.0318 29.5361 71.4637 31.5648 70.3405 33.2916L57.7718 52.3616C57.5267 52.8857 57.1273 53.3224 56.6269 53.6132C56.1265 53.904 55.5492 54.035 54.9722 53.9887H44.4883C42.6417 53.9887 41.9269 52.8378 42.6417 51.2106L51.9541 30.7318H46.1165C45.4879 30.8089 44.8499 30.7418 44.2511 30.5356C43.6523 30.3295 43.1083 29.9898 42.6605 29.5422C42.2127 29.0947 41.8727 28.551 41.6665 27.9526C41.4603 27.3541 41.3931 26.7166 41.4702 26.0884V4.67699Z" fill="white"/>
</svg>
