<svg width="119" height="16" xmlns="http://www.w3.org/2000/svg" xml:space="preserve" version="1.1">

 <g>
  <title>Layer 1</title>
  <g stroke="null" id="svg_20">
   <circle stroke="null" id="svg_1" fill="#AF4499" r="8.05668" cy="8.05668" cx="111.34332" class="st0"/>
   <polygon stroke="null" id="svg_2" fill="#AF4499" points="103.04492988586426,15.146557807922363 104.8576816558838,8.983198165893555 110.09452857971192,14.622875213623047 " class="st0"/>
   <polygon stroke="null" id="svg_3" fill="#FFFFFF" points="114.32428016662598,3.9880564212799072 110.29594459533692,9.063764572143555 108.16092720031739,7.371861934661865 107.19413032531739,8.902631759643555 110.61821784973145,12.165586471557617 115.53278388977051,4.753440856933594 " class="st1"/>
   <g stroke="null" id="svg_4">
    <path stroke="null" id="svg_5" d="m4.10891,10.1917c-0.20142,0 -0.40283,0.04028 -0.60425,0.04028l-2.45729,0l0,2.9004l-1.04737,0l0,-9.2249l3.50466,0c2.29615,0 3.62551,1.12794 3.62551,3.10182c0,1.53077 -0.7251,2.53785 -2.05445,2.98097l2.1753,3.14211l-1.2085,0l-1.9336,-2.94069zm-0.60425,-0.9668c1.65162,0 2.61842,-0.7251 2.61842,-2.1753c0,-1.40992 -0.9668,-2.09474 -2.61842,-2.09474l-2.45729,0l0,4.27004l2.45729,0z"/>
    <path stroke="null" id="svg_6" d="m15.34798,10.07085l-5.63968,0c0.20142,1.36964 1.16822,2.21559 2.49757,2.21559c0.84595,0 1.61134,-0.32227 2.13502,-0.88623l0.56397,0.60425c-0.64453,0.7251 -1.65162,1.16822 -2.77955,1.16822c-2.05445,0 -3.46437,-1.4502 -3.46437,-3.50466s1.40992,-3.50466 3.42409,-3.50466c2.25587,0 3.34352,1.57105 3.26296,3.90749zm-0.92652,-0.84595c-0.08057,-1.32935 -0.9668,-2.1753 -2.29615,-2.1753c-1.32935,0 -2.25587,0.84595 -2.417,2.1753l4.71316,0z"/>
    <path stroke="null" id="svg_7" d="m21.14878,6.80789l-0.40283,0.80567c-0.52368,-0.32227 -1.24879,-0.56397 -1.89332,-0.56397c-0.76538,0 -1.36964,0.28198 -1.36964,0.92652c0,1.53077 3.86721,0.76538 3.86721,3.22267c0,1.36964 -1.2085,1.97389 -2.53785,1.97389c-1.00708,0 -2.01417,-0.32227 -2.6587,-0.9668l0.40283,-0.76538c0.60425,0.56397 1.49049,0.88623 2.29615,0.88623c0.80567,0 1.49049,-0.32227 1.49049,-1.00708c0.04028,-1.65162 -3.82692,-0.80567 -3.82692,-3.26296c0,-1.32935 1.12794,-1.89332 2.417,-1.89332c0.84595,0 1.65162,0.2417 2.21559,0.64453z"/>
    <path stroke="null" id="svg_8" d="m29.04433,10.07085l-5.63968,0c0.20142,1.36964 1.16822,2.21559 2.49757,2.21559c0.84595,0 1.61134,-0.32227 2.13502,-0.88623l0.56397,0.60425c-0.64453,0.7251 -1.65162,1.16822 -2.77955,1.16822c-2.05445,0 -3.46437,-1.4502 -3.46437,-3.50466s1.40992,-3.50466 3.42409,-3.50466c2.25587,0 3.34352,1.57105 3.26296,3.90749zm-0.92652,-0.84595c-0.08057,-1.32935 -0.9668,-2.1753 -2.29615,-2.1753c-1.32935,0 -2.25587,0.84595 -2.417,2.1753l4.71316,0z"/>
    <path stroke="null" id="svg_9" d="m30.85708,13.13239l0,-9.74858l1.00708,0l0,9.74858l-1.00708,0z"/>
    <path stroke="null" id="svg_10" d="m34.52287,13.13239l0,-9.74858l1.00708,0l0,9.74858l-1.00708,0z"/>
    <path stroke="null" id="svg_11" d="m44.07004,10.07085l-5.63968,0c0.20142,1.36964 1.16822,2.21559 2.49757,2.21559c0.84595,0 1.61134,-0.32227 2.13502,-0.88623l0.56397,0.60425c-0.64453,0.7251 -1.65162,1.16822 -2.77955,1.16822c-2.05445,0 -3.46437,-1.4502 -3.46437,-3.50466s1.40992,-3.50466 3.42409,-3.50466c2.29615,0 3.38381,1.57105 3.26296,3.90749zm-0.88623,-0.84595c-0.08057,-1.32935 -0.9668,-2.1753 -2.29615,-2.1753c-1.32935,0 -2.25587,0.84595 -2.417,2.1753l4.71316,0z"/>
    <path stroke="null" id="svg_12" d="m46.88988,7.73441c0.44312,-1.00708 1.32935,-1.57105 2.49757,-1.57105l0,1.04737c-1.4502,-0.04028 -2.37672,0.88623 -2.49757,2.25587l0,3.66579l-1.00708,0l0,-6.92874l1.00708,0l0,1.53077z"/>
    <path stroke="null" id="svg_13" d="m54.70486,10.51397l-0.20142,0l-1.9336,0l0,2.61842l-2.09474,0l0,-9.2249l3.98806,0c2.417,0 3.78664,1.16822 3.78664,3.18239c0,1.40992 -0.60425,2.45729 -1.73219,2.98097l1.97389,3.02125l-2.33644,0l-1.4502,-2.57814zm-0.20142,-1.73219c1.12794,0 1.81275,-0.52368 1.81275,-1.57105c0,-1.00708 -0.64453,-1.53077 -1.81275,-1.53077l-1.9336,0l0,3.10182l1.9336,0z"/>
    <path stroke="null" id="svg_14" d="m64.09089,12.32672c-0.4834,0.60425 -1.24879,0.92652 -2.21559,0.92652c-1.53077,0 -2.417,-0.92652 -2.417,-2.21559c0,-1.32935 0.9668,-2.13502 2.69899,-2.13502l1.9336,0l0,-0.12085c0,-0.76538 -0.4834,-1.16822 -1.49049,-1.16822c-0.64453,0 -1.36964,0.20142 -2.09474,0.60425l-0.64453,-1.40992c1.04737,-0.52368 1.97389,-0.80567 3.18239,-0.80567c1.89332,0 2.98097,0.9668 2.98097,2.53785l0,4.63259l-1.97389,0l0,-0.84595l0.04028,0zm0,-1.61134l0,-0.64453l-1.61134,0c-0.76538,0 -1.16822,0.2417 -1.16822,0.80567c0,0.52368 0.40283,0.88623 1.08765,0.88623c0.88623,0 1.57105,-0.44312 1.6919,-1.04737z"/>
    <path stroke="null" id="svg_15" d="m72.22814,12.72955c-0.52368,0.32227 -1.16822,0.4834 -1.85304,0.4834c-1.24879,0 -2.21559,-0.7251 -2.21559,-2.1753l0,-3.26296l-1.00708,0l0,-1.40992l1.00708,0l0,-1.9336l2.01417,0l0,1.9336l1.9336,0l0,1.40992l-1.9336,0l0,2.94069c0,0.60425 0.2417,0.84595 0.68482,0.80567c0.28198,0 0.56397,-0.08057 0.9668,-0.28198l0.40283,1.49049z"/>
    <path stroke="null" id="svg_16" d="m75.57166,4.02834c0,0.64453 -0.44312,1.12794 -1.08765,1.12794c-0.64453,0 -1.08765,-0.4834 -1.08765,-1.12794s0.44312,-1.12794 1.08765,-1.12794c0.60425,0 1.08765,0.4834 1.08765,1.12794zm-2.13502,9.10405l0,-7.08988l2.01417,0l0,7.08988l-2.01417,0z"/>
    <path stroke="null" id="svg_17" d="m84.47429,8.70121l0,4.43117l-2.01417,0l0,-3.86721c0,-0.88623 -0.52368,-1.4502 -1.40992,-1.4502c-1.00708,0 -1.61134,0.76538 -1.61134,1.81275l0,3.50466l-2.01417,0l0,-7.08988l2.01417,0l0,1.24879c0.4834,-0.88623 1.32935,-1.28907 2.45729,-1.32935c1.57105,0 2.57814,1.08765 2.57814,2.73927z"/>
    <path stroke="null" id="svg_18" d="m92.85324,12.48785c0,2.01417 -1.53077,3.30324 -3.78664,3.30324c-1.2085,0 -2.25587,-0.36255 -3.06154,-0.92652l0.76538,-1.40992c0.64453,0.44312 1.40992,0.7251 2.21559,0.7251c1.16822,0 1.89332,-0.60425 1.89332,-1.57105l0,-0.80567c-0.4834,0.64453 -1.2085,1.00708 -2.13502,1.00708c-1.81275,0 -3.10182,-1.36964 -3.10182,-3.42409c0,-2.01417 1.24879,-3.34352 3.02125,-3.34352c0.9668,0 1.6919,0.36255 2.1753,1.00708l0,-0.9668l2.01417,0l0,6.40506zm-2.01417,-3.10182c0,-1.08765 -0.68482,-1.85304 -1.65162,-1.85304c-0.9668,0 -1.65162,0.76538 -1.65162,1.85304c0,1.08765 0.68482,1.81275 1.65162,1.81275c1.00708,0.04028 1.65162,-0.7251 1.65162,-1.81275z"/>
    <path stroke="null" id="svg_19" d="m99.90283,6.76761l-0.68482,1.36964c-0.76538,-0.44312 -1.57105,-0.68482 -2.1753,-0.68482c-0.4834,0 -0.80567,0.16113 -0.80567,0.52368c0,1.04737 3.74636,0.52368 3.70607,3.02125c0,1.4502 -1.28907,2.21559 -2.9004,2.21559c-1.12794,0 -2.25587,-0.32227 -3.06154,-1.00708l0.64453,-1.36964c0.7251,0.56397 1.6919,0.88623 2.45729,0.88623c0.52368,0 0.88623,-0.16113 0.88623,-0.56397c0,-1.12794 -3.66579,-0.52368 -3.66579,-3.02125c0,-1.4502 1.24879,-2.21559 2.77955,-2.21559c1.00708,0.04028 2.01417,0.32227 2.81984,0.84595z"/>
   </g>
  </g>
 </g>
</svg>