<svg width="26" height="26" viewBox="0 0 26 26" fill="none" xmlns="http://www.w3.org/2000/svg">
<circle opacity="0.2" cx="13" cy="13" r="13" fill="#FAFBFF"/>
<path d="M18.4939 11.7411V11.5084C18.4939 8.74421 16.0321 6.5 12.9998 6.5C9.96757 6.5 7.50574 8.74421 7.50574 11.5084V11.7411C6.93532 11.8642 6.5 12.3432 6.5 12.9042V14.5737C6.5 15.2305 7.08543 15.7642 7.80597 15.7642H8.54151C9.26204 15.7642 9.84748 15.2305 9.84748 14.5737V12.9042C9.84748 12.3432 9.41216 11.8779 8.84173 11.7411V11.5084C8.84173 9.41474 10.7031 7.71789 12.9998 7.71789C15.2965 7.71789 17.1579 9.41474 17.1579 11.5084V11.7411C16.5875 11.8642 16.1521 12.3432 16.1521 12.9042V14.5737C16.1521 15.1484 16.6025 15.6274 17.1879 15.7368C16.8126 16.9 15.7318 17.8032 14.3958 18.0084C14.3508 17.7211 14.0656 17.4884 13.7354 17.4884H12.2793C11.904 17.4884 11.6038 17.7621 11.6038 18.1042V18.8842C11.6038 19.2263 11.904 19.5 12.2793 19.5H13.7354C14.0806 19.5 14.3658 19.2537 14.3958 18.9389C16.2722 18.7063 17.7884 17.42 18.2087 15.7642C18.9292 15.7505 19.4996 15.2168 19.4996 14.5737V12.9042C19.5146 12.3432 19.0793 11.8642 18.4939 11.7411Z" fill="white"/>
</svg>
