<svg width="30" height="30" viewBox="0 0 30 30" fill="none" xmlns="http://www.w3.org/2000/svg">
<circle cx="15" cy="15" r="15" fill="#0D2C68"/>
<path fill-rule="evenodd" clip-rule="evenodd" d="M21.7071 8.29289C22.0976 8.68342 22.0976 9.31658 21.7071 9.70711L9.70711 21.7071C9.31658 22.0976 8.68342 22.0976 8.29289 21.7071C7.90237 21.3166 7.90237 20.6834 8.29289 20.2929L20.2929 8.29289C20.6834 7.90237 21.3166 7.90237 21.7071 8.29289Z" fill="white"/>
<path fill-rule="evenodd" clip-rule="evenodd" d="M8.29289 8.29289C8.68342 7.90237 9.31658 7.90237 9.70711 8.29289L21.7071 20.2929C22.0976 20.6834 22.0976 21.3166 21.7071 21.7071C21.3166 22.0976 20.6834 22.0976 20.2929 21.7071L8.29289 9.70711C7.90237 9.31658 7.90237 8.68342 8.29289 8.29289Z" fill="white"/>
</svg>
