<svg width="34" height="34" viewBox="0 0 34 34" fill="none" xmlns="http://www.w3.org/2000/svg">
<circle opacity="0.1" cx="17" cy="17" r="17" fill="#4196F8"/>
<path d="M24.1843 15.3537V15.0495C24.1843 11.4347 20.965 8.5 16.9998 8.5C13.0345 8.5 9.8152 11.4347 9.8152 15.0495V15.3537C9.06927 15.5147 8.5 16.1411 8.5 16.8747V19.0579C8.5 19.9168 9.26557 20.6147 10.2078 20.6147H11.1697C12.1119 20.6147 12.8775 19.9168 12.8775 19.0579V16.8747C12.8775 16.1411 12.3082 15.5326 11.5623 15.3537V15.0495C11.5623 12.3116 13.9964 10.0926 16.9998 10.0926C20.0031 10.0926 22.4372 12.3116 22.4372 15.0495V15.3537C21.6913 15.5147 21.122 16.1411 21.122 16.8747V19.0579C21.122 19.8095 21.7109 20.4358 22.4765 20.5789C21.9858 22.1 20.5724 23.2811 18.8253 23.5495C18.7664 23.1737 18.3935 22.8695 17.9616 22.8695H16.0575C15.5668 22.8695 15.1742 23.2274 15.1742 23.6747V24.6947C15.1742 25.1421 15.5668 25.5 16.0575 25.5H17.9616C18.4131 25.5 18.7861 25.1779 18.8253 24.7663C21.2791 24.4621 23.2617 22.78 23.8113 20.6147C24.7536 20.5968 25.4995 19.8989 25.4995 19.0579V16.8747C25.5191 16.1411 24.9499 15.5147 24.1843 15.3537Z" fill="white"/>
</svg>
