<svg width="36" height="36" viewBox="0 0 36 36" fill="none" xmlns="http://www.w3.org/2000/svg">
<path d="M18.0024 26.4375L12.7266 28.5469V30.7266C12.7266 33.6375 15.0891 36 18 36C20.9109 36 23.2734 33.6375 23.2734 30.7266V28.5469L18.0024 26.4375Z" fill="url(#paint0_linear)"/>
<path d="M3.16406 16.9453H1.05469C0.471727 16.9453 0 17.417 0 18C0 18.583 0.471727 19.0547 1.05469 19.0547H3.16406C3.74702 19.0547 4.21875 18.583 4.21875 18C4.21875 17.417 3.74702 16.9453 3.16406 16.9453ZM34.9453 16.9453H32.8359C32.253 16.9453 31.7812 17.417 31.7812 18C31.7812 18.583 32.253 19.0547 32.8359 19.0547H34.9453C35.5283 19.0547 36 18.583 36 18C36 17.417 35.5283 16.9453 34.9453 16.9453ZM6.81251 27.6951L5.32111 29.1865C4.90915 29.5985 4.90915 30.2659 5.32111 30.6779C5.73314 31.0899 6.40055 31.0899 6.81251 30.6779L8.30391 29.1865C8.71587 28.7745 8.71587 28.1071 8.30391 27.6951C7.89195 27.2831 7.22447 27.2831 6.81251 27.6951ZM29.1875 5.32209L27.6961 6.81349C27.2841 7.22545 27.2841 7.89293 27.6961 8.30489C28.1081 8.71685 28.7755 8.71685 29.1875 8.30489L30.6789 6.81349C31.0909 6.40153 31.0909 5.73406 30.6789 5.32209C30.2669 4.91013 29.5995 4.91013 29.1875 5.32209ZM18 4.21875C18.583 4.21875 19.0547 3.74702 19.0547 3.16406V1.05469C19.0547 0.471727 18.583 0 18 0C17.417 0 16.9453 0.471727 16.9453 1.05469V3.16406C16.9453 3.74702 17.417 4.21875 18 4.21875ZM29.1875 27.6951C28.7755 27.2831 28.1081 27.2831 27.6961 27.6951C27.2841 28.1071 27.2841 28.7745 27.6961 29.1865L29.1875 30.6779C29.5995 31.0899 30.2669 31.0899 30.6789 30.6779C31.0909 30.2659 31.0909 29.5985 30.6789 29.1865L29.1875 27.6951ZM6.81251 8.30489C7.22454 8.71685 7.89195 8.71685 8.30391 8.30489C8.71587 7.89293 8.71587 7.22545 8.30391 6.81349L6.81251 5.32209C6.40055 4.91013 5.73307 4.91013 5.32111 5.32209C4.90915 5.73406 4.90915 6.40153 5.32111 6.81349L6.81251 8.30489ZM24.6234 8.73985C22.1554 6.73587 18.907 5.97656 15.7218 6.63047C11.6507 7.49524 8.40234 10.8492 7.64297 14.9625C6.92578 18.8437 8.3179 22.6406 11.3766 25.1086C12.2415 25.8047 12.7266 26.7329 12.7266 27.682V28.5469H23.2734V27.682C23.2734 26.7328 23.7585 25.8047 24.6234 25.1085C27.1125 23.0835 28.5469 20.1094 28.5469 16.9453C28.5469 13.7601 27.1125 10.7649 24.6234 8.73985Z" fill="url(#paint1_linear)"/>
<defs>
<linearGradient id="paint0_linear" x1="18" y1="36" x2="18" y2="26.4375" gradientUnits="userSpaceOnUse">
<stop stop-color="#FFE59A"/>
<stop offset="1" stop-color="#FFFFD5"/>
</linearGradient>
<linearGradient id="paint1_linear" x1="18" y1="30.9869" x2="18" y2="0" gradientUnits="userSpaceOnUse">
<stop stop-color="#FC886E"/>
<stop offset="1" stop-color="#FBE7B5"/>
</linearGradient>
</defs>
</svg>
