<svg width="36" height="36" viewBox="0 0 36 36" fill="none" xmlns="http://www.w3.org/2000/svg">
<path d="M26.4375 10.6172H23.168C22.7461 8.54993 21.1218 6.92578 19.0547 6.50391L18 4.28906L16.9453 6.50391C14.8782 6.92578 13.2539 8.54993 12.832 10.6172H9.5625C8.9718 10.6172 8.50781 11.0812 8.50781 11.6719V34.9453C8.50781 35.5359 8.9718 36 9.5625 36H26.4375C27.0282 36 27.4922 35.5359 27.4922 34.9453V11.6719C27.4922 11.0812 27.0282 10.6172 26.4375 10.6172Z" fill="url(#paint0_linear)"/>
<path d="M19.0547 11.6719C19.0547 12.2543 18.5825 12.7266 18 12.7266C17.4175 12.7266 16.9453 12.2543 16.9453 11.6719C16.9453 11.0894 17.4175 10.6172 18 10.6172C18.5825 10.6172 19.0547 11.0894 19.0547 11.6719Z" fill="#D19F93"/>
<path d="M19.0547 1.05469V6.50391C18.7173 6.44055 18.3585 6.39844 18 6.39844C17.6415 6.39844 17.2827 6.44055 16.9453 6.50391V1.05469C16.9453 0.463992 17.4093 0 18 0C18.5907 0 19.0547 0.463992 19.0547 1.05469Z" fill="#D19F93"/>
<path d="M17.9999 23.2734C17.419 23.2734 16.9452 22.8007 16.9452 22.2188C16.9452 21.6368 17.419 21.1641 17.9999 21.1641C18.3748 21.1641 18.7251 21.3659 18.9146 21.6925C19.2071 22.1961 19.8539 22.3691 20.3545 22.0766C20.8592 21.7851 21.0322 21.1404 20.7397 20.6357C20.3594 19.9785 19.7504 19.5098 19.0547 19.2604V18C19.0547 17.417 18.583 16.9453 18 16.9453C17.417 16.9453 16.9453 17.417 16.9453 18V19.249C15.7203 19.6857 14.8359 20.8455 14.8359 22.2188C14.8359 23.6937 15.8494 24.9358 17.3078 25.2849C17.6041 25.4218 17.8289 25.372 18 25.3828C18.5809 25.3828 19.0547 25.8556 19.0547 26.4375C19.0547 27.0194 18.5809 27.4922 18 27.4922C17.6251 27.4922 17.2749 27.2903 17.0854 26.9638C16.7908 26.4581 16.144 26.286 15.6454 26.5796C15.1407 26.8711 14.9677 27.5158 15.2602 28.0205C15.6405 28.6778 16.2495 29.1464 16.9452 29.3958V30.6562C16.9452 31.2392 17.417 31.7109 17.9999 31.7109C18.5829 31.7109 19.0546 31.2392 19.0546 30.6562V29.4073C20.2796 28.9705 21.164 27.8107 21.164 26.4375C21.164 24.6928 19.7447 23.2734 17.9999 23.2734Z" fill="white"/>
<defs>
<linearGradient id="paint0_linear" x1="18" y1="36" x2="18" y2="4.28906" gradientUnits="userSpaceOnUse">
<stop stop-color="#FC886E"/>
<stop offset="1" stop-color="#FBE7B5"/>
</linearGradient>
</defs>
</svg>
