<svg width="34" height="44" viewBox="0 0 34 44" fill="none" xmlns="http://www.w3.org/2000/svg">
<path d="M32.4688 7.01404C25.3336 7.01404 17.9392 0.400203 17.866 0.333945C17.3745 -0.111641 16.6254 -0.111641 16.134 0.333945C16.0604 0.400719 8.68538 7.01404 1.53125 7.01404C0.819344 7.01404 0.242188 7.59119 0.242188 8.3031V23.7407C0.242188 36.2467 9.54372 41.244 16.5402 43.915C16.6883 43.9715 16.8441 43.9997 17 43.9997C17.1559 43.9997 17.3117 43.9715 17.4598 43.915C27.2699 40.1698 33.7578 34.3279 33.7578 23.7407V8.3031C33.7578 7.59119 33.1807 7.01404 32.4688 7.01404Z" fill="url(#paint0_linear)"/>
<path d="M17 12.9763C12.0245 12.9763 7.97656 17.0242 7.97656 21.9998C7.97656 26.9753 12.0245 31.0232 17 31.0232C21.9755 31.0232 26.0234 26.9753 26.0234 21.9998C26.0234 17.0242 21.9755 12.9763 17 12.9763ZM20.4896 21.6221L16.6224 25.4893C16.3708 25.741 16.0409 25.8669 15.7109 25.8669C15.381 25.8669 15.0511 25.7411 14.7995 25.4893L13.5104 24.2003C13.007 23.6969 13.007 22.8807 13.5104 22.3773C14.0138 21.8739 14.83 21.8739 15.3334 22.3773L15.711 22.7548L18.6668 19.7992C19.1701 19.2957 19.9863 19.2957 20.4897 19.7992C20.9931 20.3026 20.9931 21.1187 20.4896 21.6221Z" fill="url(#paint1_linear)"/>
<defs>
<linearGradient id="paint0_linear" x1="17" y1="43.9997" x2="17" y2="-0.000265121" gradientUnits="userSpaceOnUse">
<stop stop-color="#41952C"/>
<stop offset="1" stop-color="#BBFFAA"/>
</linearGradient>
<linearGradient id="paint1_linear" x1="17" y1="31.0232" x2="17" y2="12.9763" gradientUnits="userSpaceOnUse">
<stop stop-color="#C3FFE8"/>
<stop offset="0.9973" stop-color="#F0FFF4"/>
</linearGradient>
</defs>
</svg>
