<svg xmlns="http://www.w3.org/2000/svg" viewBox="0 0 112.48 49.9"><defs><style>.cls-1{fill:#fcd010;}.cls-2,.cls-3{fill:#f4f7fb;}.cls-3{fill-rule:evenodd;}</style></defs><g id="katman_2" data-name="katman 2"><g id="katman_1-2" data-name="katman 1"><path class="cls-1" d="M15.13,6.16a.53.53,0,0,0-.28-.91l-.39-.07-4-.61a.56.56,0,0,1-.4-.3L8.18.3a.54.54,0,0,0-1,0l-2,3.93a.51.51,0,0,1-.4.29L.46,5.1A.53.53,0,0,0,.16,6L3.28,9.12a.53.53,0,0,1,.15.48l-.66,3.66-.13.67a.54.54,0,0,0,.78.57l3.91-2a.55.55,0,0,1,.5,0l3.88,2.09a.53.53,0,0,0,.78-.55l-.7-4.35A.54.54,0,0,1,12,9.2Z"/><path class="cls-1" d="M39.43,6.16a.53.53,0,0,0-.29-.91l-.39-.07-4-.61a.56.56,0,0,1-.4-.3L32.48.3a.54.54,0,0,0-1,0l-2,3.93a.52.52,0,0,1-.41.29l-4.36.59a.54.54,0,0,0-.31.91l3.13,3.11a.55.55,0,0,1,.15.48l-.67,3.66-.12.67a.53.53,0,0,0,.77.57l3.92-2a.55.55,0,0,1,.5,0L36,14.58a.53.53,0,0,0,.78-.55l-.7-4.35a.54.54,0,0,1,.16-.48Z"/><path class="cls-1" d="M63.73,6.16a.53.53,0,0,0-.29-.91l-.39-.07-4-.61a.52.52,0,0,1-.4-.3L56.78.3a.55.55,0,0,0-1,0l-2,3.93a.52.52,0,0,1-.41.29l-4.36.59a.54.54,0,0,0-.31.91l3.12,3.11A.53.53,0,0,1,52,9.6l-.66,3.66-.12.67a.53.53,0,0,0,.77.57l3.92-2a.53.53,0,0,1,.49,0l3.88,2.09a.54.54,0,0,0,.79-.55l-.71-4.35a.57.57,0,0,1,.16-.48Z"/><path class="cls-1" d="M88,6.16a.53.53,0,0,0-.29-.91l-.39-.07-4-.61a.56.56,0,0,1-.4-.3L81.07.3a.54.54,0,0,0-1,0l-2,3.93a.52.52,0,0,1-.4.29l-4.37.59a.53.53,0,0,0-.3.91l3.12,3.11a.53.53,0,0,1,.15.48l-.67,3.66-.12.67a.53.53,0,0,0,.77.57l3.92-2a.55.55,0,0,1,.5,0l3.88,2.09a.53.53,0,0,0,.78-.55l-.7-4.35a.54.54,0,0,1,.16-.48Z"/><path class="cls-1" d="M112.32,6.16a.53.53,0,0,0-.29-.91l-.39-.07-4-.61a.52.52,0,0,1-.4-.3l-1.91-4a.54.54,0,0,0-1,0l-2,3.93a.52.52,0,0,1-.41.29l-4.36.59a.54.54,0,0,0-.31.91l3.13,3.11a.52.52,0,0,1,.14.48L100,13.26l-.12.67a.53.53,0,0,0,.77.57l3.92-2a.55.55,0,0,1,.5,0l3.87,2.09a.54.54,0,0,0,.79-.55L109,9.68a.6.6,0,0,1,.16-.48Z"/><path class="cls-2" d="M12.7,41.3H10.34v3H8v-3H.65V39.59L7.21,31H9.85L3.67,39.21H8V36.53h2.32v2.68H12.7Z"/><path class="cls-2" d="M14.05,42.87a1.56,1.56,0,1,1,3.11,0,1.56,1.56,0,1,1-3.11,0Z"/><path class="cls-2" d="M29.17,40.2c0,2.64-2.15,4.31-4.87,4.31-3.62,0-5.75-2.34-5.75-6.61,0-4.56,2.66-7.07,6.51-7.07a6.67,6.67,0,0,1,3.5.85l-.91,1.87a4.49,4.49,0,0,0-2.53-.65c-2.51,0-4.08,1.56-4.08,4.58v0a4.53,4.53,0,0,1,3.55-1.39C27.21,36.11,29.17,37.71,29.17,40.2Zm-2.4.11c0-1.39-1-2.26-2.66-2.26a2.42,2.42,0,0,0-2.69,2.28c0,1.25,1,2.24,2.75,2.24A2.3,2.3,0,0,0,26.77,40.31Z"/><path class="cls-3" d="M75.69,40.54h0a.38.38,0,0,0-.37-.37h-.93v.74h.9a.37.37,0,0,0,.4-.37"/><path class="cls-3" d="M75.31,41.53h-.92v.79h.92c.28,0,.44-.15.44-.39a.39.39,0,0,0-.44-.4"/><path class="cls-3" d="M86.22,34.82a.45.45,0,0,0-.5-.46H85v.91h.76a.45.45,0,0,0,.5-.45"/><polygon class="cls-3" points="74.54 35.91 75.59 35.91 75.07 34.45 74.54 35.91"/><path class="cls-3" d="M93,35.42h0a1,1,0,0,0-1.06-1.06h-.62v2.12h.62A1,1,0,0,0,93,35.42"/><path class="cls-3" d="M108.87,26.08H51.72a3.15,3.15,0,0,0-3.13,3.13V46.77a3.14,3.14,0,0,0,3.13,3.13h57.15A3.16,3.16,0,0,0,112,46.77V29.21a3.16,3.16,0,0,0-3.13-3.13M90.55,33.73h1.34a1.7,1.7,0,1,1,0,3.39H90.55Zm-3,0H90v.63H88.27v.72h1.64v.63H88.27v.77h1.67v.64H87.55ZM70.09,49.41H51.72a2.66,2.66,0,0,1-2.64-2.64V29.21a2.66,2.66,0,0,1,2.64-2.64H70.09Zm5.41-6.47H73.66v-3.4h1.79a.87.87,0,0,1,1,.87.74.74,0,0,1-.58.77.83.83,0,0,1,.65.84.89.89,0,0,1-1,.91m.5-5.82-.21-.58H74.34l-.21.58H73.3l1.31-3.39h.91l1.31,3.39Zm4.14,4.47a1.54,1.54,0,0,1-3.07,0v-2h.74v2a.73.73,0,0,0,.79.8.74.74,0,0,0,.8-.8v-2h.74Zm-1.32-5.07a.89.89,0,0,0,.8-.49l.62.31a1.57,1.57,0,0,1-1.42.83,1.76,1.76,0,1,1,0-3.51,1.57,1.57,0,0,1,1.42.84l-.62.3a.9.9,0,0,0-.8-.49,1.11,1.11,0,0,0,0,2.21M82,43a2,2,0,0,1-1.44-.54l.4-.55a1.49,1.49,0,0,0,1.07.45c.4,0,.59-.18.59-.37s-.31-.32-.68-.41c-.56-.13-1.27-.28-1.27-1.06,0-.56.49-1,1.29-1a1.87,1.87,0,0,1,1.32.47l-.4.53a1.5,1.5,0,0,0-1-.37c-.31,0-.48.14-.48.34s.31.29.67.38c.56.13,1.28.3,1.28,1.07C83.4,42.54,83,43,82,43m.31-6.49a.9.9,0,0,0,.8-.49l.62.3a1.57,1.57,0,0,1-1.42.83,1.7,1.7,0,0,1-1.81-1.74,1.73,1.73,0,0,1,1.81-1.76,1.57,1.57,0,0,1,1.42.84l-.62.3a.9.9,0,0,0-.8-.49,1.11,1.11,0,0,0,0,2.21m2.3,6.42h-.73V39.55h.73ZM85,37.12h-.72V33.73h1.58A1.05,1.05,0,0,1,87,34.82a1,1,0,0,1-.73,1L87,37.12h-.84l-.66-1.2H85Zm3.43,5.82h-.7l-1.61-2.22V43h-.73v-3.4h.74l1.58,2.13V39.55h.72Zm3.11-2.75H89.82v.71h1.64v.64H89.82v.77H91.5v.63H89.09v-3.4H91.5ZM93.31,43a2,2,0,0,1-1.44-.54l.39-.55a1.5,1.5,0,0,0,1.08.45c.39,0,.59-.18.59-.37s-.32-.32-.69-.41c-.55-.13-1.26-.28-1.26-1.06,0-.56.49-1,1.28-1a1.91,1.91,0,0,1,1.33.47l-.4.53a1.52,1.52,0,0,0-1-.37c-.31,0-.48.14-.48.34s.31.29.67.38c.56.13,1.27.3,1.27,1.07,0,.62-.44,1.09-1.35,1.09M95,37.12h-.72V33.73H95ZM96.39,43A2,2,0,0,1,95,42.47l.39-.55a1.5,1.5,0,0,0,1.08.45c.4,0,.59-.18.59-.37s-.32-.32-.69-.41c-.55-.13-1.26-.28-1.26-1.06,0-.56.49-1,1.28-1a1.91,1.91,0,0,1,1.33.47l-.41.53a1.48,1.48,0,0,0-1-.37c-.31,0-.49.14-.49.34s.31.29.68.38c.55.13,1.27.3,1.27,1.07,0,.62-.44,1.09-1.36,1.09m1.77-8.65h-1v2.76h-.73V34.36h-1v-.63h2.71Zm2.91,0H99.38v.72H101v.63H99.38v.77h1.68v.64h-2.4V33.73h2.41ZM103,37.12h-1.34V33.73H103a1.7,1.7,0,1,1,0,3.39"/><path class="cls-3" d="M103,34.36h-.61v2.12H103a1,1,0,0,0,1.06-1.06h0A1,1,0,0,0,103,34.36"/><path class="cls-3" d="M56,45.7c.49.22.72.36.81,1,.16,1-.8,1.44-1.71,1.44H53V43.54h2.15c.77,0,1.47.35,1.47,1.21a1,1,0,0,1-.59,1m4.26,0c.49.22.72.36.81,1,.16,1-.8,1.44-1.71,1.44H57.23V43.54h2.15c.77,0,1.47.35,1.47,1.21a1,1,0,0,1-.59,1m5.07,1c-.09-.6-.33-.74-.81-.95a1.08,1.08,0,0,0,.59-1c0-.86-.7-1.21-1.47-1.21H61.5V48.1h2.12c.91,0,1.87-.4,1.71-1.44m.6.35h0A1,1,0,1,1,68,47h0a1.05,1.05,0,1,1-2.1,0m2,0h0A1,1,0,1,0,66,47h0a1,1,0,1,0,1.91,0m-1.36-.57h.48a.49.49,0,0,1,.32.12.27.27,0,0,1,.09.2h0a.33.33,0,0,1-.28.32l.33.43h-.2l-.31-.4h-.27v.4h-.16Zm-11.38.81H53.94v-1h1.25c.91,0,.86,1,0,1m4.26,0H58.2v-1h1.25c.91,0,.86,1,0,1m3-1v1h1.25c.86,0,.91-1,0-1ZM67,47c.15,0,.26-.07.26-.19h0c0-.11-.09-.18-.25-.18h-.32V47ZM53.94,44.41h1.12a.49.49,0,1,1,0,1H53.94Zm8.53,0h1.11a.49.49,0,1,1,0,1H62.46Zm-4.26,0h1.11a.49.49,0,1,1,0,1H58.2ZM55,41.5h2.08l.37,1.26h3.39l.37-1.26h2.07L63,40.57H55.3ZM57.54,34l-1,1.38a1.88,1.88,0,0,0,.34,2.43l1.86,1.34c.32.23.35.46.19.7l.28.2.94-1.3a1.78,1.78,0,0,0-.33-2.54l-1.88-1.38a.46.46,0,0,1-.13-.64Zm1.62-6.13-1.57,2.17a2.7,2.7,0,0,0,.54,3.49l2.57,1.88a1.46,1.46,0,0,1,.21,1.86l.22.17L62.9,35a2.62,2.62,0,0,0-.5-3.69l-2.75-2a.83.83,0,0,1-.26-1.21Z"/></g></g></svg>