<svg xmlns="http://www.w3.org/2000/svg" viewBox="0 0 112.48 44.51"><defs><style>.cls-1{fill:#fcd010;}.cls-2{fill:#f4f7fb;}</style></defs><g id="katman_2" data-name="katman 2"><g id="katman_1-2" data-name="katman 1"><path class="cls-1" d="M15.13,6.16a.53.53,0,0,0-.28-.91l-.39-.07-4-.61a.56.56,0,0,1-.4-.3L8.18.3a.54.54,0,0,0-1,0l-2,3.93a.51.51,0,0,1-.4.29L.46,5.1A.53.53,0,0,0,.16,6L3.28,9.12a.53.53,0,0,1,.15.48l-.66,3.66-.13.67a.54.54,0,0,0,.78.57l3.91-2a.55.55,0,0,1,.5,0l3.88,2.09a.53.53,0,0,0,.78-.55l-.7-4.35A.54.54,0,0,1,12,9.2Z"/><path class="cls-1" d="M39.43,6.16a.53.53,0,0,0-.29-.91l-.39-.07-4-.61a.56.56,0,0,1-.4-.3L32.48.3a.54.54,0,0,0-1,0l-2,3.93a.52.52,0,0,1-.41.29l-4.36.59a.54.54,0,0,0-.31.91l3.13,3.11a.55.55,0,0,1,.15.48l-.67,3.66-.12.67a.53.53,0,0,0,.77.57l3.92-2a.55.55,0,0,1,.5,0L36,14.58a.53.53,0,0,0,.78-.55l-.7-4.35a.54.54,0,0,1,.16-.48Z"/><path class="cls-1" d="M63.73,6.16a.53.53,0,0,0-.29-.91l-.39-.07-4-.61a.52.52,0,0,1-.4-.3L56.77.3a.54.54,0,0,0-1,0l-2,3.93a.52.52,0,0,1-.41.29l-4.36.59a.54.54,0,0,0-.31.91l3.12,3.11A.53.53,0,0,1,52,9.6l-.66,3.66-.12.67a.53.53,0,0,0,.77.57l3.92-2a.53.53,0,0,1,.49,0l3.88,2.09a.54.54,0,0,0,.79-.55l-.71-4.35a.57.57,0,0,1,.16-.48Z"/><path class="cls-1" d="M88,6.16a.53.53,0,0,0-.29-.91l-.39-.07-4-.61a.56.56,0,0,1-.4-.3L81.07.3a.54.54,0,0,0-1,0l-2,3.93a.52.52,0,0,1-.4.29l-4.37.59a.53.53,0,0,0-.3.91l3.12,3.11a.53.53,0,0,1,.15.48l-.67,3.66-.12.67a.53.53,0,0,0,.77.57l3.92-2a.55.55,0,0,1,.5,0l3.88,2.09a.53.53,0,0,0,.78-.55l-.7-4.35a.54.54,0,0,1,.16-.48Z"/><path class="cls-1" d="M112.32,6.16a.53.53,0,0,0-.29-.91l-.39-.07-4-.61a.52.52,0,0,1-.4-.3l-1.91-4a.54.54,0,0,0-1,0l-2,3.93a.52.52,0,0,1-.41.29l-4.36.59a.54.54,0,0,0-.31.91l3.13,3.11a.52.52,0,0,1,.14.48L100,13.26l-.12.67a.53.53,0,0,0,.77.57l3.92-2a.55.55,0,0,1,.5,0l3.87,2.09a.54.54,0,0,0,.79-.55L109,9.68a.6.6,0,0,1,.16-.48Z"/><path class="cls-2" d="M12.7,41.3H10.34v3H8v-3H.66V39.59L7.21,31H9.85L3.68,39.21H8V36.53h2.31v2.68H12.7Z"/><path class="cls-2" d="M14.05,42.87a1.56,1.56,0,1,1,3.12,0,1.56,1.56,0,1,1-3.12,0Z"/><path class="cls-2" d="M29.74,40.5c0,2.47-2.14,4-5.45,4s-5.41-1.54-5.41-4A3.33,3.33,0,0,1,21,37.33a3,3,0,0,1-1.65-2.8c0-2.28,2-3.7,4.94-3.7s5,1.42,5,3.7a3,3,0,0,1-1.69,2.8A3.34,3.34,0,0,1,29.74,40.5Zm-2.49-.08c0-1.31-1.14-2.12-3-2.12s-2.93.81-2.93,2.12,1.11,2.15,2.93,2.15S27.25,41.77,27.25,40.42Zm-5.47-5.77c0,1.14.95,1.86,2.51,1.86s2.55-.72,2.55-1.86-1-1.88-2.55-1.88S21.78,33.45,21.78,34.65Z"/><path class="cls-2" d="M48.28,33c-.82,0-1.05.36-1.05,1.16v1.33h2.18l-.22,2.15h-2v6.52H44.6V37.6H42.84V35.45H44.6V34.16c0-2.17.88-3.32,3.32-3.32a11.23,11.23,0,0,1,1.53.1v2Z"/><path class="cls-2" d="M49.6,39.51c0-2.42,1.14-4.24,3.55-4.24a2.56,2.56,0,0,1,2.49,1.51V35.45h2.52v8.67H55.64V42.81a2.53,2.53,0,0,1-2.49,1.49c-2.41,0-3.55-1.82-3.55-4.24Zm2.62.59c0,1.29.47,2.15,1.69,2.15s1.62-.79,1.62-2v-.87c0-1.24-.54-2-1.62-2s-1.69.86-1.69,2.15Z"/><path class="cls-2" d="M63.62,35.27a4.86,4.86,0,0,1,2.52.58l-.59,1.86a4,4,0,0,0-1.75-.4c-1.42,0-2,.82-2,2.22V40c0,1.4.61,2.22,2,2.22a4,4,0,0,0,1.75-.4l.59,1.86a4.77,4.77,0,0,1-2.52.58c-3.08,0-4.48-1.65-4.48-4.31v-.4c0-2.66,1.4-4.32,4.48-4.32"/><path class="cls-2" d="M66.48,40.12v-.77c0-2.46,1.4-4.07,4.26-4.07,2.7,0,3.89,1.64,3.89,4v1.39H69.1c.06,1.18.59,1.71,2,1.71a7.42,7.42,0,0,0,2.79-.53l.48,1.8a8.53,8.53,0,0,1-3.37.63c-3.32,0-4.56-1.65-4.56-4.2M69.1,39h3.17v-.22c0-1-.38-1.7-1.52-1.7S69.1,37.82,69.1,39Z"/><path class="cls-2" d="M84.35,40.06c0,2.42-1.17,4.25-3.57,4.25a2.7,2.7,0,0,1-2.59-1.5v1.31H75.72v-13l2.62-.24v5.79a2.62,2.62,0,0,1,2.44-1.38c2.41,0,3.57,1.82,3.57,4.24Zm-2.62-.6c0-1.22-.48-2.13-1.73-2.13-1.08,0-1.66.76-1.66,2v.91c0,1.24.58,2,1.66,2,1.25,0,1.73-.91,1.73-2.14Z"/><path class="cls-2" d="M85.23,40v-.43a4.32,4.32,0,0,1,8.63,0V40a4.32,4.32,0,0,1-8.63,0m6-.61c0-1.15-.48-2.06-1.7-2.06s-1.69.91-1.69,2.06v.8c0,1.14.47,2.06,1.69,2.06s1.7-.92,1.7-2.06Z"/><path class="cls-2" d="M94.74,40v-.43a4.32,4.32,0,0,1,8.63,0V40a4.32,4.32,0,0,1-8.63,0m6-.61c0-1.15-.48-2.06-1.7-2.06s-1.69.91-1.69,2.06v.8c0,1.14.47,2.06,1.69,2.06s1.7-.92,1.7-2.06Z"/><polygon class="cls-2" points="106.98 39.59 109.56 35.45 112.35 35.45 109.64 39.73 112.46 44.12 109.67 44.12 106.98 39.88 106.98 44.12 104.35 44.12 104.35 31.1 106.98 30.86 106.98 39.59"/></g></g></svg>