<svg xmlns="http://www.w3.org/2000/svg" viewBox="0 0 112.48 49.61"><defs><style>.cls-1{fill:#fcd010;}.cls-2{fill:#f4f7fb;}</style></defs><g id="katman_2" data-name="katman 2"><g id="katman_1-2" data-name="katman 1"><path class="cls-1" d="M15.13,6.16a.53.53,0,0,0-.28-.91l-.39-.07-4-.61a.56.56,0,0,1-.4-.3L8.18.3a.54.54,0,0,0-1,0l-2,3.93a.51.51,0,0,1-.4.29L.46,5.1A.53.53,0,0,0,.16,6L3.28,9.12a.53.53,0,0,1,.15.48l-.66,3.66-.13.67a.54.54,0,0,0,.78.57l3.91-2a.55.55,0,0,1,.5,0l3.88,2.09a.53.53,0,0,0,.78-.55l-.7-4.35A.54.54,0,0,1,12,9.2Z"/><path class="cls-1" d="M39.43,6.16a.53.53,0,0,0-.29-.91l-.39-.07-4-.61a.56.56,0,0,1-.4-.3L32.48.3a.54.54,0,0,0-1,0l-2,3.93a.52.52,0,0,1-.41.29l-4.36.59a.54.54,0,0,0-.31.91l3.13,3.11a.55.55,0,0,1,.15.48l-.67,3.66-.12.67a.53.53,0,0,0,.77.57l3.92-2a.55.55,0,0,1,.5,0L36,14.58a.53.53,0,0,0,.78-.55l-.7-4.35a.54.54,0,0,1,.16-.48Z"/><path class="cls-1" d="M63.73,6.16a.53.53,0,0,0-.29-.91l-.39-.07-4-.61a.52.52,0,0,1-.4-.3L56.78.3a.55.55,0,0,0-1,0l-2,3.93a.52.52,0,0,1-.41.29l-4.36.59a.54.54,0,0,0-.31.91l3.12,3.11A.53.53,0,0,1,52,9.6l-.66,3.66-.12.67a.53.53,0,0,0,.77.57l3.92-2a.53.53,0,0,1,.49,0l3.88,2.09a.54.54,0,0,0,.79-.55l-.71-4.35a.57.57,0,0,1,.16-.48Z"/><path class="cls-1" d="M88,6.16a.53.53,0,0,0-.29-.91l-.39-.07-4-.61a.56.56,0,0,1-.4-.3L81.07.3a.54.54,0,0,0-1,0l-2,3.93a.52.52,0,0,1-.4.29l-4.37.59a.53.53,0,0,0-.3.91l3.12,3.11a.53.53,0,0,1,.15.48l-.67,3.66-.12.67a.53.53,0,0,0,.77.57l3.92-2a.55.55,0,0,1,.5,0l3.88,2.09a.53.53,0,0,0,.78-.55l-.7-4.35a.54.54,0,0,1,.16-.48Z"/><path class="cls-1" d="M112.32,6.16a.53.53,0,0,0-.29-.91l-.39-.07-4-.61a.52.52,0,0,1-.4-.3l-1.91-4a.54.54,0,0,0-1,0l-2,3.93a.52.52,0,0,1-.41.29l-4.36.59a.54.54,0,0,0-.31.91l3.13,3.11a.52.52,0,0,1,.14.48L100,13.26l-.12.67a.53.53,0,0,0,.77.57l3.92-2a.55.55,0,0,1,.5,0l3.87,2.09a.54.54,0,0,0,.79-.55L109,9.68a.6.6,0,0,1,.16-.48Z"/><path class="cls-2" d="M56.45,36.86V39h5.07a4.53,4.53,0,0,1-1.16,2.67,5.18,5.18,0,0,1-3.91,1.55,5.63,5.63,0,0,1,0-11.26,5.38,5.38,0,0,1,3.82,1.52L61.76,32a7.31,7.31,0,0,0-5.31-2.16,7.75,7.75,0,1,0,0,15.5,7.11,7.11,0,0,0,5.41-2.17,7,7,0,0,0,1.83-5,6.68,6.68,0,0,0-.11-1.33Z"/><path class="cls-2" d="M70,35.14a5,5,0,1,0,5,5,4.93,4.93,0,0,0-5-5m0,8a3,3,0,1,1,2.83-3,2.89,2.89,0,0,1-2.83,3"/><path class="cls-2" d="M94.63,36.26h-.08a3.47,3.47,0,0,0-2.63-1.12,5,5,0,0,0,0,10A3.41,3.41,0,0,0,94.55,44h.08v.7c0,1.91-1,2.94-2.67,2.94a2.77,2.77,0,0,1-2.52-1.79l-1.91.79a4.75,4.75,0,0,0,4.43,3c2.58,0,4.76-1.52,4.76-5.21v-9H94.63Zm-2.52,6.92a2.8,2.8,0,0,1-2.67-3,2.79,2.79,0,0,1,2.67-3,2.82,2.82,0,0,1,2.67,3,2.79,2.79,0,0,1-2.67,3"/><path class="cls-2" d="M81.22,35.14a5,5,0,1,0,5,5,4.93,4.93,0,0,0-5-5m0,8a3,3,0,1,1,2.82-3,2.9,2.9,0,0,1-2.82,3"/><rect class="cls-2" x="98.44" y="30.02" width="2.16" height="15.13"/><path class="cls-2" d="M107.27,43.18a2.55,2.55,0,0,1-2.43-1.52l6.69-2.76-.22-.57A4.65,4.65,0,0,0,107,35.14a4.76,4.76,0,0,0-4.72,5,4.9,4.9,0,0,0,5,5,5,5,0,0,0,4.17-2.21l-1.71-1.14a2.84,2.84,0,0,1-2.46,1.38M107.12,37a2,2,0,0,1,1.89,1.1L104.49,40a2.72,2.72,0,0,1,2.63-3"/><path class="cls-2" d="M12.69,41.3H10.33v3H7.94v-3H.65V39.59L7.2,31H9.84L3.67,39.21H8V36.53h2.31v2.68h2.36Z"/><path class="cls-2" d="M14,42.87a1.56,1.56,0,1,1,3.12,0,1.56,1.56,0,1,1-3.12,0Z"/><path class="cls-2" d="M30.53,41.3H28.18v3h-2.4v-3H18.49V39.59L25,31h2.64l-6.17,8.19h4.35V36.53h2.32v2.68h2.35Z"/></g></g></svg>