<svg xmlns="http://www.w3.org/2000/svg" viewBox="0 0 56.44 56.44"><defs><style>.cls-1{fill:#f6e9df;}.cls-2{fill:#d1905f;}</style></defs><g id="katman_2" data-name="katman 2"><g id="katman_1-2" data-name="katman 1"><path class="cls-1" d="M28.22,0A28.22,28.22,0,1,1,0,28.22,28.22,28.22,0,0,1,28.22,0"/><path class="cls-2" d="M37.44,20.76h-1V19.71a1,1,0,0,0-2.09,0v1.05H23.84V19.71a1.05,1.05,0,0,0-2.1,0v1.05H19.65a1,1,0,0,0-1,1V36.45a1,1,0,0,0,1,1H26A8.33,8.33,0,0,1,38.48,26.83v-5a1.12,1.12,0,0,0-1-1"/><path class="cls-2" d="M33.25,27a6.28,6.28,0,1,0,6.28,6.28A6.29,6.29,0,0,0,33.25,27m2.1,7.32h-2.1a1,1,0,0,1-1-1V30.18a1,1,0,1,1,2.09,0v2.09h1.05a1,1,0,0,1,0,2.09"/></g></g></svg>