<svg xmlns="http://www.w3.org/2000/svg" viewBox="0 0 56.44 56.44"><defs><style>.cls-1{fill:#f1fde5;}.cls-2{fill:#93c264;}</style></defs><g id="katman_2" data-name="katman 2"><g id="katman_1-2" data-name="katman 1"><path class="cls-1" d="M28.22,0A28.22,28.22,0,1,1,0,28.22,28.22,28.22,0,0,1,28.22,0"/><path class="cls-2" d="M29.45,15.05a8.48,8.48,0,0,0-6.9,13.43l6.25,9.76a.78.78,0,0,0,1.3,0l6.28-9.79a8.49,8.49,0,0,0-6.93-13.4m0,12.35a3.86,3.86,0,1,1,3.86-3.86,3.86,3.86,0,0,1-3.86,3.86"/><path class="cls-2" d="M35.48,32.79,31.6,38.86a2.55,2.55,0,0,1-4.3,0l-3.89-6.07c-3.43.79-5.54,2.24-5.54,4,0,3,6,4.64,11.58,4.64S41,39.77,41,36.76c0-1.73-2.12-3.18-5.55-4"/></g></g></svg>