<svg xmlns="http://www.w3.org/2000/svg" viewBox="0 0 56.44 56.44"><defs><style>.cls-1{fill:#e5fdf9;}.cls-2{fill:#5fac9f;fill-rule:evenodd;}</style></defs><g id="katman_2" data-name="katman 2"><g id="katman_1-2" data-name="katman 1"><path class="cls-1" d="M28.22,0A28.22,28.22,0,1,1,0,28.22,28.22,28.22,0,0,1,28.22,0"/><path class="cls-2" d="M19.33,40.7a3.32,3.32,0,1,1,3.31-3.31,3.32,3.32,0,0,1-3.31,3.31m0-1.89a1.42,1.42,0,1,0-1.42-1.42,1.43,1.43,0,0,0,1.42,1.42M26.9,40.7a3.32,3.32,0,1,1,3.31-3.31A3.31,3.31,0,0,1,26.9,40.7m0-1.89a1.42,1.42,0,1,0-1.42-1.42,1.43,1.43,0,0,0,1.42,1.42"/><path class="cls-2" d="M31.05,35.55a.48.48,0,0,0,.65.18l.81-.47a.48.48,0,0,0,.18-.65l-.85-1.48H41.1v1.42a.47.47,0,0,0,.48.47h.93a.47.47,0,0,0,.48-.47V33.13h.95a1,1,0,0,0,.94-1V21.29a.94.94,0,0,0-.94-.94H13.65a.94.94,0,0,0-1,.94V32.18a1,1,0,0,0,1,1h.73l-.85,1.48a.48.48,0,0,0,.18.65l.82.47a.48.48,0,0,0,.65-.18l1.38-2.42h13.1Z"/></g></g></svg>