<svg xmlns="http://www.w3.org/2000/svg" viewBox="0 0 112.48 50.14"><defs><style>.cls-1{fill:#fcd010;}.cls-2{fill:#f4f7fb;}</style></defs><g id="katman_2" data-name="katman 2"><g id="katman_1-2" data-name="katman 1"><path class="cls-1" d="M15.13,6.16a.53.53,0,0,0-.28-.91l-.39-.07-4-.61a.56.56,0,0,1-.4-.3L8.18.3a.54.54,0,0,0-1,0l-2,3.93a.51.51,0,0,1-.4.29L.46,5.1A.53.53,0,0,0,.16,6L3.28,9.12a.53.53,0,0,1,.15.48l-.66,3.66-.13.67a.54.54,0,0,0,.78.57l3.91-2a.55.55,0,0,1,.5,0l3.88,2.09a.53.53,0,0,0,.78-.55l-.7-4.35A.54.54,0,0,1,12,9.2Z"/><path class="cls-1" d="M39.43,6.16a.53.53,0,0,0-.29-.91l-.39-.07-4-.61a.56.56,0,0,1-.4-.3L32.48.3a.54.54,0,0,0-1,0l-2,3.93a.52.52,0,0,1-.41.29l-4.36.59a.54.54,0,0,0-.31.91l3.13,3.11a.55.55,0,0,1,.15.48l-.67,3.66-.12.67a.53.53,0,0,0,.77.57l3.92-2a.55.55,0,0,1,.5,0L36,14.58a.53.53,0,0,0,.78-.55l-.7-4.35a.54.54,0,0,1,.16-.48Z"/><path class="cls-1" d="M63.73,6.16a.53.53,0,0,0-.29-.91l-.39-.07-4-.61a.52.52,0,0,1-.4-.3L56.78.3a.55.55,0,0,0-1,0l-2,3.93a.52.52,0,0,1-.41.29l-4.36.59a.54.54,0,0,0-.31.91l3.12,3.11A.53.53,0,0,1,52,9.6l-.66,3.66-.12.67a.53.53,0,0,0,.77.57l3.92-2a.53.53,0,0,1,.49,0l3.88,2.09a.54.54,0,0,0,.79-.55l-.71-4.35a.57.57,0,0,1,.16-.48Z"/><path class="cls-1" d="M88,6.16a.53.53,0,0,0-.29-.91l-.39-.07-4-.61a.56.56,0,0,1-.4-.3L81.07.3a.54.54,0,0,0-1,0l-2,3.93a.52.52,0,0,1-.4.29l-4.37.59a.53.53,0,0,0-.3.91l3.12,3.11a.53.53,0,0,1,.15.48l-.67,3.66-.12.67a.53.53,0,0,0,.77.57l3.92-2a.55.55,0,0,1,.5,0l3.88,2.09a.53.53,0,0,0,.78-.55l-.7-4.35a.54.54,0,0,1,.16-.48Z"/><path class="cls-1" d="M112.32,6.16a.53.53,0,0,0-.29-.91l-.39-.07-4-.61a.52.52,0,0,1-.4-.3l-1.91-4a.54.54,0,0,0-1,0l-2,3.93a.52.52,0,0,1-.41.29l-4.36.59a.54.54,0,0,0-.31.91l3.13,3.11a.52.52,0,0,1,.14.48L100,13.26l-.12.67a.53.53,0,0,0,.77.57l3.92-2a.55.55,0,0,1,.5,0l3.87,2.09a.54.54,0,0,0,.79-.55L109,9.68a.6.6,0,0,1,.16-.48Z"/><path class="cls-2" d="M12.71,41.3H10.35v3H8v-3H.66V39.59L7.22,31H9.86L3.68,39.21H8V36.53h2.32v2.68h2.36Z"/><path class="cls-2" d="M14.06,42.87a1.56,1.56,0,1,1,3.11,0,1.56,1.56,0,1,1-3.11,0Z"/><path class="cls-2" d="M30.55,41.3H28.19v3H25.8v-3H18.5V39.59L25.06,31H27.7l-6.18,8.19h4.35V36.53h2.32v2.68h2.36Z"/><path class="cls-2" d="M45.75,30.5a6.54,6.54,0,0,0-3.47,4.39c-.63,2.67,2,3.8,2.18,3.43s-.46-.58-.61-2a5.83,5.83,0,0,1,1.69-4.67c.2-.16.19.06.19.48,0,.76,0,7.5,0,8.91a12.55,12.55,0,0,1-.22,3.1c-.15.6-.38,1-.2,1.17s1-.25,1.51-.92a5,5,0,0,0,.81-2.82c0-1.27,0-3.28,0-4.43s0-4.13,0-6c0-.45-1.27-.93-1.87-.68m50.49,8.92a5.94,5.94,0,0,1-.54,2.31c-.52,1.05-1.62,1.38-2.08-.14a8.46,8.46,0,0,1-.08-3.36c.18-1.18.7-2.07,1.55-2s1.24,1.17,1.15,3.18M82,45.56c0,1.65-.27,3.09-.82,3.51a1,1,0,0,1-1.63-1c.19-1.07,1.11-2.15,2.45-3.48,0,0,0,.31,0,1m-.21-6.15a6.66,6.66,0,0,1-.54,2.32c-.53,1.05-1.63,1.38-2.09-.14a7.71,7.71,0,0,1-.08-3.23c.2-1.1.69-2.12,1.56-2.12s1.27.93,1.15,3.17m-8.25,0A6,6,0,0,1,73,41.73c-.55,1.05-1.62,1.38-2.09-.14a8.15,8.15,0,0,1-.08-3.39c.21-1.19.74-2,1.56-2s1.25,1.17,1.14,3.15m37.78,1.12c-.21,0-.3.21-.38.57-.27,1.24-.55,1.53-.92,1.53s-.78-.62-.87-1.85a41,41,0,0,1,0-4.54c0-.36-.08-.72-1.06-1.08-.42-.15-1-.38-1.34.36a18.29,18.29,0,0,0-1.27,4.4s0,0-.06,0c0-.54-.16-1.51-.18-3.56a1.06,1.06,0,0,0-.52-1c-.29-.18-1.16-.5-1.47-.12a7.82,7.82,0,0,0-.92,2.14c-.26.81-.45,1.35-.45,1.35s0-2.17,0-3a.41.41,0,0,0-.28-.43,5.41,5.41,0,0,0-1.1-.23c-.3,0-.37.17-.37.41,0,0-.05,2.87-.05,4.85v.28c-.17.91-.7,2.15-1.29,2.15S98,42.16,98,39.8c0-1.38,0-2,.07-3,0-.57,0-1,0-1.11,0-.31-.54-.46-.78-.52a2.26,2.26,0,0,0-.64-.07.39.39,0,0,0-.4.38v.34a2.33,2.33,0,0,0-1.13-.92,2.17,2.17,0,0,0-2.5.95,5.66,5.66,0,0,0-1,2.91,8.51,8.51,0,0,0,.1,2.64c-.2.89-.58,1.26-1,1.26-.61,0-1-1-1-2.71a15.84,15.84,0,0,1,.5-3.07,1,1,0,0,0-.19-1,1.22,1.22,0,0,0-1.22-.2c-.43.1-1,.21-1.61.29a2.41,2.41,0,0,0,.07-.37c.14-1.25-1.22-1.15-1.65-.75a1.51,1.51,0,0,0-.5,1,1.2,1.2,0,0,0,.55,1.18,12.21,12.21,0,0,1-1.29,3.19,12.58,12.58,0,0,1-.8,1.26V41.1c0-2.06,0-3.69,0-4.28s0-1,0-1.1-.13-.31-.4-.42a3,3,0,0,0-.82-.18c-.38,0-.6.17-.6.4v.32a2.31,2.31,0,0,0-1.12-.92,2.18,2.18,0,0,0-2.51.95,6.33,6.33,0,0,0-1,2.9,9.12,9.12,0,0,0,.06,2.49c-.15.69-.55,1.42-1,1.42s-.91-.52-.91-2.88c0-1.38,0-2,.06-3,0-.57,0-1,0-1.11,0-.31-.53-.46-.78-.52a2.36,2.36,0,0,0-.65-.07.43.43,0,0,0-.39.37v.35a2.33,2.33,0,0,0-1.13-.92,2.18,2.18,0,0,0-2.5.95,5.45,5.45,0,0,0-1,2.88A11.54,11.54,0,0,0,68.84,40c-.18,1.11-1,2.4-1.64,2.4-.39,0-.76-.75-.76-2.34,0-2.13.14-5.15.16-5.44l1,0c.42,0,.79,0,1.35,0,.27,0,.54-1,.25-1.13a9.38,9.38,0,0,0-1.41-.12c-.3,0-1.15-.07-1.15-.07s.07-2,.09-2.22-.21-.26-.34-.32a5.16,5.16,0,0,0-.95-.27c-.46-.09-.67,0-.72.39-.06.6-.09,2.36-.09,2.36-.34,0-1.51-.07-1.86-.07s-.66,1.37-.22,1.38l2,.06s0,3.07,0,4v.29A4.64,4.64,0,0,1,63,41.49a2.51,2.51,0,0,0-1.15-2.65c-.33-.26-1-.75-1.71-1.29a4.57,4.57,0,0,0,.8-1.26c.27-.59.28-1.27-.38-1.42a1.93,1.93,0,0,0-2.22,1.39,1.59,1.59,0,0,0,.3,1.64l.1.11c-.25.47-.58,1.1-.86,1.59C57.12,41,56.53,42,56.08,42s-.35-1.09-.35-2.11.06-2.2.11-3.57a1,1,0,0,0-.59-1,2.67,2.67,0,0,0-1-.42c-.43,0-1.66.06-2.83,3.43-.14.42-.43,1.19-.43,1.19l0-4.05a.3.3,0,0,0-.16-.25A3,3,0,0,0,49.66,35c-.22,0-.33.1-.33.31l0,6.33a8.86,8.86,0,0,0,.06,1.29,1.21,1.21,0,0,0,.22.57.56.56,0,0,0,.38.24c.17,0,1.09.16,1.14-.19a12.82,12.82,0,0,1,.55-2.59,10.23,10.23,0,0,1,2.2-4.41c.08-.08.17-.09.17,0,0,.59-.09,2-.14,3.28-.12,3.3.48,3.92,1.34,3.92.66,0,1.58-.66,2.58-2.31.62-1,1.22-2,1.65-2.77l1,.9a2.18,2.18,0,0,1,.87,2.12c-.13.52-.62,1-1.5.53-.26-.15-.37-.26-.62-.43a.46.46,0,0,0-.48,0,1.72,1.72,0,0,0-.62,1c-.1.37.27.58.67.75a5.07,5.07,0,0,0,1.53.3c1.81.06,3.26-.87,4.27-3.28.18,2.08.95,3.26,2.29,3.26.89,0,1.79-1.16,2.18-2.29a4.08,4.08,0,0,0,.49,1.2c1,1.64,3,1.29,4-.1a2.34,2.34,0,0,0,.35-.58,1.88,1.88,0,0,0,1.81,1.76,2,2,0,0,0,1.86-1.42,2.74,2.74,0,0,0,.19.34c1,1.64,3,1.29,4-.1a1.4,1.4,0,0,0,.12-.18l0,.86-.92.85c-1.55,1.42-2.72,2.5-2.81,3.75a2.12,2.12,0,0,0,2.17,2.27,2.76,2.76,0,0,0,2.48-1.3,7.35,7.35,0,0,0,.77-3.74c0-.6,0-1.37,0-2.19a17.72,17.72,0,0,0,3.33-5.81s.57,0,1.18,0c.2,0,.25,0,.22.17a9.81,9.81,0,0,0-.11,4.85,2.35,2.35,0,0,0,2.09,1.7,2.06,2.06,0,0,0,1.75-1.34l.14.25c1,1.64,3,1.28,4-.1a4.48,4.48,0,0,0,.35-.58,2,2,0,0,0,1.88,1.77c.62,0,1.22-.26,1.7-1.4a5.79,5.79,0,0,0,.11,1c0,.08.21.18.34.23a2.65,2.65,0,0,0,1.37.07c.15,0,.27-.15.29-.46a17.89,17.89,0,0,1,.26-3.21,9.66,9.66,0,0,1,1-2.71c.1-.18.22-.21.22,0,0,.4,0,1.55.19,3.11a7.22,7.22,0,0,0,.4,2,1.12,1.12,0,0,0,1.12.64c.23,0,.69-.06.65-.45a12.26,12.26,0,0,1,.42-3,15.17,15.17,0,0,1,.88-2.47c.06-.13.09,0,.08,0a22.37,22.37,0,0,0,.2,4.6c.42,1.83,1.63,2,2.06,2,.9,0,1.64-.69,1.88-2.49.06-.44,0-.77-.29-.77"/></g></g></svg>