<svg width="73" height="73" viewBox="0 0 73 73" fill="none" xmlns="http://www.w3.org/2000/svg">
<path opacity="0.2" fill-rule="evenodd" clip-rule="evenodd" d="M36.6192 72.1697C56.3602 72.1697 72.3634 56.1664 72.3634 36.4255C72.3634 16.6845 56.3602 0.681274 36.6192 0.681274C16.8782 0.681274 0.875 16.6845 0.875 36.4255C0.875 56.1664 16.8782 72.1697 36.6192 72.1697Z" fill="#3F95F7"/>
<path fill-rule="evenodd" clip-rule="evenodd" d="M36.6186 19.978C30.8386 19.978 26.0176 24.634 26.0176 30.579C26.0176 32.8409 26.6976 34.8571 28.0016 36.747L35.8076 48.927C36.1856 49.519 37.0516 49.5179 37.4296 48.927L45.2696 36.7061C46.5456 34.902 47.2196 32.783 47.2196 30.579C47.2196 24.734 42.4636 19.978 36.6186 19.978V19.978ZM36.6186 35.398C33.9616 35.398 31.8006 33.236 31.8006 30.579C31.8006 27.922 33.9616 25.76 36.6186 25.76C39.2756 25.76 41.4376 27.922 41.4376 30.579C41.4376 33.236 39.2756 35.398 36.6186 35.398Z" fill="#09265E"/>
<path fill-rule="evenodd" clip-rule="evenodd" d="M44.1531 42.124L39.3001 49.7111C38.0441 51.669 35.1871 51.663 33.9371 49.712L29.0761 42.126C24.8001 43.115 22.1641 44.926 22.1641 47.09C22.1641 50.846 29.6121 52.8731 36.6191 52.8731C43.6271 52.8731 51.0751 50.846 51.0751 47.09C51.0751 44.924 48.4351 43.1121 44.1531 42.124V42.124Z" fill="#09265E"/>
</svg>
