<svg width="72" height="73" viewBox="0 0 72 73" fill="none" xmlns="http://www.w3.org/2000/svg">
<path opacity="0.2" fill-rule="evenodd" clip-rule="evenodd" d="M36.1465 72.1697C55.8875 72.1697 71.8907 56.1664 71.8907 36.4255C71.8907 16.6845 55.8875 0.681274 36.1465 0.681274C16.4056 0.681274 0.402344 16.6845 0.402344 36.4255C0.402344 56.1664 16.4056 72.1697 36.1465 72.1697Z" fill="#3F95F7"/>
<path fill-rule="evenodd" clip-rule="evenodd" d="M37.2871 24.119C43.1981 24.655 47.9181 29.375 48.4541 35.286H55.2941C55.0252 30.589 53.0681 26.2111 49.7151 22.858C46.3611 19.504 41.9831 17.548 37.2871 17.278V24.119Z" fill="#09265E"/>
<path fill-rule="evenodd" clip-rule="evenodd" d="M26.0684 36.4091C26.0684 41.975 30.5973 46.504 36.1644 46.504C41.7314 46.504 46.2593 41.975 46.2593 36.4091C46.2593 30.842 41.7314 26.313 36.1644 26.313C30.5973 26.313 26.0684 30.842 26.0684 36.4091ZM37.3484 38.102C37.2353 37.989 37.0784 37.887 36.8784 37.795C36.6783 37.704 36.4413 37.62 36.1674 37.541C35.8934 37.463 35.5953 37.376 35.2734 37.28C34.8473 37.15 34.4774 37.009 34.1644 36.8559C33.8514 36.704 33.5923 36.5279 33.3884 36.328C33.1833 36.128 33.0314 35.897 32.9314 35.636C32.8314 35.375 32.7814 35.071 32.7814 34.723C32.7814 34.236 32.8734 33.806 33.0554 33.432C33.2383 33.058 33.4864 32.7419 33.7994 32.486C34.1124 32.229 34.4753 32.036 34.8884 31.905C34.9374 31.89 34.9864 31.876 35.0364 31.8621V30.1269H37.2824V31.828C37.5483 31.885 37.8054 31.953 38.0524 32.036C38.3394 32.132 38.6074 32.24 38.8544 32.3621C39.1024 32.484 39.3314 32.605 39.5394 32.727L38.6003 34.5019C38.5743 34.467 38.4833 34.402 38.3264 34.306C38.1694 34.21 37.9744 34.11 37.7394 34.006C37.5044 33.901 37.2474 33.8101 36.9694 33.732C36.6913 33.6529 36.4123 33.614 36.1343 33.614C35.3694 33.614 34.9864 33.871 34.9864 34.384C34.9864 34.541 35.0273 34.671 35.1103 34.776C35.1934 34.88 35.3144 34.973 35.4753 35.056C35.6363 35.139 35.8393 35.215 36.0823 35.2841C36.3254 35.354 36.6083 35.432 36.9303 35.519C37.3744 35.641 37.7743 35.774 38.1304 35.917C38.4873 36.061 38.7894 36.239 39.0373 36.452C39.2853 36.665 39.4764 36.9239 39.6114 37.228C39.7463 37.533 39.8133 37.8979 39.8133 38.324C39.8133 38.8459 39.7164 39.287 39.5204 39.6479C39.3243 40.009 39.0654 40.301 38.7444 40.522C38.4224 40.744 38.0524 40.905 37.6354 41.005C37.5184 41.0329 37.4004 41.057 37.2823 41.077V42.813H35.0364V41.034C34.7714 40.9859 34.5113 40.9239 34.2563 40.849C33.9164 40.749 33.5884 40.629 33.2704 40.49C32.9534 40.3509 32.6603 40.1899 32.3904 40.0069L33.3293 38.141C33.3644 38.185 33.4773 38.2679 33.6684 38.389C33.8603 38.511 34.0973 38.633 34.3804 38.755C34.6623 38.8769 34.9773 38.985 35.3254 39.081C35.6733 39.177 36.0254 39.224 36.3824 39.224C37.1393 39.224 37.5174 38.994 37.5174 38.5329C37.5174 38.359 37.4604 38.215 37.3484 38.102V38.102Z" fill="#09265E"/>
<path fill-rule="evenodd" clip-rule="evenodd" d="M48.454 37.532C47.884 43.812 42.59 48.75 36.164 48.75C29.359 48.75 23.823 43.214 23.823 36.4091C23.823 29.9821 28.76 24.688 35.041 24.119V17.278C30.344 17.548 25.966 19.504 22.613 22.858C18.993 26.4771 17 31.29 17 36.4091C17 41.527 18.993 46.34 22.613 49.96C26.233 53.579 31.045 55.573 36.164 55.573C41.283 55.573 46.095 53.579 49.715 49.96C53.068 46.606 55.025 42.228 55.294 37.532L48.454 37.532Z" fill="#09265E"/>
</svg>
