<svg width="73" height="73" viewBox="0 0 73 73" fill="none" xmlns="http://www.w3.org/2000/svg">
<path opacity="0.2" fill-rule="evenodd" clip-rule="evenodd" d="M36.6739 72.1697C56.4148 72.1697 72.4181 56.1664 72.4181 36.4255C72.4181 16.6845 56.4148 0.681274 36.6739 0.681274C16.9329 0.681274 0.929688 16.6845 0.929688 36.4255C0.929688 56.1664 16.9329 72.1697 36.6739 72.1697Z" fill="#3F95F7"/>
<path fill-rule="evenodd" clip-rule="evenodd" d="M49.1586 39.682C48.3246 40.199 47.5346 40.601 46.8306 40.8879C46.3426 41.104 45.8106 41.204 45.2936 41.204C44.7766 41.204 44.2446 41.104 43.7566 40.8879C42.5066 40.371 40.9836 39.509 39.5036 38.331H25.7836L27.9106 33.447C28.1396 32.9289 28.6576 32.585 29.2176 32.585H34.8776C34.4756 31.694 34.1595 30.731 33.9876 29.7111H29.2176C27.5076 29.7111 25.9565 30.731 25.2666 32.297L22.4225 38.834C22.4076 38.863 22.4225 38.891 22.4076 38.9351C20.6556 39.8249 19.4336 41.621 19.4336 43.719V49.106C19.4336 51.089 21.0426 52.698 23.0256 52.698C25.0085 52.698 26.6176 51.089 26.6176 49.106V48.3879H43.8566V49.106C43.8566 51.089 45.4656 52.698 47.4485 52.698C49.4316 52.698 51.0406 51.089 51.0406 49.106V43.719C51.0406 42.095 50.3076 40.644 49.1586 39.682L49.1586 39.682ZM28.0536 45.514H25.1806C24.3906 45.514 23.7436 44.868 23.7436 44.078C23.7436 43.2879 24.3906 42.641 25.1806 42.641H28.0536C28.8436 42.641 29.4906 43.2879 29.4906 44.078C29.4906 44.868 28.8436 45.514 28.0536 45.514ZM45.2936 45.514H42.4206C41.6306 45.514 40.9836 44.868 40.9836 44.078C40.9836 43.2879 41.6306 42.641 42.4206 42.641H45.2936C46.0836 42.641 46.7306 43.2879 46.7306 44.078C46.7306 44.868 46.0836 45.514 45.2936 45.514Z" fill="#09265E"/>
<path fill-rule="evenodd" clip-rule="evenodd" d="M53.1828 20.8415L45.6398 18.2765C45.4158 18.1985 45.1718 18.1985 44.9478 18.2765L37.4048 20.8415C36.9668 20.9895 36.6738 21.4005 36.6738 21.8615V27.6345C36.6738 34.6795 44.5378 38.1045 44.8728 38.2465C45.1428 38.3605 45.4448 38.3605 45.7148 38.2465C46.0498 38.1045 53.9138 34.6795 53.9138 27.6345V21.8615C53.9138 21.4005 53.6208 20.9895 53.1828 20.8415H53.1828ZM50.0148 26.2895L46.0638 31.3175C45.5608 31.9605 44.6188 32.0535 44.0008 31.5215L41.4868 29.3665C40.8838 28.8515 40.8128 27.9435 41.3318 27.3415C41.8478 26.7395 42.7548 26.6706 43.3558 27.1866L44.7318 28.3655L47.7558 24.5165C48.2458 23.8935 49.1488 23.7825 49.7728 24.2755C50.3968 24.7625 50.5058 25.6665 50.0148 26.2895V26.2895Z" fill="#09265E"/>
</svg>
