<svg width="49" height="50" viewBox="0 0 49 50" fill="none" xmlns="http://www.w3.org/2000/svg">
<path opacity="0.2" fill-rule="evenodd" clip-rule="evenodd" d="M24.7912 49.1685C38.1507 49.1685 48.9808 38.3385 48.9808 24.9789C48.9808 11.6194 38.1507 0.789307 24.7912 0.789307C11.4316 0.789307 0.601562 11.6194 0.601562 24.9789C0.601562 38.3385 11.4316 49.1685 24.7912 49.1685Z" fill="#3F95F7"/>
<path fill-rule="evenodd" clip-rule="evenodd" d="M37.7432 30.708L35.2452 28.21L30.0792 33.377C29.1572 34.2991 28.0002 34.8999 26.7422 35.125L30.0342 38.417C30.3352 38.718 30.8252 38.718 31.1262 38.417L37.7432 31.8001C38.0442 31.4981 38.0442 31.009 37.7432 30.708H37.7432Z" fill="#09265E"/>
<path fill-rule="evenodd" clip-rule="evenodd" d="M34.2271 27.0443C35.0981 26.1734 35.0981 24.7574 34.2281 23.8863L34.2251 23.8834C34.0101 23.6683 33.7591 23.5032 33.4851 23.3924C33.7221 22.7923 33.7721 21.7762 32.9861 20.9903L32.9801 20.9842C32.7661 20.7713 32.5161 20.6072 32.2441 20.4974C32.4821 19.8973 32.5321 18.8824 31.7461 18.0963L31.7451 18.0953C31.5301 17.8792 31.2781 17.7132 31.0041 17.6024C31.2411 17.0023 31.2911 15.9874 30.5051 15.2012V15.2003H30.5041C29.6331 14.3294 28.2161 14.3294 27.3461 15.2003L25.8811 16.6644L26.6301 17.4124C27.8781 18.6602 27.8781 20.6902 26.6301 21.9373C26.2101 22.3572 25.6951 22.6453 25.1321 22.7823C24.9981 23.3314 24.7171 23.8504 24.2891 24.2784C23.8701 24.6973 23.3551 24.9854 22.7941 25.1233C22.6561 25.6844 22.3681 26.1993 21.9491 26.6182C21.5291 27.0384 21.0151 27.3262 20.4531 27.4632C20.3161 28.0252 20.0271 28.5403 19.6081 28.9593C19.0041 29.5633 18.2001 29.8963 17.3461 29.8963C16.4911 29.8963 15.6881 29.5643 15.0831 28.9593L14.3351 28.2103L11.8371 30.7083C11.5361 31.0103 11.5361 31.4983 11.8371 31.8003L18.4541 38.4173C18.7561 38.7183 19.2441 38.7183 19.5461 38.4173L24.2821 33.6802H25.6171C26.8901 33.6802 28.0861 33.1854 28.9861 32.2852L34.2271 27.0443Z" fill="#09265E"/>
<path fill-rule="evenodd" clip-rule="evenodd" d="M16.1762 27.8673C16.8232 28.5143 17.8712 28.5143 18.5172 27.8673C19.1642 27.2213 19.1642 26.1734 18.5172 25.5275C19.1642 26.1735 20.2112 26.1735 20.8582 25.5275C21.5042 24.8802 21.5042 23.8324 20.8582 23.1864C21.5042 23.8324 22.5522 23.8324 23.1992 23.1864C23.8452 22.5404 23.8452 21.4923 23.1992 20.8453C23.8452 21.4923 24.8932 21.4923 25.5392 20.8453C26.1862 20.1993 26.1862 19.1512 25.5392 18.5043L22.2392 15.2045C21.5932 14.5585 20.5452 14.5585 19.8982 15.2045C19.2522 15.8505 19.2522 16.8993 19.8982 17.5453L20.3122 17.9584C19.6652 17.3124 18.6172 17.3124 17.9712 17.9584C17.3252 18.6054 17.3252 19.6535 17.9712 20.2994L18.7982 21.1263C18.1522 20.4803 17.1042 20.4803 16.4572 21.1263C15.8112 21.7723 15.8112 22.8214 16.4572 23.4674L17.2852 24.2943C16.6382 23.6483 15.5902 23.6483 14.9442 24.2943C14.2972 24.9403 14.2972 25.9884 14.9442 26.6354L16.1762 27.8673Z" fill="#09265E"/>
<path fill-rule="evenodd" clip-rule="evenodd" d="M26.2532 14.1081C26.3682 13.9931 26.4883 13.8881 26.6142 13.7912L26.1632 13.3393C25.9282 13.1042 25.5682 13.0461 25.2712 13.1943L23.3652 14.1472L24.7902 15.5722L26.2532 14.1081Z" fill="#09265E"/>
</svg>
