<svg width="49" height="50" viewBox="0 0 49 50" fill="none" xmlns="http://www.w3.org/2000/svg">
<path opacity="0.2" fill-rule="evenodd" clip-rule="evenodd" d="M24.6271 49.1685C37.9866 49.1685 48.8167 38.3385 48.8167 24.9789C48.8167 11.6194 37.9866 0.789307 24.6271 0.789307C11.2676 0.789307 0.4375 11.6194 0.4375 24.9789C0.4375 38.3385 11.2676 49.1685 24.6271 49.1685Z" fill="#3F95F7"/>
<path fill-rule="evenodd" clip-rule="evenodd" d="M18.0327 25.8572C16.4557 25.8572 15.1777 27.1353 15.1777 28.7122C15.1777 30.2893 16.4557 31.5671 18.0327 31.5671C19.6087 31.5671 20.8867 30.2893 20.8867 28.7122C20.8857 27.1362 19.6087 25.8591 18.0327 25.8572ZM18.0327 30.0303C17.3047 30.0303 16.7147 29.4402 16.7147 28.7122C16.7147 27.9841 17.3048 27.3943 18.0327 27.3943C18.7597 27.3943 19.3497 27.9841 19.3497 28.7122C19.3497 29.4402 18.7597 30.0303 18.0327 30.0303Z" fill="#09265E"/>
<path fill-rule="evenodd" clip-rule="evenodd" d="M33.8433 25.8572C32.2663 25.8572 30.9883 27.1353 30.9883 28.7122C30.9883 30.2893 32.2663 31.5671 33.8433 31.5671C35.4193 31.5671 36.6973 30.2893 36.6973 28.7122C36.6963 27.1362 35.4193 25.8591 33.8433 25.8572ZM33.8433 30.0303C33.1153 30.0303 32.5253 29.4402 32.5253 28.7122C32.5253 27.9841 33.1153 27.3943 33.8433 27.3943C34.5703 27.3943 35.1603 27.9841 35.1603 28.7122C35.1603 29.4402 34.5703 30.0303 33.8433 30.0303Z" fill="#09265E"/>
<path fill-rule="evenodd" clip-rule="evenodd" d="M37.6541 23.499L32.5261 22.563L28.1611 18.9409C27.7281 18.5859 27.1861 18.3911 26.6261 18.3911H20.1951C19.4601 18.3889 18.7661 18.7229 18.3081 19.2981L15.5201 22.563H13.6411C12.5501 22.564 11.6661 23.449 11.6641 24.54V26.9551C11.6661 28.2891 12.7461 29.3689 14.0801 29.3711H14.5821C14.2171 27.4651 15.4651 25.624 17.3711 25.2581C19.2771 24.8931 21.1181 26.1421 21.4831 28.0471C21.5671 28.4851 21.5671 28.9341 21.4831 29.3711H30.3931C30.0281 27.4651 31.2761 25.624 33.1821 25.2581C35.0881 24.8931 36.9291 26.1421 37.2941 28.0471C37.3781 28.4851 37.3781 28.9341 37.2941 29.3711H37.3571C38.4481 29.3701 39.3321 28.4851 39.3341 27.394V25.4529C39.3391 24.4741 38.6221 23.6411 37.6541 23.499L37.6541 23.499ZM21.3271 21.9041C21.3271 22.2681 21.0321 22.563 20.6681 22.563H17.7721C17.5901 22.563 17.4421 22.416 17.4421 22.2339C17.4421 22.155 17.4701 22.0791 17.521 22.02L19.4381 19.7739C19.5631 19.6279 19.7461 19.544 19.9391 19.544H20.6681C21.0321 19.544 21.3271 19.8391 21.3271 20.2029L21.3271 21.9041ZM24.6211 24.979H23.7421C23.3781 24.979 23.0831 24.6841 23.0831 24.3201C23.0831 23.9561 23.3781 23.6609 23.7421 23.6609H24.6211C24.9841 23.6609 25.2791 23.9561 25.2791 24.3201C25.2791 24.6841 24.9841 24.979 24.6211 24.979ZM29.8071 22.5791L23.521 22.565C23.1581 22.564 22.8641 22.2691 22.8641 21.906V20.2029C22.8641 19.8391 23.159 19.544 23.5231 19.544H26.6821C26.8301 19.544 26.9741 19.594 27.0901 19.6851L30.0121 21.991C30.1551 22.104 30.1801 22.311 30.0671 22.4541C30.0051 22.533 29.9091 22.5801 29.8071 22.5791L29.8071 22.5791Z" fill="#09265E"/>
</svg>
