<svg width="50" height="50" viewBox="0 0 50 50" fill="none" xmlns="http://www.w3.org/2000/svg">
<path opacity="0.2" fill-rule="evenodd" clip-rule="evenodd" d="M25.0451 49.1685C38.4046 49.1685 49.2347 38.3385 49.2347 24.9789C49.2347 11.6194 38.4046 0.789307 25.0451 0.789307C11.6855 0.789307 0.855469 11.6194 0.855469 24.9789C0.855469 38.3385 11.6855 49.1685 25.0451 49.1685Z" fill="#3F95F7"/>
<path fill-rule="evenodd" clip-rule="evenodd" d="M37.3567 32.9333L34.8667 28.6301C33.5217 30.7112 31.5198 32.2852 29.1797 33.1003L31.1517 36.5132C31.2947 36.7602 31.5587 36.9123 31.8438 36.9101C32.1267 36.9092 32.3867 36.7573 32.5277 36.5132L33.9117 34.1262H36.6647C36.9497 34.1282 37.2137 33.9763 37.3567 33.7292C37.4988 33.4832 37.4988 33.1792 37.3567 32.9333H37.3567Z" fill="#09265E"/>
<path fill-rule="evenodd" clip-rule="evenodd" d="M16.1883 28.6301L13.6983 32.9333C13.5563 33.1792 13.5563 33.4831 13.6983 33.7292C13.8413 33.9763 14.1053 34.1282 14.3903 34.1262H17.1433L18.5273 36.5132C18.6682 36.7573 18.9283 36.9092 19.2113 36.9101C19.4962 36.9123 19.7603 36.7602 19.9034 36.5132L21.8753 33.1003C19.5353 32.2851 17.5343 30.7112 16.1883 28.6301Z" fill="#09265E"/>
<path fill-rule="evenodd" clip-rule="evenodd" d="M26.3218 20.5879L25.5267 18.9971L24.7308 20.5879C24.6138 20.8201 24.3917 20.98 24.1348 21.0181L22.4238 21.272L23.6648 22.4971C23.8518 22.679 23.9377 22.94 23.8958 23.197L23.6018 24.9151L25.1207 24.1201C25.3558 24.0029 25.6328 24.0029 25.8688 24.1201L27.3878 24.9151L27.1168 23.197C27.0748 22.94 27.1608 22.679 27.3478 22.4971L28.5887 21.272L26.8867 21.002C26.6448 20.958 26.4358 20.8059 26.3218 20.5879V20.5879Z" fill="#09265E"/>
<path fill-rule="evenodd" clip-rule="evenodd" d="M35.0734 22.592C35.0734 17.321 30.7993 13.0471 25.5283 13.0471C20.2564 13.0471 15.9824 17.321 15.9824 22.592C15.9824 27.864 20.2564 32.1379 25.5283 32.1379C30.7993 32.1379 35.0734 27.864 35.0734 22.592ZM30.8574 21.2881L28.7654 23.3401L29.2584 26.2361C29.3164 26.54 29.1924 26.8511 28.9403 27.031C28.8064 27.1279 28.6444 27.1809 28.4794 27.1819C28.3484 27.1819 28.2203 27.1489 28.1053 27.0869L25.5283 25.7109L22.9503 27.071C22.6943 27.196 22.3914 27.175 22.1554 27.0149C21.9033 26.835 21.7794 26.5239 21.8374 26.22L22.3303 23.324L20.1984 21.2881C19.8823 20.9829 19.8723 20.48 20.1774 20.1631C20.2993 20.0359 20.4614 19.9529 20.6363 19.928L23.5233 19.5061L24.8124 16.873C25.0034 16.478 25.4794 16.313 25.8744 16.5039C26.0354 16.582 26.1654 16.7119 26.2434 16.873L27.5323 19.5061L30.4193 19.928C30.8544 19.991 31.1564 20.394 31.0924 20.8291C31.0674 21.0039 30.9844 21.165 30.8574 21.2881H30.8574Z" fill="#09265E"/>
</svg>
