<?xml version="1.0" encoding="UTF-8"?>
<svg xmlns="http://www.w3.org/2000/svg" xmlns:xlink="http://www.w3.org/1999/xlink" width="320px" height="130px" viewBox="0 0 320 130" version="1.1">
  <title>pods</title>
  <g id="pods" stroke="none" stroke-width="1" fill="none" fill-rule="evenodd">
    <g id="Group" transform="translate(10.000000, 30.000000)" fill-rule="nonzero">
      <polygon id="Path" fill="#D12030" points="1.03938185 69.9539733 298.958749 69.9539733 298.958749 1.04602666 1.03938185 1.04602666"></polygon>
      <path d="M300,0 L300,71 L0,71 L0,0 L300,0 Z M75.497,2.092 L2.07876371,2.092 L2.07876371,68.9079467 L75.497,68.907 L75.497,2.092 Z M149.401,2.092 L76.536,2.092 L76.536,68.907 L149.401,68.907 L149.401,2.092 Z M223.481,2.092 L150.44,2.092 L150.44,68.907 L223.481,68.907 L223.481,2.092 Z M297.921236,2.092 L224.521,2.092 L224.521,68.907 L297.921236,68.9079467 L297.921236,2.092 Z" id="Shape" fill="#000000"></path>
      <path d="M260.430957,11.9476563 C269.009596,11.9476563 275.552468,13.0933941 280.055833,15.3942765 C284.557328,17.6913962 287.236167,21.3468454 288.092348,26.3606243 L268.549726,27.1846525 C268.031904,25.0098201 266.940179,23.4313734 265.27829,22.441787 C263.616401,21.454082 261.322657,20.9592888 258.395189,20.9592888 C255.985543,20.9592888 254.170364,21.3261507 252.95152,22.0636371 C251.730808,22.8030048 251.121386,23.6985241 251.121386,24.7539574 C251.121386,25.525308 251.618644,26.2176422 252.613161,26.8328414 C253.575897,27.4706166 255.890204,28.0632396 259.550474,28.6125917 C268.615155,30.0217176 275.107552,31.4458942 279.031406,32.8907655 C282.95339,34.3299928 285.806082,36.1210313 287.59322,38.2544742 C289.37849,40.393561 290.270189,42.7809852 290.270189,45.4223906 C290.270189,48.5266064 289.081256,51.3900103 286.70152,54.0069583 C284.319915,56.6295503 280.994267,58.6181298 276.724576,59.968934 C272.453016,61.3253822 267.067298,62.0026657 260.567423,62.0026657 C249.156655,62.0026657 241.252866,60.4204563 236.859796,57.2541562 C232.466725,54.0878561 229.980434,50.0674263 229.400922,45.1872228 L249.136092,44.2992289 C249.560444,46.5982299 250.427841,48.3478789 251.738285,49.5481756 C253.867522,51.4972469 256.910892,52.4699012 260.866525,52.4699012 C263.818295,52.4699012 266.093345,51.9694639 267.691675,50.9685895 C269.288136,49.9695964 270.088235,48.8088079 270.088235,47.4881051 C270.088235,46.2351308 269.331132,45.1138504 267.818794,44.1223827 C266.304586,43.1327963 262.771436,42.1977689 257.217473,41.3154191 C248.121012,39.8442089 241.636092,37.8857309 237.758973,35.4418665 C233.853814,32.9998834 231.900299,29.8881422 231.900299,26.1028803 C231.900299,23.6195077 232.898554,21.2697104 234.898804,19.0572511 C236.899053,16.8485545 239.906904,15.1101937 243.920489,13.8440499 C247.935942,12.5797875 253.439432,11.9476563 260.430957,11.9476563 L260.430957,11.9476563 Z M112.50486,11.9459631 C122.853814,11.9459631 130.82677,14.1076261 136.427468,18.4347148 C142.026296,22.7599221 144.826645,28.8197276 144.826645,36.6084872 C144.826645,42.2675667 143.602193,46.9088397 141.15516,50.5285434 C138.709995,54.1501285 135.176844,56.9664988 130.551969,58.9814171 C125.928963,60.994454 120.167498,62.0009725 113.267572,62.0009725 C106.255484,62.0009725 100.451022,61.131792 95.8560568,59.3934312 C91.2610917,57.6550704 87.5353938,54.904547 84.6789631,51.1399799 C81.8225324,47.3754127 80.3961864,42.6645301 80.3961864,37.0073319 C80.3961864,29.1056917 83.2227069,22.9537004 88.8776171,18.5494767 C94.5325274,14.1471343 102.410145,11.9459631 112.50486,11.9459631 L112.50486,11.9459631 Z M187.069666,12.7876759 C193.14332,12.7876759 198.050474,13.3840616 201.789257,14.571189 C205.52991,15.7583163 208.620015,17.462813 211.061441,19.684679 C213.502866,21.906545 215.27318,24.4915101 216.372383,27.4376931 C217.471585,30.3857574 218.021186,33.510668 218.021186,36.8086621 C218.021186,41.9785924 217.204262,45.9877342 215.572283,48.8360873 C213.938435,51.6863218 211.670862,54.0699833 208.771436,55.9964784 C205.872009,57.9210922 202.759472,59.2022868 199.431954,59.840062 C194.883724,60.7186491 190.761715,61.1607647 187.069666,61.1607647 L156.254611,61.1588834 L156.254611,12.7876759 L187.069666,12.7876759 Z M46.4764457,12.2691778 C54.6232552,12.2691778 60.7249501,13.5578977 64.7815304,16.1278121 C68.8381107,18.7014892 70.8664008,22.3625825 70.8664008,27.1129733 C70.8664008,31.9931768 68.6567797,35.8104216 64.2337986,38.5590636 C59.8108175,41.3077056 53.0604437,42.6792045 43.9845464,42.6792045 L31.6615155,42.6792045 L31.6615155,60.6385039 L9.06991525,60.6385039 L9.06991525,12.2691778 L46.4764457,12.2691778 Z M112.461864,23.2923421 C108.584746,23.2923421 105.472208,24.3628263 103.122383,26.4962691 C100.774427,28.635356 99.6004487,32.1722807 99.6004487,37.1051618 C99.6004487,41.994772 100.766949,45.5091205 103.10182,47.6444447 C105.43669,49.7797689 108.612787,50.8502531 112.631979,50.8502531 C116.763335,50.8502531 119.961864,49.8042264 122.225698,47.7121731 C124.489531,45.6163571 125.620513,41.8611966 125.620513,36.4410477 C125.620513,31.8844352 124.439058,28.5525769 122.076147,26.4492355 C119.713235,24.3458942 116.509098,23.2923421 112.461864,23.2923421 L112.461864,23.2923421 Z M182.186815,23.7464983 L177.014207,23.7464983 L177.014207,50.2019423 L182.095214,50.2019423 C186.426595,50.2019423 189.509222,49.8538938 191.339357,49.1596783 C193.169492,48.4692255 194.603315,47.2557593 195.640828,45.5268052 C196.67834,43.7997324 197.198031,40.9984128 197.198031,37.1228464 C197.198031,31.9924243 196.037139,28.4818384 193.719093,26.5892075 C191.399177,24.6928138 187.555708,23.7464983 182.186815,23.7464983 Z M38.0772682,22.1255333 L31.6615155,22.1255333 L31.6615155,32.888696 L37.1818295,32.888696 C41.5262961,32.888696 44.5771436,32.3901402 46.3343719,31.3911471 C48.0916002,30.392154 48.9702144,29.1147222 48.9702144,27.5569702 C48.9702144,26.0424892 48.2075025,24.7612947 46.6820788,23.7058613 C45.156655,22.6541906 42.289008,22.1255333 38.0772682,22.1255333 L38.0772682,22.1255333 Z M288.480247,4.90936432 C289.334559,4.90936432 290.153352,5.12571875 290.938497,5.55842762 C291.723642,5.98925515 292.340541,6.61009831 292.789195,7.41907576 C293.237849,8.22805321 293.464045,9.07277617 293.464045,9.955126 C293.464045,10.8318318 293.243457,11.6709107 292.802281,12.4686001 C292.362974,13.2644082 291.747944,13.8852513 290.962799,14.3330109 C290.175785,14.7751265 289.347645,14.9990063 288.480247,14.9990063 C287.614718,14.9990063 286.788447,14.7751265 285.999564,14.3330109 C285.21255,13.8852513 284.599389,13.2644082 284.158213,12.4686001 C283.720775,11.6709107 283.500187,10.8318318 283.500187,9.955126 C283.500187,9.07277617 283.724514,8.22805321 284.171299,7.41907576 C284.621822,6.61009831 285.236852,5.98925515 286.021997,5.55842762 C286.807141,5.12571875 287.627804,4.90936432 288.480247,4.90936432 L288.480247,4.90936432 Z M288.489594,5.89706934 C287.805396,5.89706934 287.14924,6.07015289 286.519255,6.42008267 C285.893008,6.76436843 285.39762,7.26480564 285.034958,7.91386894 C284.672296,8.56293225 284.492834,9.24397838 284.492834,9.95700734 C284.492834,10.6625109 284.668557,11.337913 285.021872,11.9775696 C285.375187,12.6191076 285.868706,13.1176634 286.500561,13.4807626 C287.134285,13.8382178 287.796049,14.020708 288.489594,14.020708 C289.186877,14.020708 289.85238,13.8382178 290.480496,13.4807626 C291.11235,13.1176634 291.604,12.6191076 291.961054,11.9775696 C292.316239,11.337913 292.493831,10.6625109 292.493831,9.95700734 C292.493831,9.24397838 292.3125,8.56293225 291.951707,7.91386894 C291.589045,7.26480564 291.093657,6.76436843 290.461802,6.42008267 C289.831817,6.07015289 289.173791,5.89706934 288.489594,5.89706934 L288.489594,5.89706934 Z M288.996199,7.31183921 C289.351383,7.34570338 289.628053,7.41719441 289.824339,7.52819365 C290.020626,7.63919288 290.185132,7.81227642 290.317859,8.0436816 C290.448716,8.27132409 290.516014,8.52906807 290.516014,8.80750682 C290.516014,9.19506346 290.390765,9.52617981 290.142136,9.80273722 C289.893507,10.0755319 289.543931,10.2467341 289.093407,10.3106998 C289.254175,10.3727841 289.377555,10.4386311 289.463547,10.5120035 C289.551408,10.5853759 289.671049,10.7227139 289.82247,10.9240176 C289.861727,10.9785765 289.990715,11.1968123 290.211304,11.5768436 L290.83568,12.6567344 L289.506543,12.6567344 L289.065366,11.7856726 C288.768133,11.2024563 288.521373,10.8318318 288.326957,10.679443 C288.13254,10.5289356 287.88765,10.4518005 287.590416,10.4518005 L287.311877,10.4518005 L287.311877,12.6567344 L286.238846,12.6567344 L286.238846,7.30055115 L287.893446,7.30106948 C288.534049,7.30233651 288.900726,7.30592642 288.996199,7.31183921 Z M287.745576,8.15279949 L287.311877,8.15279949 L287.311877,9.61084024 L287.745576,9.61084024 C288.362475,9.61084024 288.74757,9.58450144 288.895252,9.53934921 C289.044803,9.4904343 289.162575,9.40577387 289.248567,9.28348658 C289.334559,9.16496198 289.377555,9.02762394 289.377555,8.87335382 C289.377555,8.72472774 289.336428,8.59491507 289.252306,8.47639047 C289.166314,8.36162855 289.048542,8.27884947 288.891513,8.22805321 C288.736353,8.17537561 288.354998,8.15279949 287.745576,8.15279949 L287.745576,8.15279949 Z" id="Shape" fill="#FFFFFF"></path>
    </g>
  </g>
</svg>
