<svg width="64" height="64" viewBox="0 0 64 64" fill="none" xmlns="http://www.w3.org/2000/svg">
<rect width="64" height="64" rx="32" fill="#E9FBF7"/>
<path d="M43.9604 30.885C43.1622 31.3805 42.4052 31.7659 41.7308 32.0412C41.2628 32.2476 40.7536 32.344 40.2581 32.344C39.7626 32.344 39.2533 32.2476 38.7854 32.0412C37.588 31.5457 36.129 30.7199 34.7114 29.5913H21.5673L23.6043 24.9117C23.8245 24.4162 24.32 24.0859 24.8568 24.0859H30.2796C29.8942 23.2326 29.5914 22.3104 29.4263 21.3332H24.8568C23.2189 21.3332 21.7325 22.3104 21.0718 23.8106L18.3467 30.073C18.3329 30.1005 18.3467 30.1281 18.3329 30.1693C16.6538 31.0227 15.4839 32.7431 15.4839 34.7526V39.9139C15.4839 41.8132 17.0254 43.3547 18.9247 43.3547C20.8241 43.3547 22.3656 41.8132 22.3656 39.9139V39.2257H38.8817V39.9139C38.8817 41.8132 40.4232 43.3547 42.3226 43.3547C44.222 43.3547 45.7635 41.8132 45.7635 39.9139V34.7526C45.7635 33.1973 45.0615 31.8072 43.9604 30.885ZM23.742 36.473H20.9893C20.2323 36.473 19.6129 35.8536 19.6129 35.0967C19.6129 34.3397 20.2323 33.7203 20.9893 33.7203H23.742C24.4989 33.7203 25.1183 34.3397 25.1183 35.0967C25.1183 35.8536 24.4989 36.473 23.742 36.473ZM40.2581 36.473H37.5054C36.7484 36.473 36.129 35.8536 36.129 35.0967C36.129 34.3397 36.7484 33.7203 37.5054 33.7203H40.2581C41.0151 33.7203 41.6344 34.3397 41.6344 35.0967C41.6344 35.8536 41.0151 36.473 40.2581 36.473Z" fill="#6AA69A"/>
<path d="M47.8156 12.8357L40.5898 10.3775C40.3751 10.3032 40.1411 10.3032 39.9264 10.3775L32.7006 12.8357C32.2808 12.9774 32 13.3711 32 13.8129V19.343C32 26.0926 39.5341 29.3738 39.8548 29.5101C40.1136 29.6188 40.4026 29.6188 40.6613 29.5101C40.982 29.3738 48.5161 26.0926 48.5161 19.343V13.8129C48.5161 13.3711 48.2354 12.9774 47.8156 12.8357ZM44.7807 18.0548L40.9958 22.872C40.5141 23.4872 39.6112 23.5767 39.0194 23.0674L36.6108 21.0029C36.0327 20.5088 35.9653 19.6389 36.4621 19.0623C36.9562 18.4856 37.8261 18.4195 38.4014 18.9136L39.7199 20.0436L42.6171 16.3564C43.0865 15.759 43.9508 15.653 44.5495 16.1251C45.1469 16.5917 45.2515 17.4574 44.7807 18.0548Z" fill="#6AA69A"/>
</svg>
