<svg width="64" height="64" viewBox="0 0 64 64" fill="none" xmlns="http://www.w3.org/2000/svg">
<rect width="64" height="64" rx="32" fill="#F2FBE6"/>
<path d="M37.1936 16.1092L37.4782 16.8696L37.7628 16.1092C37.8817 15.7916 38.0673 15.5033 38.3071 15.2636C38.5469 15.0239 38.8353 14.8385 39.1529 14.7197L39.9092 14.4351L39.1529 14.1505C38.8356 14.0315 38.5474 13.8458 38.3078 13.606C38.0683 13.3662 37.8829 13.0779 37.7642 12.7604L37.4796 12L37.1936 12.7604C37.0749 13.0779 36.8895 13.3662 36.6499 13.606C36.4104 13.8458 36.1222 14.0315 35.8048 14.1505L35.0444 14.4351L35.8048 14.7197C36.1222 14.8386 36.4103 15.0242 36.6499 15.2638C36.8895 15.5035 37.0749 15.7918 37.1936 16.1092Z" fill="#9EC06F"/>
<path d="M42.4715 18.9052L42.6867 19.4814L42.8998 18.9052C42.9898 18.6644 43.1305 18.4456 43.3123 18.2638C43.4941 18.082 43.7129 17.9413 43.9538 17.8513L44.5299 17.6354L43.9538 17.4196C43.7129 17.3296 43.4941 17.1889 43.3123 17.0071C43.1305 16.8252 42.9898 16.6065 42.8998 16.3656L42.6839 15.7895L42.4688 16.3656C42.3785 16.6064 42.2378 16.825 42.056 17.0068C41.8742 17.1886 41.6556 17.3294 41.4148 17.4196L40.838 17.6354L41.4148 17.8513C41.6561 17.9412 41.8753 18.0818 42.0575 18.2636C42.2398 18.4454 42.381 18.6642 42.4715 18.9052Z" fill="#9EC06F"/>
<path d="M45.6924 15.7043L45.9076 16.2811L46.1235 15.7043C46.2137 15.4635 46.3545 15.2449 46.5362 15.0631C46.718 14.8813 46.9367 14.7405 47.1774 14.6503L47.7536 14.4351L47.1774 14.2193C46.9366 14.1292 46.7178 13.9886 46.536 13.8067C46.3542 13.6249 46.2135 13.4062 46.1235 13.1653L45.9076 12.5892L45.6924 13.1653C45.6022 13.4061 45.4615 13.6247 45.2797 13.8065C45.0979 13.9883 44.8793 14.129 44.6385 14.2193L44.0617 14.4351L44.6385 14.6503C44.8791 14.7408 45.0976 14.8816 45.2794 15.0633C45.4612 15.2451 45.602 15.4636 45.6924 15.7043Z" fill="#9EC06F"/>
<path d="M42.818 41.8396V43.2716C42.818 43.3635 42.8361 43.4544 42.8714 43.5392C42.9066 43.624 42.9583 43.701 43.0234 43.7658C43.0885 43.8306 43.1658 43.8818 43.2507 43.9167C43.3357 43.9515 43.4267 43.9692 43.5186 43.9688H46.1998C46.3847 43.9688 46.562 43.8953 46.6928 43.7646C46.8235 43.6338 46.8969 43.4565 46.8969 43.2716V40.5113C46.4544 40.956 45.9241 41.3037 45.3399 41.5324C44.7557 41.761 44.1303 41.8657 43.5034 41.8396H42.818Z" fill="#9EC06F"/>
<path d="M16.8656 40.4707V43.2716C16.8656 43.4565 16.939 43.6338 17.0697 43.7646C17.2005 43.8953 17.3778 43.9688 17.5627 43.9688H20.2439C20.4288 43.9688 20.6061 43.8953 20.7369 43.7646C20.8676 43.6338 20.9411 43.4565 20.9411 43.2716V41.8396H20.2983C19.6618 41.867 19.0268 41.7592 18.4351 41.5233C17.8434 41.2873 17.3085 40.9286 16.8656 40.4707Z" fill="#9EC06F"/>
<path d="M16.8855 37.6781C16.8855 39.654 18.2605 40.8056 20.2983 40.8056H43.5021C45.5371 40.8056 46.9148 39.654 46.9148 37.6781V37.1075H16.8855V37.6781Z" fill="#9EC06F"/>
<path d="M47.2311 24.9594L45.5123 24.661C45.375 24.637 45.2337 24.6601 45.1112 24.7265C44.9886 24.7929 44.8921 24.8987 44.8372 25.0267L44.3023 26.2361L44.0851 25.9047L42.5781 22.3469C42.335 21.7697 41.949 21.2639 41.4565 20.8771C40.964 20.4903 40.3811 20.2352 39.7628 20.1359C37.1606 19.7408 34.5317 19.5489 31.8998 19.5618C29.2681 19.5495 26.6394 19.7421 24.0376 20.1379C23.4186 20.2368 22.8351 20.4916 22.3419 20.8785C21.8488 21.2653 21.4622 21.7714 21.2188 22.3489L19.7153 25.9012L19.5014 26.2278L18.9631 25.0233C18.9082 24.8952 18.8117 24.7894 18.6892 24.7231C18.5666 24.6567 18.4253 24.6336 18.288 24.6576L16.5686 24.9594C16.4097 24.985 16.2652 25.0665 16.161 25.1891C16.0568 25.3117 15.9997 25.4674 16 25.6283V25.9659C16 26.1208 16.053 26.2711 16.1502 26.3917C16.2473 26.5124 16.3828 26.5962 16.5342 26.6293L18.8882 27.1676L17.7607 28.8864C17.1901 29.7566 16.8861 30.7745 16.8862 31.8151V36.0776H46.9148V31.8151C46.9146 30.7745 46.6104 29.7565 46.0396 28.8864L44.908 27.1594L47.2661 26.6279C47.4175 26.5949 47.553 26.511 47.6501 26.3904C47.7473 26.2697 47.8003 26.1194 47.8003 25.9645V25.6269C47.8002 25.4662 47.7429 25.3107 47.6386 25.1884C47.5343 25.066 47.3898 24.9849 47.2311 24.9594ZM22.171 22.7518C22.3447 22.3347 22.6224 21.969 22.9775 21.6897C23.3327 21.4103 23.7535 21.2266 24.1998 21.1561C26.748 20.7694 29.3224 20.5811 31.8998 20.5931C34.4772 20.5811 37.0516 20.7694 39.5998 21.1561C40.0458 21.2269 40.4662 21.4106 40.8211 21.6898C41.176 21.969 41.4535 22.3343 41.6273 22.7511L42.7857 25.4832H21.0126L22.171 22.7518ZM19.9841 32.7206C19.782 32.6911 19.5934 32.6016 19.4427 32.4637C19.2921 32.3258 19.1863 32.1458 19.1391 31.9471C19.077 31.7154 19.0526 31.4751 19.0669 31.2356C19.1226 30.6168 19.3172 30.3123 19.7104 30.3123C19.7104 30.3123 22.4068 30.48 22.7712 30.5921C23.1356 30.7041 24.5339 33.3627 24.5339 33.3627L19.9841 32.7206ZM37.2568 33.7518L31.8668 34.0598L26.5428 33.7594L25.185 30.8794C25.185 30.8794 29.9679 31.2961 31.8991 31.2961C33.8303 31.2961 38.6146 30.8794 38.6146 30.8794L37.2568 33.7518ZM44.6598 31.9499C44.6126 32.1486 44.5069 32.3286 44.3562 32.4665C44.2056 32.6044 44.017 32.6939 43.8149 32.7233L39.265 33.3654C39.265 33.3654 40.6641 30.7069 41.0284 30.5948C41.3928 30.4827 44.0885 30.315 44.0885 30.315C44.4824 30.315 44.6763 30.6223 44.732 31.2383C44.7463 31.4778 44.722 31.7181 44.6598 31.9499Z" fill="#9EC06F"/>
</svg>
