<svg width="64" height="64" viewBox="0 0 64 64" fill="none" xmlns="http://www.w3.org/2000/svg">
<rect width="64" height="64" rx="32" fill="#F4E9E0"/>
<path d="M31.8256 40.0168C31.1243 40.0168 30.5538 40.5874 30.5538 41.2886C30.5538 41.9899 31.1243 42.5604 31.8256 42.5604C32.5268 42.5604 33.0974 41.9899 33.0974 41.2886C33.0974 40.5874 32.5268 40.0168 31.8256 40.0168Z" fill="#C89267"/>
<path d="M31.8256 34.5083C30.007 34.5083 28.3537 35.2283 27.1349 36.3979L28.7709 36.866L27.6452 40.3214H28.7688C29.18 39.0248 30.3947 38.0825 31.8256 38.0825C33.2564 38.0825 34.4711 39.0248 34.8823 40.3214H36.0059L34.8802 36.866L36.5168 36.3977C35.2979 35.2281 33.6443 34.5083 31.8256 34.5083Z" fill="#C89267"/>
<path d="M28.7688 42.2558H27.0151L26.5126 43.7981L25.4611 43.6258C26.308 45.9248 28.3664 47.6426 30.8584 48.0001V44.3454C29.8671 44.031 29.0832 43.247 28.7688 42.2558Z" fill="#C89267"/>
<path d="M43.4924 35.8961L40.7726 29.1691C40.3777 28.1925 39.4419 27.5614 38.3884 27.5614H25.2628C24.2092 27.5614 23.2734 28.1925 22.8785 29.1691L20.1588 35.8961C19.8069 36.7665 20.0526 37.7579 20.7701 38.3633L24.4977 41.5077L25.1875 41.6208L26.3104 38.174L25.307 37.887L24.1048 37.9204L24.0511 35.9867L24.933 35.9622C26.5284 33.9024 29.0246 32.5739 31.8256 32.5739C34.6263 32.5739 37.1216 33.9028 38.7169 35.9622L39.5999 35.9867L39.5463 37.9203L38.3441 37.887L37.3407 38.174L38.4635 41.6207L39.1533 41.5076L42.8809 38.3632C43.5986 37.7579 43.8443 36.7665 43.4924 35.8961Z" fill="#C89267"/>
<path d="M36.6361 42.2558H34.8823C34.5679 43.247 33.784 44.031 32.7927 44.3453V47.9999C35.2846 47.6425 37.3429 45.9247 38.1898 43.6258L37.1385 43.7981L36.6361 42.2558Z" fill="#C89267"/>
<path d="M31.8256 26.5942C35.0272 26.5942 37.6227 23.9987 37.6227 20.7971C37.6227 17.5954 35.0272 15 31.8256 15C28.6239 15 26.0285 17.5954 26.0285 20.7971C26.0285 23.9987 28.6239 26.5942 31.8256 26.5942Z" fill="#C89267"/>
</svg>
