<svg width="64" height="64" viewBox="0 0 64 64" fill="none" xmlns="http://www.w3.org/2000/svg">
<rect width="64" height="64" rx="32" fill="#DAE7FA"/>
<path d="M42.75 35.3824C39.2657 35.3824 36.4412 38.2069 36.4412 41.6912C36.4412 45.1755 39.2657 48 42.75 48C46.2343 48 49.0588 45.1755 49.0588 41.6912C49.0588 38.2069 46.2343 35.3824 42.75 35.3824ZM42.0637 44.4364L39.3184 41.6912L40.691 40.3186L42.0637 41.6912L44.8089 38.946L46.1815 40.3186L42.0637 44.4364Z" fill="#0D275A"/>
<path d="M34.5 41.6912C34.5 37.3315 37.8988 33.755 42.1753 33.4611C42.7491 33.4216 43.2353 32.971 43.2353 32.3958V16C43.2353 15.4477 42.7991 15 42.2468 15C38.4165 15 24.7547 15 20.9307 15C20.3784 15 19.9412 15.4477 19.9412 16V47C19.9412 47.5523 20.3889 48 20.9412 48H34.7024C35.6349 48 36.1524 46.7251 35.6722 45.9257C34.9282 44.6871 34.5 43.2383 34.5 41.6912ZM23.7059 20.8235H39.3529V22.7647C38.7523 22.7647 24.3062 22.7647 23.7059 22.7647C23.7059 22.0858 23.7059 21.5024 23.7059 20.8235ZM23.7059 24.7059H39.3529V26.6471C38.7523 26.6471 24.3062 26.6471 23.7059 26.6471C23.7059 25.9682 23.7059 25.3848 23.7059 24.7059ZM23.7059 28.5882H39.3529V30.5294C38.7523 30.5294 24.3062 30.5294 23.7059 30.5294C23.7059 29.8505 23.7059 29.2671 23.7059 28.5882ZM33.5294 34.4118C32.9549 34.4118 24.2742 34.4118 23.7059 34.4118C23.7059 33.7329 23.7059 33.1495 23.7059 32.4706H33.5294V34.4118Z" fill="#0D275A"/>
</svg>
