<svg width="64" height="64" viewBox="0 0 64 64" fill="none" xmlns="http://www.w3.org/2000/svg">
<rect width="64" height="64" rx="32" fill="#F1E0F4"/>
<path d="M22.7983 31.4079C22.4078 31.7984 21.7746 31.7984 21.3841 31.4079L17.0784 27.1021C15.7394 25.7632 15.002 23.9829 15.002 22.0893C15.002 18.1803 18.1822 15 22.0912 15C26.0003 15 29.1805 18.1803 29.1805 22.0893C29.1805 23.9829 28.4431 25.7632 27.104 27.1021L22.7983 31.4079ZM22.0912 16.9334C19.2483 16.9334 16.9353 19.2463 16.9353 22.0893C16.9353 23.4665 17.4716 24.7612 18.4455 25.7351L21.3841 28.6737C21.7746 29.0642 22.4078 29.0642 22.7983 28.6737L25.737 25.7351C26.7109 24.7612 27.2472 23.4665 27.2472 22.0893C27.2472 19.2463 24.9342 16.9334 22.0912 16.9334Z" fill="#7F6284"/>
<path d="M22.0912 25.3118C20.3144 25.3118 18.8688 23.8662 18.8688 22.0894C18.8688 20.3126 20.3144 18.867 22.0912 18.867C23.868 18.867 25.3136 20.3126 25.3136 22.0894C25.3136 23.8662 23.868 25.3118 22.0912 25.3118ZM22.0912 20.8003C21.3804 20.8003 20.8022 21.3786 20.8022 22.0894C20.8022 22.8002 21.3804 23.3784 22.0912 23.3784C22.802 23.3784 23.3802 22.8002 23.3802 22.0894C23.3802 21.3786 22.802 20.8003 22.0912 20.8003Z" fill="#7F6284"/>
<path d="M43.5492 47.2929C43.1587 47.6834 42.5256 47.6834 42.135 47.2929L39.1963 44.3543C38.2225 43.3804 37.6862 42.0856 37.6862 40.7084C37.6862 37.8655 39.9992 35.5526 42.8421 35.5526C45.6851 35.5526 47.998 37.8655 47.998 40.7084C47.998 42.0856 47.4618 43.3804 46.4879 44.3543L43.5492 47.2929ZM40.5634 42.9871L42.135 44.5587C42.5255 44.9492 43.1587 44.9492 43.5492 44.5587L45.1208 42.9871C45.7294 42.3784 46.0647 41.5691 46.0647 40.7084C46.0647 38.9315 44.619 37.4859 42.8421 37.4859C41.0652 37.4859 39.6196 38.9315 39.6196 40.7084C39.6196 41.5692 39.9548 42.3785 40.5634 42.9871Z" fill="#7F6284"/>
<path d="M38.138 47.0294C38.1379 47.5633 37.7052 47.9961 37.1713 47.9961H27.3463C23.9157 47.9961 21.1246 45.205 21.1246 41.7743C21.1246 38.3436 23.9157 35.5525 27.3463 35.5525H30.9336C31.9918 35.5525 32.8526 34.6917 32.8526 33.6336C32.8526 32.5754 31.9918 31.7146 30.9336 31.7146H28.1495C27.6156 31.7146 27.1828 31.2818 27.1828 30.748C27.1828 30.2141 27.6156 29.7813 28.1495 29.7813H30.9336C33.0578 29.7813 34.7859 31.5094 34.7859 33.6336C34.7859 35.7577 33.0578 37.4859 30.9336 37.4859H27.3463C24.9817 37.4859 23.058 39.4096 23.058 41.7742C23.058 44.1389 24.9817 46.0627 27.3463 46.0627H37.1713C37.7052 46.0627 38.138 46.4955 38.138 47.0294Z" fill="#7F6284"/>
</svg>
