<svg width="19" height="22" viewBox="0 0 19 22" fill="none" xmlns="http://www.w3.org/2000/svg">
<path d="M3.69239 18.6571C2.90318 18.6571 2.25682 18.0045 2.25682 17.2069C2.25682 16.4093 2.90318 15.7567 3.69239 15.7567C4.48159 15.7567 5.12796 16.4093 5.12796 17.2069C5.12796 18.0045 4.48193 18.6571 3.69239 18.6571ZM9.02454 18.6571C8.23534 18.6571 7.58898 18.0045 7.58898 17.2069C7.58898 16.4093 8.23534 15.7567 9.02454 15.7567C9.81375 15.7567 10.4601 16.4093 10.4601 17.2069C10.4601 18.0045 9.81375 18.6571 9.02454 18.6571ZM14.3567 18.6571C13.5675 18.6571 12.9211 18.0045 12.9211 17.2069C12.9211 16.4093 13.5675 15.7567 14.3567 15.7567C15.1459 15.7567 15.7923 16.4093 15.7923 17.2069C15.7919 18.0048 15.1459 18.6571 14.3567 18.6571ZM3.69239 13.2708C2.90318 13.2708 2.25682 12.6182 2.25682 11.8206C2.25682 11.023 2.90318 10.3704 3.69239 10.3704C4.48159 10.3704 5.12796 11.023 5.12796 11.8206C5.12796 12.6182 4.48193 13.2708 3.69239 13.2708ZM9.02454 13.2708C8.23534 13.2708 7.58898 12.6182 7.58898 11.8206C7.58898 11.023 8.23534 10.3704 9.02454 10.3704C9.81375 10.3704 10.4601 11.023 10.4601 11.8206C10.4601 12.6182 9.81375 13.2708 9.02454 13.2708ZM14.3567 13.2708C13.5675 13.2708 12.9211 12.6182 12.9211 11.8206C12.9211 11.023 13.5675 10.3704 14.3567 10.3704C15.1459 10.3704 15.7923 11.023 15.7923 11.8206C15.7919 12.6182 15.1459 13.2708 14.3567 13.2708ZM3.28398 3.95026H14.7409C15.3048 3.95026 15.7664 4.41656 15.7664 4.98619V6.32173C15.7664 6.89135 15.3048 7.35766 14.7409 7.35766H3.28398C2.72011 7.35766 2.25852 6.89135 2.25852 6.32173V4.98619C2.25852 4.41656 2.72011 3.95026 3.28398 3.95026ZM16.1056 0.123047C15.0378 0.123047 12.703 0.123047 10.9169 0.123047H7.12977C5.34409 0.123047 3.00886 0.123047 1.94114 0.123047C0.873409 0.123047 0 0.984023 0 2.03682C0 3.08963 0 5.42666 0 7.23092V18.0572C0 19.8614 1.46148 21.3375 3.24716 21.3375H14.7995C16.5852 21.3375 18.0467 19.8614 18.0467 18.0572V7.77816C18.0467 5.9739 18.0467 3.51323 18.0467 2.31062C18.047 1.10731 17.1733 0.123047 16.1056 0.123047Z" fill="#09265E"/>
</svg>
