<svg width="23" height="23" viewBox="0 0 23 23" fill="none" xmlns="http://www.w3.org/2000/svg">
<path d="M20.8066 10.3835L20.3025 10.2306C20.2893 7.77165 19.3156 5.41734 17.5933 3.67966C15.871 1.94198 13.5392 0.961439 11.1051 0.951252C8.6709 0.941065 6.33118 1.90206 4.59466 3.62526C2.85813 5.34847 1.86523 7.69454 1.83184 10.1533L1.30695 10.3128C1.0762 10.3828 0.861356 10.498 0.674689 10.6519C0.488022 10.8058 0.333187 10.9953 0.219025 11.2096C0.104863 11.4239 0.0336106 11.6589 0.00933571 11.901C-0.0149392 12.1432 0.00823916 12.3878 0.0775473 12.6209L0.805863 15.0704C0.849443 15.2171 0.948903 15.3402 1.08236 15.4128C1.21582 15.4854 1.37235 15.5014 1.51752 15.4574C1.51752 15.4574 3.66616 14.9027 3.8404 14.8342L3.09502 11.5734C2.91216 10.4093 2.98133 9.21902 3.29777 8.08457C3.6142 6.95012 4.17038 5.89848 4.92796 5.00213C5.68555 4.10578 6.62652 3.38603 7.68603 2.89251C8.74553 2.39898 9.89837 2.14341 11.0651 2.14341C12.2318 2.14341 13.3846 2.39898 14.4441 2.89251C15.5036 3.38603 16.4446 4.10578 17.2022 5.00213C17.9598 5.89848 18.516 6.95012 18.8324 8.08457C19.1488 9.21902 19.218 10.4093 19.0351 11.5734L18.5433 13.7251C18.4286 14.2271 18.368 14.7463 18.1304 15.2053C17.1465 17.1041 14.4643 17.4001 12.4857 17.4822C12.3948 17.272 12.2452 17.0931 12.0552 16.9675C11.8652 16.8418 11.6431 16.7748 11.416 16.7746H10.3254C10.0157 16.775 9.71878 16.8996 9.49992 17.1209C9.28105 17.3423 9.15812 17.6424 9.15812 17.9553C9.15812 18.2681 9.28105 18.5682 9.49992 18.7896C9.71878 19.011 10.0157 19.1355 10.3254 19.1359H11.416C11.6539 19.1355 11.8861 19.0616 12.0812 18.924C12.2764 18.7865 12.4252 18.5919 12.5077 18.3664C15.033 18.257 18.1911 17.7993 19.1297 15.0832L20.596 15.5281C20.7412 15.5721 20.8977 15.5561 21.0312 15.4835C21.1647 15.411 21.2641 15.2878 21.3077 15.1412L22.036 12.6916C22.1053 12.4585 22.1285 12.2139 22.1042 11.9718C22.0799 11.7296 22.0087 11.4947 21.8945 11.2803C21.7804 11.066 21.6255 10.8765 21.4389 10.7226C21.2522 10.5687 21.0374 10.4535 20.8066 10.3835Z" fill="#09265E"/>
<path d="M11.2089 20.5389C11.1687 20.5389 11.1284 20.5337 11.0831 20.5337H11.0277C10.9857 20.5329 10.9436 20.5346 10.9018 20.5389C10.3429 20.5345 9.79184 20.4055 9.28798 20.1611C8.78411 19.9167 8.33988 19.563 7.98699 19.1251L7.93664 19.0587C6.87441 17.879 6.48177 16.3483 6.19984 14.258C6.08908 13.4547 6.00854 12.6154 5.96321 11.7202C6.47982 11.1041 7.10232 10.5874 7.80074 10.1948C8.83454 10.9822 10.0729 11.4486 11.3646 11.537C12.6564 11.6255 13.9457 11.3321 15.0752 10.6929C15.4823 10.4658 15.8638 10.1947 16.2129 9.88426C16.2079 10.5203 16.1827 11.1303 16.1526 11.7202C16.1022 12.6153 16.0217 13.4547 15.9109 14.258C15.8253 14.8787 15.7347 15.4479 15.6139 15.9772C16.3388 15.7228 16.9279 15.3363 17.2399 14.7363C17.3565 14.4614 17.4377 14.1726 17.4816 13.8768C17.4816 13.8715 17.4866 13.8715 17.4816 13.8667C17.6545 12.3337 17.7368 10.7916 17.7282 9.2487C17.7268 8.87802 17.6897 8.50836 17.6175 8.14493C17.3681 6.90403 16.6722 5.8006 15.6643 5.04797C14.4283 4.12722 12.9406 3.61553 11.4053 3.58316C11.3279 3.58222 11.2506 3.58559 11.1736 3.59327C11.1736 3.59327 11.1284 3.59327 11.0578 3.58844C10.9824 3.59327 10.9421 3.59327 10.9421 3.59327C10.8652 3.58559 10.7878 3.58221 10.7105 3.58316C9.17521 3.61552 7.68746 4.12721 6.45155 5.04797C6.00369 5.37872 5.61543 5.78476 5.30373 6.24837C4.70434 7.13155 4.38481 8.1779 4.3875 9.2487C4.37817 10.73 4.45212 12.2107 4.609 13.6835C4.62411 13.8359 4.64424 13.9936 4.66438 14.146C4.67446 14.2532 4.68957 14.3599 4.70464 14.4667C4.75497 14.8224 4.80535 15.1787 4.86576 15.5243C5.15271 17.1978 5.63598 18.7741 6.81905 20.0861C7.31678 20.7056 7.94536 21.2047 8.65876 21.547C9.37216 21.8893 10.1523 22.0661 10.9421 22.0644C10.9773 22.0644 11.0176 22.0595 11.0578 22.0595C11.0931 22.0595 11.1334 22.0644 11.1736 22.0644C11.9634 22.0661 12.7436 21.8893 13.457 21.547C14.1704 21.2047 14.799 20.7056 15.2967 20.0861C15.6355 19.712 15.9295 19.2989 16.1727 18.8554C15.4588 19.0718 14.7251 19.215 13.9828 19.2828C13.6324 19.6757 13.2048 19.9903 12.7271 20.2066C12.2494 20.4229 11.7323 20.5361 11.2089 20.5389Z" fill="#09265E"/>
</svg>
