<svg width="54" height="55" viewBox="0 0 54 55" fill="none" xmlns="http://www.w3.org/2000/svg">
<circle cx="27.1198" cy="27.4471" r="26.6087" fill="#F6E9DF"/>
<path fill-rule="evenodd" clip-rule="evenodd" d="M27.12 17.01C23.14 17.01 19.82 20.2161 19.82 24.3101C19.82 25.8669 20.288 27.2561 21.186 28.5569L26.561 36.9451C26.822 37.3521 27.418 37.3511 27.678 36.9451L33.077 28.529C33.956 27.2859 34.42 25.8269 34.42 24.3101C34.42 20.2839 31.145 17.01 27.12 17.01ZM27.12 27.6279C25.29 27.6279 23.802 26.1389 23.802 24.3101C23.802 22.48 25.29 20.991 27.12 20.991C28.949 20.991 30.438 22.48 30.438 24.3101C30.438 26.1389 28.949 27.6279 27.12 27.6279Z" fill="#D1905F"/>
<path d="M32.308 32.26L28.966 37.4839C28.101 38.833 26.134 38.8279 25.273 37.4851L21.926 32.261C18.981 32.9419 17.165 34.189 17.165 35.6799C17.165 38.2661 22.294 39.6621 27.12 39.6621C31.945 39.6621 37.074 38.2661 37.074 35.6799C37.074 34.188 35.256 32.9399 32.308 32.26L32.308 32.26Z" fill="#D1905F"/>
</svg>
