<svg width="54" height="54" viewBox="0 0 54 54" fill="none" xmlns="http://www.w3.org/2000/svg">
<circle cx="27.1198" cy="26.8877" r="26.6087" fill="#F6E9DF"/>
<path fill-rule="evenodd" clip-rule="evenodd" d="M22.08 32.9111C22.08 34.1763 20.952 35.2022 19.56 35.2022C18.169 35.2022 17.041 34.1763 17.041 32.9111C17.041 31.6453 18.169 30.6191 19.56 30.6191C20.952 30.6191 22.08 31.6453 22.08 32.9111Z" fill="#D1905F"/>
<path fill-rule="evenodd" clip-rule="evenodd" d="M37.199 32.9111C37.199 34.1763 36.071 35.2022 34.679 35.2022C33.287 35.2022 32.159 34.1763 32.159 32.9111C32.159 31.6453 33.287 30.6191 34.679 30.6191C36.071 30.6191 37.199 31.6453 37.199 32.9111Z" fill="#D1905F"/>
<path fill-rule="evenodd" clip-rule="evenodd" d="M24.285 27.1819V23.7451H28.6C28.947 23.7451 29.262 23.8601 29.482 24.0891L32.884 27.1819H24.285V27.1819ZM23.025 27.1819H15.056L18.458 24.0891C18.71 23.8601 19.025 23.7451 19.34 23.7451H23.025V27.1819ZM37.829 27.1819H35.215C34.868 27.1819 34.553 27.0681 34.333 26.8391L30.364 23.259C29.892 22.8291 29.262 22.6001 28.569 22.6001H19.34C18.679 22.6001 18.017 22.8291 17.545 23.259L13.639 26.8391C13.387 27.0681 13.261 27.354 13.261 27.6689V30.6189C13.261 31.8799 14.395 32.9109 15.781 32.9109H16.096C16.096 31.1641 17.639 29.76 19.56 29.76C21.482 29.76 23.025 31.1641 23.025 32.9109H31.214C31.214 31.1641 32.758 29.76 34.679 29.76C36.6 29.76 38.144 31.1641 38.144 32.9109H39.719C40.412 32.9109 40.978 32.395 40.978 31.7649V30.0471C40.978 28.4709 39.561 27.1819 37.829 27.1819H37.829Z" fill="#D1905F"/>
</svg>
