<svg width="54" height="54" viewBox="0 0 54 54" fill="none" xmlns="http://www.w3.org/2000/svg">
<circle cx="27.1198" cy="27.3284" r="26.6087" fill="#F6E9DF"/>
<path fill-rule="evenodd" clip-rule="evenodd" d="M32.419 34.594C32.419 33.0181 33.696 31.741 35.272 31.741C36.848 31.741 38.125 33.0181 38.125 34.594C38.125 36.1699 36.848 37.447 35.272 37.447C33.696 37.447 32.419 36.1699 32.419 34.594ZM36.495 34.594C36.495 33.9189 35.947 33.3711 35.272 33.3711C34.597 33.3711 34.049 33.9189 34.049 34.594C34.049 35.269 34.597 35.8169 35.272 35.8169C35.947 35.8169 36.495 35.269 36.495 34.594ZM25.897 34.594C25.897 33.0181 27.174 31.741 28.75 31.741C30.326 31.741 31.604 33.0181 31.604 34.594C31.604 36.1699 30.326 37.447 28.75 37.447C27.174 37.447 25.897 36.1699 25.897 34.594ZM29.973 34.594C29.973 33.9189 29.426 33.3711 28.75 33.3711C28.075 33.3711 27.527 33.9189 27.527 34.594C27.527 35.269 28.075 35.8169 28.75 35.8169C29.426 35.8169 29.973 35.269 29.973 34.594Z" fill="#D1905F"/>
<path fill-rule="evenodd" clip-rule="evenodd" d="M26.37 30.9251H37.652L38.845 33.012C38.956 33.2061 39.208 33.2771 39.405 33.1641L40.106 32.763C40.307 32.6489 40.372 32.3999 40.26 32.2029L39.53 30.926H40.163C40.613 30.926 40.978 30.561 40.978 30.1101V20.7351C40.978 20.2849 40.613 19.9199 40.163 19.9199H14.076C13.626 19.9199 13.261 20.2849 13.261 20.7351V30.1101C13.261 30.5601 13.626 30.9251 14.076 30.9251H14.892V32.1521C14.892 32.3721 15.076 32.5559 15.303 32.5559H16.11C16.341 32.5559 16.522 32.375 16.522 32.1521V30.9251H24.492L23.762 32.2029C23.651 32.397 23.719 32.6499 23.916 32.7629L24.617 33.1641C24.817 33.2781 25.065 33.209 25.177 33.012L26.37 30.9251Z" fill="#D1905F"/>
</svg>
