<svg width="54" height="55" viewBox="0 0 54 55" fill="none" xmlns="http://www.w3.org/2000/svg">
<circle cx="26.7328" cy="27.5345" r="26.6087" fill="#F1FDE5"/>
<path d="M33.396 32.7353L36.205 22.8442C36.377 22.2363 36.024 21.6042 35.417 21.4302L25.925 18.7341L24.08 25.1033L24.555 25.5772C25.294 24.8394 26.611 23.5232 27.417 22.7173C27.924 22.2102 28.746 22.2102 29.253 22.7173C29.557 23.0213 29.691 23.4563 29.61 23.8792C29.661 23.8733 29.711 23.8704 29.762 23.8704C30.479 23.8704 31.061 24.4512 31.061 25.1682C31.061 25.4702 30.956 25.7622 30.764 25.9942C31.476 26.0803 31.983 26.7273 31.897 27.4382C31.867 27.6892 31.764 27.9263 31.601 28.1204C32.313 28.2073 32.819 28.8552 32.731 29.5672C32.696 29.8543 32.566 30.1223 32.361 30.3272L29.787 32.9002L31.983 33.5232C32.591 33.6953 33.223 33.3433 33.396 32.7354L33.396 32.7353Z" fill="#93C264"/>
<path d="M32.2369 29.4076C32.2369 28.9696 31.8809 28.6137 31.442 28.6137C31.2319 28.6137 31.03 28.6976 30.8809 28.8466L30.2779 29.4486L29.676 30.0507L29.6559 30.0665C29.5469 30.1537 29.3889 30.1356 29.3019 30.0267C29.223 29.9276 29.231 29.7846 29.3199 29.6937L31.1699 27.8436C31.4799 27.5336 31.4799 27.0306 31.1699 26.7206C30.859 26.4105 30.356 26.4105 30.046 26.7206L28.1959 28.5707C28.184 28.5826 28.171 28.5936 28.1569 28.6027C28.077 28.6556 27.973 28.6586 27.8909 28.6085C27.872 28.5988 27.8549 28.5856 27.84 28.5707C27.741 28.4725 27.741 28.3126 27.84 28.2138L30.3239 25.7296C30.6339 25.4196 30.6339 24.9166 30.3239 24.6066C30.0139 24.2955 29.5109 24.2955 29.2009 24.6066L26.7159 27.0907C26.635 27.1727 26.5089 27.1876 26.411 27.1285C26.392 27.1185 26.3749 27.1056 26.3599 27.0907C26.2609 26.9926 26.2609 26.8326 26.3599 26.7335L28.8439 24.2496L28.8969 24.1967C29.2069 23.8866 29.2069 23.3837 28.8969 23.0736C28.5869 22.7635 28.0839 22.7635 27.773 23.0736C26.5079 24.3375 24.382 26.4637 24.3519 26.4906C23.734 27.0477 22.8879 27.2767 22.0729 27.1066C21.9359 27.0826 21.8449 26.9506 21.8699 26.8136C21.895 26.6766 22.026 26.5856 22.163 26.6107L22.1729 26.6127C22.828 26.7496 23.51 26.5677 24.0089 26.1207C24.023 26.1066 24.091 26.0406 24.198 25.9337L23.072 24.8077C22.625 24.3607 21.9 24.3607 21.452 24.8077L19.9829 26.2767C19.6909 26.5677 19.5269 26.9625 19.528 27.3746V28.1566C19.5309 29.3575 19.0859 30.5167 18.28 31.4066L23.8649 36.9906L27.1409 34.7066C27.4189 34.5126 27.6789 34.2945 27.9189 34.0555L32.004 29.9696C32.153 29.8207 32.2369 29.6185 32.2369 29.4076V29.4076Z" fill="#93C264"/>
<path d="M15.549 32.876L17.292 31.134L24.369 38.21L22.626 39.9529L15.549 32.876Z" fill="#93C264"/>
<path d="M23.429 24.4512L23.673 24.6963L25.44 18.5962L24.179 18.2383C23.571 18.0672 22.938 18.4192 22.765 19.0274L21.194 24.3613C21.849 23.8052 22.821 23.8452 23.429 24.4512L23.429 24.4512Z" fill="#93C264"/>
<path d="M21.8 18.2275C21.9131 18.2275 22.0121 18.1525 22.0431 18.0444C22.216 17.4365 22.8481 17.0834 23.456 17.2553C23.5901 17.2934 23.73 17.2165 23.768 17.0825C23.8061 16.9484 23.7281 16.8085 23.594 16.7705C22.7181 16.5234 21.807 17.0314 21.558 17.9064C21.519 18.0405 21.597 18.1794 21.7311 18.2175C21.7541 18.2246 21.777 18.2275 21.8 18.2275L21.8 18.2275Z" fill="#93C264"/>
<path d="M20.3687 17.925C20.5027 17.9628 20.6417 17.8859 20.6807 17.7519C21.0807 16.3439 22.5457 15.5258 23.9537 15.9259C24.0877 15.964 24.2277 15.8869 24.2657 15.7528C24.3037 15.6188 24.2257 15.4789 24.0917 15.4408C22.4157 14.965 20.6717 15.9379 20.1957 17.6139C20.1577 17.7479 20.2347 17.8869 20.3687 17.925H20.3687Z" fill="#93C264"/>
<path d="M34.1746 33.9896C34.0016 34.5975 33.3686 34.9496 32.7606 34.7787C32.6276 34.7386 32.4866 34.8145 32.4476 34.9486C32.4076 35.0816 32.4846 35.2225 32.6176 35.2616L32.6226 35.2635C33.4986 35.5125 34.4096 35.0045 34.6586 34.1295L34.6596 34.1275C34.6986 33.9935 34.6226 33.8536 34.4896 33.8145C34.3556 33.7745 34.2156 33.8517 34.1756 33.9847L34.1746 33.9896Z" fill="#93C264"/>
<path d="M36.1051 33.865C35.9711 33.826 35.8311 33.9041 35.7931 34.0381C35.3311 35.6671 33.6351 36.6121 32.0071 36.15C31.8731 36.1111 31.7331 36.1871 31.6941 36.3211C31.6551 36.4551 31.7321 36.595 31.8651 36.6341L31.8691 36.6351C32.1881 36.7261 32.5181 36.772 32.8501 36.772C34.4431 36.7681 35.8421 35.709 36.2781 34.1761C36.3161 34.0421 36.2391 33.9031 36.1051 33.865H36.1051Z" fill="#93C264"/>
<path d="M37.8929 30.5392C37.3929 30.3713 37.0009 29.9782 36.8329 29.4782C36.7889 29.3461 36.6459 29.2751 36.5139 29.3193C36.439 29.3442 36.3799 29.4032 36.3539 29.4782C36.1869 29.9782 35.7939 30.3713 35.2949 30.5392C35.163 30.5832 35.0909 30.7263 35.1349 30.8581C35.1599 30.9333 35.2189 30.9921 35.2949 31.0173C35.7939 31.1852 36.1869 31.5781 36.3539 32.0781C36.3979 32.2101 36.5409 32.2812 36.6729 32.2372C36.749 32.2121 36.8079 32.1533 36.8329 32.0781C37.0009 31.5781 37.3929 31.1852 37.8929 31.0173C38.025 30.9731 38.0959 30.8303 38.0519 30.6982C38.0269 30.6232 37.968 30.5642 37.8929 30.5392Z" fill="#93C264"/>
<circle cx="18.8027" cy="17.6888" r="0.538607" fill="#93C264"/>
<path d="M16.3599 21.1732C16.4039 21.305 16.5469 21.3761 16.6789 21.3321C16.7549 21.307 16.8139 21.2481 16.8389 21.1732C16.9949 20.7081 17.3599 20.3421 17.8249 20.1861C17.9569 20.1422 18.0289 19.9991 17.9849 19.867C17.9599 19.7921 17.9009 19.732 17.8249 19.7071C17.3599 19.5511 16.9949 19.1861 16.8389 18.7201C16.7949 18.588 16.6519 18.5172 16.5199 18.5611C16.4449 18.586 16.3859 18.6451 16.3599 18.7201C16.2039 19.1861 15.8389 19.5511 15.3739 19.7071C15.2419 19.7511 15.1699 19.8941 15.2139 20.026C15.2399 20.1021 15.2989 20.161 15.3739 20.1861C15.8389 20.3421 16.2039 20.7081 16.3599 21.1732V21.1732Z" fill="#93C264"/>
</svg>
