<svg width="54" height="54" viewBox="0 0 54 54" fill="none" xmlns="http://www.w3.org/2000/svg">
<circle cx="26.7328" cy="26.9752" r="26.6087" fill="#F1FDE5"/>
<path fill-rule="evenodd" clip-rule="evenodd" d="M36.348 19.387L34.492 17.53C34.31 17.3491 34.017 17.3491 33.835 17.53C33.654 17.7119 33.654 18.0049 33.835 18.187L35.364 19.7151L33.835 21.2439C33.748 21.3311 33.699 21.448 33.699 21.572V22.9641C33.699 23.988 34.532 24.821 35.556 24.821V32.7109C35.556 32.967 35.348 33.175 35.092 33.175C34.836 33.175 34.628 32.967 34.628 32.7109V31.783C34.628 31.0149 34.003 30.3899 33.235 30.3899H32.771V18.323C32.771 17.2991 31.939 16.4661 30.915 16.4661H21.632C20.608 16.4661 19.775 17.2991 19.775 18.323V35.032C18.751 35.032 17.919 35.865 17.919 36.8879V38.281C17.919 38.5371 18.126 38.7451 18.383 38.7451H34.164C34.42 38.7451 34.628 38.5371 34.628 38.281V36.8879C34.628 35.865 33.795 35.032 32.771 35.032V31.3191H33.235C33.491 31.3191 33.699 31.5271 33.699 31.783V32.7109C33.699 33.479 34.324 34.104 35.092 34.104C35.86 34.104 36.484 33.479 36.484 32.7109V19.7151C36.484 19.592 36.435 19.4741 36.348 19.387L36.348 19.387ZM30.915 24.365C30.915 24.6221 30.707 24.8291 30.45 24.8291H22.096C21.839 24.8291 21.632 24.6221 21.632 24.365V18.7871C21.632 18.53 21.839 18.323 22.096 18.323H30.45C30.707 18.323 30.915 18.53 30.915 18.7871V24.365Z" fill="#93C264"/>
</svg>
