<svg width="54" height="55" viewBox="0 0 54 55" fill="none" xmlns="http://www.w3.org/2000/svg">
<circle cx="26.7328" cy="27.4158" r="26.6087" fill="#F1FDE5"/>
<path fill-rule="evenodd" clip-rule="evenodd" d="M30.7643 28.3785C33.2734 24.8356 32.4344 19.9286 28.8904 17.4196C25.3473 14.9118 20.4404 15.7496 17.9324 19.2936C15.4233 22.8375 16.2613 27.7435 19.8054 30.2526C22.3354 32.0426 25.6783 32.1805 28.3464 30.6056L34.1424 36.3666C34.7684 37.0255 35.8094 37.0516 36.4684 36.4257C37.1274 35.8007 37.1534 34.7596 36.5284 34.1007C36.5084 34.0797 36.4894 34.0607 36.4684 34.0407L30.7643 28.3785ZM24.3434 28.9157C21.5434 28.9166 19.2734 26.6486 19.2714 23.8475C19.2704 21.0477 21.5384 18.7777 24.3393 18.7767C27.1363 18.7755 29.4054 21.0407 29.4103 23.8365C29.4153 26.6376 27.1484 28.9117 24.3464 28.9156L24.3434 28.9157Z" fill="#93C264"/>
</svg>
