<svg width="55" height="54" viewBox="0 0 55 54" fill="none" xmlns="http://www.w3.org/2000/svg">
<circle cx="27.4676" cy="26.8328" r="26.6087" fill="#E5FDF9"/>
<path fill-rule="evenodd" clip-rule="evenodd" d="M21.289 20.689C20.828 20.689 20.45 20.312 20.45 19.8501C20.45 19.3892 20.828 19.0112 21.289 19.0112H24.117L26.92 17.333H21.289C20.047 17.333 19.015 18.2388 18.814 19.4311C18.797 19.498 18.772 19.5649 18.772 19.6401V32.438C18.772 33.8218 19.905 34.9551 21.289 34.9551H35.555C36.478 34.9551 37.233 34.2002 37.233 33.2768V31.5981H35.135C33.054 31.5981 31.359 29.9028 31.359 27.8218C31.359 25.7412 33.054 24.0459 35.135 24.0459H37.233V22.3682C37.233 21.4448 36.478 20.689 35.555 20.689L21.289 20.689ZM34.716 19.0112C34.716 18.1631 34.086 17.459 33.264 17.3491L34.716 19.8501V19.0112Z" fill="#5FAC9F"/>
</svg>
