<svg width="55" height="54" viewBox="0 0 55 54" fill="none" xmlns="http://www.w3.org/2000/svg">
<circle cx="27.4676" cy="27.2732" r="26.6087" fill="#E5FDF9"/>
<path fill-rule="evenodd" clip-rule="evenodd" d="M32.182 28.418C34.691 24.8741 33.852 19.9678 30.309 17.4591C26.765 14.9503 21.859 15.7891 19.35 19.3331C16.841 22.876 17.68 27.7823 21.224 30.2911C23.753 32.0821 27.097 32.2203 29.764 30.6441L35.561 36.4058C36.186 37.064 37.228 37.0909 37.887 36.4649C38.545 35.8399 38.572 34.7979 37.947 34.1402C37.927 34.1192 37.908 34.0992 37.887 34.0801L32.182 28.418ZM25.761 28.9551C22.961 28.9551 20.691 26.6871 20.689 23.8873C20.689 21.087 22.957 18.817 25.758 18.816C28.554 18.814 30.823 21.0792 30.829 23.876C30.833 26.6758 28.566 28.9503 25.765 28.9551H25.761Z" fill="#5FAC9F"/>
</svg>
