<svg width="55" height="54" viewBox="0 0 55 54" fill="none" xmlns="http://www.w3.org/2000/svg">
<circle cx="27.4676" cy="26.7142" r="26.6087" fill="#E5FDF9"/>
<path d="M34.204 18.8691H32.976C32.637 18.8691 32.363 19.1431 32.363 19.4819C32.363 19.8208 32.637 20.0962 32.976 20.0962H34.204C34.543 20.0962 34.817 19.8208 34.817 19.4819C34.817 19.1431 34.543 18.8691 34.204 18.8691Z" fill="#5FAC9F"/>
<path d="M28.0032 16.753L27.3892 15.5259C27.2361 15.2232 26.8692 15.1011 26.5662 15.251C26.2622 15.4029 26.1392 15.772 26.2912 16.0753L26.9052 17.3018C27.0562 17.6041 27.4232 17.7281 27.7282 17.5772C28.0312 17.4249 28.1542 17.0562 28.0032 16.753H28.0032Z" fill="#5FAC9F"/>
<path d="M32.0236 15.251C31.7205 15.1011 31.3516 15.2232 31.1995 15.5259L30.5855 16.753C30.4345 17.0562 30.5575 17.4249 30.8605 17.5772C31.1666 17.7291 31.5325 17.6031 31.6835 17.3018L32.2975 16.0753C32.4495 15.772 32.3265 15.4029 32.0235 15.251H32.0236Z" fill="#5FAC9F"/>
<path d="M25.613 18.8691H24.385C24.046 18.8691 23.772 19.1431 23.772 19.4819C23.772 19.8208 24.046 20.0962 24.385 20.0962H25.613C25.952 20.0962 26.226 19.8208 26.226 19.4819C26.226 19.1431 25.952 18.8691 25.613 18.8691Z" fill="#5FAC9F"/>
<path d="M21.931 25.0459H19.476C19.137 25.0459 18.863 25.3208 18.863 25.6602V35.478C18.863 35.8169 19.137 36.0908 19.476 36.0908H21.931C22.27 36.0908 22.544 35.8169 22.544 35.478V25.6602C22.544 25.3208 22.27 25.0459 21.931 25.0459Z" fill="#5FAC9F"/>
<path d="M37.26 26.6728C37.151 25.7212 36.262 25.0459 35.304 25.0459H30.52C30.927 24.3179 31.145 22.2588 31.135 21.418C31.119 20.0249 29.966 18.9092 28.574 18.9092H28.067C27.728 18.9092 27.454 19.1841 27.454 19.5229C27.454 20.9419 26.901 23.5029 25.859 24.5459C25.158 25.2471 24.558 25.501 23.772 25.894V35.102C24.976 35.5029 26.504 36.0908 28.833 36.0908H32.848C34.17 36.0908 35.2 34.8662 34.688 33.5718C35.469 33.3589 36.045 32.6431 36.045 31.7959C36.045 31.5571 35.998 31.3281 35.915 31.1182C37.231 30.7588 37.715 29.1338 36.802 28.1138C37.138 27.7388 37.323 27.2271 37.26 26.6729V26.6728Z" fill="#5FAC9F"/>
</svg>
