<svg xmlns="http://www.w3.org/2000/svg" viewBox="0 0 53.22 53.22"><defs><style>.cls-1{fill:#f6e9df;}.cls-2{fill:#d1905f;}</style></defs><g id="katman_2" data-name="katman 2"><g id="katman_1-2" data-name="katman 1"><path class="cls-1" d="M26.61,0A26.61,26.61,0,1,1,0,26.61,26.61,26.61,0,0,1,26.61,0"/><path class="cls-2" d="M33.29,25.52a5.11,5.11,0,1,0-5.1-5.11,5.11,5.11,0,0,0,5.1,5.11m-.66-8.41V16.4H34v.72a2,2,0,0,1,1.67,2H34.31a.67.67,0,0,0-.67-.67h-.71a.67.67,0,1,0,0,1.33h.73a2,2,0,0,1,.3,4v.72H32.63v-.72A2,2,0,0,1,31,21.77h1.32a.65.65,0,0,0,.65.64h.74a.67.67,0,0,0,0-1.33h-.73a2,2,0,0,1-.3-4"/><path class="cls-2" d="M30.91,30V28.62h2.14a8.81,8.81,0,0,0-.33-1.8A6.45,6.45,0,0,1,26.89,21a8.94,8.94,0,0,0-1.8-.33v2.13H23.76V20.66a8.64,8.64,0,0,0-8,8h2.14V30H15.8a8.65,8.65,0,0,0,8,8V35.77h1.33v2.14a8.66,8.66,0,0,0,8-8Zm-2.16,0h-5V25h1.33v3.64h3.66Z"/></g></g></svg>