<svg xmlns="http://www.w3.org/2000/svg" viewBox="0 0 53.22 53.22"><defs><style>.cls-1{fill:#f6e9df;}.cls-2{fill:#d1905f;}</style></defs><g id="katman_2" data-name="katman 2"><g id="katman_1-2" data-name="katman 1"><path class="cls-1" d="M26.61,0A26.61,26.61,0,1,1,0,26.61,26.61,26.61,0,0,1,26.61,0"/><path class="cls-2" d="M17.33,25.11a1.21,1.21,0,0,0-1.2,1.19,1.46,1.46,0,0,0,.1.45,1.18,1.18,0,0,0,1.1.74,1.19,1.19,0,0,0,0-2.38m12,0a1.19,1.19,0,1,0,1.2,1.19,1.21,1.21,0,0,0-1.2-1.19m3.28-.85a11.83,11.83,0,0,0-6.26-1.14,1.54,1.54,0,0,1-.95-.3l-.49-.35c-1.64-1.39-2.39-2-4.28-1.79a8.29,8.29,0,0,0-3.78,1.1c-.6.29-1.24.59-2.09.94a1.79,1.79,0,0,1-.54.1h-.7a.23.23,0,0,0-.25.2l-.15.69a1.45,1.45,0,0,1-.45.75.38.38,0,0,0-.1.25l.1.65a.21.21,0,0,0,.2.19l1.79.9h.45V26.3a2.24,2.24,0,1,1,4.48,0v.15h7.5V26.3a2.24,2.24,0,1,1,4.48,0h.9a.23.23,0,0,0,.24-.25V24.56C32.74,24.41,32.69,24.36,32.59,24.26Z"/><path class="cls-2" d="M18.52,30.18a2.41,2.41,0,0,0-1.64.65,2.27,2.27,0,0,0-.65,1.59,2.29,2.29,0,1,0,2.29-2.24m18.85,0a2.29,2.29,0,1,0,2.29,2.29,2.28,2.28,0,0,0-2.29-2.29m4.52-3.08h.85a.63.63,0,0,1,.3,0V25.26a1.48,1.48,0,0,0-.1-.5L41.1,20.13a1.51,1.51,0,0,0-1.39-.94H37.22a1,1,0,0,0-1,1v7.46a.55.55,0,0,1-.54.55H12.31a1,1,0,0,0-1.05,1v1.65a1,1,0,0,0,1,1h2.93a3.32,3.32,0,0,1,6.56,0H34a3.32,3.32,0,0,1,6.56,0h1.49a1,1,0,0,0,1-1v-.8a.63.63,0,0,1-.3.05h0A2.43,2.43,0,0,1,41,29.43a1.3,1.3,0,0,1-.3-1.44,1.32,1.32,0,0,1,1.24-.89m-3.53.79a.55.55,0,1,1-1.09,0v-1a.55.55,0,1,1,1.09,0Zm.5-2.24a1.54,1.54,0,0,1-1.54-1.54V21.68a1.55,1.55,0,0,1,1.54-1.55h1.29a.55.55,0,0,1,0,1.1H38.86a.47.47,0,0,0-.5.5v2.43a.47.47,0,0,0,.5.5H42a.55.55,0,0,1,.55.55.55.55,0,0,1-.55.54H38.86Zm3.93,2.49h-.85a.34.34,0,0,0-.3.2.27.27,0,0,0,0,.3,1.44,1.44,0,0,0,1.05.45h0a.29.29,0,0,0,.3-.3v-.35a.32.32,0,0,0-.3-.3"/></g></g></svg>