<svg xmlns="http://www.w3.org/2000/svg" viewBox="0 0 53.22 53.22"><defs><style>.cls-1{fill:#f6e9df;}.cls-2{fill:#d1905f;}</style></defs><g id="katman_2" data-name="katman 2"><g id="katman_1-2" data-name="katman 1"><path class="cls-1" d="M26.61,0A26.61,26.61,0,1,1,0,26.61,26.61,26.61,0,0,1,26.61,0"/><path class="cls-2" d="M25.87,18.83l-2.78-.7-1.57-1.82a4.57,4.57,0,0,0-3-1.4H16.64v1.38h1.84a3.18,3.18,0,0,1,2,.92l.8.92H16.64v2.76H21.7a1.39,1.39,0,0,0,2.77,0h2.3V20a1.24,1.24,0,0,0-.9-1.14"/><path class="cls-2" d="M25.87,28.5l-2.78-.7L21.52,26a4.61,4.61,0,0,0-3-1.39H16.64V26h1.84a3.23,3.23,0,0,1,2,.91l.8.93H16.64v2.76H21.7a1.39,1.39,0,0,0,2.77,0h2.3v-.92a1.23,1.23,0,0,0-.9-1.14"/><polygon class="cls-2" points="29.53 20.68 27.25 21.81 16.64 21.81 16.64 23.66 27.69 23.66 29.53 22.73 29.53 20.68"/><path class="cls-2" d="M27.25,31.48H16.64V37a2.29,2.29,0,0,0,1.84-.93,2.3,2.3,0,0,0,4.14-1.37,2.23,2.23,0,0,0-.47-1.38h5.54l1.84-.92V30.34Z"/><polygon class="cls-2" points="36.89 30.56 35.05 30.1 35.05 28.72 36.89 28.72 36.89 30.56"/><path class="cls-2" d="M36.34,19.44a1.52,1.52,0,0,0-1.29-.85H30.91V31h2.3a3.67,3.67,0,0,1,3.64,3.22h1.89V25ZM32.75,25V20.43h2l2,4.61Z"/><path class="cls-2" d="M33.21,32.4a2.3,2.3,0,1,1-2.3,2.3,2.3,2.3,0,0,1,2.3-2.3"/></g></g></svg>