<svg xmlns="http://www.w3.org/2000/svg" xmlns:xlink="http://www.w3.org/1999/xlink" viewBox="0 0 61.5 61.5"><defs><style>.cls-1{fill:none;}.cls-2{isolation:isolate;opacity:0.2;}.cls-3{clip-path:url(#clip-path);}.cls-4{fill:#7ff6e1;}.cls-5{fill:#57a89a;}</style><clipPath id="clip-path" transform="translate(0 0)"><rect class="cls-1" width="61.5" height="61.49"/></clipPath></defs><g id="katman_2" data-name="katman 2"><g id="katman_1-2" data-name="katman 1"><g class="cls-2"><g class="cls-3"><path class="cls-4" d="M30.75,0A30.75,30.75,0,1,1,0,30.74,30.74,30.74,0,0,1,30.75,0" transform="translate(0 0)"/></g></g><path class="cls-5" d="M30.75,14.47a10.49,10.49,0,0,0-8.53,16.59L30,43.11a.94.94,0,0,0,1.6,0L39.31,31a10.49,10.49,0,0,0-8.56-16.55m0,15.26A4.77,4.77,0,1,1,35.52,25a4.78,4.78,0,0,1-4.77,4.77" transform="translate(0 0)"/><path class="cls-5" d="M38.2,36.38l-4.8,7.51a3.15,3.15,0,0,1-5.3,0l-4.81-7.51c-4.23,1-6.84,2.77-6.84,4.91C16.45,45,23.82,47,30.75,47s14.3-2,14.3-5.72c0-2.14-2.61-3.93-6.85-4.91" transform="translate(0 0)"/></g></g></svg>