<svg xmlns="http://www.w3.org/2000/svg" xmlns:xlink="http://www.w3.org/1999/xlink" viewBox="0 0 61.5 61.5"><defs><style>.cls-1{fill:none;}.cls-2{opacity:0.1;}.cls-3{clip-path:url(#clip-path);}.cls-4{fill:#3265af;}.cls-5{fill:#3f95f7;}</style><clipPath id="clip-path" transform="translate(0 0)"><rect class="cls-1" width="61.5" height="61.49"/></clipPath></defs><g id="katman_2" data-name="katman 2"><g id="katman_1-2" data-name="katman 1"><g class="cls-2"><g class="cls-3"><path class="cls-4" d="M30.75,0A30.75,30.75,0,1,1,0,30.74,30.74,30.74,0,0,1,30.75,0" transform="translate(0 0)"/></g></g><path class="cls-5" d="M24.73,24.73v1.59a1,1,0,0,0,.49-.71.76.76,0,0,0-.49-.88" transform="translate(0 0)"/><path class="cls-5" d="M23.48,22.63a.52.52,0,0,0,.13.5l.14.09v-1a.7.7,0,0,0-.27.44" transform="translate(0 0)"/><path class="cls-5" d="M24.27,18.09a6.18,6.18,0,1,0,6.18,6.18,6.18,6.18,0,0,0-6.18-6.18m1.93,7.68a2,2,0,0,1-1.47,1.61v.35a.49.49,0,0,1-.49.49.5.5,0,0,1-.5-.49v-.31A2.33,2.33,0,0,1,22.55,27a.49.49,0,0,1-.15-.68.5.5,0,0,1,.69-.14,1.49,1.49,0,0,0,.65.28V24.34A3.14,3.14,0,0,1,23,23.9a1.47,1.47,0,0,1-.49-1.45,1.68,1.68,0,0,1,1.14-1.31l.09,0v-.31a.5.5,0,0,1,.5-.49.49.49,0,0,1,.49.49v.25a1.79,1.79,0,0,1,1,.51.5.5,0,0,1,0,.7.49.49,0,0,1-.7-.05.8.8,0,0,0-.24-.14v1.6l.26.09a1.77,1.77,0,0,1,1.21,2" transform="translate(0 0)"/><path class="cls-5" d="M42.78,29.07l-2.57-.43a8,8,0,0,0-1.14-1.39A5.4,5.4,0,0,1,41,24.08l.16-.12a.75.75,0,0,0,.23-.83.74.74,0,0,0-.7-.49h-2a4.74,4.74,0,0,0-4.16,2.51,7,7,0,0,0-.79,0H31.89A7.66,7.66,0,0,1,18.78,29.6a7.68,7.68,0,0,0,2.28,9.22v3.84a.74.74,0,0,0,.74.74h3a.74.74,0,0,0,.7-.51l.82-2.46h6.94l.82,2.46a.74.74,0,0,0,.7.51h3a.74.74,0,0,0,.74-.74V38.82a7.57,7.57,0,0,0,2.33-3l2.15-.87a.74.74,0,0,0,.46-.69V29.8a.74.74,0,0,0-.62-.73M37,30.79a.74.74,0,1,1,.74-.74.74.74,0,0,1-.74.74" transform="translate(0 0)"/></g></g></svg>