<svg xmlns="http://www.w3.org/2000/svg" xmlns:xlink="http://www.w3.org/1999/xlink" viewBox="0 0 61.5 61.5"><defs><style>.cls-1{fill:none;}.cls-2{isolation:isolate;opacity:0.2;}.cls-3{clip-path:url(#clip-path);}.cls-4{fill:#3f95f7;}.cls-5{fill:#09265e;}</style><clipPath id="clip-path" transform="translate(0 0)"><rect class="cls-1" width="61.5" height="61.49"/></clipPath></defs><g id="katman_2" data-name="katman 2"><g id="katman_1-2" data-name="katman 1"><g class="cls-2"><g class="cls-3"><path class="cls-4" d="M30.75,0A30.75,30.75,0,1,1,0,30.74,30.74,30.74,0,0,1,30.75,0" transform="translate(0 0)"/></g></g><path class="cls-5" d="M40.65,22.12h-.82V29.5a5.75,5.75,0,0,1-5.75,5.74h-6l-3.15,2.43a4.11,4.11,0,0,0,2.48.85H34l7.49,5.77V38.44a4.11,4.11,0,0,0,3.28-4v-8.2a4.11,4.11,0,0,0-4.1-4.1" transform="translate(0 0)"/><path class="cls-5" d="M27.52,33.6h6.56a4.11,4.11,0,0,0,4.11-4.1V21.3a4.11,4.11,0,0,0-4.11-4.11H20.85a4.11,4.11,0,0,0-4.1,4.11v8.2a4.11,4.11,0,0,0,3.28,4v5.85ZM21.67,21.3H33.26v1.64H21.67Zm0,3.28H33.26v1.64H21.67Zm0,3.28H30V29.5H21.67Z" transform="translate(0 0)"/></g></g></svg>