<svg xmlns="http://www.w3.org/2000/svg" xmlns:xlink="http://www.w3.org/1999/xlink" viewBox="0 0 61.5 61.5"><defs><style>.cls-1{fill:none;}.cls-2{isolation:isolate;opacity:0.2;}.cls-3{clip-path:url(#clip-path);}.cls-4{fill:#bbf67f;}.cls-5{fill:#93c264;}</style><clipPath id="clip-path" transform="translate(0 0)"><rect class="cls-1" width="61.5" height="61.49"/></clipPath></defs><g id="katman_2" data-name="katman 2"><g id="katman_1-2" data-name="katman 1"><g class="cls-2"><g class="cls-3"><path class="cls-4" d="M30.75,0A30.75,30.75,0,1,1,0,30.74,30.74,30.74,0,0,1,30.75,0" transform="translate(0 0)"/></g></g><path class="cls-5" d="M35.69,33.39A8.69,8.69,0,1,0,33,35.84l6.39,6.36A1.81,1.81,0,0,0,42,39.7L42,39.63ZM28.6,34a5.59,5.59,0,1,1,5.59-5.6A5.59,5.59,0,0,1,28.6,34Z" transform="translate(0 0)"/></g></g></svg>