<svg width="68" height="68" viewBox="0 0 68 68" fill="none" xmlns="http://www.w3.org/2000/svg">
<path opacity="0.2" fill-rule="evenodd" clip-rule="evenodd" d="M33.6554 67.3108C52.2428 67.3108 67.3108 52.2428 67.3108 33.6554C67.3108 15.068 52.2428 0 33.6554 0C15.068 0 0 15.068 0 33.6554C0 52.2428 15.068 67.3108 33.6554 67.3108Z" fill="#7FF6E1"/>
<g clip-path="url(#clip0_1042_68)">
<path d="M55.5539 36.2643L49.8638 37.3055L44.6168 37.8051L29.1954 37.9944L24.4656 38.2153L19.0156 36.9287V34.4798L31.8065 33.23H39.9647L53.3329 33.8628L53.8396 33.23L55.5539 36.2643Z" fill="#09265E"/>
<path d="M55.9297 31.5068H56.7648C56.931 31.5068 57.0956 31.5393 57.2492 31.6025C57.4028 31.6657 57.5423 31.7583 57.6598 31.875C57.7774 31.9917 57.8706 32.1302 57.9342 32.2827C57.9979 32.4352 58.0306 32.5986 58.0306 32.7637V33.0126C58.0306 33.1777 57.9979 33.3411 57.9342 33.4936C57.8706 33.6461 57.7774 33.7846 57.6598 33.9013C57.5423 34.018 57.4028 34.1106 57.2492 34.1738C57.0956 34.2369 56.931 34.2695 56.7648 34.2695H55.9297V31.5068Z" fill="#09265E"/>
<path d="M22.7321 37.8051H15.3489L14.5156 37.6666V36.6429L15.2836 36.5044H22.7321V37.8051Z" fill="#09265E"/>
<path d="M14.5156 36.6429V37.1021H22.7321V36.5044H15.2836L14.5156 36.6429Z" fill="#09265E"/>
<path d="M26.9217 39.7406C28.2765 38.3954 28.2765 36.2145 26.9217 34.8693C25.5669 33.5241 23.3704 33.5241 22.0156 34.8693C20.6608 36.2145 20.6608 38.3954 22.0156 39.7406C23.3704 41.0857 25.5669 41.0857 26.9217 39.7406Z" fill="#09265E"/>
<path d="M24.4679 39.7403C25.8222 39.7403 26.9201 38.6501 26.9201 37.3054C26.9201 35.9607 25.8222 34.8706 24.4679 34.8706C23.1135 34.8706 22.0156 35.9607 22.0156 37.3054C22.0156 38.6501 23.1135 39.7403 24.4679 39.7403Z" fill="#09265E"/>
<path d="M24.4677 38.7743C25.2848 38.7743 25.9472 38.1167 25.9472 37.3054C25.9472 36.4941 25.2848 35.8364 24.4677 35.8364C23.6507 35.8364 22.9883 36.4941 22.9883 37.3054C22.9883 38.1167 23.6507 38.7743 24.4677 38.7743Z" fill="#DBF3EF"/>
<path d="M23.5547 37.3055C23.5547 37.4851 23.6083 37.6606 23.7088 37.8099C23.8093 37.9593 23.9521 38.0757 24.1192 38.1444C24.2863 38.2131 24.4702 38.2311 24.6476 38.1961C24.825 38.161 24.988 38.0745 25.1159 37.9475C25.2438 37.8206 25.3309 37.6588 25.3661 37.4826C25.4014 37.3065 25.3833 37.1239 25.3141 36.958C25.2449 36.7921 25.1277 36.6503 24.9773 36.5505C24.8269 36.4507 24.6501 36.3975 24.4692 36.3975C24.2267 36.3975 23.994 36.4931 23.8225 36.6634C23.651 36.8337 23.5547 37.0647 23.5547 37.3055Z" fill="#09265E"/>
<path d="M24.5078 36.3992L24.469 37.3054L23.7045 37.805C23.6157 37.668 23.5655 37.5098 23.5593 37.347C23.553 37.1842 23.5909 37.0227 23.6691 36.8794C23.7472 36.7361 23.8626 36.6162 24.0033 36.5324C24.1441 36.4485 24.3049 36.4037 24.469 36.4027L24.5078 36.3992Z" fill="#09265E"/>
<path d="M24.4886 38.5412C24.4794 38.5415 24.4703 38.5399 24.4617 38.5365C24.4531 38.5332 24.4453 38.5282 24.4388 38.5218C24.4322 38.5155 24.4269 38.5078 24.4234 38.4994C24.4198 38.491 24.418 38.482 24.418 38.4729C24.418 38.4543 24.4254 38.4364 24.4387 38.4233C24.4519 38.4101 24.4699 38.4027 24.4886 38.4027C24.6892 38.4024 24.8859 38.3479 25.0577 38.2451C25.2295 38.1423 25.3699 37.9951 25.464 37.8193C25.5581 37.6434 25.6023 37.4454 25.5919 37.2466C25.5815 37.0477 25.5168 36.8554 25.4049 36.6901C25.3998 36.6826 25.3962 36.6742 25.3944 36.6654C25.3925 36.6565 25.3925 36.6474 25.3942 36.6385C25.3959 36.6297 25.3994 36.6212 25.4044 36.6137C25.4094 36.6061 25.4159 36.5997 25.4234 36.5946C25.4309 36.5895 25.4394 36.586 25.4483 36.5842C25.4572 36.5824 25.4664 36.5823 25.4754 36.584C25.4843 36.5857 25.4928 36.5892 25.5004 36.5941C25.508 36.5991 25.5145 36.6055 25.5196 36.613C25.6495 36.7982 25.7255 37.0153 25.7391 37.2405C25.7528 37.4658 25.7036 37.6904 25.5971 37.8897C25.4905 38.089 25.3306 38.2552 25.1351 38.3702C24.9395 38.4851 24.7158 38.5443 24.4886 38.5412Z" fill="#09265E"/>
<path d="M23.3111 37.3756C23.2926 37.3752 23.2751 37.3676 23.2623 37.3545C23.2494 37.3414 23.2422 37.3238 23.2422 37.3055C23.2413 37.1428 23.2729 36.9815 23.3354 36.831C23.3978 36.6805 23.4898 36.5439 23.6059 36.4291C23.6195 36.4189 23.6363 36.414 23.6533 36.4152C23.6702 36.4164 23.6862 36.4236 23.6982 36.4356C23.7102 36.4475 23.7175 36.4634 23.7187 36.4802C23.7199 36.497 23.715 36.5137 23.7048 36.5272C23.602 36.6287 23.5205 36.7495 23.4651 36.8825C23.4096 37.0155 23.3813 37.1581 23.3817 37.302C23.3822 37.3115 23.3807 37.321 23.3774 37.3299C23.374 37.3388 23.3689 37.347 23.3623 37.3539C23.3557 37.3608 23.3477 37.3663 23.3389 37.37C23.3301 37.3737 23.3206 37.3757 23.3111 37.3756Z" fill="#09265E"/>
<path d="M50.6702 40.6527C52.534 40.2119 53.6849 38.3543 53.2409 36.5037C52.7969 34.6532 50.926 33.5104 49.0622 33.9513C47.1984 34.3921 46.0474 36.2497 46.4915 38.1002C46.9355 39.9508 48.8064 41.0936 50.6702 40.6527Z" fill="#09265E"/>
<path d="M49.8663 39.7403C51.2206 39.7403 52.3186 38.6501 52.3186 37.3054C52.3186 35.9607 51.2206 34.8706 49.8663 34.8706C48.512 34.8706 47.4141 35.9607 47.4141 37.3054C47.4141 38.6501 48.512 39.7403 49.8663 39.7403Z" fill="#09265E"/>
<path d="M49.8662 38.7743C50.6833 38.7743 51.3457 38.1167 51.3457 37.3054C51.3457 36.4941 50.6833 35.8364 49.8662 35.8364C49.0491 35.8364 48.3867 36.4941 48.3867 37.3054C48.3867 38.1167 49.0491 38.7743 49.8662 38.7743Z" fill="#DBF3EF"/>
<path d="M49.8637 38.2135C50.3688 38.2135 50.7783 37.807 50.7783 37.3055C50.7783 36.804 50.3688 36.3975 49.8637 36.3975C49.3587 36.3975 48.9492 36.804 48.9492 37.3055C48.9492 37.807 49.3587 38.2135 49.8637 38.2135Z" fill="#09265E"/>
<path d="M49.9052 36.3992L49.8752 37.3054L49.1108 37.805C49.0219 37.668 48.9717 37.5098 48.9655 37.347C48.9593 37.1842 48.9972 37.0227 49.0753 36.8794C49.1534 36.7361 49.2689 36.6162 49.4096 36.5324C49.5503 36.4485 49.7111 36.4037 49.8752 36.4027L49.9052 36.3992Z" fill="#09265E"/>
<path d="M49.8753 38.5413C49.8661 38.5415 49.857 38.5399 49.8484 38.5366C49.8399 38.5333 49.8321 38.5283 49.8255 38.5219C49.8189 38.5155 49.8137 38.5079 49.8101 38.4995C49.8065 38.4911 49.8047 38.4821 49.8047 38.4729C49.8047 38.4544 49.8121 38.4365 49.8254 38.4234C49.8386 38.4102 49.8566 38.4028 49.8753 38.4028C50.076 38.4027 50.2728 38.3484 50.4447 38.2456C50.6167 38.1428 50.7571 37.9955 50.8511 37.8195C50.9451 37.6435 50.9891 37.4454 50.9783 37.2464C50.9675 37.0475 50.9023 36.8552 50.7898 36.6902C50.7822 36.6749 50.7805 36.6575 50.785 36.641C50.7894 36.6246 50.7997 36.6103 50.814 36.6009C50.8283 36.5914 50.8455 36.5875 50.8625 36.5897C50.8795 36.592 50.8951 36.6003 50.9063 36.6131C51.043 36.8183 51.1143 37.0595 51.1111 37.3055C51.1111 37.6317 50.9812 37.9448 50.7497 38.1763C50.5182 38.4078 50.2039 38.539 49.8753 38.5413Z" fill="#09265E"/>
<path d="M48.69 37.3756C48.6808 37.3756 48.6717 37.3737 48.6632 37.3702C48.6547 37.3667 48.6471 37.3615 48.6406 37.3549C48.6342 37.3484 48.6292 37.3406 48.6258 37.3321C48.6225 37.3236 48.6209 37.3146 48.6211 37.3054C48.6202 37.1427 48.6518 36.9814 48.7143 36.8309C48.7767 36.6805 48.8687 36.5438 48.9848 36.429C48.9912 36.4224 48.9989 36.4172 49.0074 36.4136C49.0159 36.41 49.025 36.4082 49.0342 36.4082C49.0435 36.4082 49.0526 36.41 49.0611 36.4136C49.0696 36.4172 49.0773 36.4224 49.0837 36.429C49.0966 36.4421 49.1039 36.4597 49.1039 36.4781C49.1039 36.4964 49.0966 36.514 49.0837 36.5271C48.9809 36.6287 48.8994 36.7494 48.844 36.8824C48.7885 37.0154 48.7602 37.158 48.7606 37.3019C48.7611 37.3114 48.7596 37.3209 48.7563 37.3298C48.7529 37.3388 48.7478 37.3469 48.7412 37.3538C48.7346 37.3607 48.7266 37.3662 48.7178 37.3699C48.709 37.3737 48.6996 37.3756 48.69 37.3756Z" fill="#09265E"/>
<path d="M29.3242 31.4804L30.5601 32.4463L36.6015 32.399L41.6119 30.9791L40.7751 30.2306H36.0648V28.6196C35.8883 28.7458 35.9854 28.8423 35.7859 28.9019V30.2306H30.0587L29.3242 31.4804Z" fill="#DBF3EF"/>
<path d="M29.2301 31.6383L30.1287 30.1097C30.306 29.8075 30.5476 29.5474 30.8367 29.3475C31.1258 29.1477 31.4554 29.013 31.8024 28.9528L36.2161 28.9791C36.4593 28.9807 36.7003 28.9339 36.925 28.8415C37.1497 28.749 37.3535 28.6128 37.5243 28.4409L38.1069 27.8537L37.436 27.2559C37.2521 27.091 37.013 26.9997 36.7651 27H29.1559C28.9764 26.9998 28.8002 27.0477 28.6457 27.1385L24.9382 29.3174C24.846 29.3718 24.7632 29.4404 24.6928 29.5207L22.8867 31.5716L28.418 32.9109L30.5559 32.6795L29.2301 31.6383Z" fill="#DBF3EF"/>
<path d="M17.2247 28.9965L26.5111 30.8704H41.4929L40.7709 30.2253H53.537C53.8304 30.2254 54.1211 30.2813 54.3933 30.3901L55.9981 31.0457C56.4196 31.2153 56.7803 31.5063 57.0339 31.8811C57.2875 32.256 57.4223 32.6976 57.421 33.1492V33.6926C57.4201 33.9979 57.2977 34.2905 57.0804 34.5066C56.8631 34.7226 56.5686 34.8446 56.2611 34.846H53.5229C53.1875 34.8429 52.8647 34.7183 52.6154 34.4954L52.0416 33.9941C51.7785 33.7665 51.4408 33.6418 51.0918 33.6435H48.4648C48.1128 33.6436 47.768 33.7424 47.47 33.9285C47.1721 34.1145 46.9331 34.3803 46.7805 34.6953L45.8978 36.5323C45.6741 36.9944 45.3233 37.3841 44.8859 37.6565C44.4485 37.9288 43.9424 38.0727 43.4261 38.0714H29.2052C28.9428 38.0719 28.6832 38.0182 28.4428 37.9138C28.2024 37.8094 27.9865 37.6565 27.8087 37.4649C27.6643 37.3084 27.4886 37.1834 27.2929 37.098C27.0971 37.0126 26.8856 36.9686 26.6718 36.9688H19.8747C19.5887 36.9688 19.3045 36.9548 19.0202 36.9285L10.6148 36.1379V33.6453L12.3803 31.3384L10.6148 29.3085C10.5857 29.2758 10.567 29.2354 10.5608 29.1923C10.5547 29.1491 10.5614 29.1051 10.5802 29.0658C10.599 29.0264 10.629 28.9933 10.6666 28.9707C10.7041 28.9481 10.7475 28.937 10.7913 28.9386H16.6492C16.8425 28.939 17.0353 28.9584 17.2247 28.9965Z" fill="#09265E"/>
<path d="M37.4402 27.2559C37.2563 27.091 37.0172 26.9997 36.7693 27H29.1548C28.9753 26.9998 28.7991 27.0477 28.6446 27.1385L24.9371 29.3174C24.845 29.3718 24.7621 29.4404 24.6917 29.5207L23.8125 30.5199L25.9487 31.8188L25.8128 30.8705L25.954 30.3884C26.067 30.0121 26.3086 29.6866 26.6373 29.4681L28.6181 28.1429C28.9003 27.9539 29.2329 27.8532 29.5732 27.8537H38.1164L37.4402 27.2559Z" fill="#09265E"/>
<path d="M18.6253 31.6892L17.3012 32.4658C17.1453 32.5573 17.0286 32.7024 16.9733 32.8736C16.918 33.0449 16.9279 33.2303 17.0011 33.3948C17.0618 33.5319 17.1634 33.6473 17.2922 33.7254C17.421 33.8034 17.5708 33.8404 17.7214 33.8313L50.5663 31.8645C50.6131 31.8645 50.658 31.846 50.6911 31.8132C50.7242 31.7803 50.7428 31.7357 50.7428 31.6892C50.7428 31.6427 50.7242 31.5981 50.6911 31.5653C50.658 31.5324 50.6131 31.5139 50.5663 31.5139L40.579 30.8706H26.5081L17.2217 28.9914C17.03 28.9529 16.8348 28.9335 16.6391 28.9336H15.6328L17.0681 31.144L18.6253 31.6892Z" fill="#09265E"/>
<path d="M22.5981 31.1948L17.6883 30.0607C17.434 30.0022 17.2072 29.8597 17.0452 29.6565C16.8832 29.4533 16.7956 29.2015 16.7967 28.9423C16.7455 28.9423 16.6926 28.9423 16.6414 28.9423H10.7835C10.7397 28.9406 10.6963 28.9518 10.6587 28.9744C10.6212 28.997 10.5912 29.03 10.5724 29.0694C10.5536 29.1088 10.5468 29.1528 10.553 29.1959C10.5591 29.2391 10.5779 29.2795 10.607 29.3122L12.3724 31.3421L10.607 33.6489L22.5557 31.9959C22.652 31.985 22.7413 31.9406 22.8077 31.8705C22.8741 31.8004 22.9133 31.7093 22.9184 31.6132C22.9235 31.5171 22.8941 31.4223 22.8354 31.3457C22.7768 31.2691 22.6927 31.2157 22.5981 31.1948Z" fill="#09265E"/>
<path d="M9.39156 31.7751L10.329 31.9223C10.3946 31.9327 10.4616 31.9289 10.5254 31.911C10.5893 31.8931 10.6485 31.8617 10.6989 31.8188C10.7493 31.776 10.7897 31.7227 10.8173 31.6628C10.8449 31.6029 10.859 31.5377 10.8587 31.4718V31.1913C10.859 31.1254 10.8449 31.0603 10.8173 31.0004C10.7897 30.9404 10.7493 30.8872 10.6989 30.8443C10.6485 30.8015 10.5893 30.77 10.5254 30.7521C10.4616 30.7343 10.3946 30.7304 10.329 30.7408L9.38803 30.8811C9.27901 30.8967 9.17933 30.9509 9.10732 31.0336C9.03531 31.1164 8.99582 31.2222 8.9961 31.3316C8.99763 31.4403 9.03838 31.5448 9.11095 31.6262C9.18352 31.7076 9.28309 31.7604 9.39156 31.7751Z" fill="#09265E"/>
<path opacity="0.5" d="M29.6064 30.8074L28.789 31.7469C28.623 31.9345 28.5314 32.1756 28.5312 32.4253V36.0697C28.5315 36.2053 28.5586 36.3395 28.6111 36.4647C28.6636 36.5898 28.7403 36.7035 28.8371 36.7992C28.9338 36.8949 29.0486 36.9708 29.1748 37.0225C29.3011 37.0742 29.4363 37.1006 29.5729 37.1004H41.225V32.0309L40.5806 30.8705L29.6064 30.8074Z" fill="#09265E"/>
<path d="M43.9729 35.3123H10.5577C10.4678 35.3123 10.3816 35.2769 10.318 35.2138C10.2545 35.1506 10.2188 35.065 10.2188 34.9758C10.2187 34.8863 10.2544 34.8006 10.3179 34.7372C10.3814 34.6738 10.4677 34.6379 10.5577 34.6375H43.9729C44.0631 34.6379 44.1495 34.6737 44.2133 34.7371C44.2771 34.8004 44.3131 34.8862 44.3136 34.9758C44.3131 35.0652 44.277 35.1508 44.2132 35.2139C44.1493 35.2769 44.0629 35.3123 43.9729 35.3123Z" fill="#09265E"/>
<path d="M10.2266 35.0303C10.2395 35.1089 10.2802 35.1805 10.3413 35.2321C10.4024 35.2838 10.48 35.3123 10.5602 35.3125H43.9754C44.0557 35.3126 44.1335 35.2843 44.1947 35.2326C44.2559 35.1808 44.2964 35.1091 44.309 35.0303H10.2266Z" fill="#09265E"/>
<path d="M12.0353 30.6338L17.0686 31.1492C17.1054 31.1547 17.1389 31.1731 17.1631 31.2011C17.1873 31.2291 17.2006 31.2648 17.2006 31.3017C17.2006 31.3385 17.1873 31.3742 17.1631 31.4022C17.1389 31.4302 17.1054 31.4486 17.0686 31.4542L12.1076 32.0309L11.2461 31.3297L12.0353 30.6338Z" fill="#09265E"/>
<path d="M10.2137 28.5707C10.1956 28.5502 10.1737 28.5335 10.1491 28.5214C10.1245 28.5094 10.0977 28.5022 10.0703 28.5004C10.0429 28.4987 10.0155 28.5022 9.98949 28.511C9.96351 28.5197 9.93951 28.5335 9.91888 28.5514C9.89825 28.5694 9.88138 28.5912 9.86923 28.6156C9.85709 28.6401 9.84991 28.6666 9.84811 28.6938C9.8463 28.721 9.84991 28.7483 9.85872 28.7741C9.86753 28.7999 9.88138 28.8237 9.89946 28.8442L11.4884 30.6462H10.4291V32.031H11.5855L10.1237 33.9347C10.1069 33.9563 10.0946 33.981 10.0874 34.0073C10.0803 34.0337 10.0785 34.0612 10.0821 34.0882C10.0857 34.1153 10.0947 34.1413 10.1085 34.1649C10.1223 34.1885 10.1406 34.2092 10.1625 34.2257C10.1989 34.2535 10.2437 34.2683 10.2896 34.2677C10.3217 34.2679 10.3533 34.2607 10.3821 34.2467C10.4109 34.2327 10.436 34.2123 10.4556 34.1871L12.6518 31.3281L10.2137 28.5707Z" fill="#09265E"/>
<path d="M10.2137 28.5707C10.1956 28.5502 10.1737 28.5335 10.1491 28.5214C10.1245 28.5094 10.0977 28.5022 10.0703 28.5004C10.0429 28.4987 10.0155 28.5022 9.98949 28.511C9.96351 28.5197 9.93951 28.5335 9.91888 28.5514C9.89825 28.5694 9.88138 28.5912 9.86923 28.6156C9.85709 28.6401 9.84991 28.6666 9.84811 28.6938C9.8463 28.721 9.84991 28.7483 9.85872 28.7741C9.86753 28.7999 9.88138 28.8237 9.89946 28.8442L11.4884 30.6462H10.4291V32.031H11.5855L10.1237 33.9347C10.1069 33.9563 10.0946 33.981 10.0874 34.0073C10.0803 34.0337 10.0785 34.0612 10.0821 34.0882C10.0857 34.1153 10.0947 34.1413 10.1085 34.1649C10.1223 34.1885 10.1406 34.2092 10.1625 34.2257C10.1989 34.2535 10.2437 34.2683 10.2896 34.2677C10.3217 34.2679 10.3533 34.2607 10.3821 34.2467C10.4109 34.2327 10.436 34.2123 10.4556 34.1871L12.6518 31.3281L10.2137 28.5707Z" fill="#09265E"/>
<path d="M11.3491 29.8555H10.793L11.4815 30.6338H12.0376L11.3491 29.8555Z" fill="#09265E"/>
<path d="M12.1118 32.031H11.5857L11.2891 32.4167H11.8152L12.1118 32.031Z" fill="#09265E"/>
<path d="M10.4297 31.6891H12.3735L12.6507 31.3297L12.6471 31.3245H10.4297V31.6891Z" fill="#09265E"/>
<path d="M12.4353 31.0842H10.4297V31.3244H12.6471L12.4353 31.0842Z" fill="#09265E"/>
<path d="M25.0819 29.8766C25.0674 29.8768 25.0531 29.8725 25.0412 29.8643L24.6422 29.5768C24.6273 29.5661 24.6172 29.55 24.6142 29.5319C24.6112 29.5138 24.6156 29.4953 24.6264 29.4804C24.6371 29.4655 24.6534 29.4555 24.6716 29.4526C24.6898 29.4496 24.7085 29.454 24.7235 29.4646L25.1242 29.7521C25.1386 29.7633 25.1483 29.7794 25.1512 29.7972C25.1541 29.8151 25.1502 29.8334 25.1401 29.8485C25.1332 29.8573 25.1243 29.8644 25.1142 29.8692C25.1041 29.8741 25.0931 29.8766 25.0819 29.8766Z" fill="#09265E"/>
<path d="M43.4285 38.2134C43.3915 38.2134 43.3561 38.1988 43.3299 38.1728C43.3038 38.1469 43.2891 38.1116 43.2891 38.0749C43.2891 38.0382 43.3038 38.003 43.3299 37.977C43.3561 37.951 43.3915 37.9364 43.4285 37.9364C43.9165 37.9357 44.3945 37.7987 44.8078 37.5411C45.2211 37.2835 45.5531 36.9157 45.766 36.4797L46.6488 34.6444C46.812 34.3033 47.069 34.0149 47.3901 33.8124C47.7111 33.6099 48.0833 33.5015 48.4637 33.4998H51.0907C51.4751 33.4997 51.8463 33.6393 52.1341 33.8924L52.7008 34.4008C52.9261 34.598 53.2161 34.7071 53.5165 34.7075C53.5534 34.7075 53.5889 34.7221 53.6151 34.7481C53.6412 34.7741 53.6559 34.8093 53.6559 34.846C53.6559 34.8827 53.6412 34.918 53.6151 34.9439C53.5889 34.9699 53.5534 34.9845 53.5165 34.9845C53.1508 34.9832 52.7982 34.8499 52.5243 34.6094L51.9505 34.1063C51.7139 33.898 51.4086 33.7833 51.0925 33.7837H48.4637C48.1379 33.7845 47.8189 33.8764 47.5432 34.0487C47.2675 34.2211 47.0463 34.467 46.9048 34.7584L46.022 36.5954C45.7862 37.0796 45.4179 37.488 44.9592 37.7741C44.5006 38.0602 43.9702 38.2125 43.4285 38.2134Z" fill="#09265E"/>
<path d="M57.6934 35.1529H53.4228C53.3781 35.1531 53.3338 35.1446 53.2925 35.1278C53.2512 35.1109 53.2136 35.0862 53.1819 35.0549C53.1503 35.0236 53.1251 34.9865 53.108 34.9455C53.0909 34.9046 53.082 34.8607 53.082 34.8163C53.082 34.772 53.0909 34.7281 53.108 34.6871C53.1251 34.6462 53.1503 34.609 53.1819 34.5777C53.2136 34.5464 53.2512 34.5217 53.2925 34.5049C53.3338 34.488 53.3781 34.4795 53.4228 34.4797H57.6934C57.7381 34.4795 57.7824 34.488 57.8237 34.5049C57.865 34.5217 57.9026 34.5464 57.9343 34.5777C57.9659 34.609 57.9911 34.6462 58.0082 34.6871C58.0254 34.7281 58.0342 34.772 58.0342 34.8163C58.0342 34.8607 58.0254 34.9046 58.0082 34.9455C57.9911 34.9865 57.9659 35.0236 57.9343 35.0549C57.9026 35.0862 57.865 35.1109 57.8237 35.1278C57.7824 35.1446 57.7381 35.1531 57.6934 35.1529Z" fill="#09265E"/>
<path d="M53.0859 34.8706C53.0993 34.9494 53.1403 35.021 53.2017 35.0726C53.2631 35.1243 53.3409 35.1527 53.4214 35.1528H57.6921C57.7725 35.1527 57.8504 35.1243 57.9118 35.0726C57.9732 35.021 58.0142 34.9494 58.0275 34.8706H53.0859Z" fill="#09265E"/>
<path d="M53.6986 35.146H57.9711C58.2431 35.146 58.504 35.2533 58.6964 35.4443C58.8888 35.6353 58.9968 35.8943 58.9968 36.1644V36.366C58.9968 36.6361 58.8888 36.8952 58.6964 37.0862C58.504 37.2772 58.2431 37.3845 57.9711 37.3845H54.5902C54.4434 37.3845 54.2981 37.3558 54.1625 37.3C54.0269 37.2443 53.9037 37.1625 53.8 37.0595C53.6962 36.9565 53.6139 36.8341 53.5577 36.6995C53.5016 36.5649 53.4727 36.4206 53.4727 36.2749V35.3704C53.4727 35.3109 53.4965 35.2538 53.5388 35.2117C53.5812 35.1696 53.6387 35.146 53.6986 35.146Z" fill="#09265E"/>
<path opacity="0.3" d="M53.4727 36.1643C53.4734 36.3466 53.5157 36.5263 53.5962 36.6902H58.9138C58.97 36.5545 58.9988 36.4091 58.9986 36.2624C58.999 36.1537 58.9829 36.0456 58.9509 35.9417H53.478L53.4727 36.1643Z" fill="#09265E"/>
<path opacity="0.6" d="M53.4727 35.3932V35.7227H58.8574C58.76 35.548 58.6172 35.4024 58.444 35.301C58.2707 35.1996 58.0733 35.1461 57.8722 35.146H53.7216C53.6556 35.146 53.5922 35.172 53.5456 35.2184C53.4989 35.2647 53.4727 35.3276 53.4727 35.3932Z" fill="#09265E"/>
<path d="M53.4727 35.9435H58.9456C58.9243 35.8698 58.8947 35.7986 58.8574 35.7314H53.4727V35.9435Z" fill="#DBF3EF"/>
<path opacity="0.5" d="M21.6851 33.0037L44.1791 31.1035L40.5793 30.8704H27.3965L21.5951 32.5006C21.5279 32.5124 21.4682 32.5503 21.4292 32.6059C21.3901 32.6614 21.3748 32.7301 21.3868 32.7968C21.3987 32.8635 21.4369 32.9228 21.4928 32.9616C21.5488 33.0004 21.618 33.0155 21.6851 33.0037Z" fill="#09265E"/>
<path d="M29.7648 32.3359H31.306C31.3477 32.3359 31.3877 32.3524 31.4171 32.3816C31.4466 32.4109 31.4632 32.4506 31.4632 32.4919V32.5235C31.4632 32.5649 31.4466 32.6046 31.4171 32.6338C31.3877 32.6631 31.3477 32.6795 31.306 32.6795H29.7648C29.7236 32.6795 29.6841 32.6633 29.6549 32.6343C29.6258 32.6054 29.6094 32.5662 29.6094 32.5253V32.4937C29.6089 32.4732 29.6126 32.4527 29.6202 32.4336C29.6278 32.4145 29.6392 32.397 29.6537 32.3824C29.6681 32.3677 29.6854 32.356 29.7045 32.348C29.7236 32.34 29.7441 32.3359 29.7648 32.3359Z" fill="#09265E"/>
<path d="M29.1599 27.3926C29.1454 27.3928 29.1312 27.3885 29.1193 27.3803L28.7662 27.1244C28.7589 27.1189 28.7527 27.1122 28.7481 27.1044C28.7434 27.0966 28.7403 27.088 28.739 27.0791C28.7377 27.0701 28.7382 27.061 28.7404 27.0522C28.7426 27.0434 28.7466 27.0352 28.7521 27.0279C28.7575 27.0207 28.7643 27.0146 28.7722 27.0099C28.78 27.0053 28.7887 27.0023 28.7977 27.001C28.8067 26.9997 28.8159 27.0001 28.8247 27.0024C28.8335 27.0046 28.8418 27.0085 28.8492 27.0139L29.2022 27.2681C29.2176 27.2784 29.2282 27.2943 29.2318 27.3124C29.2355 27.3304 29.2318 27.3491 29.2217 27.3645C29.2147 27.3741 29.2053 27.3817 29.1945 27.3866C29.1837 27.3915 29.1717 27.3936 29.1599 27.3926Z" fill="#09265E"/>
<path d="M28.8036 27.3187C29.0222 27.1133 29.3064 26.9997 29.601 27H38.6507C38.8641 26.9998 39.0735 27.0593 39.2571 27.1724L43.6634 29.8854C43.7729 29.9532 43.8714 30.0386 43.9551 30.1386L45 31.3827L42.4611 33L42.6227 31.8192L42.4548 31.219C42.3205 30.7504 42.0334 30.3452 41.6428 30.0731L39.2886 28.4231C38.9533 28.1878 38.5579 28.0623 38.1534 28.0629H28L28.8036 27.3187Z" fill="#09265E"/>
</g>
<defs>
<clipPath id="clip0_1042_68">
<rect width="50" height="13.75" fill="white" transform="translate(9 27)"/>
</clipPath>
</defs>
</svg>
