<svg width="68" height="68" viewBox="0 0 68 68" fill="none" xmlns="http://www.w3.org/2000/svg">
<path opacity="0.2" fill-rule="evenodd" clip-rule="evenodd" d="M33.6554 67.3108C52.2428 67.3108 67.3108 52.2428 67.3108 33.6554C67.3108 15.068 52.2428 0 33.6554 0C15.068 0 0 15.068 0 33.6554C0 52.2428 15.068 67.3108 33.6554 67.3108Z" fill="#7FF6E1"/>
<path fill-rule="evenodd" clip-rule="evenodd" d="M29.7604 22.0006C31.1679 21.9953 32.4806 22.0227 33.6156 22.0952C35.0629 22.1877 36.5377 22.3391 37.9069 22.8303C40.6525 23.8152 45.5357 26.9191 45.5357 26.9191C45.6858 27.0986 54.6964 28.1008 57.6349 29.8754C58.6935 30.5147 59.169 34.0672 58.9462 34.8375C58.3432 36.923 54.3901 38.397 53.9396 38.3907L53.2376 38.3808L53.2371 38.3818L51.9463 38.3641C51.9564 38.2386 51.9616 38.1127 51.9621 37.9868C51.9621 36.677 51.4421 35.4208 50.5165 34.4946C49.5909 33.5684 48.3356 33.0481 47.0267 33.0481C45.7178 33.0481 44.4625 33.5684 43.537 34.4946C42.6115 35.4208 42.0915 36.677 42.0915 37.9868C42.0935 38.0678 42.0976 38.1487 42.1036 38.2294L23.8218 37.9793C23.8197 36.6708 23.2989 35.4166 22.3737 34.4921C21.4484 33.5675 20.1944 33.0482 18.8869 33.0481C17.6031 33.0488 16.3702 33.5502 15.4497 34.4457C14.5292 35.3411 13.9936 36.5603 13.9566 37.8445L13.1569 37.8335L13.1604 37.8156L10.4902 37.778C10.4902 37.778 8.98088 34.2549 9.00019 32.3869C9.03396 29.1187 11.8013 23.0142 11.8013 23.0142C11.8013 23.0142 22.1603 22.0295 29.7604 22.0006Z" fill="#09265E" stroke="#09265E" stroke-width="0.99026"/>
<path d="M18.9925 42.125C16.8612 42.125 15.1335 40.396 15.1335 38.2632C15.1335 36.1304 16.8612 34.4014 18.9925 34.4014C21.1238 34.4014 22.8516 36.1304 22.8516 38.2632C22.8516 40.396 21.1238 42.125 18.9925 42.125Z" fill="#09265E" stroke="#09265E" stroke-width="0.860726"/>
<path d="M52.6254 29.3918C53.8822 29.3756 56.7747 30.4651 58.3338 30.8652C58.5361 31.2602 58.7025 31.751 58.832 32.265L55.0091 31.5693C54.8683 31.5437 51.9913 30.6649 52.0161 29.7462C52.0228 29.499 52.2519 29.3966 52.6254 29.3918Z" fill="#DBF3EF"/>
<path fill-rule="evenodd" clip-rule="evenodd" d="M27.5798 22.4829C28.0389 22.4716 28.4926 22.4671 28.9405 22.4678L29.5433 27.4051L18.332 27.4512L19.7686 23.1237C16.7016 23.5221 14.4261 23.9928 14.2988 24.2036L14.2956 24.2004C14.1759 23.862 21.2644 22.6386 27.5798 22.4829ZM30.5471 22.5001C31.5526 22.5414 32.4984 22.6228 33.3419 22.7555C34.3213 22.9096 35.3253 23.0351 36.2438 23.4087C39.1864 24.6055 44.3633 27.4591 44.3633 27.4591L31.1689 27.4575L30.5471 22.5001Z" fill="#DBF3EF" stroke="#09265E" stroke-width="1.05259"/>
<path d="M30.2547 29.1145H32.5335C32.7307 29.1145 32.8906 29.2745 32.8906 29.4719V29.5385C32.8906 29.7359 32.7307 29.8959 32.5335 29.8959H30.2547C30.0575 29.8959 29.8976 29.7359 29.8976 29.5385V29.4719C29.8976 29.2745 30.0575 29.1145 30.2547 29.1145Z" fill="#DBF3EF"/>
<path d="M17.9735 28.9294H20.2522C20.4495 28.9294 20.6094 29.0895 20.6094 29.2868V29.3534C20.6094 29.5508 20.4495 29.7108 20.2522 29.7108H17.9735C17.7762 29.7108 17.6163 29.5508 17.6163 29.3534V29.2868C17.6163 29.0895 17.7762 28.9294 17.9735 28.9294Z" fill="#DBF3EF"/>
<path d="M12.256 27.2107C12.4539 27.2107 12.6133 27.3702 12.6133 27.5682V28.7936C12.6133 28.9916 12.4539 29.1511 12.256 29.1511H9.56478C9.75198 28.4989 9.96502 27.8425 10.1862 27.2107H12.256Z" fill="#DBF3EF"/>
<path d="M47.1292 42.2981C44.998 42.2981 43.2702 40.5691 43.2702 38.4363C43.2702 36.3035 44.998 34.5745 47.1292 34.5745C49.2605 34.5745 50.9883 36.3035 50.9883 38.4363C50.9883 40.5691 49.2605 42.2981 47.1292 42.2981Z" fill="#09265E" stroke="#09265E" stroke-width="0.860726"/>
</svg>
