<svg width="68" height="68" viewBox="0 0 68 68" fill="none" xmlns="http://www.w3.org/2000/svg">
<path opacity="0.2" fill-rule="evenodd" clip-rule="evenodd" d="M33.6554 67.3108C52.2428 67.3108 67.3108 52.2428 67.3108 33.6554C67.3108 15.068 52.2428 0 33.6554 0C15.068 0 0 15.068 0 33.6554C0 52.2428 15.068 67.3108 33.6554 67.3108Z" fill="#7FF6E1"/>
<path fill-rule="evenodd" clip-rule="evenodd" d="M10.1267 24.1629C10.4359 22.6972 11.3068 22.0354 12.6171 22.0029H38.1231C39.8769 22.0029 42.8271 21.8893 44.2391 23.0748C46.64 24.7841 48.5078 27.813 50.5342 29.7862C52.1823 29.9974 55.9952 30.5617 56.8741 31.3413C57.8873 32.2426 57.8751 35.1456 57.8629 36.3759C59.747 36.3393 58.986 40.8907 57.7653 41.1506H55.1406C56.8253 31.1423 42.526 32.3847 44.6827 41.1506H25.6956C27.9052 32.7583 13.8175 30.8013 15.1725 41.2562C14.1227 41.1506 13.5855 41.045 12.5357 40.9395C10.5214 40.7365 9.06868 40.8055 9.06868 38.1745C8.8815 32.9613 9.02799 28.085 10.1267 24.1629ZM20.3405 37.9837C19.1848 37.9837 18.2489 38.9175 18.2489 40.0706C18.2489 41.2237 19.1848 42.1575 20.3405 42.1575C21.4961 42.1575 22.4321 41.2237 22.4321 40.0706C22.4321 38.9216 21.4961 37.9837 20.3405 37.9837ZM39.6002 23.8138H42.2208C43.9583 23.8138 46.2778 26.3189 47.5922 28.7874C47.7265 29.0392 48.7723 30.7647 48.0723 30.7647H39.6043V30.5008V24.0777V23.8138H39.6002ZM50.0012 37.9837C48.8455 37.9837 47.9096 38.9175 47.9096 40.0706C47.9096 41.2237 48.8455 42.1575 50.0012 42.1575C51.1568 42.1575 52.0928 41.2237 52.0928 40.0706C52.0928 38.9216 51.1568 37.9837 50.0012 37.9837ZM50.0012 35.8237C47.6491 35.8237 45.7447 37.7238 45.7447 40.0706C45.7447 42.4174 47.6491 44.3175 50.0012 44.3175C52.3532 44.3175 54.2576 42.4174 54.2576 40.0706C54.2576 37.7279 52.3491 35.8237 50.0012 35.8237ZM20.3405 35.8237C17.9885 35.8237 16.084 37.7238 16.084 40.0706C16.084 42.4174 17.9885 44.3175 20.3405 44.3175C22.6925 44.3175 24.5969 42.4174 24.5969 40.0706C24.5969 37.7279 22.6925 35.8237 20.3405 35.8237Z" fill="#09265E"/>
</svg>
