<svg width="68" height="68" viewBox="0 0 68 68" fill="none" xmlns="http://www.w3.org/2000/svg">
<path opacity="0.2" fill-rule="evenodd" clip-rule="evenodd" d="M33.6554 67.3108C52.2428 67.3108 67.3108 52.2428 67.3108 33.6554C67.3108 15.068 52.2428 0 33.6554 0C15.068 0 0 15.068 0 33.6554C0 52.2428 15.068 67.3108 33.6554 67.3108Z" fill="#7FF6E1"/>
<path fill-rule="evenodd" clip-rule="evenodd" d="M8.79413 32.1947C8.76731 29.5742 8.98181 27.795 9.66404 27.6392L13.1943 27.1594C15.6909 25.9535 18.2917 24.4547 20.5737 23.8502C22.3255 23.4857 24.1785 23.2644 26.1656 23.2271C30.1666 23.2956 34.6145 23.0089 37.4417 23.9967C40.1349 25.296 42.7893 26.6826 45.3246 28.3091C48.7447 28.5553 55.7248 29.5493 56.7407 30.7084C57.2442 31.4189 57.6494 32.1823 57.84 33.0578C58.2839 33.2479 58.2512 33.9365 58.0694 34.781L58.0218 36.5072L56.3266 37.227L52.981 37.6601L52.1111 37.9C50.848 40.9973 46.1587 40.614 44.8688 37.7536L43.8142 37.9467L25.0186 37.7536L24.7892 38.0901L23.3235 38.0433C22.3404 41.206 16.7187 41.4958 15.8518 37.6102H15.1189L12.9173 37.2768L9.57169 36.797C8.66006 36.2299 8.27873 35.803 8.19531 35.454L8.42471 35.1175L8.24298 33.2012C8.36513 32.5499 8.47834 32.3412 8.79413 32.1947ZM29.1001 23.978C27.0832 23.9811 25.111 24.059 23.3384 24.4672L23.7525 28.1378L29.9789 28.3621C30.2351 28.306 30.5033 28.2624 30.4526 27.8044L29.8032 23.978C29.5678 23.9749 29.3354 23.978 29.1001 23.978ZM23.0405 24.5389C21.8458 24.8411 20.7465 25.3085 19.7932 26.0158C19.4148 26.2807 19.2778 26.5923 19.2927 26.9413C19.4685 27.7327 19.9153 28.0536 20.5618 28.0225L23.4546 28.1253L23.0405 24.5389ZM31.1617 24.0091L32.4904 27.9602C32.6572 28.2468 32.9015 28.4618 33.3484 28.4868L39.8131 28.7641C38.8926 28.1066 39.6493 26.8945 40.5818 27.1594C38.833 25.6357 36.9353 24.6697 34.8826 24.2865C33.6761 24.0839 32.4218 24.0403 31.1617 24.0091ZM9.74746 27.929C9.21717 28.1284 9.08906 29.5431 9.06523 31.2786L10.8021 31.2631C10.8676 30.6554 10.8795 30.0478 10.808 29.4402C10.6382 28.3777 10.1616 28.2468 9.74746 27.929ZM21.2619 29.5555H22.9034C23.0315 29.5555 23.1388 29.6677 23.1388 29.8017C23.1388 29.9388 23.0315 30.0478 22.9034 30.0478H21.2619C21.1308 30.0478 21.0266 29.9388 21.0266 29.8017C21.0266 29.6677 21.1308 29.5555 21.2619 29.5555ZM32.5827 29.8391H34.2242C34.3553 29.8391 34.4596 29.9481 34.4596 30.0852C34.4596 30.2223 34.3553 30.3314 34.2242 30.3314H32.5827C32.4516 30.3314 32.3474 30.2223 32.3474 30.0852C32.3474 29.9481 32.4516 29.8391 32.5827 29.8391ZM22.3791 36.4511C22.3791 38.0215 21.1606 39.2959 19.6591 39.2959C18.1576 39.2959 16.9391 38.0215 16.9391 36.4511C16.9391 34.8807 18.1576 33.6062 19.6591 33.6062C21.1606 33.6062 22.3791 34.8807 22.3791 36.4511ZM51.408 36.0896C51.408 37.6601 50.1896 38.9345 48.6881 38.9345C47.1866 38.9345 45.9681 37.6601 45.9681 36.0896C45.9681 34.5192 47.1866 33.2448 48.6881 33.2448C50.1896 33.2448 51.408 34.5192 51.408 36.0896ZM53.6811 32.6528L57.1936 32.6777C56.9225 32.067 56.5739 31.5248 56.0287 31.0823L54.6702 31.1914C54.42 31.2319 54.3157 31.3472 54.2233 31.4687L53.6811 32.6528Z" fill="#09265E"/>
</svg>
