<svg width="17" height="15" viewBox="0 0 17 15" fill="none" xmlns="http://www.w3.org/2000/svg">
<path fill-rule="evenodd" clip-rule="evenodd" d="M15.8721 4.52099H14.3761L13.8381 2.23797C13.4531 0.598992 12.9971 0.325012 10.5541 0.325012H6.0191C3.7741 0.325012 3.24914 0.575992 2.85113 2.23797L2.31311 4.52099H0.830137C-0.0468729 4.52099 0.000117123 6.45696 0.607117 6.68499L1.3321 6.95898V13.857C1.3321 14.323 1.67115 14.669 2.12714 14.669H2.88611C3.3421 14.669 3.68115 14.323 3.68115 13.857V12.769C6.19513 12.84 10.5661 12.84 13.0211 12.769V13.857C13.0211 14.323 13.3591 14.669 13.8151 14.669H14.5631C15.0071 14.669 15.3581 14.323 15.3581 13.857V6.97198L16.0821 6.68499C16.7251 6.48101 16.7601 4.52099 15.8721 4.52099H15.8721ZM3.80913 9.56499C3.15611 9.56499 2.6411 9.03899 2.6411 8.36998C2.6411 7.67601 3.15611 7.16197 3.80913 7.16197C4.48809 7.16197 5.00212 7.67601 5.00212 8.36998C5.00212 9.03899 4.48808 9.56499 3.80913 9.56499ZM12.7981 9.56499C12.1431 9.56499 11.6181 9.03899 11.6181 8.36998C11.6181 7.67601 12.1431 7.16197 12.7981 7.16197C13.4991 7.16197 14.0021 7.67601 14.0021 8.36998C14.0021 9.03899 13.4991 9.56499 12.7981 9.56499Z" fill="#979CB6"/>
</svg>
