<svg width="11" height="18" viewBox="0 0 11 18" fill="none" xmlns="http://www.w3.org/2000/svg">
<path fill-rule="evenodd" clip-rule="evenodd" d="M1.25781 4.35297C1.25781 6.26398 2.5578 7.91098 4.43084 8.32798C4.69579 8.39298 4.89379 8.63499 4.89379 8.89799C4.89379 9.16197 4.69579 9.40299 4.43084 9.46897C2.55779 9.88596 1.25781 11.533 1.25781 13.443V15.046H9.45483V13.443C9.45483 11.533 8.15484 9.88596 6.2818 9.46897C6.01782 9.40299 5.81879 9.16196 5.81879 8.89799C5.81879 8.63499 6.01783 8.39299 6.2818 8.32798C8.15485 7.91099 9.45483 6.26398 9.45483 4.35297V2.75098H1.25781V4.35297Z" fill="#979CB6"/>
<path fill-rule="evenodd" clip-rule="evenodd" d="M10.4803 16.071H0.234375V17.095H10.4803V16.071Z" fill="#979CB6"/>
<path fill-rule="evenodd" clip-rule="evenodd" d="M10.4803 0.700989H0.234375V1.72601H10.4803V0.700989Z" fill="#979CB6"/>
</svg>
