<svg width="17" height="18" viewBox="0 0 17 18" fill="none" xmlns="http://www.w3.org/2000/svg">
<path fill-rule="evenodd" clip-rule="evenodd" d="M7.53716 14.893C5.48217 12.179 3.94317 9.75202 3.94317 6.83301C3.94317 4.33701 5.05218 2.14099 6.76721 0.777007C6.46521 0.722987 6.15021 0.695007 5.83417 0.695007C2.68219 0.695007 0.160156 3.42301 0.160156 6.83301C0.160156 10.31 2.68219 13.27 5.83417 17.061C6.42719 16.298 7.0072 15.575 7.53717 14.893H7.53716ZM10.8792 0.722987C7.72618 0.722987 5.20415 3.45001 5.20415 6.85998C5.20415 10.338 7.72618 13.298 10.8792 17.089C14.0312 12.998 16.5531 10.269 16.5531 6.85998C16.5531 3.45001 14.0312 0.722987 10.8792 0.722987ZM10.8792 4.814C11.9252 4.814 12.7712 5.728 12.7712 6.85999C12.7712 7.99201 11.9252 8.905 10.8792 8.905C9.84417 8.905 8.98717 7.99201 8.98717 6.85999C8.98717 5.728 9.83214 4.814 10.8792 4.814Z" fill="#979CB6"/>
</svg>
