<svg width="13" height="13" viewBox="0 0 13 13" fill="none" xmlns="http://www.w3.org/2000/svg">
<path fill-rule="evenodd" clip-rule="evenodd" d="M6.70972 0.622009C3.40772 0.622009 0.722656 3.30801 0.722656 6.60901C0.722656 9.91101 3.40772 12.596 6.70972 12.596C10.0107 12.596 12.6968 9.91101 12.6968 6.60901C12.6968 3.30802 10.0107 0.622009 6.70972 0.622009ZM10.0557 5.034L6.22877 8.82999C6.00367 9.055 5.64381 9.07001 5.40382 8.845L3.3777 7C3.13771 6.77399 3.12282 6.39899 3.33278 6.159C3.55885 5.91901 3.93385 5.904 4.17384 6.129L5.77882 7.60001L9.19972 4.17899C9.44069 3.93799 9.81569 3.93799 10.0557 4.17899C10.2957 4.41901 10.2957 4.79401 10.0557 5.034H10.0557Z" fill="#57A89A"/>
</svg>
