<svg width="134" height="139" viewBox="0 0 134 139" fill="none" xmlns="http://www.w3.org/2000/svg">
<path d="M94.9369 129.972C98.3267 127.215 99.17 122.197 97.6592 116.961C96.8563 114.179 95.3954 111.335 93.2812 108.728C92.8679 108.215 92.4332 107.728 91.9913 107.265C88.0314 103.09 83.1142 100.773 78.8336 100.773C76.5745 100.773 74.4912 101.42 72.8188 102.776C72.5376 103.006 72.6609 103.474 73.0138 103.559C78.8346 104.97 87.2903 112.146 91.3571 119.475L91.4022 119.558C93.345 123.087 94.183 126.405 93.9049 129.371C93.8542 129.911 94.5155 130.314 94.9369 129.972Z" fill="#BDFD2E"/>
<path d="M86.8529 134.805C86.8529 134.804 86.8512 134.803 86.8501 134.804L86.832 134.82L86.8522 134.807C86.8526 134.807 86.8529 134.806 86.8529 134.805Z" fill="url(#paint0_linear)"/>
<path d="M97.5684 59.1836C99.8318 59.1836 101.667 57.3487 101.667 55.0853V42.3218C101.667 42.2967 101.646 42.2764 101.621 42.2764C101.607 42.2764 101.593 42.2835 101.584 42.2956L94.2208 52.721C92.3034 55.4356 94.2448 59.1836 97.5684 59.1836Z" fill="url(#paint1_linear)"/>
<path d="M34.7127 55.9162C39.5397 51.984 39.2166 43.4591 34.2162 36.2291C33.8385 35.6874 33.4442 35.1599 33.019 34.6349C29.6411 30.4746 25.3296 27.8254 21.2699 26.9724C20.3411 26.7776 19.4218 26.6445 18.5333 26.6445C16.7735 26.6445 16.8281 28.9954 18.2938 29.9695C18.5453 30.1367 18.7963 30.3116 19.0464 30.4936C22.5669 33.0548 25.9116 37.0441 28.2752 40.6745C29.7709 42.9742 33.9028 49.8444 33.8977 55.5014C33.8974 55.9153 34.391 56.1768 34.7127 55.9162Z" fill="#BDFD2E"/>
<path d="M88.4237 135.3C88.6876 135.09 88.9355 134.861 89.1785 134.63C89.1868 134.622 89.1942 134.613 89.2004 134.604C89.2115 134.587 89.2259 134.572 89.2429 134.561C89.5454 134.362 89.8452 134.148 90.1293 133.92C90.6103 133.528 91.0052 133.037 91.2817 132.481C93.1435 128.742 92.122 124.263 89.697 120.02C85.1812 112.113 75.8028 105.016 71.1065 105.016C70.3796 105.016 69.7644 105.185 69.2988 105.551L67.7309 106.824L66.8164 107.57L65.6928 108.488C64.6903 109.3 63.543 109.714 62.5381 109.714C61.6972 109.714 60.9561 109.428 60.481 108.842C58.681 106.629 57.1958 104.182 55.7529 101.722C53.2544 97.4624 49.4502 92.0578 44.8741 86.4269C40.2614 80.7576 35.7129 75.9066 32.0383 72.5903C29.97 70.7238 27.927 68.816 26.1695 66.6543C25.1148 65.3617 25.7467 63.1117 27.5758 61.6244L27.9155 61.3464L28.7042 60.7049L30.1508 59.5264L31.493 58.4382C31.6087 58.3397 31.7012 58.2192 31.7563 58.0776C34.1507 51.9113 25.928 37.694 18.1998 31.9654C16.1379 30.4377 14.1116 29.5039 12.3324 29.5039C11.5658 29.5039 10.8728 29.8953 10.2791 30.3804L9.83099 30.7465L9.30838 31.1742L7.65267 32.5166L7.42225 32.7043L6.52432 33.4361L5.95896 33.8994L4.75443 34.8812C4.7322 34.8993 4.72884 34.932 4.74692 34.9542C4.7635 34.9746 4.76226 35.0041 4.74406 35.0231C-6.00861 46.2301 2.46971 76.0517 24.4639 103.092C42.2753 124.993 63.6689 138.584 78.1569 138.584C81.5834 138.584 84.6278 137.822 87.1404 136.229C87.1417 136.228 87.1434 136.229 87.1434 136.23C87.1434 136.232 87.1451 136.233 87.1463 136.232L87.2921 136.128C87.2925 136.127 87.293 136.128 87.293 136.128C87.293 136.129 87.2936 136.129 87.294 136.129L87.2994 136.125C87.3009 136.123 87.3028 136.126 87.3015 136.127C87.3003 136.128 87.302 136.13 87.3036 136.129C87.6848 135.87 88.0613 135.599 88.4237 135.3Z" fill="url(#paint2_linear)"/>
<path d="M86.858 134.801C86.8591 134.8 86.8571 134.798 86.8559 134.799C86.8556 134.799 86.8555 134.8 86.8555 134.8C86.8555 134.802 86.8572 134.802 86.858 134.801Z" fill="white"/>
<path d="M63.9772 51.2981C63.4379 52.1986 62.6944 53.1917 61.7371 54.2823C60.7774 55.3729 59.5184 56.5775 57.953 57.9032L50.1091 64.7222C49.6364 65.1214 49.2634 65.4849 48.9665 65.8152C48.672 66.1478 48.4368 66.4899 48.2467 66.8392C48.0638 67.1908 47.9356 67.59 47.8667 68.0319C47.7954 68.4786 47.7598 69.0132 47.7598 69.6381C47.7598 70.3033 47.812 70.8427 47.9189 71.2584C48.0187 71.6766 48.1897 71.9926 48.4201 72.2112C48.6553 72.4298 48.9618 72.5771 49.3323 72.6508C49.7053 72.7244 50.1495 72.7648 50.6674 72.7648H76.7264C76.9568 72.7648 77.1682 72.7125 77.3559 72.6056C77.5388 72.5011 77.6956 72.3276 77.8072 72.0829C77.9284 71.8382 78.0139 71.5198 78.0709 71.1301C78.1327 70.7429 78.1588 70.2724 78.1588 69.7212C78.1588 69.1938 78.1232 68.7328 78.0543 68.3455C77.983 67.9583 77.8785 67.6446 77.7383 67.407C77.5982 67.1694 77.4295 66.996 77.2347 66.8796C77.0328 66.7679 76.8167 66.7109 76.5862 66.7109H65.6015C63.2726 66.7109 62.2187 63.7988 64.0081 62.3083C66.671 60.1651 68.8065 58.2858 70.4195 56.6654C72.0277 55.045 73.2772 53.5648 74.168 52.2319C75.054 50.8966 75.6384 49.6492 75.9187 48.4921C76.2014 47.3398 76.3392 46.1637 76.3392 44.971C76.3392 43.6072 76.0541 42.3337 75.4793 41.1481C74.9091 39.9648 74.035 38.9432 72.871 38.0807C71.7046 37.2182 70.2366 36.5458 68.4787 36.0612C66.7114 35.5788 64.6542 35.3389 62.2953 35.3389C60.8012 35.3389 59.3616 35.4529 57.9862 35.6786C56.6084 35.9067 55.3447 36.1871 54.1997 36.5173C53.0547 36.85 52.095 37.1897 51.3111 37.539C50.5296 37.8883 49.9903 38.1781 49.7029 38.4062C49.4084 38.6319 49.2064 38.8291 49.09 38.9883C48.9689 39.1475 48.8762 39.34 48.8074 39.5562C48.7385 39.7748 48.6862 40.0314 48.6482 40.3236C48.6126 40.6158 48.5959 40.9817 48.5959 41.4165C48.5959 42.0628 48.6292 42.6069 48.6862 43.0512C48.7432 43.5002 48.8192 43.8519 48.9142 44.1156C49.0069 44.3817 49.128 44.5694 49.2801 44.6835C49.4345 44.7975 49.615 44.8545 49.8264 44.8545C50.1281 44.8545 50.5486 44.7072 51.0854 44.4126C51.6247 44.1204 52.2946 43.7972 53.0998 43.4456C53.9075 43.0963 54.8363 42.7803 55.9029 42.4928C56.9648 42.2101 58.1834 42.0676 59.5612 42.0676C60.5446 42.0676 61.3974 42.1863 62.1219 42.4216C62.8441 42.6592 63.4451 42.987 63.9225 43.4028C64.4024 43.8186 64.7635 44.3057 65.0105 44.8664C65.2576 45.4224 65.3787 46.0164 65.3787 46.6436C65.3787 47.3231 65.2789 48.0431 65.0818 48.801C64.8822 49.5708 64.5188 50.4 63.9772 51.2981Z" fill="white"/>
<path d="M101.758 72.0376C101.823 72.2089 101.918 72.3736 102.078 72.4628C102.204 72.5332 102.365 72.5961 102.56 72.651C102.897 72.7461 103.351 72.8173 103.926 72.8649C104.496 72.91 105.201 72.9361 106.047 72.9361C106.933 72.9361 107.655 72.9124 108.216 72.8649C108.776 72.815 109.232 72.7461 109.584 72.651C109.799 72.5915 109.974 72.5248 110.109 72.4499C110.259 72.3667 110.352 72.2158 110.419 72.0576C110.49 71.8894 110.527 71.7087 110.527 71.5261V69.179C110.527 66.9539 112.331 65.1501 114.556 65.1501C114.979 65.1501 115.311 64.8983 115.558 64.3993C115.803 63.8956 115.924 63.1615 115.924 62.1968C115.924 61.1158 115.789 60.3436 115.523 59.8779C115.252 59.4146 114.931 59.1818 114.556 59.1818C112.331 59.1818 110.527 57.378 110.527 55.1529V37.0474C110.527 36.8383 110.415 36.6578 110.18 36.5081C109.943 36.356 109.577 36.2277 109.076 36.1232C108.572 36.0186 107.902 35.9426 107.061 35.8974C106.22 35.8523 105.204 35.8262 104.016 35.8262C102.918 35.8262 101.982 35.8452 101.218 35.8832C100.443 35.9212 99.8089 35.983 99.3029 36.0661C98.8041 36.1541 98.4098 36.2562 98.1318 36.3798C97.8515 36.5033 97.6496 36.6506 97.5356 36.8217L83.4561 56.965C83.2186 57.3285 83.0261 57.6659 82.8765 57.9867C82.7245 58.3098 82.6057 58.6519 82.5249 59.0107C82.4418 59.3695 82.3871 59.7734 82.3491 60.2177C82.3159 60.662 82.2969 61.1894 82.2969 61.7953C82.2969 62.5342 82.3396 63.1258 82.4204 63.5701C82.4988 64.0168 82.6294 64.3542 82.8052 64.5918C82.981 64.8294 83.1972 64.9791 83.4561 65.048C83.7103 65.1145 84.0048 65.1454 84.3279 65.1454H96.0459C99.1501 65.1454 101.667 67.6619 101.667 70.7661V71.5369C101.667 71.708 101.698 71.8776 101.758 72.0376ZM97.5661 59.1841C94.2426 59.1841 92.3013 55.4361 94.2189 52.7216L101.582 42.2984C101.59 42.2864 101.604 42.2792 101.619 42.2792C101.644 42.2792 101.664 42.2996 101.664 42.3246V55.086C101.664 57.3494 99.8294 59.1841 97.5661 59.1841Z" fill="white"/>
<path d="M35.7894 57.2434L32.3749 60.0131C32.2633 60.1036 32.1443 60.1848 32.0192 60.2556C31.8929 60.3271 31.7729 60.409 31.6604 60.5006L31.2308 60.8501L29.777 62.0333L28.9979 62.67L28.6511 62.9504C27.4633 63.9222 27.164 65.1743 27.4918 65.5758C29.1596 67.6306 31.094 69.45 33.0635 71.2177C36.9316 74.6895 41.61 79.7097 46.1916 85.3485C50.7577 90.9621 54.6974 96.5258 57.3021 100.991C58.6693 103.335 60.0889 105.658 61.8009 107.763C61.9814 107.984 62.371 108.006 62.5325 108.006C63.1834 108.006 63.9578 107.69 64.6063 107.162L65.7347 106.247L66.6492 105.499L68.2384 104.206C68.6052 103.92 69.0069 103.678 69.3679 103.384L71.7399 101.453C73.6616 99.8917 76.1108 99.0672 78.8307 99.0672C83.6767 99.0672 89.0571 101.693 93.2308 106.091C93.7463 106.637 94.1976 107.15 94.6015 107.654C97.833 111.617 103.43 114.138 107.579 111.15C123.012 100.037 133.063 81.9205 133.063 61.4488C133.07 27.6272 105.664 0.21582 71.8539 0.21582C56.7862 0.21582 42.9963 5.66552 32.3346 14.6989C26.9432 19.2669 29.8878 28.0734 34.3498 33.5528C34.7893 34.0992 35.2193 34.6695 35.6207 35.2516C41.2007 43.3227 41.2744 52.779 35.7894 57.2434ZM82.3511 60.2228C82.3891 59.7785 82.4438 59.3746 82.5269 59.0158C82.6053 58.6547 82.7241 58.3149 82.8785 57.9918C83.0282 57.671 83.2206 57.3313 83.4581 56.9701L97.5376 36.8268C97.6516 36.6558 97.8535 36.5085 98.1338 36.3849C98.4094 36.2614 98.8061 36.1592 99.3049 36.0713C99.8085 35.9881 100.445 35.9263 101.22 35.8883C101.987 35.8503 102.92 35.8313 104.018 35.8313C105.206 35.8313 106.222 35.8574 107.063 35.9026C107.904 35.9477 108.574 36.0238 109.078 36.1283C109.579 36.2328 109.945 36.3611 110.182 36.5132C110.417 36.6629 110.529 36.8435 110.529 37.0525V55.1581C110.529 57.3831 112.333 59.1869 114.558 59.1869C114.931 59.1869 115.254 59.4197 115.525 59.8831C115.793 60.3487 115.926 61.1186 115.926 62.202C115.926 63.1666 115.805 63.9008 115.56 64.4045C115.316 64.9034 114.981 65.1553 114.558 65.1553C112.333 65.1553 110.529 66.9591 110.529 69.1841V71.5289C110.529 71.7115 110.492 71.8922 110.421 72.0604C110.354 72.2186 110.261 72.3696 110.111 72.4534C109.977 72.5287 109.802 72.5957 109.586 72.6538C109.234 72.7488 108.778 72.8201 108.218 72.8676C107.657 72.9128 106.935 72.9389 106.049 72.9389C105.206 72.9389 104.5 72.9151 103.928 72.8676C103.353 72.8177 102.899 72.7488 102.562 72.6538C102.363 72.5963 102.199 72.5322 102.072 72.4604C101.917 72.3736 101.826 72.215 101.761 72.0501C101.698 71.8885 101.666 71.7166 101.666 71.5432V70.7533C101.666 67.659 99.1577 65.1505 96.0633 65.1505H84.3275C84.0045 65.1505 83.7099 65.1173 83.4557 65.0531C83.1992 64.9866 82.9806 64.8345 82.8049 64.5969C82.6291 64.3593 82.4984 64.0196 82.42 63.5753C82.3369 63.131 82.2965 62.5394 82.2965 61.8004C82.2989 61.1946 82.3155 60.6671 82.3511 60.2228ZM47.8711 68.0349C47.94 67.593 48.0682 67.1915 48.2511 66.8422C48.4412 66.493 48.6764 66.1532 48.9709 65.8182C49.2655 65.4879 49.6408 65.1244 50.1135 64.7252L57.9573 57.9063C59.5204 56.5805 60.7818 55.3759 61.7415 54.2853C62.6964 53.1948 63.4423 52.1992 63.9816 51.3011C64.5232 50.4006 64.8866 49.5738 65.0862 48.8135C65.2833 48.0579 65.3831 47.3357 65.3831 46.6561C65.3831 46.0289 65.2619 45.4349 65.0149 44.8789C64.7678 44.3182 64.4044 43.8311 63.9269 43.4153C63.4495 42.9996 62.8485 42.6717 62.1263 42.4341C61.4042 42.1965 60.549 42.0801 59.5655 42.0801C58.1878 42.0801 56.9715 42.2226 55.9073 42.5054C54.8431 42.7928 53.9143 43.1088 53.1042 43.4581C52.2966 43.8074 51.6267 44.1305 51.0898 44.4251C50.553 44.7197 50.1325 44.867 49.8308 44.867C49.6194 44.867 49.4389 44.81 49.2845 44.696C49.1324 44.5819 49.0089 44.3919 48.9187 44.1281C48.826 43.8644 48.7476 43.5104 48.6906 43.0637C48.6336 42.6194 48.6003 42.0753 48.6003 41.4291C48.6003 40.9943 48.6193 40.6284 48.6526 40.3361C48.6906 40.0439 48.7429 39.7873 48.8118 39.5687C48.8806 39.3525 48.9733 39.16 49.0944 39.0008C49.2085 38.8416 49.4128 38.6468 49.7073 38.4187C49.9947 38.1906 50.5364 37.9008 51.3155 37.5515C52.0994 37.2022 53.0591 36.8601 54.2041 36.5298C55.3491 36.1996 56.6105 35.9192 57.9906 35.6911C59.366 35.4654 60.8032 35.3514 62.2997 35.3514C64.6586 35.3514 66.7157 35.5937 68.4831 36.0737C70.2409 36.5584 71.709 37.2307 72.8754 38.0932C74.0417 38.9533 74.9159 39.9773 75.4836 41.1606C76.0585 42.3438 76.3436 43.6197 76.3436 44.9835C76.3436 46.1762 76.2034 47.3523 75.9231 48.5046C75.6428 49.6593 75.0608 50.9067 74.1724 52.2444C73.2816 53.5773 72.0321 55.0551 70.4239 56.6779C68.8109 58.2983 66.6754 60.1777 64.0124 62.3208C62.2231 63.8113 63.277 66.7234 65.6059 66.7234H76.5906C76.821 66.7234 77.0372 66.7804 77.2391 66.8921C77.4363 67.0062 77.6049 67.182 77.7427 67.4196C77.8829 67.6572 77.9874 67.9708 78.0586 68.3581C78.1275 68.7453 78.1632 69.2063 78.1632 69.7337C78.1632 70.285 78.137 70.753 78.0753 71.1427C78.0159 71.5323 77.9304 71.8483 77.8116 72.0954C77.6999 72.3402 77.5432 72.516 77.3603 72.6181C77.1726 72.7227 76.9612 72.7773 76.7308 72.7773H50.6718C50.1539 72.7773 49.7121 72.7369 49.3367 72.6633C48.9662 72.5896 48.6573 72.4399 48.4246 72.2237C48.1941 72.0075 48.0231 71.6891 47.9233 71.271C47.8164 70.8552 47.7642 70.3158 47.7642 69.6506C47.7642 69.0162 47.7998 68.4816 47.8711 68.0349Z" fill="url(#paint3_linear)"/>
<defs>
<linearGradient id="paint0_linear" x1="86.8425" y1="134.802" x2="86.8425" y2="134.82" gradientUnits="userSpaceOnUse">
<stop stop-color="#2CADEF"/>
<stop offset="1" stop-color="#282F65"/>
</linearGradient>
<linearGradient id="paint1_linear" x1="95.6615" y1="42.2764" x2="95.6615" y2="59.1836" gradientUnits="userSpaceOnUse">
<stop stop-color="#2CADEF"/>
<stop offset="1" stop-color="#282F65"/>
</linearGradient>
<linearGradient id="paint2_linear" x1="46.1711" y1="29.5039" x2="46.1711" y2="138.584" gradientUnits="userSpaceOnUse">
<stop stop-color="#2CADEF"/>
<stop offset="1" stop-color="#282F65"/>
</linearGradient>
<linearGradient id="paint3_linear" x1="77.7023" y1="0.21582" x2="77.7023" y2="116.212" gradientUnits="userSpaceOnUse">
<stop stop-color="#2CADEF"/>
<stop offset="1" stop-color="#282F65"/>
</linearGradient>
</defs>
</svg>
