<svg width="28" height="27" viewBox="0 0 28 27" fill="none" xmlns="http://www.w3.org/2000/svg">
<path d="M25.1311 10.8216V10.3413C25.1311 4.63379 19.9728 0 13.6192 0C7.26569 0 2.10736 4.63379 2.10736 10.3413V10.8216C0.912143 11.0759 0 12.0648 0 13.2233V16.6704C0 18.0266 1.22667 19.1285 2.73643 19.1285H4.27763C5.78739 19.1285 7.01406 18.0266 7.01406 16.6704V13.2233C7.01406 12.0648 6.10192 11.1042 4.9067 10.8216V10.3413C4.9067 6.01828 8.8069 2.51468 13.6192 2.51468C18.4316 2.51468 22.3318 6.01828 22.3318 10.3413V10.8216C21.1365 11.0759 20.2244 12.0648 20.2244 13.2233V16.6704C20.2244 17.8571 21.168 18.846 22.3947 19.072C21.6083 21.4737 19.3437 23.3385 16.5444 23.7623C16.45 23.169 15.8524 22.6886 15.1604 22.6886H12.1095C11.3232 22.6886 10.6941 23.2537 10.6941 23.9601V25.5706C10.6941 26.277 11.3232 26.8421 12.1095 26.8421H15.1604C15.8839 26.8421 16.4815 26.3335 16.5444 25.6837C20.476 25.2033 23.6528 22.5474 24.5335 19.1285C26.0432 19.1003 27.2385 17.9983 27.2385 16.6704V13.2233C27.2699 12.0648 26.3578 11.0759 25.1311 10.8216Z" fill="#00326F"/>
</svg>
