<svg width="73" height="73" viewBox="0 0 73 73" fill="none" xmlns="http://www.w3.org/2000/svg">
<path opacity="0.2" fill-rule="evenodd" clip-rule="evenodd" d="M36.4532 72.0021C56.1941 72.0021 72.1974 55.9988 72.1974 36.2579C72.1974 16.5169 56.1941 0.513672 36.4532 0.513672C16.7122 0.513672 0.708984 16.5169 0.708984 36.2579C0.708984 55.9988 16.7122 72.0021 36.4532 72.0021Z" fill="#3F95F7"/>
<path fill-rule="evenodd" clip-rule="evenodd" d="M39.2846 19.9522L41.4766 21.5929C42.0756 22.0411 42.7066 22.2711 43.4536 22.3121L46.1866 22.464C47.8226 22.5553 49.1516 23.67 49.5256 25.2662L50.1496 27.9313C50.3206 28.6603 50.6566 29.2413 51.2016 29.754L53.1976 31.6271C54.3926 32.7482 54.6936 34.4571 53.9546 35.9191L52.7196 38.3619C52.3826 39.0299 52.2656 39.691 52.3546 40.4352L52.6796 43.152C52.8736 44.7799 52.0066 46.2823 50.4996 46.9269L47.9836 48.005C47.2956 48.2989 46.7816 48.7311 46.3716 49.357L44.8736 51.6481C43.9766 53.0201 42.3465 53.6129 40.7776 53.1393L38.1575 52.3473C37.4415 52.131 36.7695 52.131 36.0535 52.3473L33.4335 53.1393C31.8645 53.6129 30.2345 53.0201 29.3376 51.6481L27.8395 49.357C27.4295 48.7311 26.9155 48.2989 26.2275 48.005L23.7116 46.9269C22.2046 46.2823 21.3375 44.7789 21.5315 43.152L21.8565 40.4342C21.9455 39.691 21.8285 39.0299 21.4916 38.3619L20.2566 35.9191C19.5165 34.4572 19.8186 32.7482 21.0136 31.6271L23.0086 29.7531C23.5545 29.2413 23.8906 28.6603 24.0616 27.9313L24.6856 25.2662C25.0595 23.67 26.3886 22.5553 28.0245 22.464L30.7575 22.3121C31.5046 22.2711 32.1355 22.0411 32.7345 21.5919L34.9266 19.9523C36.2376 18.9703 37.9725 18.9703 39.2846 19.9523L39.2846 19.9522ZM35.7076 37.1969L33.3296 34.8189C32.7136 34.2022 31.7136 34.2022 31.0976 34.8189C30.4816 35.4352 30.4816 36.4352 31.0976 37.0509L34.5946 40.5479C35.2116 41.1651 36.2106 41.1651 36.8276 40.5479C38.9356 38.44 41.0196 36.3082 43.1176 34.191C43.7296 33.5733 43.7276 32.5772 43.1116 31.963C42.4946 31.3502 41.4946 31.3521 40.8826 31.9703L35.7076 37.1969ZM37.1056 24.503C33.8596 24.503 30.9206 25.8189 28.7936 27.9459C26.6666 30.0733 25.3506 33.0123 25.3506 36.2579C25.3506 39.504 26.6666 42.443 28.7936 44.5699C30.9206 46.6969 33.8596 48.0133 37.1056 48.0133C40.3516 48.0133 43.2906 46.6969 45.4176 44.5699C47.5446 42.443 48.8606 39.504 48.8606 36.2579C48.8606 33.0123 47.5446 30.0733 45.4176 27.9459C43.2906 25.8189 40.3516 24.503 37.1056 24.503ZM44.6046 28.7589C42.6856 26.8399 40.0336 25.6529 37.1056 25.6529C34.1766 25.6529 31.5256 26.8399 29.6066 28.7589C27.6876 30.6783 26.5006 33.3292 26.5006 36.2579C26.5006 39.1861 27.6876 41.838 29.6066 43.7569C31.5256 45.6759 34.1766 46.8629 37.1056 46.8629C40.0336 46.8629 42.6856 45.6759 44.6046 43.7569C46.5236 41.838 47.7106 39.1861 47.7106 36.2579C47.7106 33.3292 46.5236 30.6783 44.6046 28.7589Z" fill="#09265E"/>
</svg>
