<svg width="27" height="18" viewBox="0 0 27 18" fill="none" xmlns="http://www.w3.org/2000/svg">
<path d="M26.6981 0.255012C26.5388 0.0975151 26.3186 0 26.0757 0H0.884222C0.398272 0 0.00401138 0.389777 0.00401138 0.8702C0.00401138 0.871971 0.00501422 0.873316 0.00501422 0.875087C0.00472762 0.883726 0 0.89095 0 0.89966V17.1298C0 17.6102 0.394261 18 0.880211 18H26.1198C26.6057 18 27 17.6102 27 17.1298V0.89966C27 0.64054 26.88 0.414421 26.6981 0.255012ZM13.5 7.97287L3.92807 1.7404H23.0719L13.5 7.97287ZM1.76042 2.4133L8.79243 6.99184L1.76042 14.8708V2.4133ZM10.2774 7.95863L13.0158 9.7416C13.1625 9.83734 13.3315 9.88493 13.5 9.88493C13.6685 9.88493 13.8375 9.83734 13.9842 9.7416L16.7226 7.95863L24.1313 16.2596H2.86871L10.2774 7.95863ZM18.2076 6.99184L25.2396 2.4133V14.8708L18.2076 6.99184Z" fill="#00326F"/>
</svg>
