<svg width="73" height="73" viewBox="0 0 73 73" fill="none" xmlns="http://www.w3.org/2000/svg">
<path opacity="0.2" fill-rule="evenodd" clip-rule="evenodd" d="M36.5528 72.0021C56.2938 72.0021 72.297 55.9988 72.297 36.2579C72.297 16.5169 56.2938 0.513672 36.5528 0.513672C16.8118 0.513672 0.808594 16.5169 0.808594 36.2579C0.808594 55.9988 16.8118 72.0021 36.5528 72.0021Z" fill="#3F95F7"/>
<path fill-rule="evenodd" clip-rule="evenodd" d="M54.4202 39.3052C54.4202 38.5508 55.0322 37.9399 55.7852 37.9399H59.8202C59.1682 30.7461 53.4222 25.001 46.2292 24.3491V28.3838C46.2292 29.1372 45.6172 29.749 44.8642 29.749C44.1102 29.749 43.4992 29.1372 43.4992 28.3838V24.3491C36.3052 25.001 30.5592 30.7461 29.9082 37.9399H33.9422C34.6962 37.9399 35.3082 38.5508 35.3082 39.3052C35.3082 40.0581 34.6962 40.6699 33.9422 40.6699H29.9082C30.5592 47.8638 36.3052 53.6089 43.4992 54.2612V50.2261C43.4992 49.4731 44.1102 48.8608 44.8642 48.8608C45.6172 48.8608 46.2292 49.4731 46.2292 50.2261V54.2612C53.4222 53.6089 59.1682 47.8638 59.8202 40.6699H55.7852C55.0322 40.6699 54.4202 40.0581 54.4202 39.3052ZM50.3242 40.6699H44.8642C44.1102 40.6699 43.4992 40.0581 43.4992 39.3052V33.8442C43.4992 33.0908 44.1102 32.479 44.8642 32.479C45.6172 32.479 46.2292 33.0908 46.2292 33.8442V37.9399H50.3242C51.0782 37.9399 51.6902 38.5508 51.6902 39.3052C51.6902 40.0581 51.0782 40.6699 50.3242 40.6699V40.6699Z" fill="#09265E"/>
<path fill-rule="evenodd" clip-rule="evenodd" d="M25.7516 27.0181H22.8397C22.0856 27.0181 21.4746 26.4072 21.4746 25.6528C21.4746 24.8989 22.0856 24.2881 22.8397 24.2881H25.7516C26.5056 24.2881 27.1166 24.8989 27.1166 25.6528C27.1166 26.4072 26.5056 27.0181 25.7516 27.0181Z" fill="#09265E"/>
<path fill-rule="evenodd" clip-rule="evenodd" d="M25.7521 35.209H20.1101C19.3561 35.209 18.7441 34.5981 18.7441 33.8442C18.7441 33.0898 19.3561 32.479 20.1101 32.479H25.7521C26.5061 32.479 27.1171 33.0898 27.1171 33.8442C27.1171 34.5981 26.5061 35.209 25.7521 35.209Z" fill="#09265E"/>
<path fill-rule="evenodd" clip-rule="evenodd" d="M25.7517 43.3999H17.3787C16.6247 43.3999 16.0137 42.7891 16.0137 42.0352C16.0137 41.2808 16.6247 40.6699 17.3787 40.6699H25.7517C26.5057 40.6699 27.1167 41.2808 27.1167 42.0352C27.1167 42.7891 26.5057 43.3999 25.7517 43.3999Z" fill="#09265E"/>
<path fill-rule="evenodd" clip-rule="evenodd" d="M25.7512 51.5913H14.6482C13.8942 51.5913 13.2832 50.9805 13.2832 50.2266C13.2832 49.4726 13.8942 48.8613 14.6482 48.8613H25.7512C26.5052 48.8613 27.1162 49.4727 27.1162 50.2266C27.1162 50.9805 26.5052 51.5913 25.7512 51.5913Z" fill="#09265E"/>
<path fill-rule="evenodd" clip-rule="evenodd" d="M44.8641 18.8271C42.9201 18.8271 41.2871 20.1899 40.8711 22.0098C42.1541 21.7139 43.4911 21.5581 44.8641 21.5581C46.2361 21.5581 47.5731 21.7139 48.8561 22.0098C48.4401 20.1899 46.8081 18.8271 44.8641 18.8271Z" fill="#09265E"/>
</svg>
