<svg width="40" height="48" viewBox="0 0 40 48" fill="none" xmlns="http://www.w3.org/2000/svg">
<path fill-rule="evenodd" clip-rule="evenodd" d="M39.6667 19.8334C39.6667 29.0653 33.3591 36.8239 24.8185 39.035C23.0222 43.2007 20.878 47.6002 19.8336 47.6002C18.7892 47.6002 16.645 43.2008 14.8488 39.0351C6.30784 36.8243 0 29.0655 0 19.8334C0 8.87969 8.87969 0 19.8334 0C30.787 0 39.6667 8.87969 39.6667 19.8334ZM19.8336 27.7666C24.2151 27.7666 27.7669 24.2147 27.7669 19.8333C27.7669 15.4518 24.2151 11.8999 19.8336 11.8999C15.4521 11.8999 11.9003 15.4518 11.9003 19.8333C11.9003 24.2147 15.4521 27.7666 19.8336 27.7666Z" fill="white"/>
<circle cx="19.8339" cy="19.8334" r="3.96667" fill="white"/>
</svg>
